<svg width="544" height="469" viewBox="0 0 544 469" fill="none" xmlns="http://www.w3.org/2000/svg">
<path d="M542.33 36.4436C538.07 33.9905 527.095 32.0107 517.799 32.0107C511.688 32.0107 507.858 32.8715 507.169 34.1626C496.281 30.4184 480.959 28.0083 471.836 28.0083C472.567 28.4387 469.21 32.312 464.39 32.312C465.509 32.9576 478.98 40.7473 478.98 40.7473C478.98 40.7473 492.45 48.537 493.569 49.1826C500.111 49.1826 505.62 47.9345 507.384 45.8687L509.923 43.9751C510.225 43.889 510.483 43.846 510.741 43.7599C515.389 44.6637 520.769 45.2232 525.718 45.2232C531.012 45.2232 534.627 44.5776 535.961 43.5877L543.019 39.5422C544.482 38.6815 544.353 37.6056 542.33 36.4436Z" fill="url(#paint0_linear)"/>
<path d="M482.767 28.5248C485.005 28.0944 486.554 25.8565 486.554 22.2844C486.554 16.8617 483.068 10.4061 478.764 7.95302C474.461 5.45687 470.975 7.86695 470.975 13.3327C470.975 16.9047 472.481 20.9072 474.762 23.9198C468.177 22.6717 464.003 26.8033 464.003 32.1399C465.122 32.7854 478.764 40.6612 478.764 40.6612C478.764 40.6612 492.407 48.537 493.526 49.1826C493.526 43.846 489.351 34.8943 482.767 28.5248Z" fill="#D9CEF8"/>
<path d="M468.565 24.5222C470.244 23.7475 472.352 23.4463 474.762 23.9197C474.246 23.2311 473.773 22.4995 473.385 21.7678L468.565 24.5222Z" fill="#F7F6FB"/>
<path d="M490.471 24.3501L484.058 28.0513C483.671 28.2665 483.24 28.4817 482.767 28.5677C489.352 34.9372 493.526 43.8889 493.526 49.2255L501.101 44.8788C501.058 39.5422 496.969 30.6766 490.471 24.3501Z" fill="url(#paint1_linear)"/>
<path d="M490.47 24.3501L491.503 23.7476C493.095 22.8438 494.085 20.8641 494.085 17.9806C494.085 12.5579 490.599 6.14541 486.295 3.64926C484.229 2.44422 482.379 2.40119 481.002 3.26193L473.47 7.60868C474.847 6.74794 476.741 6.83401 478.764 7.99601C483.067 10.4922 486.553 16.9047 486.553 22.3274C486.553 25.1678 485.607 27.1475 484.057 28.0513L490.47 24.3501Z" fill="url(#paint2_linear)"/>
<path d="M202.167 222.063H43.2305V278.398H202.167V222.063Z" fill="url(#paint3_linear)"/>
<path d="M41.8949 276.462C41.8949 278.226 43.143 278.915 44.6493 278.054L125.817 231.187C127.324 230.326 128.572 228.174 128.572 226.409V121.614C128.572 119.85 127.324 119.161 125.817 120.022L44.6493 166.889C43.143 167.75 41.8949 169.902 41.8949 171.666V276.462Z" fill="#F7F6FB"/>
<path d="M42.3265 165.555L123.495 118.688C124.226 118.257 124.915 118.214 125.431 118.472L127.712 119.807C127.196 119.548 126.55 119.548 125.776 120.022L44.6505 166.889C43.1442 167.75 41.8962 169.902 41.8962 171.666V276.462C41.8962 277.279 42.1974 277.882 42.6278 278.183L40.519 276.935C39.9595 276.677 39.6152 276.031 39.6152 275.084V170.332C39.5722 168.568 40.8202 166.416 42.3265 165.555Z" fill="url(#paint4_linear)"/>
<path d="M54.8483 179.413C54.8483 174.808 58.0761 169.213 62.0785 166.932C66.081 164.651 69.3088 166.502 69.3088 171.107C69.3088 175.712 66.081 181.307 62.0785 183.588C58.1191 185.912 54.8483 184.018 54.8483 179.413Z" fill="#ECE8F7"/>
<path d="M62.0789 178.724C61.9067 178.724 61.6915 178.681 61.5194 178.552L57.9903 176.099C57.56 175.798 57.4739 175.195 57.7752 174.765C58.0764 174.335 58.6789 174.248 59.1093 174.55L61.7776 176.4L70.6433 161.036C70.9015 160.606 71.461 160.434 71.9344 160.692C72.3647 160.95 72.5369 161.509 72.2786 161.983L62.8966 178.251C62.7675 178.466 62.5523 178.638 62.2941 178.681C62.208 178.724 62.1649 178.724 62.0789 178.724Z" fill="#8867E9"/>
<path d="M114.843 144.51L72.7953 168.783V167.621L114.843 143.348V144.51Z" fill="#D9CEF8"/>
<path d="M87.7722 164.178L72.7953 172.828V171.666L87.7722 163.016V164.178Z" fill="#D9CEF8"/>
<path d="M54.8483 202.524C54.8483 197.919 58.0761 192.324 62.0785 190.043C66.081 187.762 69.3088 189.613 69.3088 194.218C69.3088 198.823 66.081 204.417 62.0785 206.698C58.1191 209.022 54.8483 207.129 54.8483 202.524Z" fill="#ECE8F7"/>
<path d="M62.0789 201.835C61.9067 201.835 61.6915 201.792 61.5194 201.663L57.9903 199.21C57.56 198.909 57.4739 198.306 57.7752 197.876C58.0764 197.445 58.6789 197.359 59.1093 197.661L61.7776 199.511L70.6433 184.147C70.9015 183.717 71.461 183.544 71.9344 183.803C72.3647 184.061 72.5369 184.62 72.2786 185.094L62.8966 201.362C62.7675 201.577 62.5523 201.749 62.2941 201.792C62.208 201.835 62.1649 201.835 62.0789 201.835Z" fill="#8867E9"/>
<path d="M114.843 167.664L72.7953 191.894V190.732L114.843 166.459V167.664Z" fill="#D9CEF8"/>
<path d="M87.7722 187.289L72.7953 195.939V194.777L87.7722 186.127V187.289Z" fill="#D9CEF8"/>
<path d="M54.8483 225.635C54.8483 221.03 58.0761 215.435 62.0785 213.154C66.081 210.873 69.3088 212.724 69.3088 217.329C69.3088 221.934 66.081 227.528 62.0785 229.809C58.1191 232.133 54.8483 230.24 54.8483 225.635Z" fill="#ECE8F7"/>
<path d="M62.0789 224.946C61.9067 224.946 61.6915 224.903 61.5194 224.774L57.9903 222.321C57.56 222.02 57.4739 221.417 57.7752 220.987C58.0764 220.556 58.6789 220.47 59.1093 220.772L61.7776 222.622L70.6433 207.258C70.9015 206.827 71.461 206.655 71.9344 206.914C72.3647 207.172 72.5369 207.731 72.2786 208.205L62.8966 224.473C62.7675 224.688 62.5523 224.86 62.2941 224.903C62.208 224.946 62.1649 224.946 62.0789 224.946Z" fill="#8867E9"/>
<path d="M114.843 190.775L72.7953 215.048V213.843L114.843 189.57V190.775Z" fill="#D9CEF8"/>
<path d="M87.7722 210.4L72.7953 219.05V217.888L87.7722 209.238V210.4Z" fill="#D9CEF8"/>
<path d="M54.848 248.789C54.848 244.184 58.0758 238.589 62.0783 236.308C66.0807 234.027 69.3085 235.878 69.3085 240.483C69.3085 245.087 66.0807 250.682 62.0783 252.963C58.1189 255.244 54.848 253.351 54.848 248.789Z" fill="#ECE8F7"/>
<path d="M114.843 213.886L72.7953 238.159V236.954L114.843 212.724V213.886Z" fill="#D9CEF8"/>
<path d="M87.7722 233.51L72.7953 242.161V240.999L87.7722 232.349V233.51Z" fill="#D9CEF8"/>
<path d="M497.185 427.092C488.319 421.97 476.57 419.646 465.036 419.99H446.918V422.96C443.475 424.036 440.247 425.413 437.32 427.135C420.837 436.689 420.966 452.225 437.535 461.779C440.376 463.415 443.561 464.749 446.918 465.868V468.967H468.608C479.066 468.794 489.395 466.427 497.357 461.822C513.84 452.182 513.754 436.646 497.185 427.092Z" fill="url(#paint5_linear)"/>
<path d="M418.901 461.736C410.552 456.916 406.377 450.59 406.42 444.306L406.463 437.162C406.463 443.489 410.595 449.815 418.944 454.635C435.513 464.19 462.325 464.19 478.765 454.635C486.942 449.858 491.031 443.661 491.074 437.42L491.031 444.565C491.031 450.805 486.899 457.002 478.722 461.779C462.282 471.291 435.513 471.291 418.901 461.736Z" fill="url(#paint6_linear)"/>
<path d="M418.944 454.592C402.375 445.038 402.289 429.502 418.729 419.947C435.212 410.393 461.981 410.393 478.55 419.947C495.12 429.502 495.206 445.038 478.766 454.592C462.325 464.147 435.513 464.147 418.944 454.592Z" fill="#FF826A"/>
<path d="M433.404 446.028C429.23 443.618 426.475 440.605 425.356 437.291C425.141 436.646 425.873 436 426.992 435.871C428.111 435.742 429.23 436.172 429.445 436.818C430.392 439.658 432.802 442.284 436.374 444.306C440.075 446.458 444.766 447.835 449.93 448.352C451.049 448.481 451.824 449.084 451.609 449.729C451.437 450.375 450.361 450.805 449.199 450.719C443.174 450.159 437.708 448.524 433.404 446.028Z" fill="#E33C5C"/>
<path d="M458.839 440.519C458.667 440.39 458.494 440.261 458.365 440.132C457.935 439.529 458.451 438.798 459.527 438.582C463.702 437.593 466.758 437.636 468.651 438.712C470.459 439.744 470.588 441.466 469.039 443.747C468.608 444.349 467.403 444.694 466.37 444.435C465.294 444.177 464.778 443.489 465.165 442.886C466.241 441.294 465.983 440.562 465.682 440.39C465.38 440.218 464.046 440.089 461.077 440.777C460.302 440.949 459.398 440.82 458.839 440.519Z" fill="#E33C5C"/>
<path d="M442.957 431.352C442.398 431.008 442.183 430.492 442.484 430.061C443.689 428.34 443.431 427.565 443.13 427.393C442.828 427.221 441.58 427.092 438.826 427.694C437.75 427.952 436.545 427.608 436.158 427.006C435.727 426.403 436.287 425.671 437.363 425.456C441.365 424.552 444.292 424.638 446.099 425.671C447.95 426.747 448.036 428.512 446.357 430.922C445.927 431.524 444.722 431.826 443.646 431.567C443.388 431.524 443.173 431.438 442.957 431.352Z" fill="#E33C5C"/>
<path d="M461.55 118.601L445.928 109.607L457.978 102.635C458.064 102.592 458.107 102.549 458.193 102.506L458.236 102.462C460.302 101.128 458.71 98.46 453.373 95.3613C445.712 90.9285 433.275 87.3564 425.571 87.3564C422.903 87.3564 421.181 87.7868 420.364 88.5615L407.926 95.7487C406.032 96.6525 406.247 98.3309 408.614 100.44L393.078 109.434C390.84 109.047 388.731 108.832 386.881 108.832C384.212 108.832 382.491 109.262 381.673 110.037L369.235 117.224C366.567 118.472 368.074 121.27 373.711 124.541C381.372 128.973 393.81 132.545 401.513 132.545C404.096 132.545 405.774 132.158 406.635 131.426L417.781 124.971L434.179 134.439L461.55 118.601Z" fill="url(#paint7_linear)"/>
<path d="M397.555 74.4883C397.555 83.0097 403.537 93.4247 410.939 97.6853C418.342 101.946 424.324 98.503 424.324 89.9387C424.324 81.4173 418.342 71.0023 410.939 66.7416C403.537 62.481 397.555 65.967 397.555 74.4883ZM399.577 75.6503C399.577 68.377 404.656 65.4505 410.939 69.0656C417.223 72.6808 422.301 81.5034 422.301 88.7766C422.301 96.0499 417.223 98.9764 410.939 95.3613C404.656 91.7462 399.577 82.9236 399.577 75.6503Z" fill="#D9CEF8"/>
<path d="M410.939 95.3614C404.656 91.7462 399.577 82.9236 399.577 75.6504C399.577 68.3771 404.656 65.4506 410.939 69.0657C411.197 69.1948 411.455 69.367 411.671 69.5391C412.058 76.2959 416.577 84.1287 422.258 87.8299C422.258 88.1311 422.301 88.4324 422.301 88.7337C422.301 96.05 417.222 98.9765 410.939 95.3614Z" fill="url(#paint8_linear)"/>
<path d="M396.134 73.6707C396.134 83.0958 402.762 94.5867 410.939 99.2778C419.116 104.012 425.744 100.182 425.744 90.7564C425.744 81.3313 419.116 69.8404 410.939 65.1493C402.762 60.4152 396.134 64.2456 396.134 73.6707ZM397.554 74.4884C397.554 65.967 403.537 62.481 410.939 66.7417C418.341 71.0024 424.323 81.3743 424.323 89.9387C424.323 98.4601 418.341 101.946 410.939 97.6854C403.537 93.4247 397.554 83.0097 397.554 74.4884Z" fill="#482E94"/>
<path d="M412.229 57.3596C414.941 55.552 418.771 55.6811 423.075 58.1342C431.252 62.8683 437.879 74.3162 437.879 83.7413C437.879 88.5184 436.158 91.8753 433.403 93.3816L421.525 100.268C424.15 98.7182 425.743 95.4044 425.743 90.7564C425.743 81.3312 419.115 69.8403 410.938 65.1493C406.677 62.6962 402.804 62.5671 400.093 64.3746L412.229 57.3596Z" fill="url(#paint9_linear)"/>
<path d="M420.322 28.826C424.453 28.6108 428.843 30.8487 432.76 35.1094C437.149 39.8865 441.109 47.7623 440.162 54.5191L432.932 53.4862C433.448 49.8711 431.081 44.0611 427.38 40.0587C425.056 37.5195 422.56 36.0132 420.709 36.1423L420.322 28.826Z" fill="url(#paint10_linear)"/>
<path d="M372.42 68.1189C370.096 66.7847 370.096 64.5898 372.42 63.2557L392.131 51.8508C394.455 50.5167 398.242 50.5167 400.566 51.8508L419.804 62.9544C422.128 64.2886 422.128 66.4835 419.804 67.8176L400.093 79.2224C397.769 80.5566 393.981 80.5566 391.657 79.2224L372.42 68.1189Z" fill="#CAC2E3"/>
<path d="M372.42 68.1189C370.096 66.7847 370.096 64.5898 372.42 63.2557L392.131 51.8508C394.455 50.5167 398.242 50.5167 400.566 51.8508L419.804 62.9544C422.128 64.2886 422.128 66.4835 419.804 67.8176L400.093 79.2224C397.769 80.5566 393.981 80.5566 391.657 79.2224L372.42 68.1189Z" fill="#F7F6FB"/>
<path d="M370.656 65.838C370.699 66.6557 371.302 67.4734 372.378 68.1189L391.615 79.2225C393.939 80.5567 397.727 80.5567 400.051 79.2225L419.762 67.8177C420.924 67.1721 421.483 66.2683 421.483 65.4076V85.2047C421.483 87.959 419.159 94.0273 415.2 96.1361L393.38 108.746C393.337 108.789 393.294 108.789 393.251 108.832L393.165 108.875C391.658 109.693 389.593 109.521 387.355 108.23L376.552 101.989C370.398 98.4171 370.613 91.7893 370.613 88.8198V65.838H370.656Z" fill="url(#paint11_linear)"/>
<path d="M370.656 65.838C370.699 66.6557 371.302 67.4734 372.378 68.1189L391.615 79.2225C393.939 80.5567 397.727 80.5567 400.051 79.2225L419.762 67.8177C420.924 67.1721 421.483 66.2683 421.483 65.4076V85.2047C421.483 87.959 419.159 94.0273 415.2 96.1361L393.38 108.746C393.337 108.789 393.294 108.789 393.251 108.832L393.165 108.875C391.658 109.693 389.593 109.521 387.355 108.23L376.552 101.989C370.398 98.4171 370.613 91.7893 370.613 88.8198V65.838H370.656Z" fill="url(#paint12_linear)"/>
<path d="M357.315 97.7714C357.315 106.293 363.297 116.708 370.7 120.968C378.102 125.229 384.084 121.786 384.084 113.222C384.084 104.7 378.102 94.2854 370.7 90.0248C363.297 85.7641 357.315 89.207 357.315 97.7714ZM359.338 98.9334C359.338 91.6602 364.416 88.7336 370.7 92.3487C376.983 95.9639 382.061 104.786 382.061 112.06C382.061 119.333 376.983 122.26 370.7 118.644C364.416 114.986 359.338 106.164 359.338 98.9334Z" fill="#D9CEF8"/>
<path d="M370.699 118.644C364.416 115.029 359.338 106.207 359.338 98.9335C359.338 91.6602 364.416 88.7336 370.699 92.3488C370.958 92.4779 371.216 92.65 371.431 92.8222C371.818 99.579 376.337 107.412 382.018 111.113C382.018 111.414 382.061 111.715 382.061 112.017C382.061 119.333 376.983 122.26 370.699 118.644Z" fill="url(#paint13_linear)"/>
<path d="M355.895 96.9538C355.895 106.379 362.522 117.87 370.699 122.561C378.876 127.295 385.504 123.465 385.504 114.039C385.504 104.614 378.876 93.1235 370.699 88.4324C362.522 83.6983 355.895 87.5286 355.895 96.9538ZM357.315 97.7715C357.315 89.2501 363.297 85.7641 370.699 90.0248C378.102 94.2855 384.084 104.657 384.084 113.222C384.084 121.743 378.102 125.229 370.699 120.968C363.297 116.665 357.315 106.293 357.315 97.7715Z" fill="#482E94"/>
<path d="M371.991 80.5996C374.702 78.7921 378.532 78.9212 382.836 81.4174C391.013 86.1514 397.641 97.5993 397.641 107.024C397.641 111.802 395.919 115.158 393.165 116.665L381.287 123.551C383.912 121.958 385.504 118.687 385.504 114.039C385.504 104.614 378.876 93.1234 370.699 88.4324C366.439 85.9793 362.565 85.8502 359.854 87.6147L371.991 80.5996Z" fill="url(#paint14_linear)"/>
<path d="M365.405 31.3221C365.448 32.1829 366.007 33.0436 367.126 33.6892L386.364 44.7928C388.688 46.1269 392.475 46.1269 394.799 44.7928L425.054 27.3197C426.216 26.6311 426.776 25.7704 426.776 24.8666V60.2001C426.776 61.1038 426.216 61.9646 425.054 62.6532L394.799 80.1263C392.475 81.4604 388.688 81.4604 386.364 80.1263L367.126 69.0227C365.921 68.3341 365.319 67.3873 365.405 66.4404V31.3221Z" fill="url(#paint15_linear)"/>
<path d="M367.17 33.6892C364.846 32.355 364.846 30.1601 367.17 28.826L397.425 11.3529C399.749 10.0188 403.537 10.0188 405.861 11.3529L425.098 22.4565C427.422 23.7906 427.422 25.9855 425.098 27.3197L394.843 44.7928C392.519 46.1269 388.732 46.1269 386.408 44.7928L367.17 33.6892Z" fill="#F7F6FB"/>
<path d="M425.096 22.4565L417.952 18.325L394.109 38.6815C395.616 39.3271 399.747 40.0587 405.041 38.8967L425.096 27.3197C427.377 26.0286 427.377 23.8337 425.096 22.4565Z" fill="url(#paint16_linear)"/>
<path d="M438.009 54.4331C438.482 54.8204 439.128 54.9065 439.73 54.6913C440.849 54.2609 443.13 54.5191 444.077 54.6913C445.067 54.9065 446.014 54.2609 446.229 53.2711C446.401 52.2812 445.799 51.3344 444.809 51.1192C444.421 51.0331 440.849 50.3876 438.482 51.2483C437.535 51.5926 437.062 52.6685 437.406 53.5723C437.535 53.9597 437.751 54.2609 438.009 54.4331Z" fill="#1E1047"/>
<path d="M406.764 77.501C407.367 77.501 407.926 77.458 408.443 77.3719C409.433 77.1998 410.078 76.253 409.906 75.2631C409.734 74.2732 408.787 73.6277 407.797 73.7998C406.549 74.015 404.397 73.7138 403.407 73.4125C402.461 73.1113 401.428 73.6707 401.126 74.6175C400.825 75.5644 401.385 76.5973 402.332 76.8985C403.278 77.1567 405.086 77.501 406.764 77.501Z" fill="#1E1047"/>
<path d="M402.073 74.6605C402.848 74.6605 403.58 74.144 403.795 73.3694C404.182 72.1643 405.473 70.3998 406.205 69.6682C406.937 68.9366 406.937 67.8176 406.205 67.086C405.473 66.3543 404.354 66.3543 403.623 67.086C402.676 68.0328 400.954 70.2707 400.309 72.2934C400.008 73.2403 400.524 74.2732 401.514 74.5744C401.729 74.6605 401.901 74.6605 402.073 74.6605Z" fill="#1E1047"/>
<path d="M379.263 49.699C379.263 47.2889 377.584 44.3623 375.475 43.1573C373.366 41.9523 371.688 42.9421 371.688 45.3522C371.688 47.7623 373.366 50.6888 375.475 51.8939C377.541 53.0989 379.263 52.109 379.263 49.699Z" fill="#2E196F"/>
<path d="M372.248 45.4378C372.248 45.4378 373.927 43.415 374.701 42.8125C374.96 42.8986 375.218 43.0277 375.519 43.1568C377.241 44.1466 378.704 46.3415 379.177 48.4504C378.833 49.182 378.489 49.7415 378.274 49.9567C375.218 53.3996 377.155 58.8223 379.737 62.4374C383.911 68.2905 391.572 72.7663 400.093 69.6677C404.44 70.098 405.731 74.3587 402.934 76.4245C391.228 81.3738 379.608 74.8321 373.798 66.6981C368.246 59.0375 367.945 50.301 372.248 45.4378Z" fill="url(#paint17_linear)"/>
<path d="M413.219 28.8261C415.801 27.3198 417.953 23.6616 417.953 20.649V11.353C417.953 8.34038 415.844 7.13535 413.219 8.64165L396.951 18.0237C394.369 19.53 392.217 23.1882 392.217 26.2008V35.4968C392.217 38.5094 394.325 39.7144 396.951 38.2081L413.219 28.8261Z" fill="#C6BBE6"/>
<path d="M411.625 26.0716C413.347 25.0818 414.767 22.6286 414.767 20.6059V11.3099C414.767 10.7934 414.681 10.32 414.466 9.97574C415.542 9.9327 416.316 10.7504 416.316 12.2137V21.5097C416.316 23.4894 414.896 25.9425 413.174 26.9324L396.906 36.3144C395.658 37.0461 394.539 36.7879 394.066 35.841C394.453 35.841 394.884 35.6689 395.357 35.4107L411.625 26.0716Z" fill="url(#paint18_linear)"/>
<path d="M393.809 25.2539C393.809 23.2742 395.229 20.8211 396.95 19.7882L413.218 10.4061C413.692 10.1479 414.122 10.0187 414.509 9.97571C414.682 10.32 414.811 10.7934 414.811 11.3098V20.6059C414.811 22.5856 413.39 25.0387 411.669 26.0716L395.401 35.4537C394.928 35.7119 394.497 35.841 394.11 35.884C393.938 35.5397 393.809 35.1094 393.809 34.5499V25.2539Z" fill="url(#paint19_linear)"/>
<path d="M413.261 24.221V14.925C413.261 13.4618 412.487 12.6441 411.411 12.6871C411.023 12.7301 410.593 12.8593 410.119 13.1175L394.927 21.897C395.487 21.0363 396.175 20.2616 396.993 19.8313L413.261 10.4492C413.735 10.1909 414.165 10.0618 414.552 10.0188C414.724 10.3631 414.854 10.8365 414.854 11.353V20.649C414.854 21.9831 414.208 23.4894 413.304 24.6514C413.218 24.5223 413.261 24.3932 413.261 24.221Z" fill="url(#paint20_linear)"/>
<path d="M383.094 10.0188L399.362 0.636699C400.782 -0.181006 402.03 -0.181003 402.891 0.464553L416.275 8.21123C415.458 7.86694 414.382 7.95301 413.177 8.64161L396.909 18.0237C394.326 19.53 392.174 23.1881 392.174 26.2007V35.4968C392.174 36.8309 392.605 37.7777 393.25 38.3372C393.25 38.3372 379.608 30.5045 379.435 30.3323C378.747 29.7728 378.359 28.826 378.359 27.4919V18.1958C378.403 15.1832 380.511 11.5251 383.094 10.0188Z" fill="url(#paint21_linear)"/>
<path d="M407.151 20.2186L409.647 18.7553V17.5503L407.151 18.9705V20.2186Z" fill="#FF826A"/>
<path d="M397.38 25.8564L399.833 24.4362V23.1881L397.38 24.6514V25.8564Z" fill="#FF826A"/>
<path d="M401.812 27.1906L406.159 24.6514V23.4464L401.812 25.9856V27.1906Z" fill="#FF826A"/>
<path d="M538.328 158.325C535.014 158.325 531.012 159.099 529.333 160.046L458.322 201.061L439.127 190C430.563 185.051 416.533 185.051 408.011 190L281.827 262.862C273.262 267.811 271.498 339.124 271.498 339.124H391.098C397.037 339.253 403.062 338.048 407.581 335.422L533.723 262.561C542.287 257.611 542.287 249.52 533.723 244.571L464.304 204.504L541.297 160.046C542.976 159.099 541.642 158.325 538.328 158.325Z" fill="url(#paint22_linear)"/>
<path d="M531.444 152.945L464.004 113.996L461.896 114.212L328.825 191.033L396.264 229.982L529.335 153.16C530.153 152.687 530.884 152.644 531.444 152.945Z" fill="#F5F4F8"/>
<path d="M402.246 226.582L458.323 194.218L445.111 186.6C436.547 181.651 422.517 181.651 413.995 186.6L373.497 209.969L402.246 226.582Z" fill="url(#paint23_linear)"/>
<path d="M529.335 153.16C530.971 152.213 532.348 152.988 532.348 154.882C532.348 156.775 531.014 159.099 529.335 160.046L396.265 236.91V229.981L529.335 153.16Z" fill="#C4B9E4"/>
<path d="M530.927 155.699C530.927 154.667 530.196 154.279 529.335 154.796C528.474 155.312 527.742 156.517 527.742 157.55C527.742 158.583 528.474 158.97 529.335 158.454C530.239 157.937 530.927 156.689 530.927 155.699Z" fill="#ACA1CE"/>
<path d="M523.007 160.261C523.007 159.229 522.276 158.841 521.415 159.358C520.554 159.874 519.823 161.079 519.823 162.112C519.823 163.145 520.554 163.532 521.415 163.016C522.319 162.499 523.007 161.294 523.007 160.261Z" fill="#ACA1CE"/>
<path d="M515.089 164.823C515.089 163.79 514.401 163.403 513.497 163.92C512.636 164.436 511.905 165.641 511.905 166.674C511.905 167.707 512.636 168.094 513.497 167.578C514.401 167.061 515.089 165.856 515.089 164.823Z" fill="#ACA1CE"/>
<path d="M507.17 169.428C507.17 168.395 506.482 168.008 505.578 168.525C504.717 169.041 503.986 170.246 503.986 171.279C503.986 172.312 504.717 172.699 505.578 172.183C506.439 171.666 507.17 170.418 507.17 169.428Z" fill="#ACA1CE"/>
<path d="M499.251 173.99C499.251 172.957 498.563 172.57 497.659 173.086C496.798 173.603 496.067 174.808 496.067 175.841C496.067 176.874 496.798 177.261 497.659 176.745C498.52 176.228 499.251 174.98 499.251 173.99Z" fill="#ACA1CE"/>
<path d="M491.332 178.552C491.332 177.562 490.601 177.132 489.74 177.648C488.879 178.165 488.148 179.37 488.148 180.403C488.148 181.436 488.879 181.823 489.74 181.306C490.601 180.79 491.332 179.585 491.332 178.552Z" fill="#ACA1CE"/>
<path d="M483.413 183.114C483.413 182.081 482.725 181.694 481.821 182.21C480.96 182.727 480.229 183.932 480.229 184.965C480.229 185.998 480.96 186.385 481.821 185.868C482.682 185.352 483.413 184.147 483.413 183.114Z" fill="#ACA1CE"/>
<path d="M475.496 187.719C475.496 186.686 474.764 186.299 473.903 186.815C473.042 187.332 472.311 188.537 472.311 189.57C472.311 190.603 473.042 190.99 473.903 190.473C474.764 189.957 475.496 188.709 475.496 187.719Z" fill="#ACA1CE"/>
<path d="M467.576 192.281C467.576 191.248 466.845 190.861 465.984 191.377C465.123 191.894 464.392 193.099 464.392 194.132C464.392 195.164 465.08 195.552 465.984 195.035C466.845 194.519 467.576 193.271 467.576 192.281Z" fill="#ACA1CE"/>
<path d="M459.658 196.843C459.658 195.81 458.969 195.423 458.065 195.939C457.204 196.456 456.473 197.661 456.473 198.693C456.473 199.726 457.204 200.114 458.065 199.597C458.926 199.081 459.658 197.876 459.658 196.843Z" fill="#ACA1CE"/>
<path d="M451.739 201.405C451.739 200.372 451.007 199.985 450.146 200.501C449.285 201.018 448.554 202.223 448.554 203.255C448.554 204.288 449.242 204.676 450.146 204.159C451.007 203.686 451.739 202.438 451.739 201.405Z" fill="#ACA1CE"/>
<path d="M443.82 206.01C443.82 204.977 443.088 204.59 442.227 205.106C441.366 205.622 440.635 206.828 440.635 207.86C440.635 208.893 441.366 209.281 442.227 208.764C443.088 208.248 443.82 207 443.82 206.01Z" fill="#ACA1CE"/>
<path d="M435.902 210.572C435.902 209.539 435.213 209.152 434.309 209.668C433.449 210.184 432.717 211.389 432.717 212.422C432.717 213.455 433.449 213.843 434.309 213.326C435.17 212.81 435.902 211.562 435.902 210.572Z" fill="#ACA1CE"/>
<path d="M427.983 215.134C427.983 214.101 427.251 213.714 426.39 214.23C425.53 214.746 424.798 215.951 424.798 216.984C424.798 218.017 425.53 218.405 426.39 217.888C427.251 217.372 427.983 216.167 427.983 215.134Z" fill="#ACA1CE"/>
<path d="M420.02 219.696C420.02 218.663 419.332 218.275 418.428 218.792C417.567 219.308 416.836 220.513 416.836 221.546C416.836 222.579 417.567 222.966 418.428 222.45C419.332 221.977 420.02 220.729 420.02 219.696Z" fill="#ACA1CE"/>
<path d="M412.102 224.301C412.102 223.268 411.413 222.88 410.509 223.397C409.648 223.913 408.917 225.118 408.917 226.151C408.917 227.184 409.648 227.571 410.509 227.055C411.413 226.539 412.102 225.29 412.102 224.301Z" fill="#ACA1CE"/>
<path d="M404.183 228.862C404.183 227.83 403.451 227.442 402.59 227.959C401.729 228.475 400.998 229.68 400.998 230.713C400.998 231.746 401.686 232.133 402.59 231.617C403.494 231.1 404.183 229.895 404.183 228.862Z" fill="#ACA1CE"/>
<path d="M456.172 117.526L454.364 118.558L521.804 157.507L523.611 156.474L456.172 117.526ZM435.643 129.404L503.082 168.352L504.89 167.319L437.451 128.371L435.643 129.404ZM416.879 140.249L484.318 179.198L486.126 178.165L418.644 139.173L416.879 140.249ZM398.115 151.051L465.554 190L467.362 188.967L399.923 150.019L398.115 151.051ZM379.351 161.897L446.79 200.845L448.598 199.812L381.158 160.864L379.351 161.897ZM360.587 172.742L428.026 211.691L429.833 210.658L362.394 171.709L360.587 172.742ZM341.822 183.544L409.262 222.493L411.069 221.46L343.63 182.512L341.822 183.544Z" fill="url(#paint24_linear)"/>
<path d="M409.863 174.205C418.428 179.155 418.428 187.246 409.863 192.195L283.721 265.057C275.157 270.006 261.127 270.006 252.606 265.057L158.01 210.443C149.446 205.493 149.446 197.402 158.01 192.453L284.195 119.591C292.759 114.642 306.746 114.642 315.311 119.591L409.863 174.205Z" fill="#F5F4F8"/>
<path d="M409.863 174.205C418.428 179.155 418.428 187.246 409.863 192.195L283.721 265.057C275.157 270.006 261.127 270.006 252.606 265.057L158.01 210.443C149.446 205.493 149.446 197.402 158.01 192.453L284.195 119.591C292.759 114.642 306.746 114.642 315.311 119.591L409.863 174.205Z" fill="#F5F4F8"/>
<path d="M409.865 174.205L337.046 132.158C333.732 131.082 329.386 131.34 326.545 132.976L244.258 180.489C240.858 182.469 240.858 185.653 244.258 187.633L280.237 208.42L278.602 242.591H322.586L333.001 236.566L409.865 192.195C418.429 187.246 418.429 179.155 409.865 174.205Z" fill="url(#paint25_linear)"/>
<path d="M409.864 192.195L283.723 265.057C275.158 270.006 261.128 270.006 252.607 265.057L158.011 210.443C153.75 207.99 151.599 204.719 151.599 201.448V271.986C151.599 275.257 153.75 278.484 158.011 280.981L252.607 335.595C261.171 340.544 275.201 340.544 283.723 335.595L409.864 262.733C414.125 260.28 416.234 257.052 416.277 253.824V183.286C416.234 186.514 414.125 189.742 409.864 192.195Z" fill="url(#paint26_linear)"/>
<path d="M232.982 274.697L177.507 242.677C174.193 240.784 171.525 242.333 171.525 246.12V288.77L238.964 327.719V285.069C238.964 281.239 236.296 276.591 232.982 274.697Z" fill="url(#paint27_linear)"/>
<path d="M238.964 285.069C238.964 281.239 236.295 276.591 232.982 274.697L208.45 260.538L38.4538 358.705C36.8183 359.652 35.4412 361.976 35.4412 363.87C35.4412 364.946 35.8715 365.677 36.5601 365.893L103.569 404.583L105.893 397.611L238.964 320.79V285.069Z" fill="#F5F4F8"/>
<path d="M105.893 397.611C104.258 398.558 102.881 400.882 102.881 402.776C102.881 404.669 104.215 405.444 105.893 404.497L238.964 327.676V320.747L105.893 397.611Z" fill="#C4B9E4"/>
<path d="M104.301 402.001C104.301 400.968 105.033 399.763 105.893 399.246C106.754 398.73 107.486 399.16 107.486 400.15C107.486 401.183 106.754 402.388 105.893 402.905C105.033 403.421 104.301 402.991 104.301 402.001Z" fill="#ACA1CE"/>
<path d="M112.22 397.439C112.22 396.406 112.952 395.201 113.812 394.684C114.673 394.168 115.405 394.598 115.405 395.588C115.405 396.621 114.673 397.826 113.812 398.343C112.952 398.859 112.22 398.429 112.22 397.439Z" fill="#ACA1CE"/>
<path d="M120.138 392.834C120.138 391.801 120.87 390.596 121.73 390.079C122.591 389.563 123.323 389.993 123.323 390.983C123.323 392.016 122.591 393.221 121.73 393.738C120.87 394.254 120.138 393.867 120.138 392.834Z" fill="#ACA1CE"/>
<path d="M128.057 388.272C128.057 387.239 128.788 386.034 129.649 385.518C130.51 385.001 131.242 385.432 131.242 386.421C131.242 387.411 130.51 388.659 129.649 389.176C128.788 389.692 128.057 389.305 128.057 388.272Z" fill="#ACA1CE"/>
<path d="M136.019 383.71C136.019 382.677 136.751 381.472 137.612 380.956C138.472 380.439 139.204 380.87 139.204 381.859C139.204 382.892 138.472 384.097 137.612 384.614C136.708 385.13 136.019 384.7 136.019 383.71Z" fill="#ACA1CE"/>
<path d="M143.937 379.148C143.937 378.158 144.669 376.91 145.53 376.394C146.39 375.877 147.122 376.308 147.122 377.297C147.122 378.33 146.39 379.535 145.53 380.052C144.626 380.568 143.937 380.138 143.937 379.148Z" fill="#ACA1CE"/>
<path d="M151.856 374.543C151.856 373.51 152.588 372.305 153.449 371.789C154.309 371.272 155.041 371.703 155.041 372.692C155.041 373.682 154.309 374.93 153.449 375.447C152.545 375.963 151.856 375.576 151.856 374.543Z" fill="#ACA1CE"/>
<path d="M159.775 369.981C159.775 368.948 160.507 367.743 161.367 367.227C162.228 366.71 162.96 367.141 162.96 368.131C162.96 369.12 162.228 370.369 161.367 370.885C160.464 371.401 159.775 371.014 159.775 369.981Z" fill="#ACA1CE"/>
<path d="M167.693 365.419C167.693 364.386 168.425 363.181 169.285 362.665C170.146 362.148 170.878 362.579 170.878 363.569C170.878 364.602 170.146 365.807 169.285 366.323C168.382 366.839 167.693 366.409 167.693 365.419Z" fill="#ACA1CE"/>
<path d="M175.614 360.857C175.614 359.824 176.346 358.619 177.206 358.103C178.067 357.586 178.799 358.017 178.799 359.007C178.799 360.04 178.067 361.245 177.206 361.761C176.303 362.278 175.614 361.847 175.614 360.857Z" fill="#ACA1CE"/>
<path d="M183.533 356.252C183.533 355.219 184.222 354.014 185.125 353.498C185.986 352.982 186.718 353.412 186.718 354.402C186.718 355.435 185.986 356.64 185.125 357.156C184.222 357.673 183.533 357.285 183.533 356.252Z" fill="#ACA1CE"/>
<path d="M191.451 351.69C191.451 350.658 192.183 349.453 193.043 348.936C193.904 348.42 194.636 348.85 194.636 349.84C194.636 350.873 193.904 352.078 193.043 352.594C192.14 353.111 191.451 352.723 191.451 351.69Z" fill="#ACA1CE"/>
<path d="M199.37 347.128C199.37 346.096 200.101 344.89 200.962 344.374C201.823 343.858 202.555 344.288 202.555 345.278C202.555 346.311 201.823 347.516 200.962 348.032C200.058 348.549 199.37 348.118 199.37 347.128Z" fill="#ACA1CE"/>
<path d="M207.289 342.567C207.289 341.534 207.977 340.329 208.881 339.812C209.742 339.296 210.474 339.726 210.474 340.716C210.474 341.749 209.742 342.954 208.881 343.47C207.977 343.987 207.289 343.556 207.289 342.567Z" fill="#ACA1CE"/>
<path d="M215.208 337.962C215.208 336.929 215.939 335.724 216.8 335.207C217.661 334.691 218.392 335.121 218.392 336.111C218.392 337.144 217.661 338.349 216.8 338.865C215.939 339.382 215.208 338.994 215.208 337.962Z" fill="#ACA1CE"/>
<path d="M223.126 333.4C223.126 332.367 223.858 331.162 224.718 330.645C225.579 330.129 226.311 330.559 226.311 331.549C226.311 332.582 225.579 333.787 224.718 334.303C223.858 334.82 223.126 334.433 223.126 333.4Z" fill="#ACA1CE"/>
<path d="M231.047 328.838C231.047 327.805 231.778 326.6 232.639 326.083C233.5 325.567 234.231 325.997 234.231 326.987C234.231 328.02 233.5 329.225 232.639 329.741C231.778 330.258 231.047 329.828 231.047 328.838Z" fill="#ACA1CE"/>
<path d="M71.9369 339.382L139.376 378.33L141.184 377.297L73.7444 338.349L71.9369 339.382ZM53.1727 350.184L120.612 389.133L122.419 388.1L54.9803 349.151L53.1727 350.184ZM35.9579 361.675L103.397 400.624C103.655 400.021 104.043 399.419 104.43 398.902L36.9907 359.954C36.6034 360.47 36.2591 361.072 35.9579 361.675ZM184.522 274.396L238.964 305.856V303.79L186.287 273.406L184.522 274.396ZM238.361 281.755L205.051 262.517L203.243 263.55L238.878 284.122C238.835 283.347 238.663 282.53 238.361 281.755ZM128.229 306.889L195.669 345.837L197.476 344.804L130.037 305.856L128.229 306.889ZM146.994 296.043L214.433 334.992L216.24 333.959L148.801 295.01L146.994 296.043ZM165.758 285.198L233.197 324.147L235.005 323.114L167.565 284.165L165.758 285.198ZM90.7011 328.536L158.14 367.485L159.948 366.452L92.5086 327.504L90.7011 328.536ZM109.465 317.691L176.904 356.64L178.712 355.607L111.273 316.658L109.465 317.691Z" fill="url(#paint28_linear)"/>
<path d="M408.183 200.501V210.055L409.302 210.701V199.855L408.183 200.501Z" fill="#877EA1"/>
<path d="M408.183 211.346L409.302 210.701L408.183 210.055V211.346Z" fill="#ACA1CE"/>
<path d="M405.085 202.309V211.863L406.204 212.508V201.663L405.085 202.309Z" fill="#877EA1"/>
<path d="M405.085 213.111L406.204 212.508L405.085 211.863V213.111Z" fill="#ACA1CE"/>
<path d="M401.987 204.073V213.627L403.106 214.273V203.427L401.987 204.073Z" fill="#877EA1"/>
<path d="M401.987 214.918L403.106 214.273L401.987 213.627V214.918Z" fill="#ACA1CE"/>
<path d="M398.889 205.881V215.435L400.008 216.08V205.235L398.889 205.881Z" fill="#877EA1"/>
<path d="M398.889 216.683L400.008 216.08L398.889 215.435V216.683Z" fill="#ACA1CE"/>
<path d="M395.833 207.645V217.199L396.909 217.845V207L395.833 207.645Z" fill="#877EA1"/>
<path d="M395.833 218.491L396.909 217.845L395.833 217.199V218.491Z" fill="#ACA1CE"/>
<path d="M103.613 404.583L103.698 404.626C103.655 404.626 103.613 404.626 103.613 404.583Z" fill="url(#paint29_linear)"/>
<path d="M238.963 320.79V327.719L107.528 403.593L105.892 404.54C105.118 404.97 104.429 405.056 103.912 404.798L105.462 405.702C105.935 406.046 107.14 406.262 108.905 406.262C112.219 406.262 116.221 405.487 117.9 404.54L244.988 331.162L238.963 320.79Z" fill="url(#paint30_linear)"/>
<path d="M225.106 328.795L238.964 320.79V285.069C238.964 281.239 236.295 276.591 232.981 274.697L208.45 260.538L157.667 289.846L225.106 328.795Z" fill="url(#paint31_linear)"/>
<path d="M226.007 245.26L227.901 246.336L239.822 239.45V237.255L226.007 245.26Z" fill="#ACA1CE"/>
<path d="M239.825 237.255V239.45L241.676 238.374L239.825 237.255Z" fill="#D7CCF6"/>
<path d="M221.489 242.634L223.383 243.71L235.304 236.824V234.672L221.489 242.634Z" fill="#ACA1CE"/>
<path d="M235.305 234.672V236.824L237.198 235.748L235.305 234.672Z" fill="#D7CCF6"/>
<path d="M216.971 240.052L218.865 241.128L230.786 234.242V232.047L216.971 240.052Z" fill="#ACA1CE"/>
<path d="M230.786 232.047V234.242L232.679 233.166L230.786 232.047Z" fill="#D7CCF6"/>
<path d="M212.496 237.427L214.347 238.503L226.268 231.617V229.465L212.496 237.427Z" fill="#ACA1CE"/>
<path d="M226.268 229.465V231.617L228.161 230.541L226.268 229.465Z" fill="#D7CCF6"/>
<path d="M207.977 234.845L209.828 235.921L221.792 229.035V226.84L207.977 234.845Z" fill="#ACA1CE"/>
<path d="M221.791 226.84V229.035L223.642 227.959L221.791 226.84Z" fill="#D7CCF6"/>
<path d="M203.458 232.219L205.351 233.295L217.273 226.409V224.258L203.458 232.219Z" fill="#ACA1CE"/>
<path d="M217.272 224.258V226.409L219.122 225.333L217.272 224.258Z" fill="#D7CCF6"/>
<path d="M198.938 229.637L200.832 230.713L212.753 223.827V221.632L198.938 229.637Z" fill="#ACA1CE"/>
<path d="M212.754 221.632V223.827L214.647 222.751L212.754 221.632Z" fill="#D7CCF6"/>
<path d="M194.418 227.012L196.312 228.088L208.233 221.202V219.05L194.418 227.012Z" fill="#ACA1CE"/>
<path d="M208.235 219.05V221.202L210.128 220.126L208.235 219.05Z" fill="#D7CCF6"/>
<path d="M189.943 224.43L191.794 225.506L203.715 218.62V216.425L189.943 224.43Z" fill="#ACA1CE"/>
<path d="M203.714 216.425V218.62L205.608 217.544L203.714 216.425Z" fill="#D7CCF6"/>
<path d="M358.649 171.408L283.506 214.789C280.106 216.769 274.554 216.769 271.154 214.789L196.054 171.451C194.333 170.461 193.515 169.17 193.515 167.879V194.089C193.472 195.423 194.333 196.757 196.054 197.747L271.154 241.085C274.554 243.065 280.106 243.065 283.506 241.085L358.649 197.747C360.37 196.757 361.231 195.423 361.188 194.089V167.836C361.188 169.127 360.37 170.418 358.649 171.408Z" fill="url(#paint32_linear)"/>
<path d="M283.507 213.068C280.107 215.048 274.555 215.048 271.155 213.068L188.954 165.598C185.555 163.618 185.555 160.434 188.954 158.454L271.241 110.941C274.641 108.961 280.193 108.961 283.593 110.941L365.794 158.411C369.194 160.39 369.194 163.575 365.794 165.555L283.507 213.068Z" fill="#F5F4F8"/>
<path d="M365.793 165.555L283.506 213.068C280.106 215.048 274.555 215.048 271.155 213.068L188.954 165.598C187.275 164.608 186.415 163.317 186.415 162.069V167.879C186.415 169.17 187.275 170.504 188.954 171.451L271.155 218.921C274.555 220.901 280.106 220.901 283.506 218.921L365.793 171.408C367.472 170.418 368.333 169.127 368.333 167.836V161.983C368.333 163.274 367.472 164.565 365.793 165.555Z" fill="url(#paint33_linear)"/>
<path d="M337.562 198.694C337.562 197.833 338.164 196.843 338.896 196.413C339.627 195.982 340.23 196.326 340.23 197.187C340.23 198.048 339.627 199.038 338.896 199.468C338.164 199.899 337.562 199.554 337.562 198.694Z" fill="#ACA1CE"/>
<path d="M343.07 195.552C343.07 194.691 343.672 193.701 344.404 193.271C345.136 192.84 345.738 193.185 345.738 194.046C345.738 194.906 345.136 195.896 344.404 196.326C343.629 196.714 343.07 196.37 343.07 195.552Z" fill="#ACA1CE"/>
<path d="M348.535 192.367C348.535 191.506 349.138 190.517 349.869 190.086C350.601 189.656 351.204 190 351.204 190.861C351.204 191.722 350.601 192.711 349.869 193.142C349.138 193.529 348.535 193.185 348.535 192.367Z" fill="#ACA1CE"/>
<path d="M192.611 208.334H180.604V214.23H192.611V208.334Z" fill="url(#paint34_linear)"/>
<path d="M175.741 206.397V211.389C175.741 212.121 176.215 212.81 177.161 213.369C179.055 214.445 182.154 214.445 184.047 213.369C184.994 212.81 185.467 212.121 185.467 211.389V206.397H175.741Z" fill="url(#paint35_linear)"/>
<path d="M177.162 204.417C179.055 203.341 182.154 203.341 184.048 204.417C184.994 204.977 185.468 205.665 185.468 206.397C185.468 207.129 184.994 207.817 184.048 208.377C182.154 209.453 179.055 209.453 177.162 208.377C176.215 207.817 175.741 207.129 175.741 206.397C175.741 205.709 176.215 204.977 177.162 204.417Z" fill="#FFAF6D"/>
<path d="M262.934 248.918H250.927V254.814H262.934V248.918Z" fill="url(#paint36_linear)"/>
<path d="M246.064 247.024V252.016C246.064 252.748 246.537 253.437 247.484 253.996C249.378 255.072 252.476 255.072 254.37 253.996C255.317 253.437 255.79 252.748 255.79 252.016V247.024H246.064Z" fill="url(#paint37_linear)"/>
<path d="M247.484 245.001C249.378 243.925 252.476 243.925 254.37 245.001C255.317 245.561 255.79 246.249 255.79 246.981C255.79 247.713 255.317 248.401 254.37 248.961C252.476 250.08 249.378 250.037 247.484 248.961C246.537 248.401 246.064 247.713 246.064 246.981C246.064 246.293 246.537 245.561 247.484 245.001Z" fill="#FFAF6D"/>
<path d="M95.6714 432.831L117.104 420.479L79.4464 398.746L58.2291 411.011C57.9279 411.011 57.6266 411.011 57.3254 411.011C42.3915 411.011 24.2729 414.497 16.8274 418.801C9.42506 423.062 15.3211 426.548 29.9107 426.591C29.3942 427.667 29.8677 428.829 31.2879 429.689L43.1231 436.532L52.9786 442.213C49.2774 445.785 55.5608 448.453 68.6441 448.453C83.578 448.453 101.697 444.967 109.185 440.664C116.587 436.317 110.562 432.831 95.6714 432.831Z" fill="url(#paint38_linear)"/>
<path d="M25.2185 392.935C18.2896 396.938 12.6947 406.621 12.6947 414.626C12.6947 422.631 18.2896 425.859 25.2185 421.856C32.1475 417.854 37.7423 408.128 37.7423 400.166C37.7423 392.161 32.1475 388.933 25.2185 392.935ZM25.2185 419.661C19.3225 423.061 14.5883 420.307 14.5883 413.507C14.5883 406.707 19.3655 398.444 25.2185 395.087C31.1146 391.687 35.8487 394.442 35.8487 401.242C35.8487 408.041 31.1146 416.262 25.2185 419.661Z" fill="#C6BBE6"/>
<path d="M25.2193 419.661C31.1154 416.262 35.8495 407.998 35.8495 401.242C35.8495 394.442 31.0724 391.687 25.2193 395.087C25.0041 395.216 24.7459 395.389 24.5307 395.518C24.1864 401.844 19.9257 409.16 14.6321 412.646C14.6321 412.948 14.5891 413.206 14.5891 413.507C14.5891 420.307 19.3232 423.061 25.2193 419.661Z" fill="url(#paint39_linear)"/>
<path d="M25.2189 391.386C17.5583 395.819 11.361 406.535 11.361 415.358C11.361 424.18 17.5583 427.752 25.2189 423.363C32.8796 418.93 39.0769 408.214 39.0769 399.391C39.0769 390.568 32.8796 386.996 25.2189 391.386ZM25.2189 421.856C18.29 425.859 12.6951 422.631 12.6951 414.626C12.6951 406.621 18.29 396.938 25.2189 392.935C32.1479 388.933 37.7427 392.161 37.7427 400.166C37.7427 408.128 32.1479 417.854 25.2189 421.856Z" fill="#2E196F"/>
<path d="M24.0147 384.113C21.4755 382.434 17.8604 382.564 13.858 384.845C6.19738 389.277 0 399.994 0 408.816C0 413.292 1.5924 416.434 4.17463 417.854L15.3213 424.266C12.8681 422.803 11.3618 419.705 11.3618 415.358C11.3618 406.535 17.5592 395.819 25.2198 391.386C29.2222 389.062 32.8374 388.976 35.3765 390.655L24.0147 384.113Z" fill="url(#paint40_linear)"/>
<path d="M61.2874 394.184C63.4393 392.936 63.4393 390.87 61.2874 389.622L42.8245 378.949C40.6726 377.7 37.1006 377.7 34.9487 378.949L16.9161 389.363C14.7643 390.612 14.7643 392.677 16.9161 393.925L35.3791 404.599C37.574 405.847 41.103 405.847 43.2548 404.599L61.2874 394.184Z" fill="#CAC2E3"/>
<path d="M61.2874 394.184C63.4393 392.936 63.4393 390.87 61.2874 389.622L42.8245 378.949C40.6726 377.7 37.1006 377.7 34.9487 378.949L16.9161 389.363C14.7643 390.612 14.7643 392.677 16.9161 393.925L35.3791 404.599C37.574 405.847 41.103 405.847 43.2548 404.599L61.2874 394.184Z" fill="#F7F6FB"/>
<path d="M62.8789 392.032C62.8359 392.806 62.2764 393.581 61.2435 394.184L43.2109 404.599C41.0591 405.847 37.487 405.847 35.3352 404.599L16.8722 393.925C15.7963 393.323 15.2368 392.462 15.2368 391.644V410.15C15.2368 412.733 17.4317 418.413 21.1329 420.393L41.5325 432.185C41.5755 432.228 41.6186 432.228 41.6616 432.271L41.7477 432.314C43.1679 433.046 45.0616 432.917 47.2134 431.712L57.3271 425.859C63.0941 422.545 62.8789 416.305 62.8789 413.55V392.032Z" fill="url(#paint41_linear)"/>
<path d="M62.8789 392.032C62.8359 392.806 62.2764 393.581 61.2435 394.184L43.2109 404.599C41.0591 405.847 37.487 405.847 35.3352 404.599L16.8722 393.925C15.7963 393.323 15.2368 392.462 15.2368 391.644V410.15C15.2368 412.733 17.4317 418.413 21.1329 420.393L41.5325 432.185C41.5755 432.228 41.6186 432.228 41.6616 432.271L41.7477 432.314C43.1679 433.046 45.0616 432.917 47.2134 431.712L57.3271 425.859C63.0941 422.545 62.8789 416.305 62.8789 413.55V392.032Z" fill="url(#paint42_linear)"/>
<path d="M62.876 414.712C55.947 418.715 50.3522 428.398 50.3522 436.403C50.3522 444.408 55.947 447.636 62.876 443.633C69.805 439.631 75.3998 429.947 75.3998 421.943C75.3998 413.938 69.805 410.71 62.876 414.712ZM62.876 441.438C56.9799 444.838 52.2458 442.084 52.2458 435.284C52.2458 428.484 57.023 420.264 62.876 416.864C68.7721 413.464 73.5062 416.219 73.5062 423.018C73.5062 429.818 68.7721 438.038 62.876 441.438Z" fill="#C6BBE6"/>
<path d="M62.8759 441.438C68.772 438.038 73.5061 429.775 73.5061 423.018C73.5061 416.219 68.729 413.464 62.8759 416.864C62.6607 416.993 62.4025 417.165 62.1873 417.294C61.843 423.621 57.5823 430.937 52.2888 434.423C52.2888 434.725 52.2457 434.983 52.2457 435.284C52.2457 442.084 56.9798 444.838 62.8759 441.438Z" fill="url(#paint43_linear)"/>
<path d="M62.8765 413.163C55.2159 417.596 49.0186 428.312 49.0186 437.135C49.0186 445.957 55.2159 449.529 62.8765 445.14C70.5371 440.707 76.7345 429.99 76.7345 421.168C76.7345 412.345 70.5371 408.773 62.8765 413.163ZM62.8765 443.633C55.9476 447.636 50.3527 444.408 50.3527 436.403C50.3527 428.398 55.9476 418.715 62.8765 414.712C69.8055 410.71 75.4003 413.938 75.4003 421.943C75.4003 429.904 69.8055 439.631 62.8765 443.633Z" fill="#2E196F"/>
<path d="M61.6726 405.89C59.1334 404.211 55.5183 404.34 51.5158 406.621C43.8552 411.054 37.6578 421.77 37.6578 430.593C37.6578 435.069 39.2502 438.211 41.8325 439.631L52.9791 446.043C50.526 444.58 49.0196 441.481 49.0196 437.135C49.0196 428.312 55.217 417.596 62.8776 413.163C66.8801 410.839 70.4952 410.753 73.0344 412.431L61.6726 405.89Z" fill="url(#paint44_linear)"/>
<path d="M67.8271 359.754C67.7841 360.572 67.2676 361.346 66.1917 361.992L48.1591 372.407C46.0073 373.655 42.4352 373.655 40.2834 372.407L12.0079 356.053C10.932 355.407 10.3726 354.59 10.3726 353.772V386.824C10.3726 387.642 10.932 388.46 12.0079 389.105L40.2834 405.459C42.4352 406.708 46.0073 406.708 48.1591 405.459L66.1917 395.044C67.3106 394.399 67.8702 393.495 67.8271 392.634V359.754Z" fill="url(#paint45_linear)"/>
<path d="M66.1923 361.992C68.3441 360.744 68.3441 358.678 66.1923 357.43L37.9169 341.076C35.7651 339.828 32.193 339.828 30.0411 341.076L12.0085 351.491C9.85669 352.739 9.85669 354.805 12.0085 356.053L40.284 372.407C42.4358 373.655 46.0079 373.655 48.1597 372.407L66.1923 361.992Z" fill="white"/>
<path d="M65.9338 385.232L56.1643 377.7L59.8655 372.923L69.6349 380.498L65.9338 385.232Z" fill="url(#paint46_linear)"/>
<path d="M66.192 357.43L48.2455 347.058H44.1139C39.3798 347.058 37.4432 348.177 39.8102 349.554L30.3851 354.676C25.651 354.676 23.7144 355.795 26.0814 357.172L40.8861 365.736C43.2532 367.113 49.0632 368.232 53.7973 368.232H55.4327L66.149 362.035C68.3869 360.744 68.3869 358.678 66.192 357.43Z" fill="url(#paint47_linear)"/>
<path d="M32.2361 340.129C25.8666 336.428 20.7021 339.44 20.7021 346.8V350.673C20.7021 352.524 21.9932 354.762 23.5856 355.665L40.9296 365.693C42.522 366.597 43.8131 365.865 43.8131 364.015V360.141C43.8131 352.782 38.6486 343.83 32.2361 340.129Z" fill="#D9CEF8"/>
<path d="M47.2128 331.479C44.028 329.628 41.1015 329.456 39.0357 330.661L24.1018 339.268C26.2106 338.063 29.0941 338.235 32.2789 340.086C38.6484 343.787 43.8128 352.739 43.8128 360.098V363.972C43.8128 364.875 43.5116 365.521 42.9951 365.822L57.8859 357.215C58.4454 356.913 58.7898 356.268 58.7898 355.321V351.448C58.7898 344.131 53.5823 335.18 47.2128 331.479Z" fill="url(#paint48_linear)"/>
<path d="M54.8734 376.969C54.8734 374.731 56.4658 371.976 58.4025 370.814C60.3392 369.695 61.9315 370.599 61.9315 372.88C61.9315 375.161 60.3392 377.872 58.4025 379.034C56.4658 380.153 54.8734 379.25 54.8734 376.969Z" fill="#1E1047"/>
<path d="M96.7904 382.736C96.3169 382.435 95.8866 382.133 95.4992 381.832C94.8106 381.187 94.7246 380.111 95.3702 379.422C96.0157 378.733 97.0916 378.647 97.7802 379.293C98.684 380.068 100.535 380.885 101.481 381.1C102.385 381.316 102.945 382.262 102.729 383.166C102.514 384.07 101.567 384.629 100.664 384.414C99.7599 384.156 98.1675 383.554 96.7904 382.736Z" fill="#1E1047"/>
<path d="M54.8734 377.098C54.8734 377.055 54.8734 377.012 54.8734 376.969C54.8734 374.903 56.1645 372.493 57.886 371.202C57.929 371.202 57.9721 371.202 58.0151 371.202C66.1922 378.217 69.6782 379.895 76.3489 380.756C81.3843 381.359 89.5614 379.68 92.0145 377.356C95.6296 375.161 100.665 379.465 96.4473 382.822C92.7461 385.705 86.807 387.814 78.5008 387.384C69.2048 386.91 63.5239 384.673 55.3469 377.528C55.1747 377.356 55.0025 377.227 54.8734 377.098Z" fill="url(#paint49_linear)"/>
<path d="M91.5837 372.966C91.6267 372.407 91.7128 371.89 91.8419 371.417C92.1001 370.513 93.047 369.954 93.9507 370.212C94.8545 370.47 95.414 371.417 95.1558 372.321C94.8545 373.483 94.9836 375.506 95.1988 376.452C95.414 377.356 94.8115 378.303 93.9077 378.475C93.0039 378.69 92.0571 378.088 91.8849 377.184C91.6267 376.237 91.4546 374.559 91.5837 372.966Z" fill="#1E1047"/>
<path d="M101.527 378.561C101.914 378.174 102.258 377.743 102.516 377.356C103.033 376.581 102.818 375.506 102.043 374.989C101.268 374.473 100.192 374.688 99.676 375.463C99.0305 376.452 97.4381 377.7 96.5773 378.174C95.7596 378.647 95.4584 379.68 95.9318 380.498C96.4052 381.316 97.4381 381.617 98.2558 381.143C99.0304 380.713 100.408 379.723 101.527 378.561Z" fill="#2E196F"/>
<path d="M28.4473 363.283C28.1461 363.283 27.8878 363.025 27.8878 362.724V360.313C27.8878 358.764 28.8346 357.043 30.0827 356.311L31.9763 355.192C32.2346 355.063 32.5788 355.149 32.708 355.407C32.8371 355.665 32.751 356.01 32.4928 356.139L30.5992 357.258C29.6954 357.774 28.9637 359.151 28.9637 360.313V362.724C28.9637 363.025 28.7486 363.283 28.4473 363.283Z" fill="#7152CC"/>
<path d="M25.0901 361.346C24.7889 361.346 24.5306 361.088 24.5306 360.787V358.377C24.5306 356.827 25.4775 355.106 26.7256 354.374L28.6192 353.255C28.8774 353.126 29.2217 353.212 29.3508 353.471C29.4799 353.729 29.3939 354.073 29.1356 354.202L27.242 355.321C26.3382 355.838 25.6066 357.215 25.6066 358.377V360.787C25.6066 361.088 25.3484 361.346 25.0901 361.346Z" fill="#7152CC"/>
<path d="M343.111 406.132C339.023 403.765 333.6 402.603 328.221 402.646H314.018C308.682 402.646 303.345 403.808 299.3 406.132C291.209 410.823 291.166 418.398 299.214 423.089C303.302 425.456 308.682 426.618 314.018 426.575H328.221C333.557 426.618 338.894 425.413 342.982 423.089C351.116 418.398 351.159 410.823 343.111 406.132Z" fill="url(#paint50_linear)"/>
<path d="M328.436 423.089C332.525 420.722 334.548 417.666 334.548 414.568V404.282C334.548 407.381 332.525 410.436 328.436 412.803C320.345 417.494 307.262 417.494 299.214 412.803C295.212 410.479 293.232 407.424 293.189 404.411V414.697C293.189 417.752 295.212 420.765 299.214 423.089C307.262 427.737 320.345 427.737 328.436 423.089Z" fill="url(#paint51_linear)"/>
<path d="M328.436 412.76C336.527 408.069 336.57 400.494 328.522 395.803C320.474 391.112 307.391 391.112 299.257 395.803C291.166 400.494 291.123 408.069 299.171 412.76C307.219 417.451 320.302 417.451 328.436 412.76Z" fill="#F2F1F6"/>
<path d="M312.212 402.044C311.825 400.968 312.427 399.763 313.933 398.902C316.257 397.568 319.873 397.439 322.024 398.687C324.133 399.935 324.004 402.001 321.637 403.335C320.088 404.239 318.022 404.54 316.171 404.325C318.323 406.821 317.592 409.662 315.311 410.953C314.751 410.651 307.994 406.735 307.994 406.735C307.994 406.735 301.237 402.819 300.678 402.517C303.002 401.226 307.865 400.796 312.212 402.044Z" fill="#C6BBE6"/>
<path d="M316.385 243.065C316.385 240.138 318.451 236.566 320.99 235.146L390.151 195.207C392.69 193.744 394.756 194.949 394.756 197.833V258.042C394.756 260.968 392.69 264.54 390.151 265.961L320.99 305.899C318.451 307.362 316.385 306.157 316.385 303.274V243.065Z" fill="url(#paint52_linear)"/>
<path d="M320.947 305.899L390.108 265.961C392.647 264.497 394.713 260.925 394.713 258.042V210.486C388.515 214.058 391.184 230.068 386.493 232.779C383.179 234.673 382.404 226.022 377.584 228.82C372.506 231.746 370.44 255.933 364.716 259.247C360.111 261.872 359.508 254.298 354.946 256.966C348.835 260.495 348.921 277.107 342.939 280.55C336.699 284.165 331.879 260.624 325.982 264.024C322.669 265.918 318.881 278.14 316.385 284.811V303.231C316.385 306.157 318.451 307.362 320.947 305.899Z" fill="url(#paint53_linear)"/>
<path d="M355.678 281.712L354.129 282.573V257.654L355.678 256.794V281.712Z" fill="#00D6DC"/>
<path d="M352.751 258.472C352.751 257.095 353.698 255.459 354.903 254.771C356.108 254.082 357.055 254.642 357.055 256.019C357.055 257.396 356.108 259.032 354.903 259.72C353.741 260.409 352.751 259.849 352.751 258.472Z" fill="white"/>
<path d="M316.386 303.274V243.065C316.386 240.138 318.451 236.566 320.991 235.146L390.151 195.208C391.399 194.476 392.518 194.433 393.379 194.863L390.969 193.486C390.151 192.97 388.946 192.97 387.655 193.744L318.494 233.683C315.955 235.146 313.89 238.718 313.89 241.602V301.81C313.89 303.317 314.449 304.393 315.353 304.823L317.634 306.157C316.859 305.641 316.386 304.651 316.386 303.274Z" fill="url(#paint54_linear)"/>
<path d="M329.597 250.037C325.939 252.146 322.97 250.424 322.97 246.207C322.97 241.989 325.939 236.867 329.597 234.759V238.503C327.747 239.579 326.24 242.161 326.24 244.313C326.24 246.422 327.747 247.326 329.597 246.25C331.448 245.174 332.954 242.591 332.954 240.44L336.225 238.546C336.182 242.764 333.256 247.928 329.597 250.037Z" fill="#482E94"/>
<path d="M336.182 238.589L332.912 240.483C332.912 238.331 331.405 237.47 329.555 238.546V234.759C333.256 232.65 336.182 234.371 336.182 238.589Z" fill="#FF826A"/>
<path d="M344.446 231.144L342.079 229.939C343.327 227.701 345.091 225.807 346.899 224.774V228.518C345.952 229.078 345.091 230.025 344.446 231.144Z" fill="#482E94"/>
<path d="M346.9 240.052C343.242 242.161 340.272 240.44 340.272 236.222C340.272 234.242 340.918 232.047 342.08 229.938L344.447 231.143C343.844 232.219 343.543 233.338 343.543 234.328C343.543 236.437 345.049 237.341 346.9 236.265C348.75 235.189 350.257 232.607 350.257 230.455C350.257 228.303 348.75 227.442 346.9 228.518V224.774C350.558 222.665 353.528 224.387 353.528 228.604C353.485 232.779 350.515 237.943 346.9 240.052Z" fill="#FF826A"/>
<path d="M364.199 230.067C360.541 232.176 357.572 230.454 357.572 226.237C357.572 222.019 360.541 216.898 364.199 214.789V218.533C362.349 219.609 360.842 222.191 360.842 224.343C360.842 226.452 362.349 227.356 364.199 226.28C366.05 225.204 367.556 222.621 367.556 220.47C367.556 219.437 367.212 218.662 366.566 218.318L368.89 214.315C370.138 215.047 370.827 216.553 370.827 218.576C370.784 222.794 367.814 227.958 364.199 230.067Z" fill="#482E94"/>
<path d="M366.565 218.318C365.92 217.974 365.102 218.017 364.198 218.534V214.789C365.963 213.757 367.641 213.627 368.889 214.316L366.565 218.318Z" fill="#FF826A"/>
<path d="M378.015 220.944C376.035 220.686 374.873 218.921 374.873 216.253C374.873 212.035 377.842 206.914 381.501 204.805V208.549C379.65 209.625 378.144 212.207 378.144 214.359C378.144 215.693 378.746 216.597 379.736 216.726L378.015 220.944Z" fill="#FF826A"/>
<path d="M381.458 220.083C380.21 220.815 379.005 221.073 377.972 220.944L379.693 216.769C380.21 216.855 380.812 216.683 381.458 216.339C383.309 215.263 384.815 212.681 384.815 210.529C384.815 208.377 383.309 207.516 381.458 208.592V204.848C385.116 202.739 388.086 204.461 388.086 208.678C388.086 212.81 385.116 217.974 381.458 220.083Z" fill="#482E94"/>
<path d="M477.387 364.386L461.765 355.392L473.815 348.42C473.901 348.377 473.944 348.334 474.03 348.291L474.074 348.247C476.139 346.913 474.547 344.245 469.21 341.146C461.55 336.714 449.112 333.141 441.408 333.141C438.74 333.141 437.019 333.572 436.201 334.347L423.763 341.534C421.869 342.437 422.085 344.116 424.452 346.225L408.915 355.22C406.677 354.832 404.569 354.617 402.718 354.617C400.05 354.617 398.328 355.047 397.51 355.822L385.073 363.009C382.404 364.257 383.911 367.055 389.549 370.326C397.209 374.758 409.647 378.33 417.351 378.33C419.933 378.33 421.611 377.943 422.472 377.212L433.619 370.756L450.016 380.224L477.387 364.386Z" fill="url(#paint55_linear)"/>
<path d="M413.821 324.62C413.821 332.625 419.459 342.394 426.388 346.397C433.317 350.399 438.955 347.172 438.955 339.124C438.955 331.119 433.317 321.349 426.388 317.347C419.459 313.344 413.821 316.615 413.821 324.62ZM415.715 325.696C415.715 318.896 420.492 316.142 426.388 319.542C432.284 322.942 437.061 331.248 437.061 338.048C437.061 344.848 432.284 347.602 426.388 344.202C420.492 340.802 415.715 332.539 415.715 325.696Z" fill="#D9CEF8"/>
<path d="M426.39 344.202C420.494 340.802 415.716 332.496 415.716 325.696C415.716 318.896 420.494 316.142 426.39 319.542C426.605 319.671 426.863 319.843 427.078 319.972C427.423 326.342 431.683 333.701 437.02 337.144C437.02 337.445 437.063 337.746 437.063 338.005C437.106 344.848 432.286 347.602 426.39 344.202Z" fill="url(#paint56_linear)"/>
<path d="M412.531 323.845C412.531 332.711 418.771 343.47 426.432 347.903C434.092 352.336 440.333 348.721 440.333 339.898C440.333 331.033 434.092 320.273 426.432 315.841C418.728 311.408 412.531 314.98 412.531 323.845ZM413.822 324.62C413.822 316.615 419.46 313.344 426.389 317.347C433.318 321.349 438.956 331.119 438.956 339.124C438.956 347.129 433.318 350.399 426.389 346.397C419.46 342.394 413.822 332.625 413.822 324.62Z" fill="#482E94"/>
<path d="M427.593 308.524C430.132 306.846 433.747 306.932 437.749 309.256C445.41 313.689 451.65 324.448 451.65 333.314C451.65 337.789 450.058 340.931 447.476 342.351L436.286 348.807C438.739 347.344 440.245 344.245 440.245 339.855C440.245 330.99 434.005 320.23 426.344 315.798C422.342 313.474 418.684 313.344 416.188 315.066L427.593 308.524Z" fill="url(#paint57_linear)"/>
<path d="M390.194 318.638C387.999 317.39 387.999 315.324 390.194 314.076L408.7 303.36C410.895 302.112 414.467 302.112 416.619 303.36L434.694 313.818C436.889 315.066 436.889 317.132 434.694 318.38L416.145 329.096C413.95 330.344 410.378 330.344 408.226 329.096L390.194 318.638Z" fill="#CAC2E3"/>
<path d="M390.194 318.638C387.999 317.39 387.999 315.324 390.194 314.076L408.7 303.36C410.895 302.112 414.467 302.112 416.619 303.36L434.694 313.818C436.889 315.066 436.889 317.132 434.694 318.38L416.145 329.096C413.95 330.344 410.378 330.344 408.226 329.096L390.194 318.638Z" fill="#F7F6FB"/>
<path d="M388.602 316.486C388.645 317.261 389.205 318.035 390.237 318.638L408.313 329.096C410.508 330.344 414.037 330.344 416.232 329.096L434.781 318.38C435.857 317.734 436.416 316.916 436.416 316.099V334.691C436.416 337.273 434.221 342.997 430.52 344.934L410.034 356.769C409.991 356.812 409.948 356.812 409.905 356.855L409.819 356.898C408.399 357.63 406.462 357.5 404.354 356.295L394.197 350.442C388.387 347.086 388.602 340.845 388.602 338.048V316.486Z" fill="url(#paint58_linear)"/>
<path d="M388.602 316.486C388.645 317.261 389.205 318.035 390.237 318.638L408.313 329.096C410.508 330.344 414.037 330.344 416.232 329.096L434.781 318.38C435.857 317.734 436.416 316.916 436.416 316.099V334.691C436.416 337.273 434.221 342.997 430.52 344.934L410.034 356.769C409.991 356.812 409.948 356.812 409.905 356.855L409.819 356.898C408.399 357.63 406.462 357.5 404.354 356.295L394.197 350.442C388.387 347.086 388.602 340.845 388.602 338.048V316.486Z" fill="url(#paint59_linear)"/>
<path d="M376.035 346.483C376.035 354.488 381.673 364.257 388.601 368.26C395.53 372.262 401.168 369.035 401.168 360.987C401.168 352.982 395.53 343.212 388.601 339.21C381.673 335.207 376.035 338.435 376.035 346.483ZM377.928 347.559C377.928 340.759 382.705 338.005 388.601 341.405C394.498 344.805 399.275 353.111 399.275 359.911C399.275 366.711 394.498 369.465 388.601 366.065C382.705 362.665 377.928 354.359 377.928 347.559Z" fill="#D9CEF8"/>
<path d="M388.601 366.065C382.705 362.665 377.928 354.359 377.928 347.559C377.928 340.759 382.705 338.005 388.601 341.405C388.86 341.534 389.075 341.706 389.29 341.835C389.634 348.205 393.895 355.564 399.231 359.007C399.231 359.308 399.275 359.566 399.275 359.868C399.275 366.71 394.497 369.465 388.601 366.065Z" fill="url(#paint60_linear)"/>
<path d="M374.701 345.708C374.701 354.574 380.941 365.333 388.602 369.766C396.263 374.199 402.503 370.584 402.503 361.761C402.503 352.896 396.263 342.136 388.602 337.703C380.941 333.271 374.701 336.843 374.701 345.708ZM376.035 346.483C376.035 338.478 381.673 335.207 388.602 339.21C395.531 343.212 401.169 352.982 401.169 360.987C401.169 368.992 395.531 372.262 388.602 368.26C381.673 364.257 376.035 354.488 376.035 346.483Z" fill="#482E94"/>
<path d="M389.806 330.387C392.345 328.709 395.96 328.795 399.963 331.119C407.623 335.552 413.864 346.311 413.864 355.177C413.864 359.695 412.271 362.794 409.689 364.214L398.5 370.67C400.953 369.207 402.459 366.108 402.459 361.718C402.459 352.853 396.219 342.093 388.558 337.66C384.556 335.336 380.897 335.207 378.401 336.929L389.806 330.387Z" fill="url(#paint61_linear)"/>
<path d="M407.408 241.128C406.935 240.827 406.504 240.569 406.031 240.353C405.17 239.966 404.137 240.353 403.75 241.257C403.363 242.118 403.793 243.151 404.654 243.495C405.773 243.969 407.236 245.346 407.882 246.12C408.484 246.852 409.56 246.981 410.292 246.379C411.023 245.776 411.152 244.7 410.55 243.969C409.947 243.237 408.742 242.032 407.408 241.128Z" fill="#1E1147"/>
<path d="M408.872 252.404C409.303 252.06 409.69 251.715 410.034 251.328C410.68 250.639 410.637 249.52 409.905 248.918C409.216 248.272 408.098 248.358 407.495 249.047C406.677 249.951 404.913 250.941 403.966 251.242C403.062 251.586 402.632 252.576 402.933 253.437C403.277 254.341 404.267 254.771 405.128 254.47C406.032 254.168 407.581 253.394 408.872 252.404Z" fill="#1E1147"/>
<path d="M434.091 278.829C438.05 275.472 439.169 269.059 436.932 262.388C434.177 254.168 425.914 245.131 411.109 244.399C409.13 244.313 407.494 245.819 407.365 247.756C407.279 249.735 408.785 251.371 410.722 251.5C421.955 252.06 428.109 258.644 430.132 264.669C431.552 268.844 430.863 272.201 429.443 273.363C427.937 274.611 427.765 276.892 429.013 278.355C430.347 279.905 432.585 280.077 434.091 278.829Z" fill="url(#paint62_linear)"/>
<path d="M401.469 248.272C401.856 248.875 402.631 249.219 403.363 249.004C404.525 248.703 406.548 248.832 407.494 249.047C408.398 249.262 409.345 248.66 409.56 247.756C409.775 246.809 409.173 245.905 408.269 245.69C407.064 245.432 404.396 245.174 402.502 245.69C401.598 245.948 401.039 246.895 401.297 247.799C401.297 247.971 401.383 248.143 401.469 248.272Z" fill="#2E196F"/>
<path d="M383.651 284.079C383.694 284.897 384.211 285.715 385.287 286.317L403.362 296.775C405.557 298.023 409.129 298.023 411.281 296.775L439.686 280.378C440.762 279.732 441.321 278.915 441.321 278.097V311.279C441.321 312.096 440.762 312.957 439.686 313.56L411.281 329.957C409.086 331.205 405.557 331.205 403.362 329.957L385.287 319.499C384.125 318.853 383.608 317.949 383.651 317.089V284.079Z" fill="url(#paint63_linear)"/>
<path d="M385.286 286.317C383.091 285.069 383.091 283.003 385.286 281.755L413.691 265.358C415.886 264.11 419.458 264.11 421.609 265.358L439.685 275.816C441.88 277.064 441.88 279.13 439.685 280.378L411.281 296.775C409.086 298.023 405.557 298.023 403.362 296.775L385.286 286.317Z" fill="white"/>
<path d="M439.686 275.773L427.033 268.457C426.947 268.457 426.861 268.457 426.818 268.457H420.061C416.876 268.457 412.96 269.188 411.368 270.135L393.98 280.163C392.388 281.067 393.679 281.841 396.864 281.841L409.13 289.028C407.537 289.932 408.828 290.707 412.013 290.707H418.77C419.76 290.707 420.793 290.707 421.825 290.664L439.686 280.335C441.838 279.087 441.838 277.021 439.686 275.773Z" fill="url(#paint64_linear)"/>
<path d="M419.33 264.368C425.743 260.667 430.907 263.68 430.907 271.082V274.998C430.907 276.849 429.616 279.087 428.024 279.991L410.637 290.018C409.044 290.922 407.753 290.191 407.753 288.34V284.424C407.753 277.064 412.961 268.069 419.33 264.368Z" fill="#C6BBE6"/>
<path d="M404.31 255.675C407.538 253.824 410.421 253.652 412.53 254.857L427.55 263.507C425.441 262.302 422.557 262.475 419.373 264.325C412.96 268.026 407.796 277.021 407.796 284.423V288.34C407.796 289.244 408.097 289.889 408.613 290.19L393.68 281.54C393.12 281.239 392.776 280.593 392.776 279.646V275.73C392.733 268.371 397.94 259.376 404.31 255.675Z" fill="url(#paint65_linear)"/>
<path d="M396.648 301.337C396.648 299.056 395.056 296.302 393.076 295.183C391.096 294.064 389.504 294.967 389.504 297.248C389.504 299.529 391.096 302.284 393.076 303.403C395.056 304.522 396.648 303.618 396.648 301.337Z" fill="#1E1147"/>
<path d="M367.685 271.77C367.986 272.244 368.287 272.674 368.632 273.019C369.277 273.707 370.353 273.75 371.042 273.062C371.73 272.416 371.773 271.34 371.085 270.652C370.267 269.791 369.406 267.94 369.148 266.993C368.89 266.09 367.943 265.573 367.039 265.831C366.136 266.09 365.619 267.036 365.877 267.94C366.179 268.844 366.824 270.436 367.685 271.77Z" fill="#1E1147"/>
<path d="M396.649 301.466C396.649 301.423 396.649 301.38 396.649 301.337C396.649 299.271 395.358 296.818 393.636 295.57C393.593 295.57 393.55 295.57 393.507 295.57C385.502 298.454 378.315 294.279 374.399 288.77C371.989 285.37 370.138 280.249 373.021 277.021C375.13 273.32 371.257 268.93 367.427 272.76C363.596 276.591 363.682 285.542 368.847 292.73C374.313 300.39 385.201 306.502 396.218 301.854C396.348 301.724 396.477 301.595 396.649 301.466Z" fill="url(#paint66_linear)"/>
<path d="M377.67 276.677C378.229 276.634 378.746 276.505 379.219 276.376C380.123 276.117 380.639 275.127 380.338 274.224C380.08 273.32 379.09 272.803 378.186 273.105C377.024 273.449 375.001 273.406 374.055 273.234C373.108 273.062 372.247 273.664 372.075 274.611C371.903 275.558 372.505 276.419 373.452 276.591C374.356 276.763 376.077 276.892 377.67 276.677Z" fill="#1E1147"/>
<path d="M371.731 273.32C372.462 273.234 373.065 272.674 373.194 271.943C373.409 270.781 374.442 268.973 375.045 268.241C375.647 267.51 375.518 266.434 374.743 265.831C374.012 265.229 372.936 265.358 372.333 266.133C371.559 267.123 370.181 269.403 369.794 271.34C369.622 272.287 370.224 273.148 371.171 273.363C371.386 273.32 371.559 273.32 371.731 273.32Z" fill="#2E196F"/>
<path d="M423.161 287.608C422.859 287.608 422.601 287.35 422.601 287.049V284.639C422.601 283.477 421.826 282.099 420.966 281.583L419.072 280.464C418.814 280.335 418.728 279.991 418.857 279.732C418.986 279.474 419.33 279.388 419.589 279.517L421.482 280.636C422.687 281.325 423.677 283.089 423.677 284.639V287.049C423.72 287.35 423.462 287.608 423.161 287.608Z" fill="#7152CC"/>
<path d="M426.561 285.672C426.26 285.672 426.002 285.413 426.002 285.112V282.702C426.002 281.54 425.227 280.163 424.366 279.646L422.473 278.527C422.214 278.398 422.128 278.054 422.257 277.796C422.387 277.538 422.731 277.451 422.989 277.581L424.883 278.7C426.088 279.388 427.078 281.153 427.078 282.702V285.112C427.078 285.413 426.862 285.672 426.561 285.672Z" fill="#7152CC"/>
<path d="M451.423 125L419 143.69L457.419 165.834L489.842 147.246L451.423 125Z" fill="#FFD303"/>
<path d="M469.921 135.666L437.498 154.356L444.206 158.216L476.527 139.526L469.921 135.666Z" fill="white"/>
<path d="M489.842 147.246L457.419 165.834V179.446L489.842 160.755V147.246Z" fill="#D6952D"/>
<path d="M457.419 165.834L419 143.69V157.2L457.419 179.446V165.834Z" fill="#F2BD42"/>
<path d="M437.498 154.356V167.866L444.206 171.726V158.216L437.498 154.356Z" fill="#DAD0F6"/>
<path d="M532.776 319.628C529.376 317.648 524.814 316.745 520.381 316.874H513.409V318.036C512.075 318.466 510.827 318.982 509.708 319.628C503.381 323.329 503.381 329.311 509.794 332.97C510.913 333.615 512.118 334.132 513.409 334.519V335.724H521.801C525.847 335.638 529.806 334.734 532.862 332.97C539.188 329.311 539.145 323.329 532.776 319.628Z" fill="url(#paint67_linear)"/>
<path d="M502.608 332.969C499.38 331.119 497.788 328.666 497.788 326.256V320.704C497.788 323.157 499.38 325.567 502.608 327.418C509.02 331.119 519.306 331.119 525.676 327.418C528.817 325.567 530.41 323.2 530.41 320.79V326.342C530.41 328.752 528.817 331.162 525.676 332.969C519.306 336.671 508.977 336.671 502.608 332.969Z" fill="url(#paint68_linear)"/>
<path d="M502.607 327.461C496.238 323.759 496.195 317.777 502.521 314.119C508.891 310.418 519.22 310.418 525.589 314.119C532.002 317.82 532.002 323.803 525.675 327.461C519.306 331.119 509.02 331.119 502.607 327.461Z" fill="#F2F0F6"/>
<path d="M522.49 320.015L510.396 320.618L510.784 317.906H507.427L506.523 322.856L522.49 321.909V320.015Z" fill="#C5BDDE"/>
<path d="M125.321 313L93 331.69L131.419 353.834L163.74 335.144L125.321 313Z" fill="#9C7FF4"/>
<path d="M124.812 318.891L103.163 331.386L116.376 339.004L138.127 326.51L124.812 318.891Z" fill="#886AE2"/>
<path d="M163.74 335.144L131.419 353.834V367.344L163.74 348.654V335.144Z" fill="#49318F"/>
<path d="M131.419 353.834L93 331.69V345.2L131.419 367.344V353.834Z" fill="#7155C6"/>
<path d="M117.8 332.198L126.947 326.916L124 325.189L114.852 330.471L117.8 332.198Z" fill="white"/>
<defs>
<linearGradient id="paint0_linear" x1="464.354" y1="38.6069" x2="543.993" y2="38.6069" gradientUnits="userSpaceOnUse">
<stop offset="0.0108061" stop-color="#CDC4E9"/>
<stop offset="0.4483" stop-color="#E9E5F5"/>
<stop offset="0.8608" stop-color="white"/>
</linearGradient>
<linearGradient id="paint1_linear" x1="486.747" y1="26.2284" x2="498.376" y2="46.3709" gradientUnits="userSpaceOnUse">
<stop offset="0.00561798" stop-color="#B7ABDA"/>
<stop offset="1" stop-color="#C6BBE6"/>
</linearGradient>
<linearGradient id="paint2_linear" x1="479.414" y1="4.108" x2="490.939" y2="24.0695" gradientUnits="userSpaceOnUse">
<stop offset="0.00561798" stop-color="#F7F6FB"/>
<stop offset="0.2662" stop-color="#EFECF7"/>
<stop offset="0.713" stop-color="#D8D0EE"/>
<stop offset="1" stop-color="#C6BBE6"/>
</linearGradient>
<linearGradient id="paint3_linear" x1="43.2415" y1="250.227" x2="202.192" y2="250.227" gradientUnits="userSpaceOnUse">
<stop stop-color="#D1D7F3"/>
<stop offset="0.3833" stop-color="#E6E9F8"/>
<stop offset="0.9213" stop-color="white"/>
</linearGradient>
<linearGradient id="paint4_linear" x1="107.699" y1="108.274" x2="17.8552" y2="263.888" gradientUnits="userSpaceOnUse">
<stop offset="0.4582" stop-color="#FFAF6D"/>
<stop offset="0.4816" stop-color="#F27C65"/>
<stop offset="0.5084" stop-color="#E33C5C"/>
</linearGradient>
<linearGradient id="paint5_linear" x1="425.076" y1="444.419" x2="509.686" y2="444.419" gradientUnits="userSpaceOnUse">
<stop offset="0.4045" stop-color="#CEC6E7"/>
<stop offset="0.6362" stop-color="#DFD9EF"/>
<stop offset="1" stop-color="white"/>
</linearGradient>
<linearGradient id="paint6_linear" x1="406.427" y1="453.018" x2="493.518" y2="453.018" gradientUnits="userSpaceOnUse">
<stop stop-color="#FB944B"/>
<stop offset="0.00894624" stop-color="#FC8456"/>
<stop offset="0.0261755" stop-color="#FF5A72"/>
<stop offset="0.2844" stop-color="#F0526B"/>
<stop offset="0.7752" stop-color="#CB3D5A"/>
<stop offset="1" stop-color="#B73251"/>
</linearGradient>
<linearGradient id="paint7_linear" x1="405.587" y1="96.1304" x2="429.316" y2="137.231" gradientUnits="userSpaceOnUse">
<stop stop-color="#DAD1F3"/>
<stop offset="0.3084" stop-color="#E2DBF6"/>
<stop offset="0.83" stop-color="#F8F6FD"/>
<stop offset="0.989" stop-color="white"/>
</linearGradient>
<linearGradient id="paint8_linear" x1="417.993" y1="96.7252" x2="401.905" y2="68.8607" gradientUnits="userSpaceOnUse">
<stop stop-color="#F7F6FB"/>
<stop offset="1" stop-color="#C6BBE6"/>
</linearGradient>
<linearGradient id="paint9_linear" x1="432.493" y1="93.9258" x2="411.579" y2="57.7013" gradientUnits="userSpaceOnUse">
<stop stop-color="#2E196F"/>
<stop offset="1" stop-color="#7152CC"/>
</linearGradient>
<linearGradient id="paint10_linear" x1="426.908" y1="44.1537" x2="436.383" y2="37.1466" gradientUnits="userSpaceOnUse">
<stop stop-color="#2E196F"/>
<stop offset="0.1335" stop-color="#39227D"/>
<stop offset="0.7183" stop-color="#6144B6"/>
<stop offset="1" stop-color="#7152CC"/>
</linearGradient>
<linearGradient id="paint11_linear" x1="421.564" y1="87.3685" x2="370.675" y2="87.3685" gradientUnits="userSpaceOnUse">
<stop offset="0.4106" stop-color="#B3A7D5"/>
<stop offset="0.5317" stop-color="#C6BBE7"/>
<stop offset="0.6761" stop-color="#D9CEF8"/>
</linearGradient>
<linearGradient id="paint12_linear" x1="407.869" y1="100.417" x2="383.591" y2="58.3668" gradientUnits="userSpaceOnUse">
<stop stop-color="#B3A7D5"/>
<stop offset="0.0601684" stop-color="#CFC8E5"/>
<stop offset="0.1195" stop-color="#E5E1F1"/>
<stop offset="0.1734" stop-color="#F3F1F8"/>
<stop offset="0.2168" stop-color="#F7F6FB"/>
</linearGradient>
<linearGradient id="paint13_linear" x1="377.745" y1="119.997" x2="361.658" y2="92.1329" gradientUnits="userSpaceOnUse">
<stop stop-color="#F7F6FB"/>
<stop offset="1" stop-color="#C6BBE6"/>
</linearGradient>
<linearGradient id="paint14_linear" x1="392.247" y1="117.198" x2="371.333" y2="80.9736" gradientUnits="userSpaceOnUse">
<stop stop-color="#2E196F"/>
<stop offset="1" stop-color="#7152CC"/>
</linearGradient>
<linearGradient id="paint15_linear" x1="426.816" y1="53.0228" x2="365.412" y2="53.0228" gradientUnits="userSpaceOnUse">
<stop offset="0.5143" stop-color="#C6BBE6"/>
<stop offset="0.6822" stop-color="#D9CEF8"/>
</linearGradient>
<linearGradient id="paint16_linear" x1="394.09" y1="28.9418" x2="426.816" y2="28.9418" gradientUnits="userSpaceOnUse">
<stop stop-color="#DAD1F3"/>
<stop offset="0.5712" stop-color="#F1EEFB"/>
<stop offset="1" stop-color="white"/>
</linearGradient>
<linearGradient id="paint17_linear" x1="369.353" y1="47.0498" x2="398.737" y2="80.7731" gradientUnits="userSpaceOnUse">
<stop stop-color="#7152CC"/>
<stop offset="0.2817" stop-color="#6144B6"/>
<stop offset="0.8665" stop-color="#39227D"/>
<stop offset="1" stop-color="#2E196F"/>
</linearGradient>
<linearGradient id="paint18_linear" x1="416.096" y1="10.6189" x2="399.512" y2="39.3438" gradientUnits="userSpaceOnUse">
<stop offset="0.2022" stop-color="#D9CEF8"/>
<stop offset="0.299" stop-color="#E0D7F9"/>
<stop offset="0.4545" stop-color="#F1EEFA"/>
<stop offset="0.4973" stop-color="#F7F6FB"/>
</linearGradient>
<linearGradient id="paint19_linear" x1="393.736" y1="36.0355" x2="415.613" y2="8.91547" gradientUnits="userSpaceOnUse">
<stop stop-color="#2E196F"/>
<stop offset="0.2552" stop-color="#3C2582"/>
<stop offset="0.7717" stop-color="#5F43B4"/>
<stop offset="1" stop-color="#7152CC"/>
</linearGradient>
<linearGradient id="paint20_linear" x1="414.771" y1="17.3404" x2="394.905" y2="17.3404" gradientUnits="userSpaceOnUse">
<stop stop-color="#CDC4E8"/>
<stop offset="0.4364" stop-color="#E9E5F5"/>
<stop offset="0.7172" stop-color="#F7F6FB"/>
</linearGradient>
<linearGradient id="paint21_linear" x1="403.772" y1="0.938348" x2="384.97" y2="33.5044" gradientUnits="userSpaceOnUse">
<stop offset="0.4719" stop-color="#F7F6FB"/>
<stop offset="0.5216" stop-color="#F1EEFA"/>
<stop offset="0.7022" stop-color="#E0D7F9"/>
<stop offset="0.8146" stop-color="#D9CEF8"/>
</linearGradient>
<linearGradient id="paint22_linear" x1="271.518" y1="248.727" x2="542.027" y2="248.727" gradientUnits="userSpaceOnUse">
<stop stop-color="#D8CFF1"/>
<stop offset="1" stop-color="white"/>
</linearGradient>
<linearGradient id="paint23_linear" x1="373.491" y1="204.726" x2="458.32" y2="204.726" gradientUnits="userSpaceOnUse">
<stop stop-color="#CBC2E7"/>
<stop offset="1" stop-color="white"/>
</linearGradient>
<linearGradient id="paint24_linear" x1="415.854" y1="140.81" x2="449.571" y2="199.209" gradientUnits="userSpaceOnUse">
<stop offset="0.00561798" stop-color="#F5F4F8"/>
<stop offset="1" stop-color="#F0EFF3"/>
</linearGradient>
<linearGradient id="paint25_linear" x1="241.693" y1="187.053" x2="416.281" y2="187.053" gradientUnits="userSpaceOnUse">
<stop stop-color="#CBC2E7"/>
<stop offset="0.6249" stop-color="#E5E1EF"/>
<stop offset="1" stop-color="#F0EFF3"/>
</linearGradient>
<linearGradient id="paint26_linear" x1="151.536" y1="261.265" x2="416.277" y2="261.265" gradientUnits="userSpaceOnUse">
<stop offset="0.427" stop-color="#D7CCF6"/>
<stop offset="0.5787" stop-color="#C4B9E4"/>
</linearGradient>
<linearGradient id="paint27_linear" x1="195.671" y1="302.711" x2="217.128" y2="265.547" gradientUnits="userSpaceOnUse">
<stop offset="0.00561798" stop-color="#FF826A"/>
<stop offset="1" stop-color="#E33C5C"/>
</linearGradient>
<linearGradient id="paint28_linear" x1="128.513" y1="306.706" x2="162.901" y2="366.269" gradientUnits="userSpaceOnUse">
<stop offset="0.00561798" stop-color="#F5F4F8"/>
<stop offset="1" stop-color="#F0EFF3"/>
</linearGradient>
<linearGradient id="paint29_linear" x1="103.581" y1="404.627" x2="103.68" y2="404.627" gradientUnits="userSpaceOnUse">
<stop stop-color="#D8CFF1"/>
<stop offset="1" stop-color="#F0EFF3"/>
</linearGradient>
<linearGradient id="paint30_linear" x1="103.903" y1="363.531" x2="244.965" y2="363.531" gradientUnits="userSpaceOnUse">
<stop stop-color="#D8CFF1"/>
<stop offset="0.932292" stop-color="#EEEDF3"/>
<stop offset="1" stop-color="#EFEFF3"/>
</linearGradient>
<linearGradient id="paint31_linear" x1="194.861" y1="311.333" x2="220.254" y2="267.352" gradientUnits="userSpaceOnUse">
<stop offset="0.00561798" stop-color="white"/>
<stop offset="0.0829844" stop-color="#FFEFEC"/>
<stop offset="0.2982" stop-color="#FFC9BE"/>
<stop offset="0.5039" stop-color="#FFAA9A"/>
<stop offset="0.695" stop-color="#FF947F"/>
<stop offset="0.866" stop-color="#FF8770"/>
<stop offset="1" stop-color="#FF826A"/>
</linearGradient>
<linearGradient id="paint32_linear" x1="193.492" y1="205.21" x2="361.199" y2="205.21" gradientUnits="userSpaceOnUse">
<stop offset="0.455" stop-color="#D7CCF6"/>
<stop offset="0.5395" stop-color="#B5A9D8"/>
</linearGradient>
<linearGradient id="paint33_linear" x1="186.353" y1="191.187" x2="368.341" y2="191.187" gradientUnits="userSpaceOnUse">
<stop offset="0.4419" stop-color="#DFD8F3"/>
<stop offset="0.5476" stop-color="#C4B9E4"/>
</linearGradient>
<linearGradient id="paint34_linear" x1="180.617" y1="211.281" x2="192.637" y2="211.281" gradientUnits="userSpaceOnUse">
<stop stop-color="#CBC2E7"/>
<stop offset="1" stop-color="white"/>
</linearGradient>
<linearGradient id="paint35_linear" x1="175.751" y1="210.321" x2="185.483" y2="210.321" gradientUnits="userSpaceOnUse">
<stop stop-color="#FF826A"/>
<stop offset="1" stop-color="#E33C5C"/>
</linearGradient>
<linearGradient id="paint36_linear" x1="250.922" y1="251.871" x2="262.943" y2="251.871" gradientUnits="userSpaceOnUse">
<stop stop-color="#CBC2E7"/>
<stop offset="1" stop-color="white"/>
</linearGradient>
<linearGradient id="paint37_linear" x1="246.055" y1="250.911" x2="255.787" y2="250.911" gradientUnits="userSpaceOnUse">
<stop stop-color="#FF826A"/>
<stop offset="1" stop-color="#E33C5C"/>
</linearGradient>
<linearGradient id="paint38_linear" x1="53.3576" y1="446.319" x2="80.4929" y2="399.319" gradientUnits="userSpaceOnUse">
<stop stop-color="#DAD1F3"/>
<stop offset="0.3084" stop-color="#E2DBF6"/>
<stop offset="0.83" stop-color="#F8F6FD"/>
<stop offset="0.989" stop-color="white"/>
</linearGradient>
<linearGradient id="paint39_linear" x1="18.6239" y1="420.957" x2="33.6764" y2="394.885" gradientUnits="userSpaceOnUse">
<stop stop-color="#F7F6FB"/>
<stop offset="1" stop-color="#D9CEF8"/>
</linearGradient>
<linearGradient id="paint40_linear" x1="5.05579" y1="418.337" x2="24.624" y2="384.443" gradientUnits="userSpaceOnUse">
<stop stop-color="#472E93"/>
<stop offset="1" stop-color="#7152CC"/>
</linearGradient>
<linearGradient id="paint41_linear" x1="15.2839" y1="412.201" x2="62.899" y2="412.201" gradientUnits="userSpaceOnUse">
<stop offset="0.4106" stop-color="#C6BBE6"/>
<stop offset="0.4558" stop-color="#C1B6E2"/>
<stop offset="0.6761" stop-color="#AEA3D0"/>
</linearGradient>
<linearGradient id="paint42_linear" x1="28.0983" y1="424.411" x2="50.8146" y2="385.065" gradientUnits="userSpaceOnUse">
<stop stop-color="#B3A7D5"/>
<stop offset="0.0108876" stop-color="#B9AED8"/>
<stop offset="0.0698896" stop-color="#D7D1E9"/>
<stop offset="0.1255" stop-color="#EDEAF5"/>
<stop offset="0.176" stop-color="#FBFAFC"/>
<stop offset="0.2168" stop-color="white"/>
</linearGradient>
<linearGradient id="paint43_linear" x1="56.2808" y1="442.731" x2="71.3335" y2="416.659" gradientUnits="userSpaceOnUse">
<stop stop-color="#F7F6FB"/>
<stop offset="1" stop-color="#D9CEF8"/>
</linearGradient>
<linearGradient id="paint44_linear" x1="42.7141" y1="440.112" x2="62.2825" y2="406.218" gradientUnits="userSpaceOnUse">
<stop stop-color="#472E93"/>
<stop offset="1" stop-color="#7152CC"/>
</linearGradient>
<linearGradient id="paint45_linear" x1="10.3681" y1="380.065" x2="67.821" y2="380.065" gradientUnits="userSpaceOnUse">
<stop offset="0.5143" stop-color="#D9CEF8"/>
<stop offset="0.6822" stop-color="#C6BBE6"/>
</linearGradient>
<linearGradient id="paint46_linear" x1="58.0331" y1="375.275" x2="67.7629" y2="382.896" gradientUnits="userSpaceOnUse">
<stop stop-color="#DAD1F3"/>
<stop offset="0.5099" stop-color="#F1EEFB"/>
<stop offset="0.8927" stop-color="white"/>
</linearGradient>
<linearGradient id="paint47_linear" x1="25.0854" y1="357.613" x2="67.8259" y2="357.613" gradientUnits="userSpaceOnUse">
<stop stop-color="#DAD1F3"/>
<stop offset="0.5712" stop-color="#F1EEFB"/>
<stop offset="1" stop-color="white"/>
</linearGradient>
<linearGradient id="paint48_linear" x1="35.6555" y1="332.639" x2="51.8785" y2="360.738" gradientUnits="userSpaceOnUse">
<stop stop-color="#F7F6FB"/>
<stop offset="0.3298" stop-color="#E5E0F3"/>
<stop offset="0.7836" stop-color="#C6BBE6"/>
</linearGradient>
<linearGradient id="paint49_linear" x1="84.4453" y1="368.605" x2="67.8306" y2="387.654" gradientUnits="userSpaceOnUse">
<stop stop-color="#7152CC"/>
<stop offset="0.2817" stop-color="#6144B6"/>
<stop offset="0.8665" stop-color="#39227D"/>
<stop offset="1" stop-color="#2E196F"/>
</linearGradient>
<linearGradient id="paint50_linear" x1="293.187" y1="414.603" x2="349.105" y2="414.603" gradientUnits="userSpaceOnUse">
<stop offset="0.4213" stop-color="#CDC4E9"/>
<stop offset="0.7116" stop-color="#E8E4F5"/>
<stop offset="1" stop-color="white"/>
</linearGradient>
<linearGradient id="paint51_linear" x1="334.54" y1="415.412" x2="293.17" y2="415.411" gradientUnits="userSpaceOnUse">
<stop stop-color="#5A3EAF"/>
<stop offset="0.2184" stop-color="#694CC0"/>
<stop offset="1" stop-color="#9D7DFB"/>
</linearGradient>
<linearGradient id="paint52_linear" x1="394.93" y1="262.654" x2="315.311" y2="238.173" gradientUnits="userSpaceOnUse">
<stop stop-color="#49318F"/>
<stop offset="1" stop-color="#886AE2"/>
</linearGradient>
<linearGradient id="paint53_linear" x1="355.537" y1="285.936" x2="332.656" y2="246.308" gradientUnits="userSpaceOnUse">
<stop/>
<stop offset="0.0958884" stop-color="#001415"/>
<stop offset="0.5397" stop-color="#006A70"/>
<stop offset="0.851" stop-color="#00A1A9"/>
<stop offset="1" stop-color="#00B6BF"/>
</linearGradient>
<linearGradient id="paint54_linear" x1="306.052" y1="299.471" x2="373.171" y2="183.218" gradientUnits="userSpaceOnUse">
<stop offset="0.396" stop-color="#49318F"/>
<stop offset="0.4786" stop-color="#9D7DFB"/>
</linearGradient>
<linearGradient id="paint55_linear" x1="421.398" y1="341.922" x2="445.127" y2="383.022" gradientUnits="userSpaceOnUse">
<stop stop-color="#DAD1F3"/>
<stop offset="0.3084" stop-color="#E2DBF6"/>
<stop offset="0.83" stop-color="#F8F6FD"/>
<stop offset="0.989" stop-color="white"/>
</linearGradient>
<linearGradient id="paint56_linear" x1="433.027" y1="345.496" x2="417.918" y2="319.327" gradientUnits="userSpaceOnUse">
<stop stop-color="#F7F6FB"/>
<stop offset="1" stop-color="#C6BBE6"/>
</linearGradient>
<linearGradient id="paint57_linear" x1="446.644" y1="342.867" x2="427.002" y2="308.847" gradientUnits="userSpaceOnUse">
<stop stop-color="#2E196F"/>
<stop offset="1" stop-color="#7152CC"/>
</linearGradient>
<linearGradient id="paint58_linear" x1="436.38" y1="336.708" x2="388.588" y2="336.708" gradientUnits="userSpaceOnUse">
<stop offset="0.4106" stop-color="#AEA3D0"/>
<stop offset="0.4558" stop-color="#B3A8D4"/>
<stop offset="0.6761" stop-color="#C6BBE6"/>
</linearGradient>
<linearGradient id="paint59_linear" x1="423.518" y1="348.963" x2="400.717" y2="309.471" gradientUnits="userSpaceOnUse">
<stop stop-color="#B3A7D5"/>
<stop offset="0.0108876" stop-color="#B9AED8"/>
<stop offset="0.0698896" stop-color="#D7D1E9"/>
<stop offset="0.1255" stop-color="#EDEAF5"/>
<stop offset="0.176" stop-color="#FBFAFC"/>
<stop offset="0.2168" stop-color="white"/>
</linearGradient>
<linearGradient id="paint60_linear" x1="395.227" y1="367.351" x2="380.119" y2="341.182" gradientUnits="userSpaceOnUse">
<stop stop-color="#F7F6FB"/>
<stop offset="1" stop-color="#C6BBE6"/>
</linearGradient>
<linearGradient id="paint61_linear" x1="408.846" y1="364.723" x2="389.204" y2="330.703" gradientUnits="userSpaceOnUse">
<stop stop-color="#2E196F"/>
<stop offset="1" stop-color="#7152CC"/>
</linearGradient>
<linearGradient id="paint62_linear" x1="407.366" y1="262.043" x2="438.056" y2="262.043" gradientUnits="userSpaceOnUse">
<stop stop-color="#7152CC"/>
<stop offset="0.2817" stop-color="#6144B6"/>
<stop offset="0.8665" stop-color="#39227D"/>
<stop offset="1" stop-color="#2E196F"/>
</linearGradient>
<linearGradient id="paint63_linear" x1="441.313" y1="304.453" x2="383.645" y2="304.453" gradientUnits="userSpaceOnUse">
<stop offset="0.5143" stop-color="#C6BBE6"/>
<stop offset="0.6822" stop-color="#D9CEF8"/>
</linearGradient>
<linearGradient id="paint64_linear" x1="393.294" y1="279.586" x2="441.312" y2="279.586" gradientUnits="userSpaceOnUse">
<stop stop-color="#DAD1F3"/>
<stop offset="0.2865" stop-color="#E0D9F5"/>
<stop offset="0.7248" stop-color="#F1EEFB"/>
<stop offset="1" stop-color="white"/>
</linearGradient>
<linearGradient id="paint65_linear" x1="415.931" y1="256.849" x2="399.648" y2="285.053" gradientUnits="userSpaceOnUse">
<stop stop-color="white"/>
<stop offset="0.3885" stop-color="#EEE9FC"/>
<stop offset="0.7836" stop-color="#D9CEF8"/>
</linearGradient>
<linearGradient id="paint66_linear" x1="365.958" y1="276.626" x2="390.968" y2="305.301" gradientUnits="userSpaceOnUse">
<stop stop-color="#7152CC"/>
<stop offset="0.2817" stop-color="#6144B6"/>
<stop offset="0.8665" stop-color="#39227D"/>
<stop offset="1" stop-color="#2E196F"/>
</linearGradient>
<linearGradient id="paint67_linear" x1="504.971" y1="326.302" x2="537.589" y2="326.302" gradientUnits="userSpaceOnUse">
<stop offset="0.4265" stop-color="#CCC4E4"/>
<stop offset="0.5766" stop-color="#DDD7ED"/>
<stop offset="0.8459" stop-color="#F6F4FA"/>
<stop offset="1" stop-color="white"/>
</linearGradient>
<linearGradient id="paint68_linear" x1="497.78" y1="328.233" x2="530.416" y2="328.233" gradientUnits="userSpaceOnUse">
<stop stop-color="#9D7DFB"/>
<stop offset="0.0138339" stop-color="#9C7CFA"/>
<stop offset="0.448" stop-color="#785AD1"/>
<stop offset="0.7917" stop-color="#6346B8"/>
<stop offset="1" stop-color="#5A3EAF"/>
</linearGradient>
</defs>
</svg>
