<svg width="1921" height="2251" viewBox="0 0 1921 2251" fill="none" xmlns="http://www.w3.org/2000/svg">
<rect x="1" y="868" width="1920" height="519" fill="#FCFAFF"/>
<path d="M75.1944 571.544L112.941 549.773V506.232L75.1944 528.003V571.544Z" fill="#FCFAFF"/>
<path d="M75.1944 571.544L37.6472 549.773V506.232L75.1944 528.003V571.544Z" fill="#FCFAFF"/>
<path d="M75.1944 528.003L37.6472 506.232L75.1944 484.662L112.941 506.232L75.1944 528.003Z" fill="#FCFAFF"/>
<path d="M150.489 194.864L188.236 173.093V129.552L150.489 151.323V194.864Z" fill="#FCFAFF"/>
<path d="M150.489 194.864L112.941 173.093V129.552L150.489 151.323V194.864Z" fill="#FCFAFF"/>
<path d="M150.489 151.323L112.941 129.552L150.489 107.982L188.236 129.552L150.489 151.323Z" fill="#FCFAFF"/>
<path d="M225.783 571.544L263.53 549.773V506.232L225.783 528.003V571.544Z" fill="#FCFAFF"/>
<path d="M225.783 571.544L188.236 549.773V506.232L225.783 528.003V571.544Z" fill="#FCFAFF"/>
<path d="M225.783 528.003L188.236 506.232L225.783 484.662L263.53 506.232L225.783 528.003Z" fill="#FCFAFF"/>
<path d="M301.077 86.882L338.824 65.1116V21.5707L301.077 43.3411V86.882Z" fill="#FCFAFF"/>
<path d="M301.077 86.882L263.53 65.1116V21.5707L301.077 43.3411V86.882Z" fill="#FCFAFF"/>
<path d="M301.077 43.3411L263.53 21.5707L301.077 0L338.824 21.5707L301.077 43.3411Z" fill="#FCFAFF"/>
<path d="M376.371 571.544L414.118 549.773V506.232L376.371 528.003V571.544Z" fill="#FCFAFF"/>
<path d="M376.371 571.544L338.824 549.773V506.232L376.371 528.003V571.544Z" fill="#FCFAFF"/>
<path d="M376.371 528.003L338.824 506.232L376.371 484.662L414.118 506.232L376.371 528.003Z" fill="#FCFAFF"/>
<path d="M451.665 368.137L489.412 346.366V302.825L451.665 324.596V368.137Z" fill="#FCFAFF"/>
<path d="M451.665 368.137L414.118 346.366V302.825L451.665 324.596V368.137Z" fill="#FCFAFF"/>
<path d="M451.665 324.596L414.118 302.825L451.665 281.255L489.412 302.825L451.665 324.596Z" fill="#FCFAFF"/>
<path d="M526.959 571.544L564.706 549.773V506.232L526.959 528.003V571.544Z" fill="#FCFAFF"/>
<path d="M526.959 571.544L489.412 549.773V506.232L526.959 528.003V571.544Z" fill="#FCFAFF"/>
<path d="M526.959 528.003L489.412 506.232L526.959 484.662L564.706 506.232L526.959 528.003Z" fill="#FCFAFF"/>
<path d="M602.253 245.088L640 223.317V179.776L602.253 201.547V245.088Z" fill="#FCFAFF"/>
<path d="M602.253 245.088L564.706 223.317V179.776L602.253 201.547V245.088Z" fill="#FCFAFF"/>
<path d="M602.253 201.547L564.706 179.776L602.254 158.206L640 179.776L602.253 201.547Z" fill="#FCFAFF"/>
<path d="M677.547 571.544L715.294 549.773V506.232L677.547 528.003V571.544Z" fill="#FCFAFF"/>
<path d="M677.547 571.544L640 549.773V506.232L677.547 528.003V571.544Z" fill="#FCFAFF"/>
<path d="M677.547 528.003L640 506.232L677.547 484.662L715.294 506.232L677.547 528.003Z" fill="#FCFAFF"/>
<path d="M752.841 571.544L790.588 549.773V506.232L752.841 528.003V571.544Z" fill="#FCFAFF"/>
<path d="M752.841 571.544L715.294 549.773V506.232L752.841 528.003V571.544Z" fill="#FCFAFF"/>
<path d="M752.841 528.003L715.294 506.232L752.841 484.662L790.588 506.232L752.841 528.003Z" fill="#FCFAFF"/>
<path d="M828.136 484.907L865.882 463.137V419.596L828.136 441.366V484.907Z" fill="#FCFAFF"/>
<path d="M828.136 484.907L790.588 463.137V419.596L828.136 441.366V484.907Z" fill="#FCFAFF"/>
<path d="M828.136 441.366L790.588 419.596L828.136 398.025L865.882 419.596L828.136 441.366Z" fill="#FCFAFF"/>
<path d="M903.43 571.544L941.177 549.773V506.232L903.43 528.003V571.544Z" fill="#FCFAFF"/>
<path d="M903.43 571.544L865.883 549.773V506.232L903.43 528.003V571.544Z" fill="#FCFAFF"/>
<path d="M903.43 528.003L865.883 506.232L903.43 484.662L941.177 506.232L903.43 528.003Z" fill="#FCFAFF"/>
<path d="M978.724 196.119L1016.47 174.349V130.808L978.724 152.578V196.119Z" fill="#FCFAFF"/>
<path d="M978.724 196.119L941.177 174.349V130.808L978.724 152.578V196.119Z" fill="#FCFAFF"/>
<path d="M978.724 152.578L941.177 130.808L978.724 109.237L1016.47 130.808L978.724 152.578Z" fill="#FCFAFF"/>
<path d="M1054.02 571.544L1091.76 549.773V506.232L1054.02 528.003V571.544Z" fill="#FCFAFF"/>
<path d="M1054.02 571.544L1016.47 549.773V506.232L1054.02 528.003V571.544Z" fill="#FCFAFF"/>
<path d="M1054.02 528.003L1016.47 506.232L1054.02 484.662L1091.76 506.232L1054.02 528.003Z" fill="#FCFAFF"/>
<path d="M1129.31 196.119L1167.06 174.349V130.808L1129.31 152.578V196.119Z" fill="#FCFAFF"/>
<path d="M1129.31 196.119L1091.77 174.349V130.808L1129.31 152.578V196.119Z" fill="#FCFAFF"/>
<path d="M1129.31 152.578L1091.77 130.808L1129.31 109.237L1167.06 130.808L1129.31 152.578Z" fill="#FCFAFF"/>
<path d="M1204.61 571.544L1242.35 549.773V506.232L1204.61 528.003V571.544Z" fill="#FCFAFF"/>
<path d="M1204.61 571.544L1167.06 549.773V506.232L1204.61 528.003V571.544Z" fill="#FCFAFF"/>
<path d="M1204.61 528.003L1167.06 506.232L1204.61 484.662L1242.35 506.232L1204.61 528.003Z" fill="#FCFAFF"/>
<path d="M1279.9 571.544L1317.65 549.773V506.232L1279.9 528.003V571.544Z" fill="#FCFAFF"/>
<path d="M1279.9 571.544L1242.35 549.773V506.232L1279.9 528.003V571.544Z" fill="#FCFAFF"/>
<path d="M1279.9 528.003L1242.35 506.232L1279.9 484.662L1317.65 506.232L1279.9 528.003Z" fill="#FCFAFF"/>
<path d="M1355.19 571.544L1392.94 549.773V506.232L1355.19 528.003V571.544Z" fill="#FCFAFF"/>
<path d="M1355.19 571.544L1317.65 549.773V506.232L1355.19 528.003V571.544Z" fill="#FCFAFF"/>
<path d="M1355.19 528.003L1317.65 506.232L1355.19 484.662L1392.94 506.232L1355.19 528.003Z" fill="#FCFAFF"/>
<path d="M1430.49 217.464L1468.24 195.694V152.153L1430.49 173.924V217.464Z" fill="#FCFAFF"/>
<path d="M1430.49 217.464L1392.94 195.694V152.153L1430.49 173.924V217.464Z" fill="#FCFAFF"/>
<path d="M1430.49 173.924L1392.94 152.153L1430.49 130.582L1468.24 152.153L1430.49 173.924Z" fill="#FCFAFF"/>
<path d="M1505.78 571.544L1543.53 549.773V506.232L1505.78 528.003V571.544Z" fill="#FCFAFF"/>
<path d="M1505.78 571.544L1468.24 549.773V506.232L1505.78 528.003V571.544Z" fill="#FCFAFF"/>
<path d="M1505.78 528.003L1468.24 506.232L1505.78 484.662L1543.53 506.232L1505.78 528.003Z" fill="#FCFAFF"/>
<path d="M1581.08 217.464L1618.82 195.694V152.153L1581.08 173.924V217.464Z" fill="#FCFAFF"/>
<path d="M1581.08 217.464L1543.53 195.694V152.153L1581.08 173.924V217.464Z" fill="#FCFAFF"/>
<path d="M1581.08 173.924L1543.53 152.153L1581.08 130.582L1618.82 152.153L1581.08 173.924Z" fill="#FCFAFF"/>
<path d="M1656.37 571.544L1694.12 549.773V506.232L1656.37 528.003V571.544Z" fill="#FCFAFF"/>
<path d="M1656.37 571.544L1618.82 549.773V506.232L1656.37 528.003V571.544Z" fill="#FCFAFF"/>
<path d="M1656.37 528.003L1618.82 506.232L1656.37 484.662L1694.12 506.232L1656.37 528.003Z" fill="#FCFAFF"/>
<path d="M1731.66 217.464L1769.41 195.694V152.153L1731.66 173.924V217.464Z" fill="#FCFAFF"/>
<path d="M1731.66 217.464L1694.12 195.694V152.153L1731.66 173.924V217.464Z" fill="#FCFAFF"/>
<path d="M1731.66 173.924L1694.12 152.153L1731.66 130.582L1769.41 152.153L1731.66 173.924Z" fill="#FCFAFF"/>
<path d="M1806.96 571.544L1844.71 549.773V506.232L1806.96 528.003V571.544Z" fill="#FCFAFF"/>
<path d="M1806.96 571.544L1769.41 549.773V506.232L1806.96 528.003V571.544Z" fill="#FCFAFF"/>
<path d="M1806.96 528.003L1769.41 506.232L1806.96 484.662L1844.71 506.232L1806.96 528.003Z" fill="#FCFAFF"/>
<path d="M1882.25 571.544L1920 549.773V506.232L1882.25 528.003V571.544Z" fill="#FCFAFF"/>
<path d="M1882.25 571.544L1844.71 549.773V506.232L1882.25 528.003V571.544Z" fill="#FCFAFF"/>
<path d="M1882.25 528.003L1844.71 506.232L1882.25 484.662L1920 506.232L1882.25 528.003Z" fill="#FCFAFF"/>
<path d="M75.1944 702.126L112.941 680.356V636.815L75.1944 658.585V702.126Z" fill="#FCFAFF"/>
<path d="M75.1944 702.126L37.6472 680.356V636.815L75.1944 658.585V702.126Z" fill="#FCFAFF"/>
<path d="M75.1944 658.585L37.6472 636.815L75.1944 615.244L112.941 636.815L75.1944 658.585Z" fill="#FCFAFF"/>
<path d="M150.489 325.446L188.236 303.676V260.135L150.489 281.905V325.446Z" fill="#FCFAFF"/>
<path d="M150.489 325.446L112.941 303.676V260.135L150.489 281.905V325.446Z" fill="#FCFAFF"/>
<path d="M150.489 281.905L112.941 260.135L150.489 238.564L188.236 260.135L150.489 281.905Z" fill="#FCFAFF"/>
<path d="M225.783 325.446L263.53 303.676V260.135L225.783 281.905V325.446Z" fill="#FCFAFF"/>
<path d="M225.783 325.446L188.236 303.676V260.135L225.783 281.905V325.446Z" fill="#FCFAFF"/>
<path d="M225.783 281.905L188.236 260.135L225.783 238.564L263.53 260.135L225.783 281.905Z" fill="#FCFAFF"/>
<path d="M301.077 702.126L338.824 680.356V636.815L301.077 658.585V702.126Z" fill="#FCFAFF"/>
<path d="M301.077 702.126L263.53 680.356V636.815L301.077 658.585V702.126Z" fill="#FCFAFF"/>
<path d="M301.077 658.585L263.53 636.815L301.077 615.244L338.824 636.815L301.077 658.585Z" fill="#FCFAFF"/>
<path d="M376.371 702.126L414.118 680.356V636.815L376.371 658.585V702.126Z" fill="#FCFAFF"/>
<path d="M376.371 702.126L338.824 680.356V636.815L376.371 658.585V702.126Z" fill="#FCFAFF"/>
<path d="M376.371 658.585L338.824 636.815L376.371 615.244L414.118 636.815L376.371 658.585Z" fill="#FCFAFF"/>
<path d="M451.665 217.464L489.412 195.694V152.153L451.665 173.924V217.464Z" fill="#FCFAFF"/>
<path d="M451.665 217.464L414.118 195.694V152.153L451.665 173.924V217.464Z" fill="#FCFAFF"/>
<path d="M451.665 173.924L414.118 152.153L451.665 130.582L489.412 152.153L451.665 173.924Z" fill="#FCFAFF"/>
<path d="M526.959 702.126L564.706 680.356V636.815L526.959 658.585V702.126Z" fill="#FCFAFF"/>
<path d="M526.959 702.126L489.412 680.356V636.815L526.959 658.585V702.126Z" fill="#FCFAFF"/>
<path d="M526.959 658.585L489.412 636.815L526.959 615.244L564.706 636.815L526.959 658.585Z" fill="#FCFAFF"/>
<path d="M602.253 702.126L640 680.356V636.815L602.253 658.585V702.126Z" fill="#FCFAFF"/>
<path d="M602.253 702.126L564.706 680.356V636.815L602.253 658.585V702.126Z" fill="#FCFAFF"/>
<path d="M602.253 658.585L564.706 636.815L602.254 615.244L640 636.815L602.253 658.585Z" fill="#FCFAFF"/>
<path d="M677.547 702.126L715.294 680.356V636.815L677.547 658.585V702.126Z" fill="#FCFAFF"/>
<path d="M677.547 702.126L640 680.356V636.815L677.547 658.585V702.126Z" fill="#FCFAFF"/>
<path d="M677.547 658.585L640 636.815L677.547 615.244L715.294 636.815L677.547 658.585Z" fill="#FCFAFF"/>
<path d="M752.841 702.126L790.588 680.356V636.815L752.841 658.585V702.126Z" fill="#FCFAFF"/>
<path d="M752.841 702.126L715.294 680.356V636.815L752.841 658.585V702.126Z" fill="#FCFAFF"/>
<path d="M752.841 658.585L715.294 636.815L752.841 615.244L790.588 636.815L752.841 658.585Z" fill="#FCFAFF"/>
<path d="M828.136 702.126L865.882 680.356V636.815L828.136 658.585V702.126Z" fill="#FCFAFF"/>
<path d="M828.136 702.126L790.588 680.356V636.815L828.136 658.585V702.126Z" fill="#FCFAFF"/>
<path d="M828.136 658.585L790.588 636.815L828.136 615.244L865.882 636.815L828.136 658.585Z" fill="#FCFAFF"/>
<path d="M903.43 702.126L941.177 680.356V636.815L903.43 658.585V702.126Z" fill="#FCFAFF"/>
<path d="M903.43 702.126L865.883 680.356V636.815L903.43 658.585V702.126Z" fill="#FCFAFF"/>
<path d="M903.43 658.585L865.883 636.815L903.43 615.244L941.177 636.815L903.43 658.585Z" fill="#FCFAFF"/>
<path d="M978.724 702.126L1016.47 680.356V636.815L978.724 658.585V702.126Z" fill="#FCFAFF"/>
<path d="M978.724 702.126L941.177 680.356V636.815L978.724 658.585V702.126Z" fill="#FCFAFF"/>
<path d="M978.724 658.585L941.177 636.815L978.724 615.244L1016.47 636.815L978.724 658.585Z" fill="#FCFAFF"/>
<path d="M1054.02 326.702L1091.76 304.931V261.39L1054.02 283.161V326.702Z" fill="#FCFAFF"/>
<path d="M1054.02 326.702L1016.47 304.931V261.39L1054.02 283.161V326.702Z" fill="#FCFAFF"/>
<path d="M1054.02 283.161L1016.47 261.39L1054.02 239.82L1091.76 261.39L1054.02 283.161Z" fill="#FCFAFF"/>
<path d="M1129.31 702.126L1167.06 680.356V636.815L1129.31 658.585V702.126Z" fill="#FCFAFF"/>
<path d="M1129.31 702.126L1091.77 680.356V636.815L1129.31 658.585V702.126Z" fill="#FCFAFF"/>
<path d="M1129.31 658.585L1091.77 636.815L1129.31 615.244L1167.06 636.815L1129.31 658.585Z" fill="#FCFAFF"/>
<path d="M1204.61 326.702L1242.35 304.931V261.39L1204.61 283.161V326.702Z" fill="#FCFAFF"/>
<path d="M1204.61 326.702L1167.06 304.931V261.39L1204.61 283.161V326.702Z" fill="#FCFAFF"/>
<path d="M1204.61 283.161L1167.06 261.39L1204.61 239.82L1242.35 261.39L1204.61 283.161Z" fill="#FCFAFF"/>
<path d="M1279.9 702.126L1317.65 680.356V636.815L1279.9 658.585V702.126Z" fill="#FCFAFF"/>
<path d="M1279.9 702.126L1242.35 680.356V636.815L1279.9 658.585V702.126Z" fill="#FCFAFF"/>
<path d="M1279.9 658.585L1242.35 636.815L1279.9 615.244L1317.65 636.815L1279.9 658.585Z" fill="#FCFAFF"/>
<path d="M1355.19 326.702L1392.94 304.931V261.39L1355.19 283.161V326.702Z" fill="#FCFAFF"/>
<path d="M1355.19 326.702L1317.65 304.931V261.39L1355.19 283.161V326.702Z" fill="#FCFAFF"/>
<path d="M1355.19 283.161L1317.65 261.39L1355.19 239.82L1392.94 261.39L1355.19 283.161Z" fill="#FCFAFF"/>
<path d="M1430.49 702.126L1468.24 680.356V636.815L1430.49 658.585V702.126Z" fill="#FCFAFF"/>
<path d="M1430.49 702.126L1392.94 680.356V636.815L1430.49 658.585V702.126Z" fill="#FCFAFF"/>
<path d="M1430.49 658.585L1392.94 636.815L1430.49 615.244L1468.24 636.815L1430.49 658.585Z" fill="#FCFAFF"/>
<path d="M1505.78 702.126L1543.53 680.356V636.815L1505.78 658.585V702.126Z" fill="#FCFAFF"/>
<path d="M1505.78 702.126L1468.24 680.356V636.815L1505.78 658.585V702.126Z" fill="#FCFAFF"/>
<path d="M1505.78 658.585L1468.24 636.815L1505.78 615.244L1543.53 636.815L1505.78 658.585Z" fill="#FCFAFF"/>
<path d="M1581.08 702.126L1618.82 680.356V636.815L1581.08 658.585V702.126Z" fill="#FCFAFF"/>
<path d="M1581.08 702.126L1543.53 680.356V636.815L1581.08 658.585V702.126Z" fill="#FCFAFF"/>
<path d="M1581.08 658.585L1543.53 636.815L1581.08 615.244L1618.82 636.815L1581.08 658.585Z" fill="#FCFAFF"/>
<path d="M1656.37 702.126L1694.12 680.356V636.815L1656.37 658.585V702.126Z" fill="#FCFAFF"/>
<path d="M1656.37 702.126L1618.82 680.356V636.815L1656.37 658.585V702.126Z" fill="#FCFAFF"/>
<path d="M1656.37 658.585L1618.82 636.815L1656.37 615.244L1694.12 636.815L1656.37 658.585Z" fill="#FCFAFF"/>
<path d="M1731.66 702.126L1769.41 680.356V636.815L1731.66 658.585V702.126Z" fill="#FCFAFF"/>
<path d="M1731.66 702.126L1694.12 680.356V636.815L1731.66 658.585V702.126Z" fill="#FCFAFF"/>
<path d="M1731.66 658.585L1694.12 636.815L1731.66 615.244L1769.41 636.815L1731.66 658.585Z" fill="#FCFAFF"/>
<path d="M1806.96 702.126L1844.71 680.356V636.815L1806.96 658.585V702.126Z" fill="#FCFAFF"/>
<path d="M1806.96 702.126L1769.41 680.356V636.815L1806.96 658.585V702.126Z" fill="#FCFAFF"/>
<path d="M1806.96 658.585L1769.41 636.815L1806.96 615.244L1844.71 636.815L1806.96 658.585Z" fill="#FCFAFF"/>
<path d="M1882.25 702.126L1920 680.356V636.815L1882.25 658.585V702.126Z" fill="#FCFAFF"/>
<path d="M1882.25 702.126L1844.71 680.356V636.815L1882.25 658.585V702.126Z" fill="#FCFAFF"/>
<path d="M1882.25 658.585L1844.71 636.815L1882.25 615.244L1920 636.815L1882.25 658.585Z" fill="#FCFAFF"/>
<path d="M75.1941 832.709L112.941 810.938V767.397L75.1941 789.168V832.709Z" fill="#FCFAFF"/>
<path d="M75.1941 832.709L37.647 810.938V767.397L75.1941 789.168V832.709Z" fill="#FCFAFF"/>
<path d="M75.1941 789.168L37.647 767.397L75.1942 745.827L112.941 767.397L75.1941 789.168Z" fill="#FCFAFF"/>
<path d="M150.488 832.709L188.235 810.938V767.397L150.488 789.168V832.709Z" fill="#FCFAFF"/>
<path d="M150.488 832.709L112.941 810.938V767.397L150.488 789.168V832.709Z" fill="#FCFAFF"/>
<path d="M150.488 789.168L112.941 767.397L150.488 745.827L188.235 767.397L150.488 789.168Z" fill="#FCFAFF"/>
<path d="M225.782 832.709L263.529 810.938V767.397L225.782 789.168V832.709Z" fill="#FCFAFF"/>
<path d="M225.782 832.709L188.235 810.938V767.397L225.782 789.168V832.709Z" fill="#FCFAFF"/>
<path d="M225.782 789.168L188.235 767.397L225.782 745.827L263.529 767.397L225.782 789.168Z" fill="#FCFAFF"/>
<path d="M301.077 832.709L338.824 810.938V767.397L301.077 789.168V832.709Z" fill="#FCFAFF"/>
<path d="M301.077 832.709L263.529 810.938V767.397L301.077 789.168V832.709Z" fill="#FCFAFF"/>
<path d="M301.077 789.168L263.529 767.397L301.077 745.827L338.824 767.397L301.077 789.168Z" fill="#FCFAFF"/>
<path d="M376.371 832.709L414.118 810.938V767.397L376.371 789.168V832.709Z" fill="#FCFAFF"/>
<path d="M376.371 832.709L338.823 810.938V767.397L376.371 789.168V832.709Z" fill="#FCFAFF"/>
<path d="M376.371 789.168L338.823 767.397L376.371 745.827L414.118 767.397L376.371 789.168Z" fill="#FCFAFF"/>
<path d="M451.665 832.709L489.412 810.938V767.397L451.665 789.168V832.709Z" fill="#FCFAFF"/>
<path d="M451.665 832.709L414.118 810.938V767.397L451.665 789.168V832.709Z" fill="#FCFAFF"/>
<path d="M451.665 789.168L414.118 767.397L451.665 745.827L489.412 767.397L451.665 789.168Z" fill="#FCFAFF"/>
<path d="M526.959 832.709L564.706 810.938V767.397L526.959 789.168V832.709Z" fill="#FCFAFF"/>
<path d="M526.959 832.709L489.412 810.938V767.397L526.959 789.168V832.709Z" fill="#FCFAFF"/>
<path d="M526.959 789.168L489.412 767.397L526.959 745.827L564.706 767.397L526.959 789.168Z" fill="#FCFAFF"/>
<path d="M602.253 832.709L640 810.938V767.397L602.253 789.168V832.709Z" fill="#FCFAFF"/>
<path d="M602.253 832.709L564.706 810.938V767.397L602.253 789.168V832.709Z" fill="#FCFAFF"/>
<path d="M602.253 789.168L564.706 767.397L602.253 745.827L640 767.397L602.253 789.168Z" fill="#FCFAFF"/>
<path d="M677.547 832.709L715.294 810.938V767.397L677.547 789.168V832.709Z" fill="#FCFAFF"/>
<path d="M677.547 832.709L640 810.938V767.397L677.547 789.168V832.709Z" fill="#FCFAFF"/>
<path d="M677.547 789.168L640 767.397L677.547 745.827L715.294 767.397L677.547 789.168Z" fill="#FCFAFF"/>
<path d="M752.841 832.709L790.588 810.938V767.397L752.841 789.168V832.709Z" fill="#FCFAFF"/>
<path d="M752.841 832.709L715.294 810.938V767.397L752.841 789.168V832.709Z" fill="#FCFAFF"/>
<path d="M752.841 789.168L715.294 767.397L752.841 745.827L790.588 767.397L752.841 789.168Z" fill="#FCFAFF"/>
<path d="M828.135 832.709L865.882 810.938V767.397L828.135 789.168V832.709Z" fill="#FCFAFF"/>
<path d="M828.135 832.709L790.588 810.938V767.397L828.135 789.168V832.709Z" fill="#FCFAFF"/>
<path d="M828.135 789.168L790.588 767.397L828.135 745.827L865.882 767.397L828.135 789.168Z" fill="#FCFAFF"/>
<path d="M903.429 832.709L941.176 810.938V767.397L903.429 789.168V832.709Z" fill="#FCFAFF"/>
<path d="M903.429 832.709L865.882 810.938V767.397L903.429 789.168V832.709Z" fill="#FCFAFF"/>
<path d="M903.429 789.168L865.882 767.397L903.43 745.827L941.176 767.397L903.429 789.168Z" fill="#FCFAFF"/>
<path d="M978.724 832.709L1016.47 810.938V767.397L978.724 789.168V832.709Z" fill="#FCFAFF"/>
<path d="M978.724 832.709L941.177 810.938V767.397L978.724 789.168V832.709Z" fill="#FCFAFF"/>
<path d="M978.724 789.168L941.177 767.397L978.724 745.827L1016.47 767.397L978.724 789.168Z" fill="#FCFAFF"/>
<path d="M1054.02 832.709L1091.76 810.938V767.397L1054.02 789.168V832.709Z" fill="#FCFAFF"/>
<path d="M1054.02 832.709L1016.47 810.938V767.397L1054.02 789.168V832.709Z" fill="#FCFAFF"/>
<path d="M1054.02 789.168L1016.47 767.397L1054.02 745.827L1091.76 767.397L1054.02 789.168Z" fill="#FCFAFF"/>
<path d="M1129.31 832.709L1167.06 810.938V767.397L1129.31 789.168V832.709Z" fill="#FCFAFF"/>
<path d="M1129.31 832.709L1091.76 810.938V767.397L1129.31 789.168V832.709Z" fill="#FCFAFF"/>
<path d="M1129.31 789.168L1091.76 767.397L1129.31 745.827L1167.06 767.397L1129.31 789.168Z" fill="#FCFAFF"/>
<path d="M1204.61 832.709L1242.35 810.938V767.397L1204.61 789.168V832.709Z" fill="#FCFAFF"/>
<path d="M1204.61 832.709L1167.06 810.938V767.397L1204.61 789.168V832.709Z" fill="#FCFAFF"/>
<path d="M1204.61 789.168L1167.06 767.397L1204.61 745.827L1242.35 767.397L1204.61 789.168Z" fill="#FCFAFF"/>
<path d="M1279.9 832.709L1317.65 810.938V767.397L1279.9 789.168V832.709Z" fill="#FCFAFF"/>
<path d="M1279.9 832.709L1242.35 810.938V767.397L1279.9 789.168V832.709Z" fill="#FCFAFF"/>
<path d="M1279.9 789.168L1242.35 767.397L1279.9 745.827L1317.65 767.397L1279.9 789.168Z" fill="#FCFAFF"/>
<path d="M1355.19 832.709L1392.94 810.938V767.397L1355.19 789.168V832.709Z" fill="#FCFAFF"/>
<path d="M1355.19 832.709L1317.65 810.938V767.397L1355.19 789.168V832.709Z" fill="#FCFAFF"/>
<path d="M1355.19 789.168L1317.65 767.397L1355.19 745.827L1392.94 767.397L1355.19 789.168Z" fill="#FCFAFF"/>
<path d="M1430.49 832.709L1468.24 810.938V767.397L1430.49 789.168V832.709Z" fill="#FCFAFF"/>
<path d="M1430.49 832.709L1392.94 810.938V767.397L1430.49 789.168V832.709Z" fill="#FCFAFF"/>
<path d="M1430.49 789.168L1392.94 767.397L1430.49 745.827L1468.24 767.397L1430.49 789.168Z" fill="#FCFAFF"/>
<path d="M1505.78 832.709L1543.53 810.938V767.397L1505.78 789.168V832.709Z" fill="#FCFAFF"/>
<path d="M1505.78 832.709L1468.24 810.938V767.397L1505.78 789.168V832.709Z" fill="#FCFAFF"/>
<path d="M1505.78 789.168L1468.24 767.397L1505.78 745.827L1543.53 767.397L1505.78 789.168Z" fill="#FCFAFF"/>
<path d="M1581.08 832.709L1618.82 810.938V767.397L1581.08 789.168V832.709Z" fill="#FCFAFF"/>
<path d="M1581.08 832.709L1543.53 810.938V767.397L1581.08 789.168V832.709Z" fill="#FCFAFF"/>
<path d="M1581.08 789.168L1543.53 767.397L1581.08 745.827L1618.82 767.397L1581.08 789.168Z" fill="#FCFAFF"/>
<path d="M1656.37 832.709L1694.12 810.938V767.397L1656.37 789.168V832.709Z" fill="#FCFAFF"/>
<path d="M1656.37 832.709L1618.82 810.938V767.397L1656.37 789.168V832.709Z" fill="#FCFAFF"/>
<path d="M1656.37 789.168L1618.82 767.397L1656.37 745.827L1694.12 767.397L1656.37 789.168Z" fill="#FCFAFF"/>
<path d="M1731.66 832.709L1769.41 810.938V767.397L1731.66 789.168V832.709Z" fill="#FCFAFF"/>
<path d="M1731.66 832.709L1694.12 810.938V767.397L1731.66 789.168V832.709Z" fill="#FCFAFF"/>
<path d="M1731.66 789.168L1694.12 767.397L1731.66 745.827L1769.41 767.397L1731.66 789.168Z" fill="#FCFAFF"/>
<path d="M1806.96 832.709L1844.71 810.938V767.397L1806.96 789.168V832.709Z" fill="#FCFAFF"/>
<path d="M1806.96 832.709L1769.41 810.938V767.397L1806.96 789.168V832.709Z" fill="#FCFAFF"/>
<path d="M1806.96 789.168L1769.41 767.397L1806.96 745.827L1844.71 767.397L1806.96 789.168Z" fill="#FCFAFF"/>
<path d="M1882.25 832.709L1920 810.938V767.397L1882.25 789.168V832.709Z" fill="#FCFAFF"/>
<path d="M1882.25 832.709L1844.71 810.938V767.397L1882.25 789.168V832.709Z" fill="#FCFAFF"/>
<path d="M1882.25 789.168L1844.71 767.397L1882.25 745.827L1920 767.397L1882.25 789.168Z" fill="#FCFAFF"/>
<path d="M112.841 636.835L150.588 615.065V571.524L112.841 593.294V636.835Z" fill="#FCFAFF"/>
<path d="M112.841 636.835L75.2942 615.065V571.524L112.841 593.294V636.835Z" fill="#FCFAFF"/>
<path d="M112.841 593.294L75.2942 571.524L112.841 549.953L150.588 571.524L112.841 593.294Z" fill="#FCFAFF"/>
<path d="M188.136 636.835L225.882 615.065V571.524L188.136 593.294V636.835Z" fill="#FCFAFF"/>
<path d="M188.136 636.835L150.588 615.065V571.524L188.136 593.294V636.835Z" fill="#FCFAFF"/>
<path d="M188.136 593.294L150.588 571.524L188.136 549.953L225.882 571.524L188.136 593.294Z" fill="#FCFAFF"/>
<path d="M263.429 636.835L301.176 615.065V571.524L263.429 593.294V636.835Z" fill="#FCFAFF"/>
<path d="M263.429 636.835L225.882 615.065V571.524L263.429 593.294V636.835Z" fill="#FCFAFF"/>
<path d="M263.429 593.294L225.882 571.524L263.43 549.953L301.176 571.524L263.429 593.294Z" fill="#FCFAFF"/>
<path d="M338.724 440.962L376.471 419.191V375.65L338.724 397.421V440.962Z" fill="#FCFAFF"/>
<path d="M338.724 440.962L301.177 419.191V375.65L338.724 397.421V440.962Z" fill="#FCFAFF"/>
<path d="M338.724 397.421L301.177 375.65L338.724 354.08L376.471 375.65L338.724 397.421Z" fill="#FCFAFF"/>
<path d="M414.018 152.174L451.765 130.403V86.8622L414.018 108.633V152.174Z" fill="#FCFAFF"/>
<path d="M414.018 152.174L376.47 130.403V86.8622L414.018 108.633V152.174Z" fill="#FCFAFF"/>
<path d="M414.018 108.633L376.47 86.8622L414.018 65.2915L451.765 86.8622L414.018 108.633Z" fill="#FCFAFF"/>
<path d="M489.312 636.835L527.059 615.065V571.524L489.312 593.294V636.835Z" fill="#FCFAFF"/>
<path d="M489.312 636.835L451.765 615.065V571.524L489.312 593.294V636.835Z" fill="#FCFAFF"/>
<path d="M489.312 593.294L451.765 571.524L489.312 549.953L527.059 571.524L489.312 593.294Z" fill="#FCFAFF"/>
<path d="M564.606 636.835L602.353 615.065V571.524L564.606 593.294V636.835Z" fill="#FCFAFF"/>
<path d="M564.606 636.835L527.059 615.065V571.524L564.606 593.294V636.835Z" fill="#FCFAFF"/>
<path d="M564.606 593.294L527.059 571.524L564.606 549.953L602.353 571.524L564.606 593.294Z" fill="#FCFAFF"/>
<path d="M639.9 310.379L677.647 288.609V245.068L639.9 266.838V310.379Z" fill="#FCFAFF"/>
<path d="M639.9 310.379L602.353 288.609V245.068L639.9 266.838V310.379Z" fill="#FCFAFF"/>
<path d="M639.9 266.838L602.353 245.068L639.9 223.497L677.647 245.068L639.9 266.838Z" fill="#FCFAFF"/>
<path d="M715.194 310.379L752.941 288.609V245.068L715.194 266.838V310.379Z" fill="#FCFAFF"/>
<path d="M715.194 310.379L677.647 288.609V245.068L715.194 266.838V310.379Z" fill="#FCFAFF"/>
<path d="M715.194 266.838L677.647 245.068L715.194 223.497L752.941 245.068L715.194 266.838Z" fill="#FCFAFF"/>
<path d="M790.488 636.835L828.235 615.065V571.524L790.488 593.294V636.835Z" fill="#FCFAFF"/>
<path d="M790.488 636.835L752.941 615.065V571.524L790.488 593.294V636.835Z" fill="#FCFAFF"/>
<path d="M790.488 593.294L752.941 571.524L790.488 549.953L828.235 571.524L790.488 593.294Z" fill="#FCFAFF"/>
<path d="M865.783 261.411L903.529 239.64V196.1L865.783 217.87V261.411Z" fill="#FCFAFF"/>
<path d="M865.783 261.411L828.235 239.64V196.1L865.783 217.87V261.411Z" fill="#FCFAFF"/>
<path d="M865.783 217.87L828.235 196.1L865.783 174.529L903.529 196.1L865.783 217.87Z" fill="#FCFAFF"/>
<path d="M941.076 261.411L978.823 239.64V196.1L941.076 217.87V261.411Z" fill="#FCFAFF"/>
<path d="M941.076 261.411L903.529 239.64V196.1L941.076 217.87V261.411Z" fill="#FCFAFF"/>
<path d="M941.076 217.87L903.529 196.1L941.077 174.529L978.823 196.1L941.076 217.87Z" fill="#FCFAFF"/>
<path d="M1016.37 636.835L1054.12 615.065V571.524L1016.37 593.294V636.835Z" fill="#FCFAFF"/>
<path d="M1016.37 636.835L978.823 615.065V571.524L1016.37 593.294V636.835Z" fill="#FCFAFF"/>
<path d="M1016.37 593.294L978.823 571.524L1016.37 549.953L1054.12 571.524L1016.37 593.294Z" fill="#FCFAFF"/>
<path d="M1091.66 636.835L1129.41 615.065V571.524L1091.66 593.294V636.835Z" fill="#FCFAFF"/>
<path d="M1091.66 636.835L1054.12 615.065V571.524L1091.66 593.294V636.835Z" fill="#FCFAFF"/>
<path d="M1091.66 593.294L1054.12 571.524L1091.66 549.953L1129.41 571.524L1091.66 593.294Z" fill="#FCFAFF"/>
<path d="M1166.96 636.835L1204.71 615.065V571.524L1166.96 593.294V636.835Z" fill="#FCFAFF"/>
<path d="M1166.96 636.835L1129.41 615.065V571.524L1166.96 593.294V636.835Z" fill="#FCFAFF"/>
<path d="M1166.96 593.294L1129.41 571.524L1166.96 549.953L1204.71 571.524L1166.96 593.294Z" fill="#FCFAFF"/>
<path d="M1242.25 261.411L1280 239.64V196.1L1242.25 217.87V261.411Z" fill="#FCFAFF"/>
<path d="M1242.25 261.411L1204.71 239.64V196.1L1242.25 217.87V261.411Z" fill="#FCFAFF"/>
<path d="M1242.25 217.87L1204.71 196.1L1242.25 174.529L1280 196.1L1242.25 217.87Z" fill="#FCFAFF"/>
<path d="M1317.55 636.835L1355.29 615.065V571.524L1317.55 593.294V636.835Z" fill="#FCFAFF"/>
<path d="M1317.55 636.835L1280 615.065V571.524L1317.55 593.294V636.835Z" fill="#FCFAFF"/>
<path d="M1317.55 593.294L1280 571.524L1317.55 549.953L1355.29 571.524L1317.55 593.294Z" fill="#FCFAFF"/>
<path d="M1392.84 636.835L1430.59 615.065V571.524L1392.84 593.294V636.835Z" fill="#FCFAFF"/>
<path d="M1392.84 636.835L1355.29 615.065V571.524L1392.84 593.294V636.835Z" fill="#FCFAFF"/>
<path d="M1392.84 593.294L1355.29 571.524L1392.84 549.953L1430.59 571.524L1392.84 593.294Z" fill="#FCFAFF"/>
<path d="M1468.14 636.835L1505.88 615.065V571.524L1468.14 593.294V636.835Z" fill="#FCFAFF"/>
<path d="M1468.14 636.835L1430.59 615.065V571.524L1468.14 593.294V636.835Z" fill="#FCFAFF"/>
<path d="M1468.14 593.294L1430.59 571.524L1468.14 549.953L1505.88 571.524L1468.14 593.294Z" fill="#FCFAFF"/>
<path d="M1543.43 348.047L1581.18 326.277V282.736L1543.43 304.506V348.047Z" fill="#FCFAFF"/>
<path d="M1543.43 348.047L1505.88 326.277V282.736L1543.43 304.506V348.047Z" fill="#FCFAFF"/>
<path d="M1543.43 304.506L1505.88 282.736L1543.43 261.165L1581.18 282.736L1543.43 304.506Z" fill="#FCFAFF"/>
<path d="M1618.72 348.047L1656.47 326.277V282.736L1618.72 304.506V348.047Z" fill="#FCFAFF"/>
<path d="M1618.72 348.047L1581.18 326.277V282.736L1618.72 304.506V348.047Z" fill="#FCFAFF"/>
<path d="M1618.72 304.506L1581.18 282.736L1618.72 261.165L1656.47 282.736L1618.72 304.506Z" fill="#FCFAFF"/>
<path d="M1694.02 636.835L1731.76 615.065V571.524L1694.02 593.294V636.835Z" fill="#FCFAFF"/>
<path d="M1694.02 636.835L1656.47 615.065V571.524L1694.02 593.294V636.835Z" fill="#FCFAFF"/>
<path d="M1694.02 593.294L1656.47 571.524L1694.02 549.953L1731.76 571.524L1694.02 593.294Z" fill="#FCFAFF"/>
<path d="M1769.31 348.047L1807.06 326.277V282.736L1769.31 304.506V348.047Z" fill="#FCFAFF"/>
<path d="M1769.31 348.047L1731.76 326.277V282.736L1769.31 304.506V348.047Z" fill="#FCFAFF"/>
<path d="M1769.31 304.506L1731.76 282.736L1769.31 261.165L1807.06 282.736L1769.31 304.506Z" fill="#FCFAFF"/>
<path d="M1844.61 636.835L1882.35 615.065V571.524L1844.61 593.294V636.835Z" fill="#FCFAFF"/>
<path d="M1844.61 636.835L1807.06 615.065V571.524L1844.61 593.294V636.835Z" fill="#FCFAFF"/>
<path d="M1844.61 593.294L1807.06 571.524L1844.61 549.953L1882.35 571.524L1844.61 593.294Z" fill="#FCFAFF"/>
<path d="M37.5472 636.835L75.2941 615.065V571.524L37.5472 593.294V636.835Z" fill="#FCFAFF"/>
<path d="M37.5472 636.835L0 615.065V571.524L37.5472 593.294V636.835Z" fill="#FCFAFF"/>
<path d="M37.5472 593.294L0 571.524L37.5472 549.953L75.2941 571.524L37.5472 593.294Z" fill="#FCFAFF"/>
<path d="M112.841 767.418L150.588 745.647V702.106L112.841 723.877V767.418Z" fill="#FCFAFF"/>
<path d="M112.841 767.418L75.2942 745.647V702.106L112.841 723.877V767.418Z" fill="#FCFAFF"/>
<path d="M112.841 723.877L75.2942 702.106L112.841 680.536L150.588 702.106L112.841 723.877Z" fill="#FCFAFF"/>
<path d="M188.136 390.738L225.882 368.967V325.426L188.136 347.197V390.738Z" fill="#FCFAFF"/>
<path d="M188.136 390.738L150.588 368.967V325.426L188.136 347.197V390.738Z" fill="#FCFAFF"/>
<path d="M188.136 347.197L150.588 325.426L188.136 303.855L225.882 325.426L188.136 347.197Z" fill="#FCFAFF"/>
<path d="M263.429 767.418L301.176 745.647V702.106L263.429 723.877V767.418Z" fill="#FCFAFF"/>
<path d="M263.429 767.418L225.882 745.647V702.106L263.429 723.877V767.418Z" fill="#FCFAFF"/>
<path d="M263.429 723.877L225.882 702.106L263.43 680.536L301.176 702.106L263.429 723.877Z" fill="#FCFAFF"/>
<path d="M338.724 282.756L376.471 260.985V217.444L338.724 239.215V282.756Z" fill="#FCFAFF"/>
<path d="M338.724 282.756L301.177 260.985V217.444L338.724 239.215V282.756Z" fill="#FCFAFF"/>
<path d="M338.724 239.215L301.177 217.444L338.724 195.874L376.471 217.444L338.724 239.215Z" fill="#FCFAFF"/>
<path d="M414.018 767.418L451.765 745.647V702.106L414.018 723.877V767.418Z" fill="#FCFAFF"/>
<path d="M414.018 767.418L376.47 745.647V702.106L414.018 723.877V767.418Z" fill="#FCFAFF"/>
<path d="M414.018 723.877L376.47 702.106L414.018 680.536L451.765 702.106L414.018 723.877Z" fill="#FCFAFF"/>
<path d="M489.312 767.418L527.059 745.647V702.106L489.312 723.877V767.418Z" fill="#FCFAFF"/>
<path d="M489.312 767.418L451.765 745.647V702.106L489.312 723.877V767.418Z" fill="#FCFAFF"/>
<path d="M489.312 723.877L451.765 702.106L489.312 680.536L527.059 702.106L489.312 723.877Z" fill="#FCFAFF"/>
<path d="M564.606 440.962L602.353 419.191V375.65L564.606 397.421V440.962Z" fill="#FCFAFF"/>
<path d="M564.606 440.962L527.059 419.191V375.65L564.606 397.421V440.962Z" fill="#FCFAFF"/>
<path d="M564.606 397.421L527.059 375.65L564.606 354.079L602.353 375.65L564.606 397.421Z" fill="#FCFAFF"/>
<path d="M639.9 767.418L677.647 745.647V702.106L639.9 723.877V767.418Z" fill="#FCFAFF"/>
<path d="M639.9 767.418L602.353 745.647V702.106L639.9 723.877V767.418Z" fill="#FCFAFF"/>
<path d="M639.9 723.877L602.353 702.106L639.9 680.536L677.647 702.106L639.9 723.877Z" fill="#FCFAFF"/>
<path d="M715.194 767.418L752.941 745.647V702.106L715.194 723.877V767.418Z" fill="#FCFAFF"/>
<path d="M715.194 767.418L677.647 745.647V702.106L715.194 723.877V767.418Z" fill="#FCFAFF"/>
<path d="M715.194 723.877L677.647 702.106L715.194 680.536L752.941 702.106L715.194 723.877Z" fill="#FCFAFF"/>
<path d="M790.488 391.993L828.235 370.223V326.682L790.488 348.452V391.993Z" fill="#FCFAFF"/>
<path d="M790.488 391.993L752.941 370.223V326.682L790.488 348.452V391.993Z" fill="#FCFAFF"/>
<path d="M790.488 348.452L752.941 326.682L790.488 305.111L828.235 326.682L790.488 348.452Z" fill="#FCFAFF"/>
<path d="M865.783 767.418L903.529 745.647V702.106L865.783 723.877V767.418Z" fill="#FCFAFF"/>
<path d="M865.783 767.418L828.235 745.647V702.106L865.783 723.877V767.418Z" fill="#FCFAFF"/>
<path d="M865.783 723.877L828.235 702.106L865.783 680.536L903.529 702.106L865.783 723.877Z" fill="#FCFAFF"/>
<path d="M941.076 478.629L978.823 456.859V413.318L941.076 435.089V478.629Z" fill="#FCFAFF"/>
<path d="M941.076 478.629L903.529 456.859V413.318L941.076 435.089V478.629Z" fill="#FCFAFF"/>
<path d="M941.076 435.089L903.529 413.318L941.077 391.747L978.823 413.318L941.076 435.089Z" fill="#FCFAFF"/>
<path d="M1016.37 767.418L1054.12 745.647V702.106L1016.37 723.877V767.418Z" fill="#FCFAFF"/>
<path d="M1016.37 767.418L978.823 745.647V702.106L1016.37 723.877V767.418Z" fill="#FCFAFF"/>
<path d="M1016.37 723.877L978.823 702.106L1016.37 680.536L1054.12 702.106L1016.37 723.877Z" fill="#FCFAFF"/>
<path d="M1091.66 767.418L1129.41 745.647V702.106L1091.66 723.877V767.418Z" fill="#FCFAFF"/>
<path d="M1091.66 767.418L1054.12 745.647V702.106L1091.66 723.877V767.418Z" fill="#FCFAFF"/>
<path d="M1091.66 723.877L1054.12 702.106L1091.66 680.536L1129.41 702.106L1091.66 723.877Z" fill="#FCFAFF"/>
<path d="M1166.96 767.418L1204.71 745.647V702.106L1166.96 723.877V767.418Z" fill="#FCFAFF"/>
<path d="M1166.96 767.418L1129.41 745.647V702.106L1166.96 723.877V767.418Z" fill="#FCFAFF"/>
<path d="M1166.96 723.877L1129.41 702.106L1166.96 680.536L1204.71 702.106L1166.96 723.877Z" fill="#FCFAFF"/>
<path d="M1242.25 767.418L1280 745.647V702.106L1242.25 723.877V767.418Z" fill="#FCFAFF"/>
<path d="M1242.25 767.418L1204.71 745.647V702.106L1242.25 723.877V767.418Z" fill="#FCFAFF"/>
<path d="M1242.25 723.877L1204.71 702.106L1242.25 680.536L1280 702.106L1242.25 723.877Z" fill="#FCFAFF"/>
<path d="M1317.55 767.418L1355.29 745.647V702.106L1317.55 723.877V767.418Z" fill="#FCFAFF"/>
<path d="M1317.55 767.418L1280 745.647V702.106L1317.55 723.877V767.418Z" fill="#FCFAFF"/>
<path d="M1317.55 723.877L1280 702.106L1317.55 680.536L1355.29 702.106L1317.55 723.877Z" fill="#FCFAFF"/>
<path d="M1392.84 767.418L1430.59 745.647V702.106L1392.84 723.877V767.418Z" fill="#FCFAFF"/>
<path d="M1392.84 767.418L1355.29 745.647V702.106L1392.84 723.877V767.418Z" fill="#FCFAFF"/>
<path d="M1392.84 723.877L1355.29 702.106L1392.84 680.536L1430.59 702.106L1392.84 723.877Z" fill="#FCFAFF"/>
<path d="M1468.14 767.418L1505.88 745.647V702.106L1468.14 723.877V767.418Z" fill="#FCFAFF"/>
<path d="M1468.14 767.418L1430.59 745.647V702.106L1468.14 723.877V767.418Z" fill="#FCFAFF"/>
<path d="M1468.14 723.877L1430.59 702.106L1468.14 680.536L1505.88 702.106L1468.14 723.877Z" fill="#FCFAFF"/>
<path d="M1543.43 767.418L1581.18 745.647V702.106L1543.43 723.877V767.418Z" fill="#FCFAFF"/>
<path d="M1543.43 767.418L1505.88 745.647V702.106L1543.43 723.877V767.418Z" fill="#FCFAFF"/>
<path d="M1543.43 723.877L1505.88 702.106L1543.43 680.536L1581.18 702.106L1543.43 723.877Z" fill="#FCFAFF"/>
<path d="M1618.72 767.418L1656.47 745.647V702.106L1618.72 723.877V767.418Z" fill="#FCFAFF"/>
<path d="M1618.72 767.418L1581.18 745.647V702.106L1618.72 723.877V767.418Z" fill="#FCFAFF"/>
<path d="M1618.72 723.877L1581.18 702.106L1618.72 680.536L1656.47 702.106L1618.72 723.877Z" fill="#FCFAFF"/>
<path d="M1694.02 767.418L1731.76 745.647V702.106L1694.02 723.877V767.418Z" fill="#FCFAFF"/>
<path d="M1694.02 767.418L1656.47 745.647V702.106L1694.02 723.877V767.418Z" fill="#FCFAFF"/>
<path d="M1694.02 723.877L1656.47 702.106L1694.02 680.536L1731.76 702.106L1694.02 723.877Z" fill="#FCFAFF"/>
<path d="M1769.31 767.418L1807.06 745.647V702.106L1769.31 723.877V767.418Z" fill="#FCFAFF"/>
<path d="M1769.31 767.418L1731.76 745.647V702.106L1769.31 723.877V767.418Z" fill="#FCFAFF"/>
<path d="M1769.31 723.877L1731.76 702.106L1769.31 680.536L1807.06 702.106L1769.31 723.877Z" fill="#FCFAFF"/>
<path d="M1844.61 767.418L1882.35 745.647V702.106L1844.61 723.877V767.418Z" fill="#FCFAFF"/>
<path d="M1844.61 767.418L1807.06 745.647V702.106L1844.61 723.877V767.418Z" fill="#FCFAFF"/>
<path d="M1844.61 723.877L1807.06 702.106L1844.61 680.536L1882.35 702.106L1844.61 723.877Z" fill="#FCFAFF"/>
<path d="M37.5472 767.418L75.2941 745.647V702.106L37.5472 723.877V767.418Z" fill="#FCFAFF"/>
<path d="M37.5472 767.418L0 745.647V702.106L37.5472 723.877V767.418Z" fill="#FCFAFF"/>
<path d="M37.5472 723.877L0 702.106L37.5472 680.536L75.2941 702.106L37.5472 723.877Z" fill="#FCFAFF"/>
<path d="M112.841 898L150.588 876.23V832.689L112.841 854.459V898Z" fill="#FCFAFF"/>
<path d="M112.841 898L75.2942 876.23V832.689L112.841 854.459V898Z" fill="#FCFAFF"/>
<path d="M112.841 854.459L75.2942 832.689L112.841 811.118L150.588 832.689L112.841 854.459Z" fill="#FCFAFF"/>
<path d="M188.135 898L225.882 876.23V832.689L188.135 854.459V898Z" fill="#FCFAFF"/>
<path d="M188.135 898L150.588 876.23V832.689L188.135 854.459V898Z" fill="#FCFAFF"/>
<path d="M188.135 854.459L150.588 832.689L188.135 811.118L225.882 832.689L188.135 854.459Z" fill="#FCFAFF"/>
<path d="M263.43 898L301.177 876.23V832.689L263.43 854.459V898Z" fill="#FCFAFF"/>
<path d="M263.43 898L225.882 876.23V832.689L263.43 854.459V898Z" fill="#FCFAFF"/>
<path d="M263.43 854.459L225.882 832.689L263.43 811.118L301.177 832.689L263.43 854.459Z" fill="#FCFAFF"/>
<path d="M338.724 898L376.471 876.23V832.689L338.724 854.459V898Z" fill="#FCFAFF"/>
<path d="M338.724 898L301.177 876.23V832.689L338.724 854.459V898Z" fill="#FCFAFF"/>
<path d="M338.724 854.459L301.177 832.689L338.724 811.118L376.471 832.689L338.724 854.459Z" fill="#FCFAFF"/>
<path d="M414.018 898L451.765 876.23V832.689L414.018 854.459V898Z" fill="#FCFAFF"/>
<path d="M414.018 898L376.47 876.23V832.689L414.018 854.459V898Z" fill="#FCFAFF"/>
<path d="M414.018 854.459L376.47 832.689L414.018 811.118L451.765 832.689L414.018 854.459Z" fill="#FCFAFF"/>
<path d="M489.312 898L527.059 876.23V832.689L489.312 854.459V898Z" fill="#FCFAFF"/>
<path d="M489.312 898L451.765 876.23V832.689L489.312 854.459V898Z" fill="#FCFAFF"/>
<path d="M489.312 854.459L451.765 832.689L489.312 811.118L527.059 832.689L489.312 854.459Z" fill="#FCFAFF"/>
<path d="M564.606 898L602.353 876.23V832.689L564.606 854.459V898Z" fill="#FCFAFF"/>
<path d="M564.606 898L527.059 876.23V832.689L564.606 854.459V898Z" fill="#FCFAFF"/>
<path d="M564.606 854.459L527.059 832.689L564.606 811.118L602.353 832.689L564.606 854.459Z" fill="#FCFAFF"/>
<path d="M639.9 898L677.647 876.23V832.689L639.9 854.459V898Z" fill="#FCFAFF"/>
<path d="M639.9 898L602.353 876.23V832.689L639.9 854.459V898Z" fill="#FCFAFF"/>
<path d="M639.9 854.459L602.353 832.689L639.9 811.118L677.647 832.689L639.9 854.459Z" fill="#FCFAFF"/>
<path d="M715.194 898L752.941 876.23V832.689L715.194 854.459V898Z" fill="#FCFAFF"/>
<path d="M715.194 898L677.647 876.23V832.689L715.194 854.459V898Z" fill="#FCFAFF"/>
<path d="M715.194 854.459L677.647 832.689L715.194 811.118L752.941 832.689L715.194 854.459Z" fill="#FCFAFF"/>
<path d="M790.488 898L828.235 876.23V832.689L790.488 854.459V898Z" fill="#FCFAFF"/>
<path d="M790.488 898L752.941 876.23V832.689L790.488 854.459V898Z" fill="#FCFAFF"/>
<path d="M790.488 854.459L752.941 832.689L790.488 811.118L828.235 832.689L790.488 854.459Z" fill="#FCFAFF"/>
<path d="M865.783 898L903.529 876.23V832.689L865.783 854.459V898Z" fill="#FCFAFF"/>
<path d="M865.783 898L828.235 876.23V832.689L865.783 854.459V898Z" fill="#FCFAFF"/>
<path d="M865.783 854.459L828.235 832.689L865.783 811.118L903.529 832.689L865.783 854.459Z" fill="#FCFAFF"/>
<path d="M941.076 898L978.823 876.23V832.689L941.076 854.459V898Z" fill="#FCFAFF"/>
<path d="M941.076 898L903.529 876.23V832.689L941.076 854.459V898Z" fill="#FCFAFF"/>
<path d="M941.076 854.459L903.529 832.689L941.077 811.118L978.823 832.689L941.076 854.459Z" fill="#FCFAFF"/>
<path d="M1016.37 898L1054.12 876.23V832.689L1016.37 854.459V898Z" fill="#FCFAFF"/>
<path d="M1016.37 898L978.823 876.23V832.689L1016.37 854.459V898Z" fill="#FCFAFF"/>
<path d="M1016.37 854.459L978.823 832.689L1016.37 811.118L1054.12 832.689L1016.37 854.459Z" fill="#FCFAFF"/>
<path d="M1091.66 898L1129.41 876.23V832.689L1091.66 854.459V898Z" fill="#FCFAFF"/>
<path d="M1091.66 898L1054.12 876.23V832.689L1091.66 854.459V898Z" fill="#FCFAFF"/>
<path d="M1091.66 854.459L1054.12 832.689L1091.66 811.118L1129.41 832.689L1091.66 854.459Z" fill="#FCFAFF"/>
<path d="M1166.96 898L1204.71 876.23V832.689L1166.96 854.459V898Z" fill="#FCFAFF"/>
<path d="M1166.96 898L1129.41 876.23V832.689L1166.96 854.459V898Z" fill="#FCFAFF"/>
<path d="M1166.96 854.459L1129.41 832.689L1166.96 811.118L1204.71 832.689L1166.96 854.459Z" fill="#FCFAFF"/>
<path d="M1242.25 898L1280 876.23V832.689L1242.25 854.459V898Z" fill="#FCFAFF"/>
<path d="M1242.25 898L1204.71 876.23V832.689L1242.25 854.459V898Z" fill="#FCFAFF"/>
<path d="M1242.25 854.459L1204.71 832.689L1242.25 811.118L1280 832.689L1242.25 854.459Z" fill="#FCFAFF"/>
<path d="M1317.55 898L1355.29 876.23V832.689L1317.55 854.459V898Z" fill="#FCFAFF"/>
<path d="M1317.55 898L1280 876.23V832.689L1317.55 854.459V898Z" fill="#FCFAFF"/>
<path d="M1317.55 854.459L1280 832.689L1317.55 811.118L1355.29 832.689L1317.55 854.459Z" fill="#FCFAFF"/>
<path d="M1392.84 898L1430.59 876.23V832.689L1392.84 854.459V898Z" fill="#FCFAFF"/>
<path d="M1392.84 898L1355.29 876.23V832.689L1392.84 854.459V898Z" fill="#FCFAFF"/>
<path d="M1392.84 854.459L1355.29 832.689L1392.84 811.118L1430.59 832.689L1392.84 854.459Z" fill="#FCFAFF"/>
<path d="M1468.14 898L1505.88 876.23V832.689L1468.14 854.459V898Z" fill="#FCFAFF"/>
<path d="M1468.14 898L1430.59 876.23V832.689L1468.14 854.459V898Z" fill="#FCFAFF"/>
<path d="M1468.14 854.459L1430.59 832.689L1468.14 811.118L1505.88 832.689L1468.14 854.459Z" fill="#FCFAFF"/>
<path d="M1543.43 898L1581.18 876.23V832.689L1543.43 854.459V898Z" fill="#FCFAFF"/>
<path d="M1543.43 898L1505.88 876.23V832.689L1543.43 854.459V898Z" fill="#FCFAFF"/>
<path d="M1543.43 854.459L1505.88 832.689L1543.43 811.118L1581.18 832.689L1543.43 854.459Z" fill="#FCFAFF"/>
<path d="M1618.72 898L1656.47 876.23V832.689L1618.72 854.459V898Z" fill="#FCFAFF"/>
<path d="M1618.72 898L1581.18 876.23V832.689L1618.72 854.459V898Z" fill="#FCFAFF"/>
<path d="M1618.72 854.459L1581.18 832.689L1618.72 811.118L1656.47 832.689L1618.72 854.459Z" fill="#FCFAFF"/>
<path d="M1694.02 898L1731.76 876.23V832.689L1694.02 854.459V898Z" fill="#FCFAFF"/>
<path d="M1694.02 898L1656.47 876.23V832.689L1694.02 854.459V898Z" fill="#FCFAFF"/>
<path d="M1694.02 854.459L1656.47 832.689L1694.02 811.118L1731.76 832.689L1694.02 854.459Z" fill="#FCFAFF"/>
<path d="M1769.31 898L1807.06 876.23V832.689L1769.31 854.459V898Z" fill="#FCFAFF"/>
<path d="M1769.31 898L1731.76 876.23V832.689L1769.31 854.459V898Z" fill="#FCFAFF"/>
<path d="M1769.31 854.459L1731.76 832.689L1769.31 811.118L1807.06 832.689L1769.31 854.459Z" fill="#FCFAFF"/>
<path d="M1844.61 898L1882.35 876.23V832.689L1844.61 854.459V898Z" fill="#FCFAFF"/>
<path d="M1844.61 898L1807.06 876.23V832.689L1844.61 854.459V898Z" fill="#FCFAFF"/>
<path d="M1844.61 854.459L1807.06 832.689L1844.61 811.118L1882.35 832.689L1844.61 854.459Z" fill="#FCFAFF"/>
<path d="M37.5472 898L75.2941 876.23V832.689L37.5472 854.459V898Z" fill="#FCFAFF"/>
<path d="M37.5472 898L0 876.23V832.689L37.5472 854.459V898Z" fill="#FCFAFF"/>
<path d="M37.5472 854.459L0 832.689L37.5472 811.118L75.2941 832.689L37.5472 854.459Z" fill="#FCFAFF"/>
<path d="M75.1944 1679.46L112.941 1701.23V1744.77L75.1944 1723V1679.46Z" fill="#FCFAFF"/>
<path d="M75.1944 1679.46L37.6472 1701.23V1744.77L75.1944 1723V1679.46Z" fill="#FCFAFF"/>
<path d="M75.1944 1723L37.6472 1744.77L75.1944 1766.34L112.941 1744.77L75.1944 1723Z" fill="#FCFAFF"/>
<path d="M150.489 2056.14L188.236 2077.91V2121.45L150.489 2099.68V2056.14Z" fill="#FCFAFF"/>
<path d="M150.489 2056.14L112.941 2077.91V2121.45L150.489 2099.68V2056.14Z" fill="#FCFAFF"/>
<path d="M150.489 2099.68L112.941 2121.45L150.489 2143.02L188.236 2121.45L150.489 2099.68Z" fill="#FCFAFF"/>
<path d="M225.783 1679.46L263.53 1701.23V1744.77L225.783 1723V1679.46Z" fill="#FCFAFF"/>
<path d="M225.783 1679.46L188.236 1701.23V1744.77L225.783 1723V1679.46Z" fill="#FCFAFF"/>
<path d="M225.783 1723L188.236 1744.77L225.783 1766.34L263.53 1744.77L225.783 1723Z" fill="#FCFAFF"/>
<path d="M301.077 2164.12L338.824 2185.89V2229.43L301.077 2207.66V2164.12Z" fill="#FCFAFF"/>
<path d="M301.077 2164.12L263.53 2185.89V2229.43L301.077 2207.66V2164.12Z" fill="#FCFAFF"/>
<path d="M301.077 2207.66L263.53 2229.43L301.077 2251L338.824 2229.43L301.077 2207.66Z" fill="#FCFAFF"/>
<path d="M376.371 1679.46L414.118 1701.23V1744.77L376.371 1723V1679.46Z" fill="#FCFAFF"/>
<path d="M376.371 1679.46L338.824 1701.23V1744.77L376.371 1723V1679.46Z" fill="#FCFAFF"/>
<path d="M376.371 1723L338.824 1744.77L376.371 1766.34L414.118 1744.77L376.371 1723Z" fill="#FCFAFF"/>
<path d="M451.665 1882.86L489.412 1904.63V1948.17L451.665 1926.4V1882.86Z" fill="#FCFAFF"/>
<path d="M451.665 1882.86L414.118 1904.63V1948.17L451.665 1926.4V1882.86Z" fill="#FCFAFF"/>
<path d="M451.665 1926.4L414.118 1948.17L451.665 1969.75L489.412 1948.17L451.665 1926.4Z" fill="#FCFAFF"/>
<path d="M526.959 1679.46L564.706 1701.23V1744.77L526.959 1723V1679.46Z" fill="#FCFAFF"/>
<path d="M526.959 1679.46L489.412 1701.23V1744.77L526.959 1723V1679.46Z" fill="#FCFAFF"/>
<path d="M526.959 1723L489.412 1744.77L526.959 1766.34L564.706 1744.77L526.959 1723Z" fill="#FCFAFF"/>
<path d="M602.253 2005.91L640 2027.68V2071.22L602.253 2049.45V2005.91Z" fill="#FCFAFF"/>
<path d="M602.253 2005.91L564.706 2027.68V2071.22L602.253 2049.45V2005.91Z" fill="#FCFAFF"/>
<path d="M602.253 2049.45L564.706 2071.22L602.254 2092.79L640 2071.22L602.253 2049.45Z" fill="#FCFAFF"/>
<path d="M677.547 1679.46L715.294 1701.23V1744.77L677.547 1723V1679.46Z" fill="#FCFAFF"/>
<path d="M677.547 1679.46L640 1701.23V1744.77L677.547 1723V1679.46Z" fill="#FCFAFF"/>
<path d="M677.547 1723L640 1744.77L677.547 1766.34L715.294 1744.77L677.547 1723Z" fill="#FCFAFF"/>
<path d="M752.841 1679.46L790.588 1701.23V1744.77L752.841 1723V1679.46Z" fill="#FCFAFF"/>
<path d="M752.841 1679.46L715.294 1701.23V1744.77L752.841 1723V1679.46Z" fill="#FCFAFF"/>
<path d="M752.841 1723L715.294 1744.77L752.841 1766.34L790.588 1744.77L752.841 1723Z" fill="#FCFAFF"/>
<path d="M828.136 1766.09L865.882 1787.86V1831.4L828.136 1809.63V1766.09Z" fill="#FCFAFF"/>
<path d="M828.136 1766.09L790.588 1787.86V1831.4L828.136 1809.63V1766.09Z" fill="#FCFAFF"/>
<path d="M828.136 1809.63L790.588 1831.4L828.136 1852.97L865.882 1831.4L828.136 1809.63Z" fill="#FCFAFF"/>
<path d="M903.43 1679.46L941.177 1701.23V1744.77L903.43 1723V1679.46Z" fill="#FCFAFF"/>
<path d="M903.43 1679.46L865.883 1701.23V1744.77L903.43 1723V1679.46Z" fill="#FCFAFF"/>
<path d="M903.43 1723L865.883 1744.77L903.43 1766.34L941.177 1744.77L903.43 1723Z" fill="#FCFAFF"/>
<path d="M978.724 2054.88L1016.47 2076.65V2120.19L978.724 2098.42V2054.88Z" fill="#FCFAFF"/>
<path d="M978.724 2054.88L941.177 2076.65V2120.19L978.724 2098.42V2054.88Z" fill="#FCFAFF"/>
<path d="M978.724 2098.42L941.177 2120.19L978.724 2141.76L1016.47 2120.19L978.724 2098.42Z" fill="#FCFAFF"/>
<path d="M1054.02 1679.46L1091.76 1701.23V1744.77L1054.02 1723V1679.46Z" fill="#FCFAFF"/>
<path d="M1054.02 1679.46L1016.47 1701.23V1744.77L1054.02 1723V1679.46Z" fill="#FCFAFF"/>
<path d="M1054.02 1723L1016.47 1744.77L1054.02 1766.34L1091.76 1744.77L1054.02 1723Z" fill="#FCFAFF"/>
<path d="M1129.31 2054.88L1167.06 2076.65V2120.19L1129.31 2098.42V2054.88Z" fill="#FCFAFF"/>
<path d="M1129.31 2054.88L1091.77 2076.65V2120.19L1129.31 2098.42V2054.88Z" fill="#FCFAFF"/>
<path d="M1129.31 2098.42L1091.77 2120.19L1129.31 2141.76L1167.06 2120.19L1129.31 2098.42Z" fill="#FCFAFF"/>
<path d="M1204.61 1679.46L1242.35 1701.23V1744.77L1204.61 1723V1679.46Z" fill="#FCFAFF"/>
<path d="M1204.61 1679.46L1167.06 1701.23V1744.77L1204.61 1723V1679.46Z" fill="#FCFAFF"/>
<path d="M1204.61 1723L1167.06 1744.77L1204.61 1766.34L1242.35 1744.77L1204.61 1723Z" fill="#FCFAFF"/>
<path d="M1279.9 1679.46L1317.65 1701.23V1744.77L1279.9 1723V1679.46Z" fill="#FCFAFF"/>
<path d="M1279.9 1679.46L1242.35 1701.23V1744.77L1279.9 1723V1679.46Z" fill="#FCFAFF"/>
<path d="M1279.9 1723L1242.35 1744.77L1279.9 1766.34L1317.65 1744.77L1279.9 1723Z" fill="#FCFAFF"/>
<path d="M1355.19 1679.46L1392.94 1701.23V1744.77L1355.19 1723V1679.46Z" fill="#FCFAFF"/>
<path d="M1355.19 1679.46L1317.65 1701.23V1744.77L1355.19 1723V1679.46Z" fill="#FCFAFF"/>
<path d="M1355.19 1723L1317.65 1744.77L1355.19 1766.34L1392.94 1744.77L1355.19 1723Z" fill="#FCFAFF"/>
<path d="M1430.49 2033.54L1468.24 2055.31V2098.85L1430.49 2077.08V2033.54Z" fill="#FCFAFF"/>
<path d="M1430.49 2033.54L1392.94 2055.31V2098.85L1430.49 2077.08V2033.54Z" fill="#FCFAFF"/>
<path d="M1430.49 2077.08L1392.94 2098.85L1430.49 2120.42L1468.24 2098.85L1430.49 2077.08Z" fill="#FCFAFF"/>
<path d="M1505.78 1679.46L1543.53 1701.23V1744.77L1505.78 1723V1679.46Z" fill="#FCFAFF"/>
<path d="M1505.78 1679.46L1468.24 1701.23V1744.77L1505.78 1723V1679.46Z" fill="#FCFAFF"/>
<path d="M1505.78 1723L1468.24 1744.77L1505.78 1766.34L1543.53 1744.77L1505.78 1723Z" fill="#FCFAFF"/>
<path d="M1581.08 2033.54L1618.82 2055.31V2098.85L1581.08 2077.08V2033.54Z" fill="#FCFAFF"/>
<path d="M1581.08 2033.54L1543.53 2055.31V2098.85L1581.08 2077.08V2033.54Z" fill="#FCFAFF"/>
<path d="M1581.08 2077.08L1543.53 2098.85L1581.08 2120.42L1618.82 2098.85L1581.08 2077.08Z" fill="#FCFAFF"/>
<path d="M1656.37 1679.46L1694.12 1701.23V1744.77L1656.37 1723V1679.46Z" fill="#FCFAFF"/>
<path d="M1656.37 1679.46L1618.82 1701.23V1744.77L1656.37 1723V1679.46Z" fill="#FCFAFF"/>
<path d="M1656.37 1723L1618.82 1744.77L1656.37 1766.34L1694.12 1744.77L1656.37 1723Z" fill="#FCFAFF"/>
<path d="M1731.66 2033.54L1769.41 2055.31V2098.85L1731.66 2077.08V2033.54Z" fill="#FCFAFF"/>
<path d="M1731.66 2033.54L1694.12 2055.31V2098.85L1731.66 2077.08V2033.54Z" fill="#FCFAFF"/>
<path d="M1731.66 2077.08L1694.12 2098.85L1731.66 2120.42L1769.41 2098.85L1731.66 2077.08Z" fill="#FCFAFF"/>
<path d="M1806.96 1679.46L1844.71 1701.23V1744.77L1806.96 1723V1679.46Z" fill="#FCFAFF"/>
<path d="M1806.96 1679.46L1769.41 1701.23V1744.77L1806.96 1723V1679.46Z" fill="#FCFAFF"/>
<path d="M1806.96 1723L1769.41 1744.77L1806.96 1766.34L1844.71 1744.77L1806.96 1723Z" fill="#FCFAFF"/>
<path d="M1882.25 1679.46L1920 1701.23V1744.77L1882.25 1723V1679.46Z" fill="#FCFAFF"/>
<path d="M1882.25 1679.46L1844.71 1701.23V1744.77L1882.25 1723V1679.46Z" fill="#FCFAFF"/>
<path d="M1882.25 1723L1844.71 1744.77L1882.25 1766.34L1920 1744.77L1882.25 1723Z" fill="#FCFAFF"/>
<path d="M75.1944 1548.87L112.941 1570.64V1614.19L75.1944 1592.41V1548.87Z" fill="#FCFAFF"/>
<path d="M75.1944 1548.87L37.6472 1570.64V1614.19L75.1944 1592.41V1548.87Z" fill="#FCFAFF"/>
<path d="M75.1944 1592.41L37.6472 1614.19L75.1944 1635.76L112.941 1614.19L75.1944 1592.41Z" fill="#FCFAFF"/>
<path d="M150.489 1925.55L188.236 1947.32V1990.87L150.489 1969.09V1925.55Z" fill="#FCFAFF"/>
<path d="M150.489 1925.55L112.941 1947.32V1990.87L150.489 1969.09V1925.55Z" fill="#FCFAFF"/>
<path d="M150.489 1969.09L112.941 1990.87L150.489 2012.44L188.236 1990.87L150.489 1969.09Z" fill="#FCFAFF"/>
<path d="M225.783 1925.55L263.53 1947.32V1990.87L225.783 1969.09V1925.55Z" fill="#FCFAFF"/>
<path d="M225.783 1925.55L188.236 1947.32V1990.87L225.783 1969.09V1925.55Z" fill="#FCFAFF"/>
<path d="M225.783 1969.09L188.236 1990.87L225.783 2012.44L263.53 1990.87L225.783 1969.09Z" fill="#FCFAFF"/>
<path d="M301.077 1548.87L338.824 1570.64V1614.19L301.077 1592.41V1548.87Z" fill="#FCFAFF"/>
<path d="M301.077 1548.87L263.53 1570.64V1614.19L301.077 1592.41V1548.87Z" fill="#FCFAFF"/>
<path d="M301.077 1592.41L263.53 1614.19L301.077 1635.76L338.824 1614.19L301.077 1592.41Z" fill="#FCFAFF"/>
<path d="M376.371 1548.87L414.118 1570.64V1614.19L376.371 1592.41V1548.87Z" fill="#FCFAFF"/>
<path d="M376.371 1548.87L338.824 1570.64V1614.19L376.371 1592.41V1548.87Z" fill="#FCFAFF"/>
<path d="M376.371 1592.41L338.824 1614.19L376.371 1635.76L414.118 1614.19L376.371 1592.41Z" fill="#FCFAFF"/>
<path d="M451.665 2033.54L489.412 2055.31V2098.85L451.665 2077.08V2033.54Z" fill="#FCFAFF"/>
<path d="M451.665 2033.54L414.118 2055.31V2098.85L451.665 2077.08V2033.54Z" fill="#FCFAFF"/>
<path d="M451.665 2077.08L414.118 2098.85L451.665 2120.42L489.412 2098.85L451.665 2077.08Z" fill="#FCFAFF"/>
<path d="M526.959 1548.87L564.706 1570.64V1614.19L526.959 1592.41V1548.87Z" fill="#FCFAFF"/>
<path d="M526.959 1548.87L489.412 1570.64V1614.19L526.959 1592.41V1548.87Z" fill="#FCFAFF"/>
<path d="M526.959 1592.41L489.412 1614.19L526.959 1635.76L564.706 1614.19L526.959 1592.41Z" fill="#FCFAFF"/>
<path d="M602.253 1548.87L640 1570.64V1614.19L602.253 1592.41V1548.87Z" fill="#FCFAFF"/>
<path d="M602.253 1548.87L564.706 1570.64V1614.19L602.253 1592.41V1548.87Z" fill="#FCFAFF"/>
<path d="M602.253 1592.41L564.706 1614.19L602.254 1635.76L640 1614.19L602.253 1592.41Z" fill="#FCFAFF"/>
<path d="M677.547 1548.87L715.294 1570.64V1614.19L677.547 1592.41V1548.87Z" fill="#FCFAFF"/>
<path d="M677.547 1548.87L640 1570.64V1614.19L677.547 1592.41V1548.87Z" fill="#FCFAFF"/>
<path d="M677.547 1592.41L640 1614.19L677.547 1635.76L715.294 1614.19L677.547 1592.41Z" fill="#FCFAFF"/>
<path d="M752.841 1548.87L790.588 1570.64V1614.19L752.841 1592.41V1548.87Z" fill="#FCFAFF"/>
<path d="M752.841 1548.87L715.294 1570.64V1614.19L752.841 1592.41V1548.87Z" fill="#FCFAFF"/>
<path d="M752.841 1592.41L715.294 1614.19L752.841 1635.76L790.588 1614.19L752.841 1592.41Z" fill="#FCFAFF"/>
<path d="M828.136 1548.87L865.882 1570.64V1614.19L828.136 1592.41V1548.87Z" fill="#FCFAFF"/>
<path d="M828.136 1548.87L790.588 1570.64V1614.19L828.136 1592.41V1548.87Z" fill="#FCFAFF"/>
<path d="M828.136 1592.41L790.588 1614.19L828.136 1635.76L865.882 1614.19L828.136 1592.41Z" fill="#FCFAFF"/>
<path d="M903.43 1548.87L941.177 1570.64V1614.19L903.43 1592.41V1548.87Z" fill="#FCFAFF"/>
<path d="M903.43 1548.87L865.883 1570.64V1614.19L903.43 1592.41V1548.87Z" fill="#FCFAFF"/>
<path d="M903.43 1592.41L865.883 1614.19L903.43 1635.76L941.177 1614.19L903.43 1592.41Z" fill="#FCFAFF"/>
<path d="M978.724 1548.87L1016.47 1570.64V1614.19L978.724 1592.41V1548.87Z" fill="#FCFAFF"/>
<path d="M978.724 1548.87L941.177 1570.64V1614.19L978.724 1592.41V1548.87Z" fill="#FCFAFF"/>
<path d="M978.724 1592.41L941.177 1614.19L978.724 1635.76L1016.47 1614.19L978.724 1592.41Z" fill="#FCFAFF"/>
<path d="M1054.02 1924.3L1091.76 1946.07V1989.61L1054.02 1967.84V1924.3Z" fill="#FCFAFF"/>
<path d="M1054.02 1924.3L1016.47 1946.07V1989.61L1054.02 1967.84V1924.3Z" fill="#FCFAFF"/>
<path d="M1054.02 1967.84L1016.47 1989.61L1054.02 2011.18L1091.76 1989.61L1054.02 1967.84Z" fill="#FCFAFF"/>
<path d="M1129.31 1548.87L1167.06 1570.64V1614.19L1129.31 1592.41V1548.87Z" fill="#FCFAFF"/>
<path d="M1129.31 1548.87L1091.77 1570.64V1614.19L1129.31 1592.41V1548.87Z" fill="#FCFAFF"/>
<path d="M1129.31 1592.41L1091.77 1614.19L1129.31 1635.76L1167.06 1614.19L1129.31 1592.41Z" fill="#FCFAFF"/>
<path d="M1204.61 1924.3L1242.35 1946.07V1989.61L1204.61 1967.84V1924.3Z" fill="#FCFAFF"/>
<path d="M1204.61 1924.3L1167.06 1946.07V1989.61L1204.61 1967.84V1924.3Z" fill="#FCFAFF"/>
<path d="M1204.61 1967.84L1167.06 1989.61L1204.61 2011.18L1242.35 1989.61L1204.61 1967.84Z" fill="#FCFAFF"/>
<path d="M1279.9 1548.87L1317.65 1570.64V1614.19L1279.9 1592.41V1548.87Z" fill="#FCFAFF"/>
<path d="M1279.9 1548.87L1242.35 1570.64V1614.19L1279.9 1592.41V1548.87Z" fill="#FCFAFF"/>
<path d="M1279.9 1592.41L1242.35 1614.19L1279.9 1635.76L1317.65 1614.19L1279.9 1592.41Z" fill="#FCFAFF"/>
<path d="M1355.19 1924.3L1392.94 1946.07V1989.61L1355.19 1967.84V1924.3Z" fill="#FCFAFF"/>
<path d="M1355.19 1924.3L1317.65 1946.07V1989.61L1355.19 1967.84V1924.3Z" fill="#FCFAFF"/>
<path d="M1355.19 1967.84L1317.65 1989.61L1355.19 2011.18L1392.94 1989.61L1355.19 1967.84Z" fill="#FCFAFF"/>
<path d="M1430.49 1548.87L1468.24 1570.64V1614.19L1430.49 1592.41V1548.87Z" fill="#FCFAFF"/>
<path d="M1430.49 1548.87L1392.94 1570.64V1614.19L1430.49 1592.41V1548.87Z" fill="#FCFAFF"/>
<path d="M1430.49 1592.41L1392.94 1614.19L1430.49 1635.76L1468.24 1614.19L1430.49 1592.41Z" fill="#FCFAFF"/>
<path d="M1505.78 1548.87L1543.53 1570.64V1614.19L1505.78 1592.41V1548.87Z" fill="#FCFAFF"/>
<path d="M1505.78 1548.87L1468.24 1570.64V1614.19L1505.78 1592.41V1548.87Z" fill="#FCFAFF"/>
<path d="M1505.78 1592.41L1468.24 1614.19L1505.78 1635.76L1543.53 1614.19L1505.78 1592.41Z" fill="#FCFAFF"/>
<path d="M1581.08 1548.87L1618.82 1570.64V1614.19L1581.08 1592.41V1548.87Z" fill="#FCFAFF"/>
<path d="M1581.08 1548.87L1543.53 1570.64V1614.19L1581.08 1592.41V1548.87Z" fill="#FCFAFF"/>
<path d="M1581.08 1592.41L1543.53 1614.19L1581.08 1635.76L1618.82 1614.19L1581.08 1592.41Z" fill="#FCFAFF"/>
<path d="M1656.37 1548.87L1694.12 1570.64V1614.19L1656.37 1592.41V1548.87Z" fill="#FCFAFF"/>
<path d="M1656.37 1548.87L1618.82 1570.64V1614.19L1656.37 1592.41V1548.87Z" fill="#FCFAFF"/>
<path d="M1656.37 1592.41L1618.82 1614.19L1656.37 1635.76L1694.12 1614.19L1656.37 1592.41Z" fill="#FCFAFF"/>
<path d="M1731.66 1548.87L1769.41 1570.64V1614.19L1731.66 1592.41V1548.87Z" fill="#FCFAFF"/>
<path d="M1731.66 1548.87L1694.12 1570.64V1614.19L1731.66 1592.41V1548.87Z" fill="#FCFAFF"/>
<path d="M1731.66 1592.41L1694.12 1614.19L1731.66 1635.76L1769.41 1614.19L1731.66 1592.41Z" fill="#FCFAFF"/>
<path d="M1806.96 1548.87L1844.71 1570.64V1614.19L1806.96 1592.41V1548.87Z" fill="#FCFAFF"/>
<path d="M1806.96 1548.87L1769.41 1570.64V1614.19L1806.96 1592.41V1548.87Z" fill="#FCFAFF"/>
<path d="M1806.96 1592.41L1769.41 1614.19L1806.96 1635.76L1844.71 1614.19L1806.96 1592.41Z" fill="#FCFAFF"/>
<path d="M1882.25 1548.87L1920 1570.64V1614.19L1882.25 1592.41V1548.87Z" fill="#FCFAFF"/>
<path d="M1882.25 1548.87L1844.71 1570.64V1614.19L1882.25 1592.41V1548.87Z" fill="#FCFAFF"/>
<path d="M1882.25 1592.41L1844.71 1614.19L1882.25 1635.76L1920 1614.19L1882.25 1592.41Z" fill="#FCFAFF"/>
<path d="M75.1941 1418.29L112.941 1440.06V1483.6L75.1941 1461.83V1418.29Z" fill="#FCFAFF"/>
<path d="M75.1941 1418.29L37.647 1440.06V1483.6L75.1941 1461.83V1418.29Z" fill="#FCFAFF"/>
<path d="M75.1941 1461.83L37.647 1483.6L75.1942 1505.17L112.941 1483.6L75.1941 1461.83Z" fill="#FCFAFF"/>
<path d="M150.488 1418.29L188.235 1440.06V1483.6L150.488 1461.83V1418.29Z" fill="#FCFAFF"/>
<path d="M150.488 1418.29L112.941 1440.06V1483.6L150.488 1461.83V1418.29Z" fill="#FCFAFF"/>
<path d="M150.488 1461.83L112.941 1483.6L150.488 1505.17L188.235 1483.6L150.488 1461.83Z" fill="#FCFAFF"/>
<path d="M225.782 1418.29L263.529 1440.06V1483.6L225.782 1461.83V1418.29Z" fill="#FCFAFF"/>
<path d="M225.782 1418.29L188.235 1440.06V1483.6L225.782 1461.83V1418.29Z" fill="#FCFAFF"/>
<path d="M225.782 1461.83L188.235 1483.6L225.782 1505.17L263.529 1483.6L225.782 1461.83Z" fill="#FCFAFF"/>
<path d="M301.077 1418.29L338.824 1440.06V1483.6L301.077 1461.83V1418.29Z" fill="#FCFAFF"/>
<path d="M301.077 1418.29L263.529 1440.06V1483.6L301.077 1461.83V1418.29Z" fill="#FCFAFF"/>
<path d="M301.077 1461.83L263.529 1483.6L301.077 1505.17L338.824 1483.6L301.077 1461.83Z" fill="#FCFAFF"/>
<path d="M376.371 1418.29L414.118 1440.06V1483.6L376.371 1461.83V1418.29Z" fill="#FCFAFF"/>
<path d="M376.371 1418.29L338.823 1440.06V1483.6L376.371 1461.83V1418.29Z" fill="#FCFAFF"/>
<path d="M376.371 1461.83L338.823 1483.6L376.371 1505.17L414.118 1483.6L376.371 1461.83Z" fill="#FCFAFF"/>
<path d="M451.665 1418.29L489.412 1440.06V1483.6L451.665 1461.83V1418.29Z" fill="#FCFAFF"/>
<path d="M451.665 1418.29L414.118 1440.06V1483.6L451.665 1461.83V1418.29Z" fill="#FCFAFF"/>
<path d="M451.665 1461.83L414.118 1483.6L451.665 1505.17L489.412 1483.6L451.665 1461.83Z" fill="#FCFAFF"/>
<path d="M526.959 1418.29L564.706 1440.06V1483.6L526.959 1461.83V1418.29Z" fill="#FCFAFF"/>
<path d="M526.959 1418.29L489.412 1440.06V1483.6L526.959 1461.83V1418.29Z" fill="#FCFAFF"/>
<path d="M526.959 1461.83L489.412 1483.6L526.959 1505.17L564.706 1483.6L526.959 1461.83Z" fill="#FCFAFF"/>
<path d="M602.253 1418.29L640 1440.06V1483.6L602.253 1461.83V1418.29Z" fill="#FCFAFF"/>
<path d="M602.253 1418.29L564.706 1440.06V1483.6L602.253 1461.83V1418.29Z" fill="#FCFAFF"/>
<path d="M602.253 1461.83L564.706 1483.6L602.253 1505.17L640 1483.6L602.253 1461.83Z" fill="#FCFAFF"/>
<path d="M677.547 1418.29L715.294 1440.06V1483.6L677.547 1461.83V1418.29Z" fill="#FCFAFF"/>
<path d="M677.547 1418.29L640 1440.06V1483.6L677.547 1461.83V1418.29Z" fill="#FCFAFF"/>
<path d="M677.547 1461.83L640 1483.6L677.547 1505.17L715.294 1483.6L677.547 1461.83Z" fill="#FCFAFF"/>
<path d="M752.841 1418.29L790.588 1440.06V1483.6L752.841 1461.83V1418.29Z" fill="#FCFAFF"/>
<path d="M752.841 1418.29L715.294 1440.06V1483.6L752.841 1461.83V1418.29Z" fill="#FCFAFF"/>
<path d="M752.841 1461.83L715.294 1483.6L752.841 1505.17L790.588 1483.6L752.841 1461.83Z" fill="#FCFAFF"/>
<path d="M828.135 1418.29L865.882 1440.06V1483.6L828.135 1461.83V1418.29Z" fill="#FCFAFF"/>
<path d="M828.135 1418.29L790.588 1440.06V1483.6L828.135 1461.83V1418.29Z" fill="#FCFAFF"/>
<path d="M828.135 1461.83L790.588 1483.6L828.135 1505.17L865.882 1483.6L828.135 1461.83Z" fill="#FCFAFF"/>
<path d="M903.429 1418.29L941.176 1440.06V1483.6L903.429 1461.83V1418.29Z" fill="#FCFAFF"/>
<path d="M903.429 1418.29L865.882 1440.06V1483.6L903.429 1461.83V1418.29Z" fill="#FCFAFF"/>
<path d="M903.429 1461.83L865.882 1483.6L903.43 1505.17L941.176 1483.6L903.429 1461.83Z" fill="#FCFAFF"/>
<path d="M978.724 1418.29L1016.47 1440.06V1483.6L978.724 1461.83V1418.29Z" fill="#FCFAFF"/>
<path d="M978.724 1418.29L941.177 1440.06V1483.6L978.724 1461.83V1418.29Z" fill="#FCFAFF"/>
<path d="M978.724 1461.83L941.177 1483.6L978.724 1505.17L1016.47 1483.6L978.724 1461.83Z" fill="#FCFAFF"/>
<path d="M1054.02 1418.29L1091.76 1440.06V1483.6L1054.02 1461.83V1418.29Z" fill="#FCFAFF"/>
<path d="M1054.02 1418.29L1016.47 1440.06V1483.6L1054.02 1461.83V1418.29Z" fill="#FCFAFF"/>
<path d="M1054.02 1461.83L1016.47 1483.6L1054.02 1505.17L1091.76 1483.6L1054.02 1461.83Z" fill="#FCFAFF"/>
<path d="M1129.31 1418.29L1167.06 1440.06V1483.6L1129.31 1461.83V1418.29Z" fill="#FCFAFF"/>
<path d="M1129.31 1418.29L1091.76 1440.06V1483.6L1129.31 1461.83V1418.29Z" fill="#FCFAFF"/>
<path d="M1129.31 1461.83L1091.76 1483.6L1129.31 1505.17L1167.06 1483.6L1129.31 1461.83Z" fill="#FCFAFF"/>
<path d="M1204.61 1418.29L1242.35 1440.06V1483.6L1204.61 1461.83V1418.29Z" fill="#FCFAFF"/>
<path d="M1204.61 1418.29L1167.06 1440.06V1483.6L1204.61 1461.83V1418.29Z" fill="#FCFAFF"/>
<path d="M1204.61 1461.83L1167.06 1483.6L1204.61 1505.17L1242.35 1483.6L1204.61 1461.83Z" fill="#FCFAFF"/>
<path d="M1279.9 1418.29L1317.65 1440.06V1483.6L1279.9 1461.83V1418.29Z" fill="#FCFAFF"/>
<path d="M1279.9 1418.29L1242.35 1440.06V1483.6L1279.9 1461.83V1418.29Z" fill="#FCFAFF"/>
<path d="M1279.9 1461.83L1242.35 1483.6L1279.9 1505.17L1317.65 1483.6L1279.9 1461.83Z" fill="#FCFAFF"/>
<path d="M1355.19 1418.29L1392.94 1440.06V1483.6L1355.19 1461.83V1418.29Z" fill="#FCFAFF"/>
<path d="M1355.19 1418.29L1317.65 1440.06V1483.6L1355.19 1461.83V1418.29Z" fill="#FCFAFF"/>
<path d="M1355.19 1461.83L1317.65 1483.6L1355.19 1505.17L1392.94 1483.6L1355.19 1461.83Z" fill="#FCFAFF"/>
<path d="M1430.49 1418.29L1468.24 1440.06V1483.6L1430.49 1461.83V1418.29Z" fill="#FCFAFF"/>
<path d="M1430.49 1418.29L1392.94 1440.06V1483.6L1430.49 1461.83V1418.29Z" fill="#FCFAFF"/>
<path d="M1430.49 1461.83L1392.94 1483.6L1430.49 1505.17L1468.24 1483.6L1430.49 1461.83Z" fill="#FCFAFF"/>
<path d="M1505.78 1418.29L1543.53 1440.06V1483.6L1505.78 1461.83V1418.29Z" fill="#FCFAFF"/>
<path d="M1505.78 1418.29L1468.24 1440.06V1483.6L1505.78 1461.83V1418.29Z" fill="#FCFAFF"/>
<path d="M1505.78 1461.83L1468.24 1483.6L1505.78 1505.17L1543.53 1483.6L1505.78 1461.83Z" fill="#FCFAFF"/>
<path d="M1581.08 1418.29L1618.82 1440.06V1483.6L1581.08 1461.83V1418.29Z" fill="#FCFAFF"/>
<path d="M1581.08 1418.29L1543.53 1440.06V1483.6L1581.08 1461.83V1418.29Z" fill="#FCFAFF"/>
<path d="M1581.08 1461.83L1543.53 1483.6L1581.08 1505.17L1618.82 1483.6L1581.08 1461.83Z" fill="#FCFAFF"/>
<path d="M1656.37 1418.29L1694.12 1440.06V1483.6L1656.37 1461.83V1418.29Z" fill="#FCFAFF"/>
<path d="M1656.37 1418.29L1618.82 1440.06V1483.6L1656.37 1461.83V1418.29Z" fill="#FCFAFF"/>
<path d="M1656.37 1461.83L1618.82 1483.6L1656.37 1505.17L1694.12 1483.6L1656.37 1461.83Z" fill="#FCFAFF"/>
<path d="M1731.66 1418.29L1769.41 1440.06V1483.6L1731.66 1461.83V1418.29Z" fill="#FCFAFF"/>
<path d="M1731.66 1418.29L1694.12 1440.06V1483.6L1731.66 1461.83V1418.29Z" fill="#FCFAFF"/>
<path d="M1731.66 1461.83L1694.12 1483.6L1731.66 1505.17L1769.41 1483.6L1731.66 1461.83Z" fill="#FCFAFF"/>
<path d="M1806.96 1418.29L1844.71 1440.06V1483.6L1806.96 1461.83V1418.29Z" fill="#FCFAFF"/>
<path d="M1806.96 1418.29L1769.41 1440.06V1483.6L1806.96 1461.83V1418.29Z" fill="#FCFAFF"/>
<path d="M1806.96 1461.83L1769.41 1483.6L1806.96 1505.17L1844.71 1483.6L1806.96 1461.83Z" fill="#FCFAFF"/>
<path d="M1882.25 1418.29L1920 1440.06V1483.6L1882.25 1461.83V1418.29Z" fill="#FCFAFF"/>
<path d="M1882.25 1418.29L1844.71 1440.06V1483.6L1882.25 1461.83V1418.29Z" fill="#FCFAFF"/>
<path d="M1882.25 1461.83L1844.71 1483.6L1882.25 1505.17L1920 1483.6L1882.25 1461.83Z" fill="#FCFAFF"/>
<path d="M112.841 1614.16L150.588 1635.94V1679.48L112.841 1657.71V1614.16Z" fill="#FCFAFF"/>
<path d="M112.841 1614.16L75.2942 1635.94V1679.48L112.841 1657.71V1614.16Z" fill="#FCFAFF"/>
<path d="M112.841 1657.71L75.2942 1679.48L112.841 1701.05L150.588 1679.48L112.841 1657.71Z" fill="#FCFAFF"/>
<path d="M188.136 1614.16L225.882 1635.94V1679.48L188.136 1657.71V1614.16Z" fill="#FCFAFF"/>
<path d="M188.136 1614.16L150.588 1635.94V1679.48L188.136 1657.71V1614.16Z" fill="#FCFAFF"/>
<path d="M188.136 1657.71L150.588 1679.48L188.136 1701.05L225.882 1679.48L188.136 1657.71Z" fill="#FCFAFF"/>
<path d="M263.429 1614.16L301.176 1635.94V1679.48L263.429 1657.71V1614.16Z" fill="#FCFAFF"/>
<path d="M263.429 1614.16L225.882 1635.94V1679.48L263.429 1657.71V1614.16Z" fill="#FCFAFF"/>
<path d="M263.429 1657.71L225.882 1679.48L263.43 1701.05L301.176 1679.48L263.429 1657.71Z" fill="#FCFAFF"/>
<path d="M338.724 1810.04L376.471 1831.81V1875.35L338.724 1853.58V1810.04Z" fill="#FCFAFF"/>
<path d="M338.724 1810.04L301.177 1831.81V1875.35L338.724 1853.58V1810.04Z" fill="#FCFAFF"/>
<path d="M338.724 1853.58L301.177 1875.35L338.724 1896.92L376.471 1875.35L338.724 1853.58Z" fill="#FCFAFF"/>
<path d="M414.018 2098.83L451.765 2120.6V2164.14L414.018 2142.37V2098.83Z" fill="#FCFAFF"/>
<path d="M414.018 2098.83L376.47 2120.6V2164.14L414.018 2142.37V2098.83Z" fill="#FCFAFF"/>
<path d="M414.018 2142.37L376.47 2164.14L414.018 2185.71L451.765 2164.14L414.018 2142.37Z" fill="#FCFAFF"/>
<path d="M489.312 1614.16L527.059 1635.94V1679.48L489.312 1657.71V1614.16Z" fill="#FCFAFF"/>
<path d="M489.312 1614.16L451.765 1635.94V1679.48L489.312 1657.71V1614.16Z" fill="#FCFAFF"/>
<path d="M489.312 1657.71L451.765 1679.48L489.312 1701.05L527.059 1679.48L489.312 1657.71Z" fill="#FCFAFF"/>
<path d="M564.606 1614.16L602.353 1635.94V1679.48L564.606 1657.71V1614.16Z" fill="#FCFAFF"/>
<path d="M564.606 1614.16L527.059 1635.94V1679.48L564.606 1657.71V1614.16Z" fill="#FCFAFF"/>
<path d="M564.606 1657.71L527.059 1679.48L564.606 1701.05L602.353 1679.48L564.606 1657.71Z" fill="#FCFAFF"/>
<path d="M639.9 1940.62L677.647 1962.39V2005.93L639.9 1984.16V1940.62Z" fill="#FCFAFF"/>
<path d="M639.9 1940.62L602.353 1962.39V2005.93L639.9 1984.16V1940.62Z" fill="#FCFAFF"/>
<path d="M639.9 1984.16L602.353 2005.93L639.9 2027.5L677.647 2005.93L639.9 1984.16Z" fill="#FCFAFF"/>
<path d="M715.194 1940.62L752.941 1962.39V2005.93L715.194 1984.16V1940.62Z" fill="#FCFAFF"/>
<path d="M715.194 1940.62L677.647 1962.39V2005.93L715.194 1984.16V1940.62Z" fill="#FCFAFF"/>
<path d="M715.194 1984.16L677.647 2005.93L715.194 2027.5L752.941 2005.93L715.194 1984.16Z" fill="#FCFAFF"/>
<path d="M790.488 1614.16L828.235 1635.94V1679.48L790.488 1657.71V1614.16Z" fill="#FCFAFF"/>
<path d="M790.488 1614.16L752.941 1635.94V1679.48L790.488 1657.71V1614.16Z" fill="#FCFAFF"/>
<path d="M790.488 1657.71L752.941 1679.48L790.488 1701.05L828.235 1679.48L790.488 1657.71Z" fill="#FCFAFF"/>
<path d="M865.783 1989.59L903.529 2011.36V2054.9L865.783 2033.13V1989.59Z" fill="#FCFAFF"/>
<path d="M865.783 1989.59L828.235 2011.36V2054.9L865.783 2033.13V1989.59Z" fill="#FCFAFF"/>
<path d="M865.783 2033.13L828.235 2054.9L865.783 2076.47L903.529 2054.9L865.783 2033.13Z" fill="#FCFAFF"/>
<path d="M941.076 1989.59L978.823 2011.36V2054.9L941.076 2033.13V1989.59Z" fill="#FCFAFF"/>
<path d="M941.076 1989.59L903.529 2011.36V2054.9L941.076 2033.13V1989.59Z" fill="#FCFAFF"/>
<path d="M941.076 2033.13L903.529 2054.9L941.077 2076.47L978.823 2054.9L941.076 2033.13Z" fill="#FCFAFF"/>
<path d="M1016.37 1614.16L1054.12 1635.94V1679.48L1016.37 1657.71V1614.16Z" fill="#FCFAFF"/>
<path d="M1016.37 1614.16L978.823 1635.94V1679.48L1016.37 1657.71V1614.16Z" fill="#FCFAFF"/>
<path d="M1016.37 1657.71L978.823 1679.48L1016.37 1701.05L1054.12 1679.48L1016.37 1657.71Z" fill="#FCFAFF"/>
<path d="M1091.66 1614.16L1129.41 1635.94V1679.48L1091.66 1657.71V1614.16Z" fill="#FCFAFF"/>
<path d="M1091.66 1614.16L1054.12 1635.94V1679.48L1091.66 1657.71V1614.16Z" fill="#FCFAFF"/>
<path d="M1091.66 1657.71L1054.12 1679.48L1091.66 1701.05L1129.41 1679.48L1091.66 1657.71Z" fill="#FCFAFF"/>
<path d="M1166.96 1614.16L1204.71 1635.94V1679.48L1166.96 1657.71V1614.16Z" fill="#FCFAFF"/>
<path d="M1166.96 1614.16L1129.41 1635.94V1679.48L1166.96 1657.71V1614.16Z" fill="#FCFAFF"/>
<path d="M1166.96 1657.71L1129.41 1679.48L1166.96 1701.05L1204.71 1679.48L1166.96 1657.71Z" fill="#FCFAFF"/>
<path d="M1242.25 1989.59L1280 2011.36V2054.9L1242.25 2033.13V1989.59Z" fill="#FCFAFF"/>
<path d="M1242.25 1989.59L1204.71 2011.36V2054.9L1242.25 2033.13V1989.59Z" fill="#FCFAFF"/>
<path d="M1242.25 2033.13L1204.71 2054.9L1242.25 2076.47L1280 2054.9L1242.25 2033.13Z" fill="#FCFAFF"/>
<path d="M1317.55 1614.16L1355.29 1635.94V1679.48L1317.55 1657.71V1614.16Z" fill="#FCFAFF"/>
<path d="M1317.55 1614.16L1280 1635.94V1679.48L1317.55 1657.71V1614.16Z" fill="#FCFAFF"/>
<path d="M1317.55 1657.71L1280 1679.48L1317.55 1701.05L1355.29 1679.48L1317.55 1657.71Z" fill="#FCFAFF"/>
<path d="M1392.84 1614.16L1430.59 1635.94V1679.48L1392.84 1657.71V1614.16Z" fill="#FCFAFF"/>
<path d="M1392.84 1614.16L1355.29 1635.94V1679.48L1392.84 1657.71V1614.16Z" fill="#FCFAFF"/>
<path d="M1392.84 1657.71L1355.29 1679.48L1392.84 1701.05L1430.59 1679.48L1392.84 1657.71Z" fill="#FCFAFF"/>
<path d="M1468.14 1614.16L1505.88 1635.94V1679.48L1468.14 1657.71V1614.16Z" fill="#FCFAFF"/>
<path d="M1468.14 1614.16L1430.59 1635.94V1679.48L1468.14 1657.71V1614.16Z" fill="#FCFAFF"/>
<path d="M1468.14 1657.71L1430.59 1679.48L1468.14 1701.05L1505.88 1679.48L1468.14 1657.71Z" fill="#FCFAFF"/>
<path d="M1543.43 1902.95L1581.18 1924.72V1968.26L1543.43 1946.49V1902.95Z" fill="#FCFAFF"/>
<path d="M1543.43 1902.95L1505.88 1924.72V1968.26L1543.43 1946.49V1902.95Z" fill="#FCFAFF"/>
<path d="M1543.43 1946.49L1505.88 1968.26L1543.43 1989.83L1581.18 1968.26L1543.43 1946.49Z" fill="#FCFAFF"/>
<path d="M1618.72 1902.95L1656.47 1924.72V1968.26L1618.72 1946.49V1902.95Z" fill="#FCFAFF"/>
<path d="M1618.72 1902.95L1581.18 1924.72V1968.26L1618.72 1946.49V1902.95Z" fill="#FCFAFF"/>
<path d="M1618.72 1946.49L1581.18 1968.26L1618.72 1989.83L1656.47 1968.26L1618.72 1946.49Z" fill="#FCFAFF"/>
<path d="M1694.02 1614.16L1731.76 1635.94V1679.48L1694.02 1657.71V1614.16Z" fill="#FCFAFF"/>
<path d="M1694.02 1614.16L1656.47 1635.94V1679.48L1694.02 1657.71V1614.16Z" fill="#FCFAFF"/>
<path d="M1694.02 1657.71L1656.47 1679.48L1694.02 1701.05L1731.76 1679.48L1694.02 1657.71Z" fill="#FCFAFF"/>
<path d="M1769.31 1902.95L1807.06 1924.72V1968.26L1769.31 1946.49V1902.95Z" fill="#FCFAFF"/>
<path d="M1769.31 1902.95L1731.76 1924.72V1968.26L1769.31 1946.49V1902.95Z" fill="#FCFAFF"/>
<path d="M1769.31 1946.49L1731.76 1968.26L1769.31 1989.83L1807.06 1968.26L1769.31 1946.49Z" fill="#FCFAFF"/>
<path d="M1844.61 1614.16L1882.35 1635.94V1679.48L1844.61 1657.71V1614.16Z" fill="#FCFAFF"/>
<path d="M1844.61 1614.16L1807.06 1635.94V1679.48L1844.61 1657.71V1614.16Z" fill="#FCFAFF"/>
<path d="M1844.61 1657.71L1807.06 1679.48L1844.61 1701.05L1882.35 1679.48L1844.61 1657.71Z" fill="#FCFAFF"/>
<path d="M37.5472 1614.16L75.2941 1635.94V1679.48L37.5472 1657.71V1614.16Z" fill="#FCFAFF"/>
<path d="M37.5472 1614.16L0 1635.94V1679.48L37.5472 1657.71V1614.16Z" fill="#FCFAFF"/>
<path d="M37.5472 1657.71L0 1679.48L37.5472 1701.05L75.2941 1679.48L37.5472 1657.71Z" fill="#FCFAFF"/>
<path d="M112.841 1483.58L150.588 1505.35V1548.89L112.841 1527.12V1483.58Z" fill="#FCFAFF"/>
<path d="M112.841 1483.58L75.2942 1505.35V1548.89L112.841 1527.12V1483.58Z" fill="#FCFAFF"/>
<path d="M112.841 1527.12L75.2942 1548.89L112.841 1570.46L150.588 1548.89L112.841 1527.12Z" fill="#FCFAFF"/>
<path d="M188.136 1860.26L225.882 1882.03V1925.57L188.136 1903.8V1860.26Z" fill="#FCFAFF"/>
<path d="M188.136 1860.26L150.588 1882.03V1925.57L188.136 1903.8V1860.26Z" fill="#FCFAFF"/>
<path d="M188.136 1903.8L150.588 1925.57L188.136 1947.14L225.882 1925.57L188.136 1903.8Z" fill="#FCFAFF"/>
<path d="M263.429 1483.58L301.176 1505.35V1548.89L263.429 1527.12V1483.58Z" fill="#FCFAFF"/>
<path d="M263.429 1483.58L225.882 1505.35V1548.89L263.429 1527.12V1483.58Z" fill="#FCFAFF"/>
<path d="M263.429 1527.12L225.882 1548.89L263.43 1570.46L301.176 1548.89L263.429 1527.12Z" fill="#FCFAFF"/>
<path d="M338.724 1968.24L376.471 1990.01V2033.56L338.724 2011.79V1968.24Z" fill="#FCFAFF"/>
<path d="M338.724 1968.24L301.177 1990.01V2033.56L338.724 2011.79V1968.24Z" fill="#FCFAFF"/>
<path d="M338.724 2011.79L301.177 2033.56L338.724 2055.13L376.471 2033.56L338.724 2011.79Z" fill="#FCFAFF"/>
<path d="M414.018 1483.58L451.765 1505.35V1548.89L414.018 1527.12V1483.58Z" fill="#FCFAFF"/>
<path d="M414.018 1483.58L376.47 1505.35V1548.89L414.018 1527.12V1483.58Z" fill="#FCFAFF"/>
<path d="M414.018 1527.12L376.47 1548.89L414.018 1570.46L451.765 1548.89L414.018 1527.12Z" fill="#FCFAFF"/>
<path d="M489.312 1483.58L527.059 1505.35V1548.89L489.312 1527.12V1483.58Z" fill="#FCFAFF"/>
<path d="M489.312 1483.58L451.765 1505.35V1548.89L489.312 1527.12V1483.58Z" fill="#FCFAFF"/>
<path d="M489.312 1527.12L451.765 1548.89L489.312 1570.46L527.059 1548.89L489.312 1527.12Z" fill="#FCFAFF"/>
<path d="M564.606 1810.04L602.353 1831.81V1875.35L564.606 1853.58V1810.04Z" fill="#FCFAFF"/>
<path d="M564.606 1810.04L527.059 1831.81V1875.35L564.606 1853.58V1810.04Z" fill="#FCFAFF"/>
<path d="M564.606 1853.58L527.059 1875.35L564.606 1896.92L602.353 1875.35L564.606 1853.58Z" fill="#FCFAFF"/>
<path d="M639.9 1483.58L677.647 1505.35V1548.89L639.9 1527.12V1483.58Z" fill="#FCFAFF"/>
<path d="M639.9 1483.58L602.353 1505.35V1548.89L639.9 1527.12V1483.58Z" fill="#FCFAFF"/>
<path d="M639.9 1527.12L602.353 1548.89L639.9 1570.46L677.647 1548.89L639.9 1527.12Z" fill="#FCFAFF"/>
<path d="M715.194 1483.58L752.941 1505.35V1548.89L715.194 1527.12V1483.58Z" fill="#FCFAFF"/>
<path d="M715.194 1483.58L677.647 1505.35V1548.89L715.194 1527.12V1483.58Z" fill="#FCFAFF"/>
<path d="M715.194 1527.12L677.647 1548.89L715.194 1570.46L752.941 1548.89L715.194 1527.12Z" fill="#FCFAFF"/>
<path d="M790.488 1859.01L828.235 1880.78V1924.32L790.488 1902.55V1859.01Z" fill="#FCFAFF"/>
<path d="M790.488 1859.01L752.941 1880.78V1924.32L790.488 1902.55V1859.01Z" fill="#FCFAFF"/>
<path d="M790.488 1902.55L752.941 1924.32L790.488 1945.89L828.235 1924.32L790.488 1902.55Z" fill="#FCFAFF"/>
<path d="M865.783 1483.58L903.529 1505.35V1548.89L865.783 1527.12V1483.58Z" fill="#FCFAFF"/>
<path d="M865.783 1483.58L828.235 1505.35V1548.89L865.783 1527.12V1483.58Z" fill="#FCFAFF"/>
<path d="M865.783 1527.12L828.235 1548.89L865.783 1570.46L903.529 1548.89L865.783 1527.12Z" fill="#FCFAFF"/>
<path d="M941.076 1772.37L978.823 1794.14V1837.68L941.076 1815.91V1772.37Z" fill="#FCFAFF"/>
<path d="M941.076 1772.37L903.529 1794.14V1837.68L941.076 1815.91V1772.37Z" fill="#FCFAFF"/>
<path d="M941.076 1815.91L903.529 1837.68L941.077 1859.25L978.823 1837.68L941.076 1815.91Z" fill="#FCFAFF"/>
<path d="M1016.37 1483.58L1054.12 1505.35V1548.89L1016.37 1527.12V1483.58Z" fill="#FCFAFF"/>
<path d="M1016.37 1483.58L978.823 1505.35V1548.89L1016.37 1527.12V1483.58Z" fill="#FCFAFF"/>
<path d="M1016.37 1527.12L978.823 1548.89L1016.37 1570.46L1054.12 1548.89L1016.37 1527.12Z" fill="#FCFAFF"/>
<path d="M1091.66 1483.58L1129.41 1505.35V1548.89L1091.66 1527.12V1483.58Z" fill="#FCFAFF"/>
<path d="M1091.66 1483.58L1054.12 1505.35V1548.89L1091.66 1527.12V1483.58Z" fill="#FCFAFF"/>
<path d="M1091.66 1527.12L1054.12 1548.89L1091.66 1570.46L1129.41 1548.89L1091.66 1527.12Z" fill="#FCFAFF"/>
<path d="M1166.96 1483.58L1204.71 1505.35V1548.89L1166.96 1527.12V1483.58Z" fill="#FCFAFF"/>
<path d="M1166.96 1483.58L1129.41 1505.35V1548.89L1166.96 1527.12V1483.58Z" fill="#FCFAFF"/>
<path d="M1166.96 1527.12L1129.41 1548.89L1166.96 1570.46L1204.71 1548.89L1166.96 1527.12Z" fill="#FCFAFF"/>
<path d="M1242.25 1483.58L1280 1505.35V1548.89L1242.25 1527.12V1483.58Z" fill="#FCFAFF"/>
<path d="M1242.25 1483.58L1204.71 1505.35V1548.89L1242.25 1527.12V1483.58Z" fill="#FCFAFF"/>
<path d="M1242.25 1527.12L1204.71 1548.89L1242.25 1570.46L1280 1548.89L1242.25 1527.12Z" fill="#FCFAFF"/>
<path d="M1317.55 1483.58L1355.29 1505.35V1548.89L1317.55 1527.12V1483.58Z" fill="#FCFAFF"/>
<path d="M1317.55 1483.58L1280 1505.35V1548.89L1317.55 1527.12V1483.58Z" fill="#FCFAFF"/>
<path d="M1317.55 1527.12L1280 1548.89L1317.55 1570.46L1355.29 1548.89L1317.55 1527.12Z" fill="#FCFAFF"/>
<path d="M1392.84 1483.58L1430.59 1505.35V1548.89L1392.84 1527.12V1483.58Z" fill="#FCFAFF"/>
<path d="M1392.84 1483.58L1355.29 1505.35V1548.89L1392.84 1527.12V1483.58Z" fill="#FCFAFF"/>
<path d="M1392.84 1527.12L1355.29 1548.89L1392.84 1570.46L1430.59 1548.89L1392.84 1527.12Z" fill="#FCFAFF"/>
<path d="M1468.14 1483.58L1505.88 1505.35V1548.89L1468.14 1527.12V1483.58Z" fill="#FCFAFF"/>
<path d="M1468.14 1483.58L1430.59 1505.35V1548.89L1468.14 1527.12V1483.58Z" fill="#FCFAFF"/>
<path d="M1468.14 1527.12L1430.59 1548.89L1468.14 1570.46L1505.88 1548.89L1468.14 1527.12Z" fill="#FCFAFF"/>
<path d="M1543.43 1483.58L1581.18 1505.35V1548.89L1543.43 1527.12V1483.58Z" fill="#FCFAFF"/>
<path d="M1543.43 1483.58L1505.88 1505.35V1548.89L1543.43 1527.12V1483.58Z" fill="#FCFAFF"/>
<path d="M1543.43 1527.12L1505.88 1548.89L1543.43 1570.46L1581.18 1548.89L1543.43 1527.12Z" fill="#FCFAFF"/>
<path d="M1618.72 1483.58L1656.47 1505.35V1548.89L1618.72 1527.12V1483.58Z" fill="#FCFAFF"/>
<path d="M1618.72 1483.58L1581.18 1505.35V1548.89L1618.72 1527.12V1483.58Z" fill="#FCFAFF"/>
<path d="M1618.72 1527.12L1581.18 1548.89L1618.72 1570.46L1656.47 1548.89L1618.72 1527.12Z" fill="#FCFAFF"/>
<path d="M1694.02 1483.58L1731.76 1505.35V1548.89L1694.02 1527.12V1483.58Z" fill="#FCFAFF"/>
<path d="M1694.02 1483.58L1656.47 1505.35V1548.89L1694.02 1527.12V1483.58Z" fill="#FCFAFF"/>
<path d="M1694.02 1527.12L1656.47 1548.89L1694.02 1570.46L1731.76 1548.89L1694.02 1527.12Z" fill="#FCFAFF"/>
<path d="M1769.31 1483.58L1807.06 1505.35V1548.89L1769.31 1527.12V1483.58Z" fill="#FCFAFF"/>
<path d="M1769.31 1483.58L1731.76 1505.35V1548.89L1769.31 1527.12V1483.58Z" fill="#FCFAFF"/>
<path d="M1769.31 1527.12L1731.76 1548.89L1769.31 1570.46L1807.06 1548.89L1769.31 1527.12Z" fill="#FCFAFF"/>
<path d="M1844.61 1483.58L1882.35 1505.35V1548.89L1844.61 1527.12V1483.58Z" fill="#FCFAFF"/>
<path d="M1844.61 1483.58L1807.06 1505.35V1548.89L1844.61 1527.12V1483.58Z" fill="#FCFAFF"/>
<path d="M1844.61 1527.12L1807.06 1548.89L1844.61 1570.46L1882.35 1548.89L1844.61 1527.12Z" fill="#FCFAFF"/>
<path d="M37.5472 1483.58L75.2941 1505.35V1548.89L37.5472 1527.12V1483.58Z" fill="#FCFAFF"/>
<path d="M37.5472 1483.58L0 1505.35V1548.89L37.5472 1527.12V1483.58Z" fill="#FCFAFF"/>
<path d="M37.5472 1527.12L0 1548.89L37.5472 1570.46L75.2941 1548.89L37.5472 1527.12Z" fill="#FCFAFF"/>
<path d="M112.841 1353L150.588 1374.77V1418.31L112.841 1396.54V1353Z" fill="#FCFAFF"/>
<path d="M112.841 1353L75.2942 1374.77V1418.31L112.841 1396.54V1353Z" fill="#FCFAFF"/>
<path d="M112.841 1396.54L75.2942 1418.31L112.841 1439.88L150.588 1418.31L112.841 1396.54Z" fill="#FCFAFF"/>
<path d="M188.135 1353L225.882 1374.77V1418.31L188.135 1396.54V1353Z" fill="#FCFAFF"/>
<path d="M188.135 1353L150.588 1374.77V1418.31L188.135 1396.54V1353Z" fill="#FCFAFF"/>
<path d="M188.135 1396.54L150.588 1418.31L188.135 1439.88L225.882 1418.31L188.135 1396.54Z" fill="#FCFAFF"/>
<path d="M263.43 1353L301.177 1374.77V1418.31L263.43 1396.54V1353Z" fill="#FCFAFF"/>
<path d="M263.43 1353L225.882 1374.77V1418.31L263.43 1396.54V1353Z" fill="#FCFAFF"/>
<path d="M263.43 1396.54L225.882 1418.31L263.43 1439.88L301.177 1418.31L263.43 1396.54Z" fill="#FCFAFF"/>
<path d="M338.724 1353L376.471 1374.77V1418.31L338.724 1396.54V1353Z" fill="#FCFAFF"/>
<path d="M338.724 1353L301.177 1374.77V1418.31L338.724 1396.54V1353Z" fill="#FCFAFF"/>
<path d="M338.724 1396.54L301.177 1418.31L338.724 1439.88L376.471 1418.31L338.724 1396.54Z" fill="#FCFAFF"/>
<path d="M414.018 1353L451.765 1374.77V1418.31L414.018 1396.54V1353Z" fill="#FCFAFF"/>
<path d="M414.018 1353L376.47 1374.77V1418.31L414.018 1396.54V1353Z" fill="#FCFAFF"/>
<path d="M414.018 1396.54L376.47 1418.31L414.018 1439.88L451.765 1418.31L414.018 1396.54Z" fill="#FCFAFF"/>
<path d="M489.312 1353L527.059 1374.77V1418.31L489.312 1396.54V1353Z" fill="#FCFAFF"/>
<path d="M489.312 1353L451.765 1374.77V1418.31L489.312 1396.54V1353Z" fill="#FCFAFF"/>
<path d="M489.312 1396.54L451.765 1418.31L489.312 1439.88L527.059 1418.31L489.312 1396.54Z" fill="#FCFAFF"/>
<path d="M564.606 1353L602.353 1374.77V1418.31L564.606 1396.54V1353Z" fill="#FCFAFF"/>
<path d="M564.606 1353L527.059 1374.77V1418.31L564.606 1396.54V1353Z" fill="#FCFAFF"/>
<path d="M564.606 1396.54L527.059 1418.31L564.606 1439.88L602.353 1418.31L564.606 1396.54Z" fill="#FCFAFF"/>
<path d="M639.9 1353L677.647 1374.77V1418.31L639.9 1396.54V1353Z" fill="#FCFAFF"/>
<path d="M639.9 1353L602.353 1374.77V1418.31L639.9 1396.54V1353Z" fill="#FCFAFF"/>
<path d="M639.9 1396.54L602.353 1418.31L639.9 1439.88L677.647 1418.31L639.9 1396.54Z" fill="#FCFAFF"/>
<path d="M715.194 1353L752.941 1374.77V1418.31L715.194 1396.54V1353Z" fill="#FCFAFF"/>
<path d="M715.194 1353L677.647 1374.77V1418.31L715.194 1396.54V1353Z" fill="#FCFAFF"/>
<path d="M715.194 1396.54L677.647 1418.31L715.194 1439.88L752.941 1418.31L715.194 1396.54Z" fill="#FCFAFF"/>
<path d="M790.488 1353L828.235 1374.77V1418.31L790.488 1396.54V1353Z" fill="#FCFAFF"/>
<path d="M790.488 1353L752.941 1374.77V1418.31L790.488 1396.54V1353Z" fill="#FCFAFF"/>
<path d="M790.488 1396.54L752.941 1418.31L790.488 1439.88L828.235 1418.31L790.488 1396.54Z" fill="#FCFAFF"/>
<path d="M865.783 1353L903.529 1374.77V1418.31L865.783 1396.54V1353Z" fill="#FCFAFF"/>
<path d="M865.783 1353L828.235 1374.77V1418.31L865.783 1396.54V1353Z" fill="#FCFAFF"/>
<path d="M865.783 1396.54L828.235 1418.31L865.783 1439.88L903.529 1418.31L865.783 1396.54Z" fill="#FCFAFF"/>
<path d="M941.076 1353L978.823 1374.77V1418.31L941.076 1396.54V1353Z" fill="#FCFAFF"/>
<path d="M941.076 1353L903.529 1374.77V1418.31L941.076 1396.54V1353Z" fill="#FCFAFF"/>
<path d="M941.076 1396.54L903.529 1418.31L941.077 1439.88L978.823 1418.31L941.076 1396.54Z" fill="#FCFAFF"/>
<path d="M1016.37 1353L1054.12 1374.77V1418.31L1016.37 1396.54V1353Z" fill="#FCFAFF"/>
<path d="M1016.37 1353L978.823 1374.77V1418.31L1016.37 1396.54V1353Z" fill="#FCFAFF"/>
<path d="M1016.37 1396.54L978.823 1418.31L1016.37 1439.88L1054.12 1418.31L1016.37 1396.54Z" fill="#FCFAFF"/>
<path d="M1091.66 1353L1129.41 1374.77V1418.31L1091.66 1396.54V1353Z" fill="#FCFAFF"/>
<path d="M1091.66 1353L1054.12 1374.77V1418.31L1091.66 1396.54V1353Z" fill="#FCFAFF"/>
<path d="M1091.66 1396.54L1054.12 1418.31L1091.66 1439.88L1129.41 1418.31L1091.66 1396.54Z" fill="#FCFAFF"/>
<path d="M1166.96 1353L1204.71 1374.77V1418.31L1166.96 1396.54V1353Z" fill="#FCFAFF"/>
<path d="M1166.96 1353L1129.41 1374.77V1418.31L1166.96 1396.54V1353Z" fill="#FCFAFF"/>
<path d="M1166.96 1396.54L1129.41 1418.31L1166.96 1439.88L1204.71 1418.31L1166.96 1396.54Z" fill="#FCFAFF"/>
<path d="M1242.25 1353L1280 1374.77V1418.31L1242.25 1396.54V1353Z" fill="#FCFAFF"/>
<path d="M1242.25 1353L1204.71 1374.77V1418.31L1242.25 1396.54V1353Z" fill="#FCFAFF"/>
<path d="M1242.25 1396.54L1204.71 1418.31L1242.25 1439.88L1280 1418.31L1242.25 1396.54Z" fill="#FCFAFF"/>
<path d="M1317.55 1353L1355.29 1374.77V1418.31L1317.55 1396.54V1353Z" fill="#FCFAFF"/>
<path d="M1317.55 1353L1280 1374.77V1418.31L1317.55 1396.54V1353Z" fill="#FCFAFF"/>
<path d="M1317.55 1396.54L1280 1418.31L1317.55 1439.88L1355.29 1418.31L1317.55 1396.54Z" fill="#FCFAFF"/>
<path d="M1392.84 1353L1430.59 1374.77V1418.31L1392.84 1396.54V1353Z" fill="#FCFAFF"/>
<path d="M1392.84 1353L1355.29 1374.77V1418.31L1392.84 1396.54V1353Z" fill="#FCFAFF"/>
<path d="M1392.84 1396.54L1355.29 1418.31L1392.84 1439.88L1430.59 1418.31L1392.84 1396.54Z" fill="#FCFAFF"/>
<path d="M1468.14 1353L1505.88 1374.77V1418.31L1468.14 1396.54V1353Z" fill="#FCFAFF"/>
<path d="M1468.14 1353L1430.59 1374.77V1418.31L1468.14 1396.54V1353Z" fill="#FCFAFF"/>
<path d="M1468.14 1396.54L1430.59 1418.31L1468.14 1439.88L1505.88 1418.31L1468.14 1396.54Z" fill="#FCFAFF"/>
<path d="M1543.43 1353L1581.18 1374.77V1418.31L1543.43 1396.54V1353Z" fill="#FCFAFF"/>
<path d="M1543.43 1353L1505.88 1374.77V1418.31L1543.43 1396.54V1353Z" fill="#FCFAFF"/>
<path d="M1543.43 1396.54L1505.88 1418.31L1543.43 1439.88L1581.18 1418.31L1543.43 1396.54Z" fill="#FCFAFF"/>
<path d="M1618.72 1353L1656.47 1374.77V1418.31L1618.72 1396.54V1353Z" fill="#FCFAFF"/>
<path d="M1618.72 1353L1581.18 1374.77V1418.31L1618.72 1396.54V1353Z" fill="#FCFAFF"/>
<path d="M1618.72 1396.54L1581.18 1418.31L1618.72 1439.88L1656.47 1418.31L1618.72 1396.54Z" fill="#FCFAFF"/>
<path d="M1694.02 1353L1731.76 1374.77V1418.31L1694.02 1396.54V1353Z" fill="#FCFAFF"/>
<path d="M1694.02 1353L1656.47 1374.77V1418.31L1694.02 1396.54V1353Z" fill="#FCFAFF"/>
<path d="M1694.02 1396.54L1656.47 1418.31L1694.02 1439.88L1731.76 1418.31L1694.02 1396.54Z" fill="#FCFAFF"/>
<path d="M1769.31 1353L1807.06 1374.77V1418.31L1769.31 1396.54V1353Z" fill="#FCFAFF"/>
<path d="M1769.31 1353L1731.76 1374.77V1418.31L1769.31 1396.54V1353Z" fill="#FCFAFF"/>
<path d="M1769.31 1396.54L1731.76 1418.31L1769.31 1439.88L1807.06 1418.31L1769.31 1396.54Z" fill="#FCFAFF"/>
<path d="M1844.61 1353L1882.35 1374.77V1418.31L1844.61 1396.54V1353Z" fill="#FCFAFF"/>
<path d="M1844.61 1353L1807.06 1374.77V1418.31L1844.61 1396.54V1353Z" fill="#FCFAFF"/>
<path d="M1844.61 1396.54L1807.06 1418.31L1844.61 1439.88L1882.35 1418.31L1844.61 1396.54Z" fill="#FCFAFF"/>
<path d="M37.5472 1353L75.2941 1374.77V1418.31L37.5472 1396.54V1353Z" fill="#FCFAFF"/>
<path d="M37.5472 1353L0 1374.77V1418.31L37.5472 1396.54V1353Z" fill="#FCFAFF"/>
<path d="M37.5472 1396.54L0 1418.31L37.5472 1439.88L75.2941 1418.31L37.5472 1396.54Z" fill="#FCFAFF"/>
</svg>
