<svg width="64" height="64" viewBox="0 0 64 64" fill="none" xmlns="http://www.w3.org/2000/svg">
<path d="M7.40811 49.1076C7.40811 36.8107 1.03833 28.3663 1.03833 22.4409C1.03833 16.5156 4.44455 4.07114 31.7032 4.07114C58.9619 4.07114 62.9619 20.8125 62.9619 27.3298C62.9637 57.8489 7.40811 70.8854 7.40811 49.1076Z" fill="white"/>
<path d="M17.3335 42.2222H28.0002V51.9999H17.3335V42.2222Z" fill="#FFD303"/>
<path d="M28 42.2222H38.6667V51.9999H28V42.2222Z" fill="#FFD303"/>
<path d="M38.667 44H46.667V52H38.667V44Z" fill="#FFD303"/>
<path d="M24.4448 31.5555H34.2226V42.2222H24.4448V31.5555Z" fill="#FFD303"/>
<path opacity="0.1" d="M17.3335 42.2222H21.3335V51.9999H17.3335V42.2222Z" fill="#190E38"/>
<path opacity="0.1" d="M28 42.2222H32V51.9999H28V42.2222Z" fill="#190E38"/>
<path opacity="0.1" d="M38.667 44H42.667V52H38.667V44Z" fill="#190E38"/>
<path opacity="0.1" d="M24.4448 31.5555H28.4448V42.2222H24.4448V31.5555Z" fill="#190E38"/>
<path d="M10.8826 23.8974L13.3967 21.3833L14.6538 22.6404L12.1396 25.1545L10.8826 23.8974Z" fill="#190E38"/>
<path d="M3.65527 31.1234L6.16943 28.6093L7.42651 29.8664L4.91235 32.3805L3.65527 31.1234Z" fill="#190E38"/>
<path d="M3.65918 22.3185L4.91626 21.0615L7.43042 23.5756L6.17334 24.8327L3.65918 22.3185Z" fill="#190E38"/>
<path d="M57.9767 31.1715C56.5065 31.1715 55.3101 29.9751 55.3101 28.5049C55.3101 27.0346 56.5065 25.8382 57.9767 25.8382C59.447 25.8382 60.6434 27.0346 60.6434 28.5049C60.6434 29.9751 59.447 31.1715 57.9767 31.1715ZM57.9767 27.616C57.4878 27.616 57.0878 28.016 57.0878 28.5049C57.0878 28.9937 57.4878 29.3937 57.9767 29.3937C58.4656 29.3937 58.8656 28.9937 58.8656 28.5049C58.8656 28.016 58.4674 27.616 57.9767 27.616Z" fill="#190E38"/>
<path d="M51.9998 53.3334H11.9998C11.2638 53.3334 10.6665 52.736 10.6665 52V31.1111C10.6665 30.6329 10.9225 30.1902 11.3367 29.9538L25.5589 21.8116L26.8852 24.128L13.3332 31.8845V50.6667H50.6665V31.8845L37.1145 24.128L38.4407 21.8116L52.6629 29.9538C53.0772 30.1902 53.3332 30.6329 53.3332 31.1111V52C53.3332 52.736 52.7358 53.3334 51.9998 53.3334Z" fill="#190E38"/>
<path d="M28 53.3334H17.3333C16.5973 53.3334 16 52.736 16 52V42.2223C16 41.4862 16.5973 40.8889 17.3333 40.8889H28C28.736 40.8889 29.3333 41.4862 29.3333 42.2223V52C29.3333 52.736 28.736 53.3334 28 53.3334ZM18.6667 50.6667H26.6667V43.5556H18.6667V50.6667Z" fill="#190E38"/>
<path d="M21.3335 42.2222H24.0002V46.6666H21.3335V42.2222Z" fill="#190E38"/>
<path d="M38.6665 53.3334H27.9998C27.2638 53.3334 26.6665 52.736 26.6665 52V42.2223C26.6665 41.4862 27.2638 40.8889 27.9998 40.8889H38.6665C39.4025 40.8889 39.9998 41.4862 39.9998 42.2223V52C39.9998 52.736 39.4025 53.3334 38.6665 53.3334ZM29.3332 50.6667H37.3332V43.5556H29.3332V50.6667Z" fill="#190E38"/>
<path d="M32 42.2222H34.6667V46.6666H32V42.2222Z" fill="#190E38"/>
<path d="M46.6668 53.3333H38.6668C37.9308 53.3333 37.3335 52.736 37.3335 52V44C37.3335 43.264 37.9308 42.6666 38.6668 42.6666H46.6668C47.4028 42.6666 48.0002 43.264 48.0002 44V52C48.0002 52.736 47.4028 53.3333 46.6668 53.3333ZM40.0002 50.6666H45.3335V45.3333H40.0002V50.6666Z" fill="#190E38"/>
<path d="M41.3335 44H44.0002V46.6667H41.3335V44Z" fill="#190E38"/>
<path d="M34.2225 43.5555H24.4447C23.7087 43.5555 23.1113 42.9582 23.1113 42.2222V31.5555C23.1113 30.8195 23.7087 30.2222 24.4447 30.2222H34.2225C34.9585 30.2222 35.5558 30.8195 35.5558 31.5555V42.2222C35.5558 42.9582 34.9585 43.5555 34.2225 43.5555ZM25.778 40.8888H32.8891V32.8888H25.778V40.8888Z" fill="#190E38"/>
<path d="M28 31.5555H30.6667V36H28V31.5555Z" fill="#190E38"/>
<path d="M31.9999 23.1111C30.039 23.1111 28.4443 21.5164 28.4443 19.5555C28.4443 18.0657 29.3652 16.7875 30.6666 16.2595V10.6666H33.3332V17.3333C33.3332 17.6746 33.2052 17.9857 32.9937 18.2222H35.5555V19.5555C35.5555 21.5164 33.9608 23.1111 31.9999 23.1111ZM32.8888 18.3271C32.6523 18.5386 32.3412 18.6666 31.9999 18.6666C31.511 18.6666 31.111 19.0666 31.111 19.5555C31.111 20.0444 31.511 20.4444 31.9999 20.4444C32.4888 20.4444 32.8888 20.0444 32.8888 19.5555V18.3271Z" fill="#190E38"/>
</svg>
