<svg width="270" height="223" viewBox="0 0 270 223" fill="none" xmlns="http://www.w3.org/2000/svg">
<g clip-path="url(#clip0)">
<path d="M205.279 206.836L229.367 192.971H255.436L231.298 206.836H205.279Z" fill="url(#paint0_linear)"/>
<path d="M172.495 32.6638H146.883L163.145 42.0249L146.883 51.3859H172.495L188.757 42.0249L172.495 32.6638Z" fill="url(#paint1_linear)"/>
<path d="M146.883 51.3857L163.145 42.0247V14.8018L146.883 24.1628V51.3857Z" fill="#C7BDE4"/>
<path d="M146.883 51.3857L130.622 42.0247V14.8018L146.883 24.1628V51.3857Z" fill="#DAD0F6"/>
<path d="M146.883 24.1629L130.622 14.8019L146.883 5.49146L163.145 14.8019L146.883 24.1629Z" fill="#F3F2F7"/>
<path d="M199.988 34.2827H176.612L199.48 47.4388L176.612 60.5442H199.988L222.805 47.4388L199.988 34.2827Z" fill="url(#paint2_linear)"/>
<path d="M176.612 60.5444L199.48 47.4389V32.0059L176.612 45.1619V60.5444Z" fill="#C7BDE4"/>
<path d="M176.612 60.5444L153.795 47.4389V32.0059L176.612 45.1619V60.5444Z" fill="#DAD0F6"/>
<path d="M176.612 45.1619L153.795 32.0058L176.612 18.9004L199.48 32.0058L176.612 45.1619Z" fill="#F3F2F7"/>
<path d="M253.404 170.909H239.276L263.364 184.774L239.276 198.638H253.404L277.542 184.774L253.404 170.909Z" fill="url(#paint3_linear)"/>
<path d="M239.276 198.638L263.364 184.774V176.678L239.276 190.542V198.638Z" fill="#C7BDE4"/>
<path d="M239.277 198.638L215.138 184.774V176.678L239.277 190.542V198.638Z" fill="#DAD0F6"/>
<path d="M239.277 190.542L215.138 176.678L239.277 162.813L263.364 176.678L239.277 190.542Z" fill="#F3F2F7"/>
<path d="M252.642 175.412L234.957 165.292L215.138 176.677L235.211 188.214L241.004 184.875V184.824L238.667 183.458L252.642 175.412Z" fill="url(#paint4_linear)"/>
<path d="M205.28 206.836L229.367 192.971V177.993L205.28 191.858V206.836Z" fill="#C7BDE4"/>
<path d="M205.28 206.836L181.142 192.971V177.993L205.28 191.858V206.836Z" fill="#DAD0F6"/>
<path d="M205.28 191.858L181.142 177.994L205.28 164.18L229.367 177.994L205.28 191.858Z" fill="#F3F2F7"/>
<path d="M222.405 173.996L207.973 182.294H221.948L229.367 177.993L222.405 173.996Z" fill="url(#paint5_linear)"/>
<path d="M207.973 182.295L227.792 170.909V162.864L207.973 174.249V182.295Z" fill="#C7BDE4"/>
<path d="M207.973 182.295L188.154 170.909V162.864L207.973 174.249V182.295Z" fill="#DAD0F6"/>
<path d="M207.973 174.249L188.154 162.864L207.973 151.479L227.792 162.864L207.973 174.249Z" fill="#F3F2F7"/>
<path d="M153.795 32.0058L176.612 18.9004L187.08 24.7194L174.427 31.9552L153.795 32.0058Z" fill="url(#paint6_linear)"/>
<path d="M143.224 12.7274L146.883 14.802L150.542 8.52759C152.575 5.08678 152.575 1.34236 150.542 0.178558C148.509 -0.985247 145.257 0.886961 143.275 4.37838C141.242 7.81919 141.242 11.5636 143.224 12.7274ZM144.444 7.86979C144.444 6.35178 145.511 4.47958 146.883 3.66997C148.204 2.91097 149.322 3.51817 149.322 5.08678C149.322 6.60479 148.255 8.47699 146.883 9.2866C145.511 10.0456 144.444 9.3878 144.444 7.86979Z" fill="#F2BD42"/>
<path d="M204.162 160.688L208.024 162.915L211.835 156.286C213.969 152.643 213.969 148.696 211.835 147.482C209.701 146.267 206.296 148.241 204.162 151.884C202.027 155.527 202.027 159.474 204.162 160.688ZM205.432 155.527C205.432 153.908 206.601 151.935 207.973 151.125C209.396 150.315 210.514 150.973 210.514 152.592C210.514 154.212 209.345 156.185 207.973 156.995C206.55 157.804 205.432 157.146 205.432 155.527Z" fill="#9C7FF4"/>
<path d="M235.211 188.214L239.276 195.602V198.638L229.367 192.971V184.824L235.211 188.214Z" fill="url(#paint7_linear)"/>
<path d="M263.038 105.76L280.112 95.9431L250.13 78.6885L233.208 88.4037C232.954 88.4037 232.75 88.4037 232.496 88.4037C220.605 88.4037 206.173 91.1867 200.227 94.5769C194.332 97.9671 199.007 100.7 210.645 100.75C210.238 101.61 210.594 102.521 211.763 103.179L221.164 108.593L229.041 113.097C226.093 115.93 231.073 118.055 241.491 118.055C253.382 118.055 267.814 115.272 273.76 111.882C279.706 108.492 274.929 105.76 263.038 105.76Z" fill="url(#paint8_linear)"/>
<path d="M206.478 74.5896C201.091 77.6762 196.721 85.2157 196.721 91.3889C196.721 97.5621 201.091 100.092 206.478 97.0055C211.864 93.9189 216.235 86.3795 216.235 80.2062C216.184 74.033 211.864 71.503 206.478 74.5896ZM206.478 95.3357C201.904 97.9669 198.195 95.8417 198.195 90.5793C198.195 85.3169 201.904 78.9412 206.478 76.31C211.051 73.6788 214.761 75.804 214.761 81.0664C214.761 86.3288 211.051 92.7045 206.478 95.3357Z" fill="#C7BDE4"/>
<path d="M206.478 95.3359C211.051 92.7047 214.761 86.3291 214.761 81.0667C214.761 75.8042 211.051 73.679 206.478 76.3103C206.275 76.4115 206.122 76.5127 205.919 76.6645C205.614 81.5727 202.362 87.2399 198.195 89.9217C198.195 90.1241 198.144 90.3771 198.144 90.5795C198.195 95.8419 201.904 97.9671 206.478 95.3359Z" fill="url(#paint9_linear)"/>
<path d="M206.478 73.426C200.532 76.8669 195.705 85.1653 195.705 91.9963C195.705 98.8273 200.532 101.61 206.478 98.1695C212.423 94.7287 217.251 86.4303 217.251 79.5993C217.251 72.7682 212.423 70.0358 206.478 73.426ZM206.478 97.0057C201.091 100.092 196.721 97.6129 196.721 91.3891C196.721 85.2159 201.091 77.6765 206.478 74.5899C211.864 71.5032 216.235 73.9827 216.235 80.2065C216.184 86.3797 211.864 93.9191 206.478 97.0057Z" fill="#301C6B"/>
<path d="M205.512 67.8094C203.53 66.4937 200.735 66.5949 197.635 68.3659C191.69 71.8068 186.862 80.1052 186.862 86.9362C186.862 90.4276 188.082 92.8058 190.114 93.919L198.753 98.8778C196.873 97.7646 195.653 95.3358 195.653 91.9962C195.653 85.1652 200.481 76.8668 206.427 73.426C209.526 71.655 212.372 71.5538 214.303 72.8694L205.512 67.8094Z" fill="url(#paint10_linear)"/>
<path d="M196.365 46.5068C193.367 46.8104 190.47 48.885 188.132 52.4271C185.541 56.3233 183.559 62.3953 184.982 67.1517L190.063 65.5831C189.301 63.0531 190.368 58.6509 192.554 55.3619C193.926 53.2873 195.552 51.9211 196.924 51.8199L196.365 46.5068Z" fill="url(#paint11_linear)"/>
<path d="M234.529 75.6019C236.206 74.6405 236.206 73.0213 234.529 72.0599L220.199 63.8121C218.522 62.8507 215.727 62.8507 214.05 63.8121L200.024 71.8575C198.347 72.8189 198.347 74.4381 200.024 75.3995L214.355 83.6474C216.032 84.6088 218.827 84.6088 220.504 83.6474L234.529 75.6019Z" fill="#CCC4E2"/>
<path d="M234.529 75.6019C236.206 74.6405 236.206 73.0213 234.529 72.0599L220.199 63.8121C218.522 62.8507 215.727 62.8507 214.05 63.8121L200.024 71.8575C198.347 72.8189 198.347 74.4381 200.024 75.3995L214.355 83.6474C216.032 84.6088 218.827 84.6088 220.504 83.6474L234.529 75.6019Z" fill="#F8F7FC"/>
<path d="M235.749 73.932C235.698 74.5392 235.291 75.1464 234.478 75.6018L220.453 83.6472C218.776 84.6087 215.981 84.6087 214.304 83.6472L199.973 75.3994C199.109 74.8934 198.703 74.2862 198.703 73.6284V87.9483C198.703 89.9723 200.38 94.3745 203.276 95.8925L219.131 105.001C219.182 105.001 219.182 105.051 219.233 105.051L219.284 105.102C220.402 105.658 221.876 105.557 223.502 104.596L231.378 100.092C235.85 97.5117 235.698 92.7047 235.698 90.5289V73.932H235.749Z" fill="url(#paint12_linear)"/>
<path d="M235.749 73.932C235.698 74.5392 235.291 75.1464 234.478 75.6018L220.453 83.6472C218.776 84.6087 215.981 84.6087 214.304 83.6472L199.973 75.3994C199.109 74.8934 198.703 74.2862 198.703 73.6284V87.9483C198.703 89.9723 200.38 94.3745 203.276 95.8925L219.131 105.001C219.182 105.001 219.182 105.051 219.233 105.051L219.284 105.102C220.402 105.658 221.876 105.557 223.502 104.596L231.378 100.092C235.85 97.5117 235.698 92.7047 235.698 90.5289V73.932H235.749Z" fill="url(#paint13_linear)"/>
<path d="M235.749 91.4905C230.362 94.5771 225.992 102.117 225.992 108.29C225.992 114.463 230.362 116.993 235.749 113.906C241.135 110.82 245.506 103.28 245.506 97.1072C245.506 90.8833 241.135 88.3533 235.749 91.4905ZM235.749 112.186C231.175 114.817 227.465 112.692 227.465 107.43C227.465 102.167 231.175 95.7916 235.749 93.1603C240.322 90.5291 244.032 92.6543 244.032 97.9168C244.032 103.179 240.322 109.555 235.749 112.186Z" fill="#C7BDE4"/>
<path d="M235.749 112.186C240.322 109.555 244.032 103.179 244.032 97.9168C244.032 92.6543 240.322 90.5291 235.749 93.1604C235.545 93.2616 235.393 93.3627 235.19 93.5145C234.885 98.4228 231.632 104.09 227.465 106.772C227.465 106.974 227.415 107.227 227.415 107.43C227.465 112.692 231.175 114.817 235.749 112.186Z" fill="url(#paint14_linear)"/>
<path d="M235.749 90.2761C229.803 93.7169 224.975 102.015 224.975 108.846C224.975 115.677 229.803 118.46 235.749 115.02C241.694 111.579 246.522 103.28 246.522 96.4493C246.522 89.6689 241.694 86.8859 235.749 90.2761ZM235.749 113.856C230.362 116.942 225.992 114.463 225.992 108.239C225.992 102.066 230.362 94.5265 235.749 91.4399C241.135 88.3533 245.506 90.8327 245.506 97.0565C245.506 103.28 241.135 110.769 235.749 113.856Z" fill="#301C6B"/>
<path d="M234.834 84.6594C232.852 83.3438 230.057 83.445 226.957 85.2161C221.011 88.6569 216.184 96.9553 216.184 103.786C216.184 107.278 217.403 109.656 219.436 110.769L228.075 115.728C226.195 114.615 224.975 112.186 224.975 108.846C224.975 102.015 229.803 93.7169 235.749 90.2761C238.848 88.5051 241.643 88.4039 243.625 89.7195L234.834 84.6594Z" fill="url(#paint15_linear)"/>
<path d="M239.611 48.9355C239.611 49.5427 239.153 50.2005 238.34 50.6559L224.315 58.7013C222.638 59.6627 219.843 59.6627 218.166 58.7013L196.162 46.0513C195.298 45.5453 194.891 44.9381 194.891 44.2803V69.884C194.891 70.5418 195.298 71.149 196.162 71.655L218.166 84.305C219.843 85.2664 222.638 85.2664 224.315 84.305L238.34 76.2596C239.204 75.7536 239.661 75.0958 239.611 74.3874V48.9355Z" fill="url(#paint16_linear)"/>
<path d="M238.341 50.656C240.018 49.6946 240.018 48.0754 238.341 47.114L216.337 34.464C214.66 33.5026 211.865 33.5026 210.188 34.464L196.163 42.5094C194.486 43.4708 194.486 45.09 196.163 46.0514L218.167 58.7014C219.844 59.6628 222.639 59.6628 224.316 58.7014L238.341 50.656Z" fill="#F8F7FC"/>
<path d="M234.427 44.9886C229.447 42.155 221.418 39.8274 216.438 39.8274L224.416 47.5186L220.91 49.5426C217.454 51.5161 216.794 54.9063 216.794 54.9063C218.013 55.6147 220.046 56.1713 221.266 56.1713H223.857C225.382 56.1713 226.449 55.9689 227.059 55.5641L237.121 49.745C239.102 49.0366 238.188 47.1644 234.427 44.9886Z" fill="url(#paint17_linear)"/>
<path d="M209.781 34.97C204.801 32.1364 200.786 34.4134 200.786 40.1312V43.1166C200.786 44.5334 201.802 46.2538 203.022 46.9622L216.489 54.7041C217.708 55.4125 218.725 54.8559 218.725 53.4391V50.4536C218.775 44.7864 214.71 37.8036 209.781 34.97Z" fill="#DAD0F6"/>
<path d="M203.022 43.1165V40.1311C203.022 37.9553 203.683 36.3867 204.801 35.4253C203.022 36.0831 201.904 37.9553 201.904 40.7889V43.7743C201.904 44.4827 202.412 45.3429 203.022 45.6971L216.489 53.439C217.098 53.7932 217.607 53.4896 217.607 52.7812L204.14 45.0393C203.53 44.7357 203.022 43.8249 203.022 43.1165Z" fill="url(#paint18_linear)"/>
<path d="M209.781 36.2856C207.9 35.223 206.173 34.97 204.801 35.476C203.683 36.3868 203.022 38.006 203.022 40.1818V43.1672C203.022 43.8756 203.53 44.7358 204.14 45.0901L217.607 52.8319V49.8465C217.657 44.8371 214.1 38.765 209.781 36.2856Z" fill="url(#paint19_linear)"/>
<path d="M203.937 44.0275V41.0421C203.937 38.8663 204.597 37.2977 205.715 36.3363C207.087 35.8303 208.815 36.0833 210.695 37.1459C211.458 37.6013 212.22 38.1579 212.931 38.8157C211.966 37.7531 210.899 36.8929 209.781 36.2351C207.9 35.1725 206.173 34.9195 204.801 35.4255C203.683 36.3363 203.022 37.9555 203.022 40.1313V43.1167C203.022 43.8251 203.53 44.6853 204.14 45.0395L204.242 45.0901C204.089 44.7865 203.937 44.3817 203.937 44.0275Z" fill="url(#paint20_linear)"/>
<path d="M206.63 41.8514L207.29 41.2442C207.341 41.1936 207.392 41.1936 207.443 41.1936C207.595 41.2442 207.9 41.4466 208.103 41.902L208.764 43.2682C208.815 43.42 209.018 43.4706 209.17 43.42C209.323 43.3694 209.374 43.167 209.323 43.0152L208.662 41.649C208.408 41.0924 208.002 40.6876 207.544 40.5864C207.29 40.5358 207.036 40.637 206.833 40.7888L206.172 41.396C206.071 41.4972 206.071 41.6996 206.172 41.8514C206.274 41.9526 206.477 41.9526 206.63 41.8514Z" fill="white"/>
<path d="M215.726 46.6588L215.066 45.2926C214.811 44.736 214.405 44.3312 213.948 44.23C213.694 44.1794 213.44 44.2806 213.236 44.4324L212.576 45.0396C212.474 45.1408 212.474 45.3432 212.576 45.495C212.677 45.5962 212.881 45.5962 213.033 45.495L213.694 44.8878C213.744 44.8372 213.795 44.8372 213.846 44.8372C213.998 44.8878 214.303 45.0902 214.507 45.5456L215.167 46.9118C215.218 47.0636 215.421 47.1142 215.574 47.0636C215.726 47.013 215.777 46.8106 215.726 46.6588Z" fill="white"/>
<path d="M221.418 28.2907C218.928 26.8739 216.692 26.7221 215.066 27.6835L203.428 34.3627C205.055 33.4519 207.291 33.5531 209.781 34.9699C214.761 37.8035 218.775 44.7358 218.775 50.4536V53.439C218.775 54.1474 218.521 54.6534 218.115 54.8558L229.701 48.1766C230.108 47.9742 230.413 47.4682 230.413 46.7092V43.7238C230.413 38.0565 226.398 31.1243 221.418 28.2907Z" fill="url(#paint21_linear)"/>
<path d="M209.476 82.3824C209.069 82.3824 208.663 82.3319 208.256 82.2813C207.545 82.1295 207.037 81.4717 207.189 80.7633C207.342 80.0549 208.002 79.5489 208.714 79.7007C209.628 79.8525 211.204 79.6501 211.915 79.3971C212.627 79.1947 213.338 79.5489 213.592 80.2573C213.795 80.9657 213.44 81.6741 212.728 81.9271C212.068 82.1294 210.746 82.3824 209.476 82.3824Z" fill="#1F1244"/>
<path d="M187.472 68.4673C187.065 68.6191 186.608 68.6191 186.202 68.3155C185.49 67.8095 183.813 67.6071 183.153 67.5565C182.441 67.5059 181.882 66.8986 181.933 66.1902C181.984 65.4818 182.594 64.9253 183.305 64.9759C183.61 64.9759 186.202 65.1783 187.726 66.2409C188.336 66.6457 188.488 67.4553 188.031 68.0625C187.929 68.2143 187.726 68.3661 187.472 68.4673Z" fill="#1F1244"/>
<path d="M198.195 58.4485L182.035 67.7589L201.244 78.7897L217.404 69.4793L198.195 58.4485Z" fill="#9C7FF4"/>
<path d="M197.94 61.3833L187.116 67.6071L193.722 71.4022L204.597 65.1783L197.94 61.3833Z" fill="#886AE2"/>
<path d="M217.404 69.4792L201.244 78.7897V85.5195L217.404 76.2091V69.4792Z" fill="#49318F"/>
<path d="M201.244 78.7896L182.035 67.7588V74.4886L201.244 85.5194V78.7896Z" fill="#7155C6"/>
<path d="M194.434 68.0119L199.008 65.3807L197.534 64.5205L192.96 67.1517L194.434 68.0119Z" fill="white"/>
<path d="M212.931 80.3587C212.372 80.3587 211.864 80.0045 211.661 79.4479C211.356 78.5877 210.441 77.3227 209.933 76.7661C209.425 76.2601 209.425 75.3999 209.933 74.8939C210.441 74.3879 211.305 74.3879 211.813 74.8939C212.525 75.6023 213.744 77.2215 214.201 78.6383C214.405 79.3467 214.049 80.0551 213.338 80.3081C213.185 80.3081 213.033 80.3587 212.931 80.3587Z" fill="#1F1244"/>
<path d="M229.549 62.2437C229.549 60.4727 230.768 58.3475 232.293 57.4873C233.817 56.6271 235.037 57.3355 235.037 59.0559C235.037 60.8269 233.817 62.9521 232.293 63.8123C230.768 64.7231 229.549 64.0147 229.549 62.2437Z" fill="#301C6B"/>
<path d="M234.63 59.1572C234.63 59.1572 233.411 57.6898 232.852 57.2344C232.648 57.285 232.445 57.3862 232.293 57.4874C231.022 58.1958 229.955 59.815 229.65 61.333C229.904 61.8896 230.158 62.2944 230.311 62.4462C232.547 64.9256 231.124 68.8724 229.244 71.5036C226.195 75.7541 220.655 78.9925 214.456 76.7661C211.305 77.0697 210.339 80.1563 212.372 81.6237C220.91 85.2163 229.345 80.4599 233.563 74.5903C237.527 69.0242 237.73 62.6992 234.63 59.1572Z" fill="url(#paint22_linear)"/>
<path d="M256.686 183.937V129.491H178.833L172.024 133.387H163.131L88.5813 176.246L78.8752 181.812C73.6918 184.797 61.0891 187.226 50.7223 187.226L47.6732 188.997H44.3701L32.9362 195.524L80.2981 222.747H97.2203H100.523H126.542L179.24 214.601H185.236L204.699 203.418L196.619 198.763H230.819L256.686 183.937Z" fill="url(#paint23_linear)"/>
<path d="M84.2106 212.07C82.6861 211.21 81.7206 209.287 81.7206 206.606C81.7206 201.242 85.4811 194.715 90.1563 192.083C92.4939 190.768 94.5774 190.616 96.1019 191.476C97.6265 192.336 98.592 194.259 98.592 196.89C98.592 202.254 94.8315 208.781 90.1563 211.413C87.8695 212.829 85.7352 212.931 84.2106 212.07Z" fill="#301C6B"/>
<path d="M85.5322 204.481C85.5322 201.546 87.6157 197.953 90.1566 196.486C92.6974 195.018 94.7809 196.233 94.7809 199.168C94.7809 202.102 92.6974 205.695 90.1566 207.162C87.6157 208.579 85.5322 207.415 85.5322 204.481Z" fill="#C7BDE4"/>
<path d="M81.7207 206.656C81.7207 201.293 85.4812 194.765 90.1564 192.134C92.494 190.819 94.5775 190.667 96.1021 191.527L89.6482 187.833C88.1237 186.973 85.9894 187.074 83.7026 188.44C79.0274 191.122 75.2669 197.65 75.2669 202.963C75.2669 205.644 76.2324 207.517 77.7569 208.377L84.2108 212.071C82.6862 211.21 81.7207 209.338 81.7207 206.656Z" fill="#1F1244"/>
<path d="M152.56 172.805C151.036 171.945 150.07 170.073 150.07 167.391C150.07 162.027 153.831 155.5 158.506 152.869C160.844 151.553 162.927 151.401 164.452 152.261C165.976 153.122 166.942 155.044 166.942 157.676C166.942 163.039 163.181 169.567 158.506 172.198C156.219 173.513 154.085 173.665 152.56 172.805Z" fill="#301C6B"/>
<path d="M153.882 165.164C153.882 162.229 155.965 158.637 158.506 157.169C161.047 155.702 163.131 156.866 163.131 159.851C163.131 162.786 161.047 166.378 158.506 167.846C155.965 169.313 153.882 168.099 153.882 165.164Z" fill="#C7BDE4"/>
<path d="M150.07 167.34C150.07 161.976 153.831 155.449 158.506 152.818C160.844 151.502 162.927 151.35 164.452 152.211L157.998 148.517C156.473 147.657 154.339 147.758 152.052 149.124C147.377 151.806 143.616 158.333 143.616 163.646C143.616 166.328 144.582 168.2 146.107 169.06L152.56 172.754C151.036 171.894 150.07 170.022 150.07 167.34Z" fill="#1F1244"/>
<path d="M134.215 183.33C132.69 182.47 131.725 180.547 131.725 177.916C131.725 172.552 135.485 166.075 140.161 163.393C142.498 162.078 144.582 161.926 146.106 162.786C147.631 163.646 148.596 165.569 148.596 168.2C148.596 173.564 144.836 180.091 140.161 182.723C137.823 184.089 135.74 184.19 134.215 183.33Z" fill="#301C6B"/>
<path d="M135.537 175.74C135.537 172.805 137.62 169.212 140.161 167.745C142.702 166.277 144.785 167.492 144.785 170.427C144.785 173.361 142.702 176.954 140.161 178.421C137.569 179.889 135.537 178.674 135.537 175.74Z" fill="#C7BDE4"/>
<path d="M131.725 177.915C131.725 172.552 135.486 166.075 140.161 163.393C142.498 162.078 144.582 161.926 146.107 162.786L139.653 159.092C138.128 158.232 135.994 158.333 133.707 159.699C129.032 162.381 125.271 168.909 125.271 174.272C125.271 176.954 126.237 178.826 127.761 179.686L134.215 183.38C132.691 182.469 131.725 180.597 131.725 177.915Z" fill="#1F1244"/>
<path d="M175.784 136.12L101.285 178.978L57.6332 153.88L132.182 111.022L175.784 136.12Z" fill="#7155C6"/>
<path d="M175.784 143.355L101.285 186.214V178.978L175.784 136.12V143.355Z" fill="#49318F"/>
<path d="M101.285 186.214L57.6332 161.116V153.88L101.285 178.978V186.214Z" fill="#5B41AA"/>
<path d="M135.232 107.126L141.533 87.5436V42.813L135.232 62.3447V107.126Z" fill="#D6952D"/>
<path d="M182.594 89.6182L109.366 131.718L62.0037 104.495L135.232 62.3447L182.594 89.6182Z" fill="#FFD303"/>
<path d="M182.594 134.349L109.366 176.448V131.718L182.594 89.6182V134.349Z" fill="#D6952D"/>
<path d="M109.366 176.448L62.0037 149.225V104.495L109.366 131.718V176.448Z" fill="#F2BD42"/>
<path d="M176.953 113.147L117.496 147.302V135.361L176.953 101.155V113.147Z" fill="#DAD0F6"/>
<path d="M156.676 120.231L122.984 139.611V136.727L156.676 117.398V120.231Z" fill="#5B41AA"/>
<path d="M141.279 137.537L117.242 151.3V149.63L141.279 135.816V137.537Z" fill="#49318F"/>
<path d="M133.555 145.278L117.242 154.639V152.919L133.555 143.558V145.278Z" fill="#49318F"/>
<path d="M173.396 110.617L160.844 117.853V114.969L173.396 107.784V110.617Z" fill="#5B41AA"/>
<path d="M210.391 89.6182H182.594V134.349H210.391V89.6182Z" fill="#F2BD42"/>
<path d="M210.391 100.851H202.819V102.471H210.391V100.851Z" fill="#F8F7FC"/>
<path d="M210.391 121.446H202.819V123.065H210.391V121.446Z" fill="#F8F7FC"/>
<path d="M185.693 100.851H182.594V102.471H185.693V100.851Z" fill="#F8F7FC"/>
<path d="M185.693 121.446H182.594V123.065H185.693V121.446Z" fill="#F8F7FC"/>
<path d="M99.8627 185.404V145.885L80.3996 157.068V160.509L66.2724 190.818V205.746V215.461L80.8062 207.112C80.8062 201.141 85.024 193.905 90.2074 190.92L99.8627 185.404Z" fill="#49318F"/>
<path d="M96.8136 173.311L68.5083 189.554L82.6355 159.244L96.8136 151.097V173.311Z" fill="#C7BDE4"/>
<path d="M96.8136 183.836L81.5175 192.64V182.115L96.8136 173.311V183.836Z" fill="#5B41AA"/>
<path d="M83.1943 158.94L82.6354 159.244L81.5175 161.673V182.115L83.1943 181.103V158.94Z" fill="#49318F"/>
<path d="M80.3997 157.119L39.5424 133.59L59.0055 122.407L99.8628 145.886L80.3997 157.119Z" fill="#7155C6"/>
<path d="M39.5424 137.031L80.3997 160.56V157.119L39.5424 133.59V137.031Z" fill="#5B41AA"/>
<path d="M64.4424 189.807C52.043 182.672 39.6435 175.537 27.244 168.453C31.9701 158.333 36.6453 148.264 41.3713 138.144C53.7708 145.278 66.1702 152.413 78.5697 159.548C73.8945 169.567 69.1685 179.687 64.4424 189.807Z" fill="#E7E3F1"/>
<path d="M64.4427 189.807C65.1542 190.212 65.5607 190.465 66.2722 190.869C70.9982 180.749 75.6734 170.68 80.3994 160.56C79.688 160.155 79.2814 159.953 78.57 159.497C73.8948 169.567 69.1687 179.687 64.4427 189.807Z" fill="#7155C6"/>
<path d="M25.4148 167.34C26.1262 167.745 26.5328 167.998 27.2442 168.403C31.9702 158.283 36.6454 148.213 41.3715 138.093C40.66 137.689 40.2535 137.486 39.542 137.031C34.8668 147.151 30.1408 157.271 25.4148 167.34Z" fill="#7155C6"/>
<path d="M66.272 190.869V215.512L25.4148 192.033V167.34L66.272 190.869Z" fill="#5B41AA"/>
<path d="M55.4482 192.236V199.573L36.2392 188.491V181.154C36.2392 179.586 37.3572 178.928 38.7293 179.737L53.009 187.935C54.3811 188.744 55.4482 190.667 55.4482 192.236Z" fill="#301C6B"/>
<path d="M64.4428 199.471L57.3283 195.373V192.185L64.4428 196.233V199.471Z" fill="white"/>
<path d="M64.4425 203.115L60.8856 201.091V199.471L64.4425 201.546V203.115Z" fill="#49318F"/>
<path d="M27.244 181.761L30.801 183.785V182.217L27.244 180.142V181.761Z" fill="#49318F"/>
<path d="M27.244 178.067L34.3585 182.166V178.978L27.244 174.88V178.067Z" fill="white"/>
<path d="M66.2724 207.719L77.7571 201.09V210.856L66.2724 217.434V207.719Z" fill="#C7BDE4"/>
<path d="M22.112 182.318L66.2724 207.719V217.434L22.112 192.033V182.318Z" fill="#DAD0F6"/>
<path d="M25.4151 180.395L22.112 182.318L66.2723 207.719L77.7571 201.09L76.0801 200.179L66.2723 205.796L25.4151 182.318V180.395Z" fill="#F8F7FC"/>
<path d="M72.6749 156.107L33.4946 172.046C34.8667 172.856 36.2387 173.615 37.6108 174.424L76.7911 158.485C75.419 157.675 74.0469 156.866 72.6749 156.107ZM41.4221 176.549C42.3368 177.055 43.2007 177.612 44.1154 178.118L75.9272 165.164C76.4354 164.051 76.9435 162.989 77.4517 161.875L41.4221 176.549ZM41.3713 138.093C36.6453 148.213 31.9701 158.283 27.244 168.403L66.4243 152.464C58.0903 147.707 49.7562 142.9 41.3713 138.093Z" fill="url(#paint24_linear)"/>
<path d="M36.1887 212.02C37.6624 212.88 40.1016 212.88 41.5753 212.02C43.049 211.16 43.049 209.793 41.5753 208.933C40.1016 208.073 37.6624 208.073 36.1887 208.933C34.715 209.743 34.715 211.16 36.1887 212.02ZM38.0181 215.208C39.0344 215.309 40.0508 215.258 41.0671 215.157L40.6606 214.094C39.8983 214.196 39.0853 214.196 38.323 214.145C34.6133 213.841 32.0216 211.868 32.5806 209.743L30.7004 209.591C29.9381 212.273 33.2413 214.803 38.0181 215.208ZM28.6677 214.803C30.802 216.422 33.8511 217.485 37.3575 217.738C38.882 217.839 40.4573 217.839 41.931 217.636L41.5245 216.574C40.2541 216.726 38.9328 216.776 37.6116 216.624C34.6133 216.371 31.9708 215.511 30.1922 214.094C28.3628 212.728 27.6005 211.008 28.0579 209.287L26.1776 209.136C25.6695 211.21 26.5842 213.184 28.6677 214.803ZM36.7477 220.318C38.8312 220.47 40.8639 220.47 42.8966 220.217L42.49 219.155C40.7114 219.357 38.8312 219.408 37.0017 219.256C28.4136 218.547 22.3663 213.943 23.5859 209.034L21.7057 208.883C20.3844 214.398 27.0923 219.559 36.7477 220.318ZM36.1379 222.899C38.7295 223.101 41.3212 223.051 43.8621 222.747L43.4556 221.685C41.1688 221.988 38.7804 221.988 36.3919 221.836C25.3137 220.926 17.5895 215.056 19.1648 208.68L17.2846 208.528C15.5568 215.41 24.0433 221.887 36.1379 222.899Z" fill="url(#paint25_linear)"/>
<path d="M84.1096 51.5663L46.0982 73.4256C43.0491 75.1966 40.5591 79.4977 40.5591 82.9891V104.95C40.5591 108.441 43.0491 109.908 46.0982 108.137L48.2325 106.923L52.9077 110.87V104.191L84.1096 86.2781C87.1587 84.5071 89.6487 80.2061 89.6487 76.7146V54.7036C89.6487 51.2627 87.1587 49.7953 84.1096 51.5663Z" fill="url(#paint26_linear)"/>
<path d="M78.9769 64.3681L86.6503 59.9153V61.6863L78.9769 66.0885V64.3681Z" fill="#F8F7FC"/>
<path d="M78.9769 68.4162L86.6503 63.9634V65.7344L78.9769 70.1366V68.4162Z" fill="#F8F7FC"/>
<path d="M78.9769 72.4641L84.3631 69.3269V71.0979L78.9769 74.1845V72.4641Z" fill="#F8F7FC"/>
<path d="M47.6729 93.6659L51.3318 95.7405L54.9907 89.4661C57.0234 86.0253 57.0234 82.2808 54.9907 81.117C52.958 79.9532 49.7056 81.8254 47.7237 85.3169C45.691 88.8083 45.691 92.5527 47.6729 93.6659ZM48.8926 88.8083C48.8926 87.2903 49.9597 85.418 51.3318 84.6084C52.6531 83.8494 53.771 84.4567 53.771 86.0253C53.771 87.5433 52.7039 89.4155 51.3318 90.2251C49.9597 90.9841 48.8926 90.3769 48.8926 88.8083Z" fill="white"/>
<path d="M67.6957 78.9918V71.5029C64.0876 73.5775 61.1402 78.6376 61.1402 82.7868C61.1402 86.936 64.0876 88.6058 67.6957 86.5312C71.3037 84.4566 74.2511 79.3966 74.2511 75.2473C74.2511 74.0329 73.9971 73.0715 73.5397 72.3125L67.6957 78.9918Z" fill="#7155C6"/>
<path d="M73.5392 72.3125C72.4721 70.4909 70.2363 70.0354 67.6957 71.5029V78.9917L73.5392 72.3125Z" fill="#FFD303"/>
<path d="M56.6558 34.9122C56.5747 34.9122 56.5206 34.8583 56.5206 34.7776V33.2702C56.5206 33.2433 56.5206 33.2433 56.5206 33.2163L61.8192 22.0455C61.8462 21.9647 61.9273 21.9378 62.0084 21.9916C62.0895 22.0185 62.1166 22.0993 62.0625 22.1801L56.791 33.2971V34.7776C56.791 34.8583 56.7369 34.9122 56.6558 34.9122Z" fill="#49318F"/>
<path d="M67.2528 44.1452C67.2258 44.1452 67.1987 44.1452 67.1987 44.1183L65.9282 43.3915C65.8742 43.3646 65.8471 43.2838 65.8742 43.2031C65.9012 43.1492 65.9823 43.1223 66.0634 43.1492L67.3339 43.876C67.3879 43.9029 67.415 43.9837 67.3879 44.0644C67.3339 44.1183 67.2798 44.1452 67.2528 44.1452Z" fill="#7155C6"/>
<path d="M67.2531 34.9124C67.172 34.9124 67.1179 34.8585 67.1179 34.7778V33.2973L61.8194 22.1533C61.7923 22.0995 61.8194 22.0187 61.8734 21.9649C61.9545 21.938 62.0086 21.9649 62.0627 22.0187L67.3612 33.1896C67.3612 33.2165 67.3612 33.2165 67.3612 33.2435V34.7509C67.3882 34.8585 67.3071 34.9124 67.2531 34.9124Z" fill="#49318F"/>
<path d="M56.6559 44.1449C56.6018 44.1449 56.5748 44.1179 56.5478 44.0641C56.5207 44.0103 56.5207 43.9295 56.6018 43.8757L57.8723 43.1489C57.9263 43.122 58.0074 43.122 58.0615 43.2027C58.0885 43.2566 58.0885 43.3373 58.0074 43.3912L56.737 44.1179C56.7099 44.1179 56.6829 44.1449 56.6559 44.1449Z" fill="#7155C6"/>
<path d="M61.9543 30.2288L51.3842 36.3122L61.9543 42.3956L72.5243 36.3122L61.9543 30.2288Z" fill="#FFD303"/>
<path d="M72.5245 36.312L61.9544 42.3954V46.81L72.5245 40.7265V36.312Z" fill="#D6952D"/>
<path d="M61.9544 42.3954L51.3844 36.312V40.7265L61.9544 46.81V42.3954Z" fill="#F2BD42"/>
<path d="M57.9536 40.1074L68.5236 34.024L66.4691 32.8396L55.8991 38.923L57.9536 40.1074Z" fill="#F3F1F7"/>
<path d="M57.9534 41.7764V40.1075L55.8991 38.9231V40.592L57.9534 41.7764Z" fill="#DAD0F6"/>
<path d="M59.2242 34.024L63.09 31.7898L61.9546 31.1438L58.0888 33.378L59.2242 34.024Z" fill="#F8F7FC"/>
<path d="M67.2531 44.1452C67.172 44.1452 67.1179 44.0913 67.1179 44.0106V39.3807L61.8194 22.1264C61.7924 22.0457 61.8464 21.9918 61.9005 21.9649C61.9816 21.938 62.0357 21.9918 62.0627 22.0457L67.3612 39.3V39.3269V43.9567C67.3883 44.0644 67.3072 44.1452 67.2531 44.1452Z" fill="#7155C6"/>
<path d="M56.6558 44.1454C56.5747 44.1454 56.5206 44.0915 56.5206 44.0108V39.3809V39.354L61.8192 22.0728C61.8462 21.992 61.9273 21.9651 61.9814 21.992C62.0625 22.0189 62.0895 22.0997 62.0625 22.1535L56.791 39.3809V44.0108C56.791 44.0646 56.7369 44.1454 56.6558 44.1454Z" fill="#7155C6"/>
<path d="M61.0892 21.0225C60.6026 20.7534 60.6026 20.2958 61.0892 20.0266C61.5757 19.7574 62.3596 19.7574 62.8191 20.0266C63.0624 20.1612 63.1705 20.3496 63.1705 20.538C63.1705 20.7265 63.0624 20.888 62.8191 21.0495C62.3326 21.2917 61.5757 21.2917 61.0892 21.0225Z" fill="#F8F7FC"/>
<path d="M62.8191 21.0227C62.3325 21.2918 61.5486 21.2918 61.0891 21.0227C60.8458 20.8881 60.7377 20.6997 60.7377 20.5112V22.1532C60.7377 22.3416 60.8458 22.5031 61.0891 22.6647C61.5757 22.9338 62.3596 22.9338 62.8191 22.6647C63.0624 22.5301 63.1705 22.3416 63.1705 22.1532V20.5112C63.1705 20.6997 63.0624 20.8881 62.8191 21.0227Z" fill="url(#paint27_linear)"/>
<path d="M77.9046 22.2612C77.2558 22.342 76.7692 22.6381 76.607 23.0149C73.9578 21.5614 68.0915 18.5735 65.8477 18.5735H67.6049C69.0377 18.5735 70.2272 17.9005 70.2272 17.0661V16.0432C70.2272 17.3622 75.3905 20.7269 77.9046 22.2612Z" fill="#E6E1F4"/>
<path d="M65.8472 18.5737C68.064 18.5737 73.8762 21.5078 76.5795 22.9613V24.0919C73.9032 22.6652 68.091 21.5616 65.8472 21.5616C65.8472 21.5885 65.8472 18.5737 65.8472 18.5737Z" fill="#DAD0F6"/>
<path d="M45.9779 22.2612C46.6267 22.342 47.1133 22.6381 47.2755 23.0149C49.9518 21.5614 55.818 18.5735 58.0618 18.5735H56.3046C54.8719 18.5735 53.6824 17.9005 53.6824 17.0661V16.0432C53.6554 17.3622 48.492 20.7269 45.9779 22.2612Z" fill="#E6E1F4"/>
<path d="M58.0615 18.5737C55.8178 18.5737 50.0056 21.5078 47.3293 22.9613V24.0919C50.0056 22.6652 55.8178 21.5616 58.0615 21.5616C58.0615 21.5885 58.0615 18.5737 58.0615 18.5737Z" fill="#C7BDE4"/>
<path d="M46.8966 6.13696H44.3557L44.8422 8.7749C44.8693 8.88257 44.9233 8.96333 45.0585 9.04408C45.3558 9.20559 45.8424 9.20559 46.1397 9.04408C46.2749 8.96333 46.356 8.85566 46.356 8.7749C46.383 8.7749 46.8966 6.13696 46.8966 6.13696Z" fill="url(#paint28_linear)"/>
<path d="M44.4098 4.46819C43.734 4.09134 43.734 3.47223 44.4098 3.09538C45.0856 2.71853 46.1668 2.71853 46.8156 3.09538C47.1399 3.28381 47.3021 3.52607 47.3021 3.79524C47.3021 4.06442 47.1399 4.30668 46.8156 4.49511C46.1668 4.84504 45.0856 4.84504 44.4098 4.46819Z" fill="#886AE2"/>
<path d="M46.8156 4.46817C46.1398 4.84502 45.0585 4.84502 44.4098 4.46817C44.0854 4.27975 43.9232 4.03749 43.9232 3.76831V6.05632C43.9232 6.29858 44.0854 6.56776 44.4098 6.75619C45.0856 7.13303 46.1668 7.13303 46.8156 6.75619C47.1399 6.56776 47.3021 6.3255 47.3021 6.05632V3.76831C47.3292 4.01057 47.167 4.25283 46.8156 4.46817Z" fill="url(#paint29_linear)"/>
<path d="M56.2773 18.5733C54.8446 18.5733 53.6551 17.9004 53.6551 17.0659V10.5518C53.6551 9.71738 54.8446 9.04443 56.2773 9.04443H67.6043C69.0371 9.04443 70.2266 9.71738 70.2266 10.5518V17.0659C70.2266 17.9004 69.0371 18.5733 67.6043 18.5733H56.2773Z" fill="#F8F7FC"/>
<path d="M58.1695 16.9853C57.2233 16.9853 56.4394 16.5277 56.4394 15.9894V11.6556C56.4394 11.1173 57.2233 10.6597 58.1695 10.6597H65.7118C66.658 10.6597 67.442 11.1173 67.442 11.6556V15.9894C67.442 16.5277 66.658 16.9853 65.7118 16.9853H58.1695Z" fill="url(#paint30_linear)"/>
<path d="M65.8755 18.5735H58.0628V21.5883H65.8755V18.5735Z" fill="url(#paint31_linear)"/>
<path d="M64.3604 18.5735H59.5485C58.7105 18.5735 58.0346 19.2464 58.0346 20.0809C58.0346 20.9153 58.7105 21.5883 59.5485 21.5883H64.3604C65.1985 21.5883 65.8743 20.9153 65.8743 20.0809C65.8743 19.2464 65.1714 18.5735 64.3604 18.5735Z" fill="#E2DCF4"/>
<path d="M59.1969 20.081C59.1969 19.8656 59.3591 19.7041 59.5753 19.7041C59.7916 19.7041 59.9538 19.8656 59.9538 20.081C59.9538 20.2963 59.7916 20.4578 59.5753 20.4578C59.3591 20.4578 59.1969 20.2963 59.1969 20.081Z" fill="#5B41AA"/>
<path d="M63.9819 20.081C63.9819 19.8656 64.144 19.7041 64.3603 19.7041C64.5765 19.7041 64.7387 19.8656 64.7387 20.081C64.7387 20.2963 64.5765 20.4578 64.3603 20.4578C64.144 20.4578 63.9819 20.2963 63.9819 20.081Z" fill="#5B41AA"/>
<path d="M46.8966 24.9255H44.3557L44.8422 27.5635C44.8693 27.6711 44.9233 27.7519 45.0585 27.8327C45.3558 27.9942 45.8424 27.9942 46.1397 27.8327C46.2749 27.7519 46.356 27.6442 46.356 27.5635C46.383 27.5635 46.8966 24.9255 46.8966 24.9255Z" fill="url(#paint32_linear)"/>
<path d="M44.4098 23.2299C43.734 22.8531 43.734 22.2339 44.4098 21.8571C45.0856 21.4803 46.1668 21.4803 46.8156 21.8571C47.1399 22.0455 47.3021 22.2878 47.3021 22.557C47.3021 22.7992 47.1399 23.0684 46.8156 23.2568C46.1668 23.6068 45.0856 23.6068 44.4098 23.2299Z" fill="#886AE2"/>
<path d="M46.8156 23.2296C46.1398 23.6065 45.0585 23.6065 44.4098 23.2296C44.0854 23.0412 43.9232 22.799 43.9232 22.5298V24.8178C43.9232 25.0601 44.0854 25.3292 44.4098 25.5177C45.0856 25.8945 46.1668 25.8945 46.8156 25.5177C47.1399 25.3292 47.3021 25.087 47.3021 24.8178V22.5298C47.3292 22.799 47.167 23.0412 46.8156 23.2296Z" fill="url(#paint33_linear)"/>
<path d="M47.2756 4.62988C47.1405 5.00673 46.6268 5.30283 45.978 5.38358C48.4921 6.9179 53.6555 10.2826 53.6555 11.5747V10.5518C53.6555 9.71735 54.845 9.0444 56.2778 9.0444H58.0349C55.8182 9.0444 49.9519 6.08344 47.2756 4.62988Z" fill="#E6E1F4"/>
<path d="M53.6554 13.5666V11.5746C53.6554 10.2826 48.492 6.91786 45.9779 5.38354V6.13724C48.492 7.67156 53.6554 13.2705 53.6554 14.5625C53.6554 14.5894 53.6554 13.5666 53.6554 13.5666Z" fill="#DAD0F6"/>
<path d="M77.0119 6.13696H79.5528L79.0663 8.7749C79.0392 8.88257 78.9852 8.96333 78.85 9.04408C78.5527 9.20559 78.0661 9.20559 77.7688 9.04408C77.6336 8.96333 77.5525 8.85566 77.5525 8.7749C77.5255 8.7749 77.0119 6.13696 77.0119 6.13696Z" fill="url(#paint34_linear)"/>
<path d="M79.5008 4.46819C80.1766 4.09134 80.1766 3.47223 79.5008 3.09538C78.825 2.71853 77.7438 2.71853 77.095 3.09538C76.7707 3.28381 76.6085 3.52607 76.6085 3.79524C76.6085 4.06442 76.7707 4.30668 77.095 4.49511C77.7438 4.84504 78.825 4.84504 79.5008 4.46819Z" fill="#886AE2"/>
<path d="M77.093 4.46817C77.7688 4.84502 78.85 4.84502 79.4987 4.46817C79.8231 4.27975 79.9853 4.03749 79.9853 3.76831V6.05632C79.9853 6.29858 79.8231 6.56776 79.4987 6.75619C78.823 7.13303 77.7417 7.13303 77.093 6.75619C76.7686 6.56776 76.6064 6.3255 76.6064 6.05632V3.76831C76.5794 4.01057 76.7416 4.25283 77.093 4.46817Z" fill="url(#paint35_linear)"/>
<path d="M77.0119 24.9255H79.5528L79.0663 27.5635C79.0392 27.6711 78.9852 27.7519 78.85 27.8327C78.5527 27.9942 78.0661 27.9942 77.7688 27.8327C77.6336 27.7519 77.5525 27.6442 77.5525 27.5635C77.5255 27.5635 77.0119 24.9255 77.0119 24.9255Z" fill="url(#paint36_linear)"/>
<path d="M79.5008 23.2299C80.1766 22.8531 80.1766 22.2339 79.5008 21.8571C78.825 21.4803 77.7438 21.4803 77.095 21.8571C76.7707 22.0455 76.6085 22.2878 76.6085 22.557C76.6085 22.7992 76.7707 23.0684 77.095 23.2568C77.7438 23.6068 78.825 23.6068 79.5008 23.2299Z" fill="#886AE2"/>
<path d="M77.093 23.2296C77.7688 23.6065 78.85 23.6065 79.4987 23.2296C79.8231 23.0412 79.9853 22.799 79.9853 22.5298V24.8178C79.9853 25.0601 79.8231 25.3292 79.4987 25.5177C78.823 25.8945 77.7417 25.8945 77.093 25.5177C76.7686 25.3292 76.6064 25.087 76.6064 24.8178V22.5298C76.5794 22.799 76.7416 23.0412 77.093 23.2296Z" fill="url(#paint37_linear)"/>
<path d="M76.6336 4.62988C76.7687 5.00673 77.2824 5.30283 77.9312 5.38358C75.4171 6.9179 70.2537 10.2826 70.2537 11.5747V10.5518C70.2537 9.71735 69.0642 9.0444 67.6315 9.0444H65.8743C68.091 9.0444 73.9573 6.08344 76.6336 4.62988Z" fill="#E6E1F4"/>
<path d="M70.2267 13.5666V11.5746C70.2267 10.2826 75.3901 6.91786 77.9042 5.38354V6.13724C75.3901 7.67156 70.2267 13.2705 70.2267 14.5625C70.2267 14.5894 70.2267 13.5666 70.2267 13.5666Z" fill="#C7BDE4"/>
<path d="M45.626 4.03774C45.1665 4.03774 44.788 3.8224 44.788 3.55322V3.76856C44.788 4.03774 45.1665 4.25308 45.626 4.25308C46.0855 4.25308 46.464 4.03774 46.464 3.76856V3.55322C46.464 3.8224 46.0855 4.03774 45.626 4.03774Z" fill="url(#paint38_linear)"/>
<path d="M45.626 4.03789C45.1665 4.03789 44.788 3.82255 44.788 3.55337C44.788 3.28419 45.1665 3.06885 45.626 3.06885C46.0855 3.06885 46.464 3.28419 46.464 3.55337C46.464 3.82255 46.0855 4.03789 45.626 4.03789Z" fill="#FFD303"/>
<path d="M45.6263 3.82217C45.3559 3.82217 45.1397 3.68758 45.1397 3.52608C45.1397 3.36457 45.3559 3.22998 45.6263 3.22998C45.8966 3.22998 46.1128 3.36457 46.1128 3.52608C46.1128 3.68758 45.8966 3.82217 45.6263 3.82217Z" fill="#49318F"/>
<path d="M45.6262 3.06863L50.9518 0C51.7899 1.23822 50.4652 1.80349 49.6001 2.28801C48.681 2.28801 46.0858 3.31089 46.0858 3.31089L45.6262 3.06863Z" fill="#FFD303"/>
<path d="M45.6263 4.03749L40.3007 7.0792C39.4626 5.84098 40.7873 5.27571 41.6523 4.79119C42.5715 4.79119 45.1667 3.76831 45.1667 3.76831L45.6263 4.03749Z" fill="#FFD303"/>
<path d="M78.2824 22.7995C77.8228 22.7995 77.4444 22.5841 77.4444 22.3149V22.5303C77.4444 22.7995 77.8228 23.0148 78.2824 23.0148C78.7419 23.0148 79.1203 22.7995 79.1203 22.5303V22.3149C79.1203 22.5841 78.7419 22.7995 78.2824 22.7995Z" fill="url(#paint39_linear)"/>
<path d="M78.2824 22.7996C77.8228 22.7996 77.4444 22.5843 77.4444 22.3151C77.4444 22.0459 77.8228 21.8306 78.2824 21.8306C78.7419 21.8306 79.1203 22.0459 79.1203 22.3151C79.1203 22.5843 78.7419 22.7996 78.2824 22.7996Z" fill="#FFD303"/>
<path d="M78.2824 22.611C78.0121 22.611 77.7958 22.4764 77.7958 22.3149C77.7958 22.1534 78.0121 22.0188 78.2824 22.0188C78.5527 22.0188 78.769 22.1534 78.769 22.3149C78.796 22.4764 78.5527 22.611 78.2824 22.611Z" fill="#49318F"/>
<path d="M78.2824 21.8303L83.6079 18.7617C84.446 19.9999 83.1213 20.5652 82.2563 21.0497C81.3371 21.0497 78.7419 22.0726 78.7419 22.0726L78.2824 21.8303Z" fill="#FFD303"/>
<path d="M78.2824 22.7996L72.9568 25.8683C72.1188 24.63 73.4434 24.0648 74.3085 23.5802C75.2276 23.5802 77.8228 22.5574 77.8228 22.5574L78.2824 22.7996Z" fill="#FFD303"/>
<path d="M78.2824 4.03774C78.742 4.03774 79.1204 3.8224 79.1204 3.55322V3.76856C79.1204 4.03774 78.742 4.25308 78.2824 4.25308C77.8229 4.25308 77.4445 4.03774 77.4445 3.76856V3.55322C77.4445 3.8224 77.8229 4.03774 78.2824 4.03774Z" fill="url(#paint40_linear)"/>
<path d="M78.2824 4.03789C78.742 4.03789 79.1204 3.82255 79.1204 3.55337C79.1204 3.28419 78.742 3.06885 78.2824 3.06885C77.8229 3.06885 77.4445 3.28419 77.4445 3.55337C77.4445 3.82255 77.8229 4.03789 78.2824 4.03789Z" fill="#FFD303"/>
<path d="M78.2825 3.82217C78.5528 3.82217 78.769 3.68758 78.769 3.52608C78.769 3.36457 78.5528 3.22998 78.2825 3.22998C78.0121 3.22998 77.7959 3.36457 77.7959 3.52608C77.7959 3.68758 78.0121 3.82217 78.2825 3.82217Z" fill="#49318F"/>
<path d="M78.2824 3.06863L72.9568 0C72.1188 1.23822 73.4434 1.80349 74.3085 2.28801C75.2276 2.28801 77.8228 3.31089 77.8228 3.31089L78.2824 3.06863Z" fill="#FFD303"/>
<path d="M78.2824 4.03767L83.608 7.1063C84.4461 5.86808 83.1214 5.30281 82.2564 4.81829C81.3372 4.81829 78.742 3.79541 78.742 3.79541L78.2824 4.03767Z" fill="#FFD303"/>
<path d="M45.6258 22.7992C46.0853 22.7992 46.4638 22.5839 46.4638 22.3147V22.53C46.4638 22.7992 46.0853 23.0146 45.6258 23.0146C45.1663 23.0146 44.7879 22.7992 44.7879 22.53V22.3147C44.7879 22.5839 45.1663 22.7992 45.6258 22.7992Z" fill="url(#paint41_linear)"/>
<path d="M45.6258 22.7991C46.0853 22.7991 46.4638 22.5838 46.4638 22.3146C46.4638 22.0454 46.0853 21.8301 45.6258 21.8301C45.1663 21.8301 44.7879 22.0454 44.7879 22.3146C44.7879 22.5838 45.1663 22.7991 45.6258 22.7991Z" fill="#FFD303"/>
<path d="M45.626 22.6105C45.8963 22.6105 46.1125 22.4759 46.1125 22.3144C46.1125 22.1529 45.8963 22.0183 45.626 22.0183C45.3557 22.0183 45.1394 22.1529 45.1394 22.3144C45.1124 22.4759 45.3557 22.6105 45.626 22.6105Z" fill="#49318F"/>
<path d="M45.6263 21.8303L40.3007 18.7886C39.4626 20.0268 40.7873 20.5921 41.6523 21.0766C42.5715 21.0766 45.1667 22.0995 45.1667 22.0995L45.6263 21.8303Z" fill="#FFD303"/>
<path d="M45.6261 22.7989L50.9516 25.8675C51.7897 24.6293 50.465 24.064 49.6 23.5795C48.6808 23.5795 46.0856 22.5566 46.0856 22.5566L45.6261 22.7989Z" fill="#FFD303"/>
<g clip-path="url(#clip1)">
<path d="M103.387 113.509L99.7868 115.601L104.187 118.141L104.937 117.693L101.237 115.501L103.287 114.356L106.987 116.498L107.737 116.049L103.387 113.509Z" fill="black"/>
<path d="M109.636 114.356C109.336 114.505 109.036 114.605 108.686 114.555C108.336 114.505 108.036 114.455 107.786 114.306C107.536 114.157 107.386 114.007 107.336 113.808C107.286 113.609 107.436 113.459 107.686 113.26C107.986 113.11 108.286 113.011 108.636 113.061C108.986 113.061 109.286 113.16 109.536 113.31C109.786 113.459 109.936 113.609 109.986 113.808C109.986 114.057 109.886 114.206 109.636 114.356ZM107.086 112.911C106.636 113.16 106.386 113.459 106.386 113.808C106.386 114.157 106.586 114.455 107.036 114.705C107.486 114.954 108.036 115.103 108.636 115.103C109.236 115.103 109.786 114.954 110.236 114.705C110.686 114.455 110.936 114.157 110.936 113.758C110.936 113.409 110.736 113.11 110.286 112.812C109.836 112.563 109.286 112.413 108.686 112.413C108.086 112.513 107.536 112.662 107.086 112.911Z" fill="black"/>
<path d="M110.887 110.719C110.437 110.968 110.187 111.267 110.187 111.616C110.187 111.965 110.387 112.264 110.887 112.562C111.387 112.861 111.887 112.961 112.487 112.961C113.087 112.961 113.587 112.811 114.087 112.562C114.586 112.264 114.786 112.014 114.786 111.666H113.837C113.887 111.865 113.737 112.014 113.487 112.164C113.237 112.313 112.937 112.363 112.587 112.363C112.237 112.363 111.937 112.264 111.687 112.114C111.437 111.965 111.287 111.815 111.237 111.616C111.187 111.417 111.287 111.267 111.537 111.118C111.637 111.068 111.787 111.018 111.987 110.968C112.187 110.919 112.337 110.919 112.437 110.919L112.487 110.371C112.237 110.371 111.937 110.371 111.637 110.47C111.337 110.52 111.087 110.62 110.887 110.719Z" fill="black"/>
<path d="M116.386 107.681L115.336 108.278L116.486 109.922L113.586 109.275L112.586 109.872L115.536 111.566L116.286 111.168L114.136 109.922H114.186L117.186 110.62L117.686 110.371L116.486 108.577H116.536L118.636 109.823L119.336 109.374L116.386 107.681Z" fill="black"/>
<path d="M121.186 107.73C120.886 107.88 120.586 107.979 120.236 107.93C119.886 107.88 119.586 107.83 119.336 107.681C119.086 107.531 118.936 107.382 118.886 107.182C118.836 106.983 118.986 106.834 119.236 106.634C119.536 106.485 119.836 106.385 120.136 106.435C120.486 106.435 120.786 106.535 121.036 106.684C121.286 106.834 121.436 106.983 121.486 107.182C121.586 107.382 121.436 107.581 121.186 107.73ZM118.636 106.236C118.186 106.485 117.936 106.784 117.936 107.133C117.936 107.481 118.136 107.78 118.586 108.029C119.036 108.278 119.586 108.428 120.186 108.428C120.786 108.428 121.336 108.278 121.786 108.029C122.236 107.78 122.486 107.481 122.486 107.083C122.486 106.734 122.286 106.435 121.836 106.136C121.386 105.887 120.836 105.738 120.236 105.738C119.636 105.837 119.086 105.987 118.636 106.236Z" fill="black"/>
<path d="M123.336 103.646L120.686 105.19L121.286 105.539L122.236 104.991L124.636 106.336L125.386 105.937L122.986 104.542L123.936 103.994L123.336 103.646Z" fill="black"/>
<path d="M127.936 103.845C127.686 103.995 127.386 104.044 126.986 104.044C126.636 104.044 126.336 103.945 126.086 103.795C125.836 103.646 125.686 103.496 125.636 103.247C125.586 103.048 125.736 102.849 125.986 102.699C126.236 102.55 126.536 102.5 126.886 102.5C127.236 102.5 127.536 102.6 127.786 102.749C128.036 102.899 128.186 103.048 128.236 103.247C128.336 103.496 128.236 103.646 127.936 103.845ZM125.586 102.251C125.336 102.4 125.186 102.55 125.086 102.699C124.986 102.849 124.986 102.998 125.036 103.148L124.636 102.899L123.936 103.297L128.386 105.887L129.136 105.439L127.236 104.343C127.486 104.393 127.736 104.343 127.986 104.293C128.236 104.244 128.486 104.144 128.686 104.044C129.136 103.795 129.336 103.496 129.286 103.148C129.236 102.799 128.986 102.5 128.586 102.251C128.136 102.002 127.636 101.853 127.086 101.853C126.536 101.902 126.036 102.002 125.586 102.251Z" fill="black"/>
<path d="M130.736 99.4116L129.936 99.8599L130.536 101.753L128.586 100.657L127.886 101.055L130.836 102.799L131.636 102.301L131.036 100.458L132.986 101.554L133.736 101.105L130.736 99.4116Z" fill="black"/>
<path d="M133.986 97.5681L131.336 99.0625L131.886 99.4112L132.886 98.8633L135.236 100.258L135.986 99.8097L133.636 98.4648L134.586 97.9168L133.986 97.5681Z" fill="black"/>
<path d="M136.235 97.6182C136.035 97.4687 135.985 97.3193 135.985 97.1698C135.985 97.0204 136.135 96.8709 136.335 96.7215C136.585 96.5721 136.785 96.5223 137.085 96.5223C137.335 96.5223 137.585 96.6219 137.785 96.7215L136.235 97.6182ZM135.785 96.4226C135.335 96.6717 135.085 96.9706 135.085 97.3193C135.085 97.668 135.285 97.9669 135.785 98.2657C136.285 98.5646 136.785 98.6643 137.385 98.6643C137.985 98.6643 138.485 98.5148 138.935 98.2657C139.485 97.9669 139.735 97.5683 139.635 97.1698L138.735 97.2196C138.785 97.4687 138.685 97.7178 138.335 97.917C138.135 98.0665 137.835 98.1163 137.535 98.1163C137.235 98.1163 136.985 98.0665 136.735 97.9669L139.035 96.6717C138.985 96.6219 138.935 96.6219 138.835 96.5721C138.335 96.2732 137.785 96.1237 137.235 96.1237C136.735 96.0241 136.235 96.1736 135.785 96.4226Z" fill="black"/>
<path d="M142.785 95.277L142.085 94.8785L142.785 94.48C143.135 94.2807 143.385 94.2807 143.635 94.3804C143.885 94.5298 143.835 94.6792 143.485 94.8785L142.785 95.277ZM141.535 94.5796L140.885 94.1811L141.535 93.7826C141.835 93.5833 142.135 93.5833 142.335 93.683C142.535 93.8324 142.535 93.932 142.235 94.1313L141.535 94.5796ZM141.135 93.4339L139.585 94.3305L142.535 96.074L144.135 95.1774C144.485 94.9781 144.685 94.7789 144.735 94.5796C144.785 94.3804 144.685 94.1811 144.435 94.0317C144.235 93.932 144.035 93.8822 143.785 93.8324C143.535 93.8324 143.335 93.8822 143.085 93.9818C143.185 93.8822 143.235 93.7826 143.235 93.6332C143.235 93.5335 143.135 93.4339 142.985 93.3343C142.785 93.2346 142.585 93.135 142.335 93.135C142.085 93.135 141.885 93.1848 141.685 93.2346C141.485 93.2346 141.335 93.3343 141.135 93.4339Z" fill="black"/>
<path d="M145.935 90.6941L145.135 91.1424L145.735 92.9855L143.785 91.8896L143.035 92.338L146.035 94.0316L146.835 93.5833L146.235 91.7402L148.135 92.8361L148.885 92.3878L145.935 90.6941Z" fill="black"/>
<path d="M149.935 91.0925C149.785 90.7438 149.435 90.3951 148.885 90.0962L148.535 89.897L149.485 89.349L151.235 90.3951L149.935 91.0925ZM149.635 88.552L147.185 89.9468L147.935 90.3951C148.635 90.7936 149.035 91.1921 149.135 91.5408L148.835 91.7401L150.285 92.5869L150.935 92.2382L150.085 91.7401L152.435 90.3951L153.285 90.8933L153.935 90.5446L152.485 89.6977L152.035 89.9468L149.635 88.552Z" fill="black"/>
<path d="M152.385 88.3028C152.185 88.1533 152.085 88.0039 152.135 87.8544C152.135 87.705 152.285 87.5556 152.485 87.4061C152.735 87.2567 152.985 87.2069 153.235 87.2069C153.485 87.2069 153.735 87.2567 153.935 87.4061L152.385 88.3028ZM151.935 87.1072C151.485 87.3563 151.235 87.6552 151.235 88.0039C151.235 88.3526 151.435 88.6515 151.935 88.9504C152.435 89.2492 152.935 89.3489 153.535 89.3489C154.135 89.3489 154.635 89.1994 155.085 88.9504C155.635 88.6515 155.885 88.253 155.785 87.8544L154.885 87.9043C154.935 88.1533 154.835 88.4024 154.485 88.6017C154.285 88.7511 153.985 88.8009 153.685 88.8009C153.385 88.8009 153.135 88.7511 152.885 88.6515L155.185 87.3563C155.135 87.3065 155.085 87.3065 154.985 87.2567C154.485 86.9578 153.935 86.8084 153.385 86.8084C152.885 86.7585 152.385 86.8582 151.935 87.1072Z" fill="black"/>
<path d="M158.085 86.5097C157.785 86.6591 157.485 86.7587 157.135 86.7089C156.785 86.6591 156.485 86.6093 156.235 86.4598C155.985 86.3104 155.835 86.161 155.785 85.9617C155.735 85.7624 155.885 85.613 156.135 85.4137C156.435 85.2643 156.735 85.1647 157.085 85.2145C157.435 85.2145 157.735 85.3141 157.985 85.4636C158.235 85.613 158.385 85.7624 158.435 85.9617C158.485 86.161 158.385 86.3104 158.085 86.5097ZM155.585 85.0152C155.135 85.2643 154.885 85.5632 154.885 85.9119C154.885 86.2606 155.085 86.5595 155.535 86.8085C155.985 87.0576 156.535 87.2071 157.135 87.2071C157.735 87.2071 158.285 87.0576 158.735 86.8085C159.185 86.5595 159.435 86.2606 159.435 85.8621C159.435 85.5134 159.235 85.2145 158.785 84.9156C158.335 84.6665 157.785 84.5171 157.185 84.5171C156.585 84.6167 156.035 84.7662 155.585 85.0152Z" fill="black"/>
<path d="M116.836 118.789C116.536 118.939 116.236 119.038 115.886 118.988C115.536 118.939 115.236 118.889 114.986 118.739C114.736 118.59 114.586 118.44 114.536 118.241C114.486 118.042 114.636 117.893 114.886 117.693C115.186 117.544 115.486 117.444 115.836 117.494C116.186 117.494 116.486 117.594 116.736 117.743C116.986 117.893 117.136 118.042 117.186 118.241C117.236 118.44 117.136 118.64 116.836 118.789ZM114.336 117.345C113.886 117.594 113.636 117.893 113.636 118.241C113.636 118.59 113.836 118.889 114.286 119.138C114.736 119.387 115.286 119.536 115.886 119.536C116.486 119.536 117.036 119.387 117.486 119.138C117.936 118.889 118.186 118.59 118.186 118.191C118.186 117.843 117.986 117.544 117.536 117.245C117.086 116.996 116.536 116.846 115.936 116.846C115.336 116.896 114.786 117.046 114.336 117.345Z" fill="black"/>
<path d="M121.086 113.559L120.336 113.957L121.436 114.605L120.186 115.352L119.036 114.705L118.336 115.153L121.286 116.847L122.036 116.398L120.786 115.701L122.036 114.954L123.286 115.701L124.036 115.253L121.086 113.559Z" fill="black"/>
<path d="M125.486 113.858C125.336 113.957 125.186 114.007 125.036 114.007C124.886 114.057 124.736 114.007 124.586 113.907C124.236 113.708 124.486 113.409 125.236 112.961L125.386 112.861L125.486 112.911C125.736 113.061 125.836 113.21 125.836 113.359C125.886 113.559 125.736 113.708 125.486 113.858ZM123.086 112.263C122.586 112.562 122.336 112.911 122.286 113.26L123.136 113.31C123.136 113.061 123.286 112.811 123.586 112.662C123.786 112.562 123.986 112.463 124.236 112.463C124.436 112.463 124.636 112.463 124.836 112.562L124.886 112.612C124.686 112.712 124.486 112.861 124.336 112.961C124.186 113.061 124.036 113.21 123.886 113.31C123.736 113.459 123.636 113.559 123.586 113.658C123.536 113.758 123.536 113.907 123.536 114.007C123.586 114.107 123.686 114.256 123.836 114.356C124.136 114.555 124.486 114.605 124.886 114.555C125.286 114.505 125.586 114.405 125.886 114.256C126.086 114.156 126.236 114.007 126.336 113.858C126.436 113.708 126.436 113.559 126.386 113.459L126.786 113.658L127.486 113.26L125.686 112.214C125.536 112.114 125.336 112.064 125.186 112.014C124.986 111.965 124.786 111.915 124.586 111.915C124.386 111.915 124.136 111.915 123.886 111.965C123.586 112.014 123.336 112.114 123.086 112.263Z" fill="black"/>
<path d="M129.836 108.478L129.086 108.926L131.486 110.271L130.336 110.918L127.986 109.573L127.236 109.972L129.636 111.367L128.486 112.014L126.136 110.62L125.386 111.068L128.336 112.762L132.836 110.221L129.836 108.478Z" fill="black"/>
<path d="M132.536 108.328C132.336 108.179 132.286 108.03 132.286 107.88C132.286 107.731 132.436 107.581 132.636 107.432C132.886 107.282 133.086 107.233 133.386 107.233C133.636 107.233 133.886 107.332 134.086 107.432L132.536 108.328ZM132.086 107.083C131.636 107.332 131.386 107.631 131.386 107.98C131.386 108.328 131.636 108.627 132.086 108.926C132.586 109.225 133.086 109.325 133.686 109.325C134.286 109.325 134.786 109.175 135.235 108.926C135.785 108.627 136.035 108.229 135.935 107.83L135.036 107.88C135.085 108.129 134.986 108.378 134.636 108.577C134.436 108.727 134.136 108.777 133.836 108.777C133.536 108.777 133.286 108.727 133.036 108.627L135.335 107.332C135.285 107.282 135.235 107.282 135.135 107.233C134.636 106.934 134.086 106.784 133.536 106.784C133.036 106.734 132.536 106.834 132.086 107.083Z" fill="black"/>
<path d="M137.236 104.244L136.436 104.692L137.036 106.535L135.136 105.439L134.386 105.887L137.336 107.631L138.136 107.183L137.536 105.29L139.436 106.386L140.186 105.937L137.236 104.244ZM134.936 103.895C135.036 103.994 135.086 104.094 135.086 104.194C135.036 104.293 134.936 104.393 134.786 104.493C134.636 104.592 134.486 104.642 134.286 104.642C134.136 104.642 133.936 104.642 133.786 104.542L133.436 104.791C133.736 104.941 134.036 104.991 134.386 104.991C134.686 104.991 134.986 104.891 135.286 104.742C135.586 104.592 135.736 104.393 135.736 104.244C135.736 104.044 135.636 103.895 135.436 103.696L134.936 103.895Z" fill="black"/>
<path d="M143.735 103.297C143.485 103.447 143.185 103.497 142.785 103.497C142.435 103.497 142.135 103.397 141.885 103.247C141.635 103.098 141.485 102.949 141.435 102.699C141.385 102.5 141.535 102.301 141.785 102.152C142.035 102.002 142.335 101.952 142.685 101.952C143.035 101.952 143.335 102.052 143.585 102.201C143.835 102.351 143.985 102.5 144.035 102.699C144.135 102.998 143.985 103.148 143.735 103.297ZM141.385 101.753C141.135 101.902 140.985 102.052 140.885 102.201C140.785 102.351 140.785 102.5 140.835 102.65L140.436 102.401L139.736 102.799L144.185 105.389L144.935 104.941L143.035 103.845C143.285 103.895 143.535 103.845 143.785 103.795C144.035 103.746 144.285 103.646 144.485 103.546C144.935 103.297 145.135 102.998 145.085 102.65C145.035 102.301 144.785 102.002 144.385 101.753C143.935 101.504 143.435 101.354 142.835 101.354C142.285 101.404 141.785 101.504 141.385 101.753Z" fill="black"/>
<path d="M147.185 101.404C147.035 101.504 146.885 101.554 146.735 101.554C146.585 101.603 146.435 101.554 146.285 101.454C145.935 101.255 146.185 100.956 146.935 100.508L147.085 100.408L147.185 100.458C147.435 100.607 147.535 100.757 147.535 100.906C147.535 101.105 147.435 101.255 147.185 101.404ZM144.785 99.8101C144.285 100.109 144.035 100.458 143.985 100.806L144.835 100.856C144.835 100.607 144.985 100.358 145.285 100.209C145.485 100.109 145.685 100.009 145.935 100.009C146.135 100.009 146.335 100.009 146.535 100.109L146.585 100.159C146.385 100.258 146.185 100.408 146.035 100.508C145.885 100.607 145.735 100.757 145.585 100.856C145.435 101.006 145.335 101.105 145.285 101.205C145.235 101.305 145.235 101.454 145.235 101.554C145.285 101.653 145.385 101.803 145.535 101.902C145.835 102.102 146.185 102.151 146.585 102.102C146.985 102.052 147.285 101.952 147.585 101.803C147.785 101.703 147.935 101.554 148.035 101.404C148.135 101.255 148.135 101.105 148.085 101.006L148.485 101.205L149.185 100.806L147.385 99.7603C147.235 99.6607 147.035 99.6109 146.885 99.5611C146.685 99.5112 146.485 99.4614 146.285 99.4614C146.085 99.4614 145.835 99.4614 145.585 99.5112C145.285 99.5611 145.035 99.6607 144.785 99.8101Z" fill="black"/>
<path d="M151.035 99.1127C150.785 99.2621 150.485 99.3119 150.135 99.3119C149.785 99.3119 149.485 99.2123 149.235 99.0629C148.985 98.9134 148.835 98.7142 148.785 98.5149C148.735 98.3156 148.885 98.1662 149.135 98.0168C149.385 97.8673 149.735 97.7677 150.085 97.8175C150.435 97.8175 150.735 97.9171 150.985 98.0666C151.235 98.216 151.385 98.4153 151.435 98.6145C151.385 98.8138 151.285 98.9632 151.035 99.1127ZM147.835 96.074C147.885 96.1238 147.935 96.2235 147.885 96.2733C147.835 96.3231 147.735 96.4227 147.585 96.5722L146.935 97.0703C146.735 97.2197 146.585 97.3692 146.485 97.5186C146.385 97.6681 146.385 97.8175 146.435 97.9669C146.485 98.1164 146.585 98.2658 146.735 98.4153C146.885 98.5647 147.085 98.7142 147.285 98.8636C147.485 99.013 147.735 99.1625 148.035 99.3119C148.385 99.5112 148.735 99.6606 149.035 99.7603C149.335 99.8599 149.635 99.9097 149.935 99.9097C150.585 99.9097 151.185 99.8101 151.685 99.5112C152.135 99.2621 152.385 98.9632 152.385 98.6145C152.385 98.2658 152.185 97.9669 151.735 97.6681C151.285 97.419 150.735 97.2695 150.185 97.2695C149.635 97.2695 149.135 97.3692 148.735 97.6182C148.135 97.9669 147.935 98.3156 148.185 98.7142C147.935 98.5647 147.735 98.4153 147.585 98.2658C147.435 98.1164 147.385 98.0168 147.385 97.9171C147.385 97.8175 147.435 97.7179 147.485 97.6182C147.535 97.5186 147.685 97.419 147.835 97.3194L148.535 96.7714C148.735 96.622 148.885 96.4725 148.885 96.3231C148.885 96.1736 148.835 96.0242 148.635 95.8748L147.835 96.074Z" fill="black"/>
<path d="M154.835 96.9208C154.535 97.0702 154.235 97.1698 153.885 97.12C153.535 97.0702 153.235 97.0204 152.985 96.871C152.735 96.7215 152.585 96.5721 152.535 96.3728C152.485 96.1736 152.635 96.0241 152.885 95.8249C153.185 95.6754 153.485 95.5758 153.785 95.6256C154.085 95.6754 154.435 95.7252 154.685 95.8747C154.935 96.0241 155.085 96.1736 155.135 96.3728C155.185 96.6219 155.085 96.7713 154.835 96.9208ZM152.285 95.4762C151.835 95.7252 151.585 96.0241 151.585 96.3728C151.585 96.7215 151.785 97.0204 152.235 97.2695C152.685 97.5185 153.235 97.668 153.835 97.668C154.435 97.668 154.985 97.5185 155.435 97.2695C155.885 97.0204 156.135 96.7215 156.135 96.323C156.135 95.9743 155.935 95.6754 155.485 95.3765C155.035 95.1275 154.485 94.978 153.885 94.978C153.285 95.0777 152.735 95.2271 152.285 95.4762Z" fill="black"/>
<path d="M156.985 92.886L154.335 94.4302L154.935 94.7789L155.885 94.1812L158.235 95.5759L158.985 95.1276L156.635 93.7826L157.585 93.2347L156.985 92.886Z" fill="black"/>
<path d="M159.235 92.9355C159.035 92.7861 158.935 92.6367 158.985 92.4872C158.985 92.3378 159.135 92.1883 159.335 92.0389C159.585 91.8894 159.835 91.8396 160.085 91.8396C160.335 91.8396 160.585 91.8894 160.785 92.0389L159.235 92.9355ZM158.785 91.74C158.335 91.9891 158.085 92.288 158.085 92.6367C158.085 92.9854 158.335 93.2842 158.785 93.5831C159.285 93.882 159.785 93.9816 160.385 93.9816C160.985 93.9816 161.485 93.8322 161.935 93.5831C162.485 93.2842 162.735 92.8857 162.635 92.4872L161.735 92.537C161.785 92.7861 161.685 93.0352 161.335 93.2344C161.135 93.3839 160.835 93.4337 160.535 93.4337C160.235 93.4337 159.985 93.3839 159.735 93.2842L162.035 91.9891C161.985 91.9393 161.935 91.9393 161.835 91.8894C161.335 91.5906 160.785 91.4411 160.235 91.4411C159.735 91.3415 159.235 91.4909 158.785 91.74Z" fill="black"/>
</g>
<path opacity="0.2" d="M113.589 101.458C119.595 101.458 124.464 98.6493 124.464 95.1841C124.464 91.7188 119.595 88.9097 113.589 88.9097C107.583 88.9097 102.714 91.7188 102.714 95.1841C102.714 98.6493 107.583 101.458 113.589 101.458Z" fill="black"/>
<path d="M127.107 86.6832V82.8882H126.395C125.735 81.775 124.667 80.763 123.143 79.8522C117.858 76.8162 109.27 76.8162 103.985 79.8522C102.46 80.7124 101.393 81.775 100.732 82.8882H100.021V86.6326C100.021 88.6566 101.342 90.6301 103.985 92.1481C109.27 95.1841 117.858 95.1841 123.143 92.1481C125.785 90.6807 127.107 88.6566 127.107 86.6832Z" fill="#3D2291"/>
<path d="M123.143 79.8522C120.5 78.3342 117.045 77.5752 113.589 77.5752V94.4757C117.045 94.4757 120.5 93.7167 123.143 92.1987C125.785 90.6807 127.107 88.7072 127.107 86.6832V82.8882H126.395C125.785 81.775 124.667 80.7124 123.143 79.8522Z" fill="#2F1A70"/>
<path d="M113.59 90.6808C121.083 90.6808 127.158 87.192 127.158 82.8884C127.158 78.5847 121.083 75.0959 113.59 75.0959C106.096 75.0959 100.022 78.5847 100.022 82.8884C100.022 87.192 106.096 90.6808 113.59 90.6808Z" fill="#6A3DF7"/>
<path d="M123.143 88.404C117.858 91.44 109.27 91.44 103.985 88.404C101.444 86.9366 100.123 85.0644 100.021 83.1416C99.9193 85.2162 101.19 87.2908 103.985 88.91C109.27 91.946 117.858 91.946 123.143 88.91C125.887 87.3414 127.208 85.2162 127.107 83.1416C127.005 85.0644 125.684 86.9366 123.143 88.404Z" fill="white"/>
<path d="M108.152 82.1294L113.386 85.216C113.996 85.5702 114.961 85.4184 115.165 84.963L117.248 80.7126C117.502 80.2572 116.689 79.7512 115.876 79.903L108.609 81.0668C107.847 81.2186 107.593 81.7752 108.152 82.1294Z" fill="white"/>
</g>
<defs>
<linearGradient id="paint0_linear" x1="205.271" y1="199.91" x2="255.412" y2="199.91" gradientUnits="userSpaceOnUse">
<stop stop-color="#CDC6E3"/>
<stop offset="0.3639" stop-color="#E5E1F0"/>
<stop offset="0.7514" stop-color="#F8F7FB"/>
<stop offset="1" stop-color="white" stop-opacity="0"/>
</linearGradient>
<linearGradient id="paint1_linear" x1="146.873" y1="42.0406" x2="188.772" y2="42.0406" gradientUnits="userSpaceOnUse">
<stop stop-color="#C6CAE3"/>
<stop offset="0.172" stop-color="#D7D9EB"/>
<stop offset="0.4671" stop-color="#EDEEF6"/>
<stop offset="0.7487" stop-color="#FAFBFD"/>
<stop offset="1" stop-color="white" stop-opacity="0"/>
</linearGradient>
<linearGradient id="paint2_linear" x1="176.624" y1="47.4275" x2="222.826" y2="47.4275" gradientUnits="userSpaceOnUse">
<stop stop-color="#C6CAE3"/>
<stop offset="0.172" stop-color="#D7D9EB"/>
<stop offset="0.4671" stop-color="#EDEEF6"/>
<stop offset="0.7487" stop-color="#FAFBFD"/>
<stop offset="1" stop-color="white" stop-opacity="0"/>
</linearGradient>
<linearGradient id="paint3_linear" x1="239.263" y1="184.786" x2="277.518" y2="184.786" gradientUnits="userSpaceOnUse">
<stop stop-color="#C6CAE3"/>
<stop offset="0.3639" stop-color="#E1E3F0"/>
<stop offset="0.7514" stop-color="#F7F7FB"/>
<stop offset="1" stop-color="white" stop-opacity="0"/>
</linearGradient>
<linearGradient id="paint4_linear" x1="215.145" y1="176.739" x2="252.628" y2="176.739" gradientUnits="userSpaceOnUse">
<stop stop-color="#CDC6E3"/>
<stop offset="0.3639" stop-color="#E5E1F0"/>
<stop offset="0.7514" stop-color="#F8F7FB"/>
<stop offset="1" stop-color="white"/>
</linearGradient>
<linearGradient id="paint5_linear" x1="207.98" y1="178.151" x2="229.39" y2="178.151" gradientUnits="userSpaceOnUse">
<stop stop-color="#DBD3F2"/>
<stop offset="0.5746" stop-color="#EFEBF9"/>
<stop offset="1" stop-color="white"/>
</linearGradient>
<linearGradient id="paint6_linear" x1="153.771" y1="25.4602" x2="187.055" y2="25.4602" gradientUnits="userSpaceOnUse">
<stop stop-color="#DBD3F2"/>
<stop offset="0.0356648" stop-color="#DED7F3"/>
<stop offset="0.3011" stop-color="#F0EDFA"/>
<stop offset="0.5544" stop-color="#FBFAFE"/>
<stop offset="0.7804" stop-color="white"/>
</linearGradient>
<linearGradient id="paint7_linear" x1="229.389" y1="191.75" x2="239.262" y2="191.75" gradientUnits="userSpaceOnUse">
<stop stop-color="#C6CAE3"/>
<stop offset="0.3639" stop-color="#E1E3F0"/>
<stop offset="0.7514" stop-color="#F7F7FB"/>
<stop offset="1" stop-color="white"/>
</linearGradient>
<linearGradient id="paint8_linear" x1="229.335" y1="116.454" x2="250.819" y2="79.0825" gradientUnits="userSpaceOnUse">
<stop stop-color="#D3D8F2"/>
<stop offset="0.319" stop-color="#DDE1F5"/>
<stop offset="0.8585" stop-color="#F8F8FD"/>
<stop offset="0.989" stop-color="white" stop-opacity="0"/>
</linearGradient>
<linearGradient id="paint9_linear" x1="201.336" y1="96.3194" x2="212.967" y2="76.0869" gradientUnits="userSpaceOnUse">
<stop stop-color="#F8F7FC"/>
<stop offset="1" stop-color="#DAD0F6"/>
</linearGradient>
<linearGradient id="paint10_linear" x1="190.784" y1="94.2909" x2="205.904" y2="67.9893" gradientUnits="userSpaceOnUse">
<stop stop-color="#49318F"/>
<stop offset="1" stop-color="#7155C6"/>
</linearGradient>
<linearGradient id="paint11_linear" x1="193.362" y1="58.1928" x2="185.775" y2="54.2134" gradientUnits="userSpaceOnUse">
<stop stop-color="#301C6B"/>
<stop offset="0.1167" stop-color="#382377"/>
<stop offset="0.7129" stop-color="#6147B0"/>
<stop offset="1" stop-color="#7155C6"/>
</linearGradient>
<linearGradient id="paint12_linear" x1="198.738" y1="89.54" x2="235.766" y2="89.54" gradientUnits="userSpaceOnUse">
<stop offset="0.4106" stop-color="#DAD0F6"/>
<stop offset="0.5317" stop-color="#C6BCE4"/>
<stop offset="0.6761" stop-color="#B4A9D3"/>
</linearGradient>
<linearGradient id="paint13_linear" x1="208.702" y1="98.9946" x2="226.255" y2="68.4622" gradientUnits="userSpaceOnUse">
<stop stop-color="#B4A9D3"/>
<stop offset="0.008038" stop-color="#B8AED6"/>
<stop offset="0.0678605" stop-color="#D7D1E8"/>
<stop offset="0.1243" stop-color="#EDEAF4"/>
<stop offset="0.1755" stop-color="#FBFAFC"/>
<stop offset="0.2168" stop-color="white"/>
</linearGradient>
<linearGradient id="paint14_linear" x1="230.621" y1="113.18" x2="242.252" y2="92.9489" gradientUnits="userSpaceOnUse">
<stop stop-color="#F8F7FC"/>
<stop offset="1" stop-color="#DAD0F6"/>
</linearGradient>
<linearGradient id="paint15_linear" x1="220.069" y1="111.153" x2="235.19" y2="84.8506" gradientUnits="userSpaceOnUse">
<stop stop-color="#49318F"/>
<stop offset="1" stop-color="#7155C6"/>
</linearGradient>
<linearGradient id="paint16_linear" x1="194.915" y1="64.6553" x2="239.594" y2="64.6553" gradientUnits="userSpaceOnUse">
<stop offset="0.5143" stop-color="#DAD0F6"/>
<stop offset="0.6822" stop-color="#C7BDE4"/>
</linearGradient>
<linearGradient id="paint17_linear" x1="216.469" y1="48.0191" x2="238.156" y2="48.0191" gradientUnits="userSpaceOnUse">
<stop stop-color="#DBD3F2"/>
<stop offset="0.5546" stop-color="#F1EEFA"/>
<stop offset="1" stop-color="white"/>
</linearGradient>
<linearGradient id="paint18_linear" x1="202.792" y1="36.5379" x2="213.749" y2="55.5975" gradientUnits="userSpaceOnUse">
<stop offset="0.2259" stop-color="#AFA5CE"/>
<stop offset="0.2754" stop-color="#B8BCD9"/>
<stop offset="0.3758" stop-color="#EDEAF5"/>
<stop offset="0.4" stop-color="#F8F7FC"/>
</linearGradient>
<linearGradient id="paint19_linear" x1="217.496" y1="51.9772" x2="202.501" y2="35.1465" gradientUnits="userSpaceOnUse">
<stop stop-color="#301C6B"/>
<stop offset="0.26" stop-color="#3E287E"/>
<stop offset="0.7864" stop-color="#6147B0"/>
<stop offset="1" stop-color="#7155C6"/>
</linearGradient>
<linearGradient id="paint20_linear" x1="207.982" y1="44.8026" x2="207.982" y2="34.3849" gradientUnits="userSpaceOnUse">
<stop offset="0.0712081" stop-color="#F8F7FC"/>
<stop offset="0.531" stop-color="#E2DDF1"/>
<stop offset="1" stop-color="#CEC6E7"/>
</linearGradient>
<linearGradient id="paint21_linear" x1="212.42" y1="29.1735" x2="224.955" y2="50.9781" gradientUnits="userSpaceOnUse">
<stop stop-color="#F8F7FC"/>
<stop offset="0.3348" stop-color="#E6E1F3"/>
<stop offset="0.7836" stop-color="#C7BDE4"/>
</linearGradient>
<linearGradient id="paint22_linear" x1="236.727" y1="60.3285" x2="215.451" y2="84.8517" gradientUnits="userSpaceOnUse">
<stop stop-color="#7155C6"/>
<stop offset="0.2871" stop-color="#6147B0"/>
<stop offset="0.8833" stop-color="#382377"/>
<stop offset="1" stop-color="#301C6B"/>
</linearGradient>
<linearGradient id="paint23_linear" x1="32.9293" y1="176.121" x2="256.677" y2="176.121" gradientUnits="userSpaceOnUse">
<stop stop-color="#DFDAEF"/>
<stop offset="1" stop-color="white" stop-opacity="0"/>
</linearGradient>
<linearGradient id="paint24_linear" x1="27.2568" y1="158.106" x2="77.4501" y2="158.106" gradientUnits="userSpaceOnUse">
<stop stop-color="#9C7FF4"/>
<stop offset="0.3045" stop-color="#6F5AAD"/>
<stop offset="1"/>
</linearGradient>
<linearGradient id="paint25_linear" x1="27.2239" y1="221.364" x2="36.1682" y2="205.806" gradientUnits="userSpaceOnUse">
<stop stop-color="#9C7FF4"/>
<stop offset="0.614" stop-color="#C4B3F5"/>
<stop offset="1" stop-color="#DAD0F6"/>
</linearGradient>
<linearGradient id="paint26_linear" x1="92.334" y1="55.8296" x2="41.0684" y2="101.455" gradientUnits="userSpaceOnUse">
<stop stop-color="#9C7FF4"/>
<stop offset="0.3487" stop-color="#AF98F5"/>
<stop offset="1" stop-color="#DAD0F6"/>
</linearGradient>
<linearGradient id="paint27_linear" x1="60.7223" y1="21.6978" x2="63.1826" y2="21.6978" gradientUnits="userSpaceOnUse">
<stop stop-color="#886AE2"/>
<stop offset="1" stop-color="#49318F"/>
</linearGradient>
<linearGradient id="paint28_linear" x1="44.3579" y1="7.66772" x2="46.9005" y2="7.66772" gradientUnits="userSpaceOnUse">
<stop stop-color="#886AE2"/>
<stop offset="1" stop-color="#49318F"/>
</linearGradient>
<linearGradient id="paint29_linear" x1="43.9152" y1="5.39482" x2="47.3231" y2="5.39482" gradientUnits="userSpaceOnUse">
<stop stop-color="#DAD0F6"/>
<stop offset="1" stop-color="#C7BDE4"/>
</linearGradient>
<linearGradient id="paint30_linear" x1="65.9351" y1="17.7844" x2="58.0041" y2="9.81938" gradientUnits="userSpaceOnUse">
<stop stop-color="#7155C6"/>
<stop offset="1" stop-color="#9C7FF4"/>
</linearGradient>
<linearGradient id="paint31_linear" x1="58.0501" y1="20.0843" x2="65.8579" y2="20.0843" gradientUnits="userSpaceOnUse">
<stop stop-color="#C7BDE4"/>
<stop offset="1" stop-color="#DAD0F6"/>
</linearGradient>
<linearGradient id="paint32_linear" x1="44.3579" y1="26.4475" x2="46.9005" y2="26.4475" gradientUnits="userSpaceOnUse">
<stop stop-color="#886AE2"/>
<stop offset="1" stop-color="#49318F"/>
</linearGradient>
<linearGradient id="paint33_linear" x1="43.9152" y1="24.1744" x2="47.3231" y2="24.1744" gradientUnits="userSpaceOnUse">
<stop stop-color="#DAD0F6"/>
<stop offset="1" stop-color="#C7BDE4"/>
</linearGradient>
<linearGradient id="paint34_linear" x1="77.0048" y1="7.66772" x2="79.5473" y2="7.66772" gradientUnits="userSpaceOnUse">
<stop stop-color="#886AE2"/>
<stop offset="1" stop-color="#49318F"/>
</linearGradient>
<linearGradient id="paint35_linear" x1="76.5822" y1="5.39482" x2="79.9901" y2="5.39482" gradientUnits="userSpaceOnUse">
<stop stop-color="#DAD0F6"/>
<stop offset="1" stop-color="#C7BDE4"/>
</linearGradient>
<linearGradient id="paint36_linear" x1="77.0048" y1="26.4475" x2="79.5473" y2="26.4475" gradientUnits="userSpaceOnUse">
<stop stop-color="#886AE2"/>
<stop offset="1" stop-color="#49318F"/>
</linearGradient>
<linearGradient id="paint37_linear" x1="76.5822" y1="24.1744" x2="79.9901" y2="24.1744" gradientUnits="userSpaceOnUse">
<stop stop-color="#DAD0F6"/>
<stop offset="1" stop-color="#C7BDE4"/>
</linearGradient>
<linearGradient id="paint38_linear" x1="44.7776" y1="3.89567" x2="46.4603" y2="3.89567" gradientUnits="userSpaceOnUse">
<stop stop-color="#F2BD42"/>
<stop offset="1" stop-color="#D18F2F"/>
</linearGradient>
<linearGradient id="paint39_linear" x1="77.4448" y1="22.6755" x2="79.1275" y2="22.6755" gradientUnits="userSpaceOnUse">
<stop stop-color="#F2BD42"/>
<stop offset="1" stop-color="#D18F2F"/>
</linearGradient>
<linearGradient id="paint40_linear" x1="79.1275" y1="3.89567" x2="77.4449" y2="3.89567" gradientUnits="userSpaceOnUse">
<stop stop-color="#F2BD42"/>
<stop offset="1" stop-color="#D18F2F"/>
</linearGradient>
<linearGradient id="paint41_linear" x1="46.4601" y1="22.6753" x2="44.7774" y2="22.6753" gradientUnits="userSpaceOnUse">
<stop stop-color="#F2BD42"/>
<stop offset="1" stop-color="#D18F2F"/>
</linearGradient>
<clipPath id="clip0">
<rect width="270" height="223" fill="white"/>
</clipPath>
<clipPath id="clip1">
<rect width="69.3476" height="49.3657" fill="white" transform="translate(99.7868 79.0376)"/>
</clipPath>
</defs>
</svg>
