<svg width="760" height="561" viewBox="0 0 760 561" fill="none" xmlns="http://www.w3.org/2000/svg">
<path d="M587.18 498.85L635.356 471.018H687.497L639.219 498.85H587.18Z" fill="url(#paint0_linear)"/>
<path d="M502.312 111.126H451.086L483.61 129.918L451.086 148.71H502.312L534.836 129.918L502.312 111.126Z" fill="url(#paint1_linear)"/>
<path d="M451.086 148.71L483.61 129.919V75.2695L451.086 94.0615V148.71Z" fill="#C7BDE4"/>
<path d="M451.086 148.71L418.562 129.919V75.2695L451.086 94.0615V148.71Z" fill="#DAD0F6"/>
<path d="M451.086 94.0614L418.562 75.2695L451.086 56.5791L483.61 75.2695L451.086 94.0614Z" fill="#F3F2F7"/>
<path d="M557.298 114.377H510.545L556.282 140.787L510.545 167.096H557.298L602.934 140.787L557.298 114.377Z" fill="url(#paint2_linear)"/>
<path d="M510.545 167.096L556.282 140.787V109.806L510.545 136.216V167.096Z" fill="#C7BDE4"/>
<path d="M510.545 167.096L464.909 140.787V109.806L510.545 136.216V167.096Z" fill="#DAD0F6"/>
<path d="M510.545 136.216L464.909 109.806L510.545 83.4973L556.282 109.806L510.545 136.216Z" fill="#F3F2F7"/>
<path d="M683.432 426.729H655.176L703.353 454.562L655.176 482.394H683.432L731.71 454.562L683.432 426.729Z" fill="url(#paint3_linear)"/>
<path d="M655.176 482.394L703.353 454.562V438.31L655.176 466.142V482.394Z" fill="#C7BDE4"/>
<path d="M655.176 482.394L606.898 454.562V438.31L655.176 466.142V482.394Z" fill="#DAD0F6"/>
<path d="M655.176 466.142L606.898 438.309L655.176 410.477L703.353 438.309L655.176 466.142Z" fill="#F3F2F7"/>
<path d="M681.907 435.77L646.537 415.454L606.898 438.309L647.045 461.469L658.632 454.765V454.664L653.956 451.921L681.907 435.77Z" fill="url(#paint4_linear)"/>
<path d="M587.18 498.85L635.356 471.018V440.95L587.18 468.783V498.85Z" fill="#C7BDE4"/>
<path d="M587.18 498.85L538.902 471.018V440.95L587.18 468.783V498.85Z" fill="#DAD0F6"/>
<path d="M587.18 468.783L538.902 440.951L587.18 413.22L635.356 440.951L587.18 468.783Z" fill="#F3F2F7"/>
<path d="M621.432 432.926L592.567 449.585H620.517L635.357 440.95L621.432 432.926Z" fill="url(#paint5_linear)"/>
<path d="M592.567 449.585L632.206 426.73V410.579L592.567 433.434V449.585Z" fill="#C7BDE4"/>
<path d="M592.567 449.585L552.928 426.73V410.579L592.567 433.434V449.585Z" fill="#DAD0F6"/>
<path d="M592.567 433.434L552.928 410.579L592.567 387.724L632.206 410.579L592.567 433.434Z" fill="#F3F2F7"/>
<path d="M464.909 109.806L510.545 83.4973L531.482 95.1788L506.174 109.704L464.909 109.806Z" fill="url(#paint6_linear)"/>
<path d="M443.768 71.1048L451.086 75.2695L458.404 62.6738C462.47 55.7665 462.47 48.2497 458.404 45.9134C454.338 43.5771 447.834 47.3355 443.87 54.3444C439.804 61.2517 439.804 68.7685 443.768 71.1048ZM446.207 61.3533C446.207 58.3059 448.342 54.5475 451.086 52.9223C453.729 51.3986 455.965 52.6176 455.965 55.7665C455.965 58.8138 453.83 62.5722 451.086 64.1975C448.342 65.7211 446.207 64.4006 446.207 61.3533Z" fill="#F2BD42"/>
<path d="M584.944 406.211L592.668 410.68L600.291 397.374C604.56 390.06 604.56 382.137 600.291 379.699C596.022 377.261 589.213 381.223 584.944 388.536C580.675 395.85 580.675 403.773 584.944 406.211ZM587.485 395.85C587.485 392.6 589.822 388.638 592.567 387.013C595.413 385.388 597.649 386.708 597.649 389.959C597.649 393.209 595.311 397.171 592.567 398.796C589.721 400.421 587.485 399.101 587.485 395.85Z" fill="#9C7FF4"/>
<path d="M647.045 461.469L655.176 476.3V482.394L635.356 471.018V454.664L647.045 461.469Z" fill="url(#paint7_linear)"/>
<path d="M691.563 329.418H661.376L680.586 340.49L661.376 351.562H691.563L710.772 340.49L691.563 329.418Z" fill="url(#paint8_linear)"/>
<path d="M661.376 351.562L680.586 340.49V318.346L661.376 329.418V351.562Z" fill="#C7BDE4"/>
<path d="M661.376 351.562L642.268 340.49V318.346L661.376 329.418V351.562Z" fill="#DAD0F6"/>
<path d="M661.376 329.418L642.268 318.346L661.376 307.375L680.586 318.346L661.376 329.418Z" fill="#F3F2F7"/>
<path d="M742.992 127.176H716.972L733.438 136.623L716.972 146.171H742.992L759.457 136.623L742.992 127.176Z" fill="url(#paint9_linear)"/>
<path d="M716.972 146.171L733.438 136.623V117.627L716.972 127.176V146.171Z" fill="#C7BDE4"/>
<path d="M716.972 146.171L700.507 136.623V117.627L716.972 127.176V146.171Z" fill="#DAD0F6"/>
<path d="M716.972 127.176L700.507 117.627L716.972 108.079L733.438 117.627L716.972 127.176Z" fill="#F3F2F7"/>
<path d="M567.97 324.644L602.121 304.937L542.154 270.299L508.308 289.802C507.8 289.802 507.394 289.802 506.885 289.802C483.102 289.802 454.237 295.389 442.345 302.195C430.555 309.001 439.906 314.486 463.181 314.587C462.368 316.314 463.079 318.143 465.417 319.463L484.22 330.332L499.974 339.372C494.079 345.061 504.04 349.327 524.875 349.327C548.659 349.327 577.524 343.74 589.416 336.935C601.308 330.129 591.753 324.644 567.97 324.644Z" fill="url(#paint10_linear)"/>
<path d="M454.847 262.072C444.073 268.268 435.332 283.403 435.332 295.796C435.332 308.188 444.073 313.267 454.847 307.071C465.62 300.874 474.361 285.739 474.361 273.347C474.259 260.954 465.62 255.875 454.847 262.072ZM454.847 303.719C445.699 309.001 438.28 304.734 438.28 294.17C438.28 283.606 445.699 270.807 454.847 265.525C463.994 260.243 471.414 264.509 471.414 275.074C471.414 285.638 463.994 298.437 454.847 303.719Z" fill="#C7BDE4"/>
<path d="M454.847 303.719C463.994 298.436 471.414 285.638 471.414 275.074C471.414 264.509 463.994 260.243 454.847 265.525C454.44 265.728 454.135 265.931 453.729 266.236C453.119 276.089 446.614 287.466 438.28 292.85C438.28 293.256 438.178 293.764 438.178 294.17C438.279 304.734 445.699 309.001 454.847 303.719Z" fill="url(#paint11_linear)"/>
<path d="M454.847 259.735C442.955 266.643 433.299 283.301 433.299 297.014C433.299 310.727 442.955 316.314 454.847 309.407C466.738 302.5 476.394 285.841 476.394 272.128C476.394 258.415 466.738 252.93 454.847 259.735ZM454.847 307.071C444.073 313.267 435.332 308.29 435.332 295.795C435.332 283.403 444.073 268.268 454.847 262.072C465.62 255.875 474.361 260.853 474.361 273.347C474.26 285.739 465.62 300.874 454.847 307.071Z" fill="#301C6B"/>
<path d="M452.915 248.46C448.951 245.819 443.361 246.022 437.161 249.577C425.269 256.485 415.613 273.144 415.613 286.857C415.613 293.865 418.053 298.64 422.118 300.874L439.397 310.829C435.636 308.594 433.197 303.719 433.197 297.014C433.197 283.301 442.852 266.643 454.744 259.735C460.944 256.18 466.636 255.977 470.498 258.618L452.915 248.46Z" fill="url(#paint12_linear)"/>
<path d="M434.62 205.696C428.623 206.305 422.83 210.47 418.155 217.58C412.971 225.402 409.007 237.591 411.853 247.14L422.017 243.991C420.492 238.912 422.627 230.075 426.997 223.472C429.741 219.307 432.994 216.565 435.738 216.362L434.62 205.696Z" fill="url(#paint13_linear)"/>
<path d="M510.951 264.103C514.305 262.173 514.305 258.923 510.951 256.993L482.289 240.436C478.935 238.506 473.345 238.506 469.991 240.436L441.938 256.586C438.584 258.516 438.584 261.767 441.938 263.697L470.6 280.254C473.955 282.184 479.545 282.184 482.899 280.254L510.951 264.103Z" fill="#CCC4E2"/>
<path d="M510.951 264.103C514.305 262.173 514.305 258.923 510.951 256.993L482.289 240.436C478.935 238.506 473.345 238.506 469.991 240.436L441.938 256.586C438.584 258.516 438.584 261.767 441.938 263.697L470.6 280.254C473.955 282.184 479.545 282.184 482.899 280.254L510.951 264.103Z" fill="#F8F7FC"/>
<path d="M513.39 260.751C513.289 261.97 512.476 263.189 510.849 264.103L482.797 280.254C479.443 282.184 473.853 282.184 470.499 280.254L441.837 263.697C440.109 262.681 439.296 261.462 439.296 260.142V288.888C439.296 292.951 442.65 301.789 448.443 304.836L480.155 323.12C480.256 323.12 480.256 323.222 480.358 323.222L480.459 323.323C482.695 324.441 485.643 324.237 488.895 322.307L504.649 313.267C513.594 308.086 513.289 298.437 513.289 294.069V260.751H513.39Z" fill="url(#paint14_linear)"/>
<path d="M513.39 260.751C513.289 261.97 512.476 263.189 510.849 264.103L482.797 280.254C479.443 282.184 473.853 282.184 470.499 280.254L441.837 263.697C440.109 262.681 439.296 261.462 439.296 260.142V288.888C439.296 292.951 442.65 301.789 448.443 304.836L480.155 323.12C480.256 323.12 480.256 323.222 480.358 323.222L480.459 323.323C482.695 324.441 485.643 324.237 488.895 322.307L504.649 313.267C513.594 308.086 513.289 298.437 513.289 294.069V260.751H513.39Z" fill="url(#paint15_linear)"/>
<path d="M513.39 295.998C502.617 302.195 493.876 317.33 493.876 329.722C493.876 342.115 502.617 347.194 513.39 340.998C524.164 334.801 532.905 319.666 532.905 307.274C532.905 294.78 524.164 289.701 513.39 295.998ZM513.39 337.544C504.243 342.826 496.823 338.56 496.823 327.996C496.823 317.431 504.243 304.633 513.39 299.351C522.538 294.068 529.957 298.335 529.957 308.899C529.957 319.463 522.538 332.262 513.39 337.544Z" fill="#C7BDE4"/>
<path d="M513.39 337.544C522.538 332.262 529.957 319.463 529.957 308.899C529.957 298.335 522.538 294.069 513.39 299.351C512.984 299.554 512.679 299.757 512.272 300.062C511.662 309.915 505.158 321.291 496.823 326.675C496.823 327.081 496.722 327.589 496.722 327.996C496.823 338.56 504.243 342.826 513.39 337.544Z" fill="url(#paint16_linear)"/>
<path d="M513.39 293.561C501.499 300.468 491.843 317.127 491.843 330.84C491.843 344.553 501.499 350.14 513.39 343.232C525.282 336.325 534.938 319.666 534.938 305.953C534.938 292.342 525.282 286.755 513.39 293.561ZM513.39 340.896C502.617 347.092 493.876 342.115 493.876 329.621C493.876 317.228 502.617 302.093 513.39 295.897C524.164 289.701 532.905 294.678 532.905 307.172C532.905 319.666 524.164 334.7 513.39 340.896Z" fill="#301C6B"/>
<path d="M511.561 282.286C507.597 279.644 502.007 279.848 495.807 283.403C483.915 290.31 474.26 306.969 474.26 320.682C474.26 327.691 476.699 332.465 480.764 334.7L498.043 344.654C494.282 342.42 491.843 337.544 491.843 330.84C491.843 317.127 501.499 300.468 513.39 293.561C519.59 290.005 525.18 289.802 529.144 292.443L511.561 282.286Z" fill="url(#paint17_linear)"/>
<path d="M521.115 210.572C521.115 211.79 520.2 213.111 518.574 214.025L490.522 230.176C487.168 232.106 481.577 232.106 478.223 230.176L434.214 204.782C432.486 203.766 431.673 202.547 431.673 201.226V252.625C431.673 253.945 432.486 255.164 434.214 256.18L478.223 281.575C481.577 283.505 487.168 283.505 490.522 281.575L518.574 265.424C520.302 264.408 521.216 263.087 521.115 261.665C521.115 261.665 521.115 210.572 521.115 210.572Z" fill="url(#paint18_linear)"/>
<path d="M518.574 214.025C521.928 212.095 521.928 208.845 518.574 206.915L474.564 181.52C471.21 179.59 465.62 179.59 462.266 181.52L434.214 197.671C430.86 199.601 430.86 202.852 434.214 204.782L478.223 230.176C481.577 232.106 487.168 232.106 490.522 230.176L518.574 214.025Z" fill="#F8F7FC"/>
<path d="M510.748 202.648C500.787 196.96 484.728 192.287 474.768 192.287L490.725 207.727L483.712 211.79C476.8 215.752 475.479 222.558 475.479 222.558C477.918 223.98 481.984 225.097 484.423 225.097H489.607C492.656 225.097 494.79 224.691 496.01 223.878L516.135 212.197C520.098 210.775 518.269 207.016 510.748 202.648Z" fill="url(#paint19_linear)"/>
<path d="M461.453 182.536C451.492 176.848 443.463 181.419 443.463 192.897V198.89C443.463 201.734 445.496 205.188 447.935 206.61L474.869 222.151C477.309 223.574 479.341 222.456 479.341 219.612V213.619C479.443 202.242 471.312 188.224 461.453 182.536Z" fill="#DAD0F6"/>
<path d="M447.935 198.89V192.897C447.935 188.529 449.256 185.38 451.492 183.45C447.935 184.771 445.699 188.529 445.699 194.217V200.211C445.699 201.633 446.715 203.359 447.935 204.071L474.869 219.612C476.089 220.323 477.105 219.714 477.105 218.291L450.171 202.75C448.951 202.141 447.935 200.312 447.935 198.89Z" fill="url(#paint20_linear)"/>
<path d="M461.453 185.177C457.692 183.044 454.236 182.536 451.492 183.552C449.256 185.38 447.935 188.631 447.935 192.999V198.992C447.935 200.414 448.951 202.141 450.171 202.852L477.105 218.393V212.4C477.207 202.344 470.092 190.154 461.453 185.177Z" fill="url(#paint21_linear)"/>
<path d="M449.764 200.718V194.725C449.764 190.358 451.085 187.209 453.322 185.279C456.066 184.263 459.521 184.771 463.282 186.904C464.807 187.818 466.331 188.935 467.754 190.256C465.823 188.123 463.689 186.396 461.453 185.075C457.692 182.942 454.236 182.434 451.492 183.45C449.256 185.279 447.935 188.529 447.935 192.897V198.89C447.935 200.312 448.951 202.039 450.171 202.75L450.374 202.852C450.069 202.242 449.764 201.43 449.764 200.718Z" fill="url(#paint22_linear)"/>
<path d="M455.15 196.351L456.472 195.132C456.573 195.03 456.675 195.03 456.777 195.03C457.081 195.132 457.691 195.538 458.098 196.452L459.419 199.195C459.521 199.499 459.927 199.601 460.232 199.499C460.537 199.398 460.638 198.992 460.537 198.687L459.216 195.944C458.707 194.827 457.894 194.014 456.98 193.811C456.472 193.71 455.963 193.913 455.557 194.217L454.236 195.436C454.032 195.639 454.032 196.046 454.236 196.351C454.439 196.554 454.846 196.554 455.15 196.351Z" fill="white"/>
<path d="M473.344 206.001L472.023 203.258C471.515 202.141 470.702 201.328 469.787 201.125C469.279 201.023 468.771 201.226 468.364 201.531L467.043 202.75C466.84 202.953 466.84 203.36 467.043 203.664C467.246 203.867 467.653 203.867 467.958 203.664L469.279 202.445C469.381 202.344 469.482 202.344 469.584 202.344C469.889 202.445 470.499 202.852 470.905 203.766L472.226 206.508C472.328 206.813 472.734 206.915 473.039 206.813C473.344 206.712 473.446 206.305 473.344 206.001Z" fill="white"/>
<path d="M484.728 169.128C479.748 166.283 475.275 165.979 472.023 167.909L448.748 181.317C452 179.489 456.472 179.692 461.453 182.536C471.413 188.224 479.443 202.141 479.443 213.619V219.612C479.443 221.034 478.934 222.05 478.121 222.456L501.295 209.048C502.108 208.642 502.718 207.626 502.718 206.102V200.109C502.718 188.732 494.688 174.816 484.728 169.128Z" fill="url(#paint23_linear)"/>
<path d="M460.843 277.715C460.03 277.715 459.217 277.613 458.404 277.511C456.981 277.207 455.965 275.886 456.269 274.464C456.574 273.042 457.896 272.026 459.319 272.331C461.148 272.636 464.299 272.229 465.722 271.722C467.145 271.315 468.568 272.026 469.076 273.448C469.482 274.87 468.771 276.293 467.348 276.8C466.027 277.207 463.384 277.715 460.843 277.715Z" fill="#1F1244"/>
<path d="M416.834 249.781C416.021 250.085 415.106 250.085 414.293 249.476C412.87 248.46 409.516 248.054 408.195 247.952C406.772 247.851 405.654 246.632 405.755 245.21C405.857 243.788 407.076 242.67 408.499 242.772C409.109 242.772 414.293 243.178 417.342 245.311C418.562 246.124 418.867 247.749 417.952 248.968C417.748 249.273 417.342 249.578 416.834 249.781Z" fill="#1F1244"/>
<path d="M438.279 229.668L405.958 248.359L444.378 270.503L476.699 251.812L438.279 229.668Z" fill="#9C7FF4"/>
<path d="M437.77 235.56L416.121 248.054L429.334 255.672L451.085 243.178L437.77 235.56Z" fill="#886AE2"/>
<path d="M476.699 251.812L444.378 270.503V284.012L476.699 265.322V251.812Z" fill="#49318F"/>
<path d="M444.378 270.503L405.958 248.359V261.869L444.378 284.013V270.503Z" fill="#7155C6"/>
<path d="M430.758 248.867L439.906 243.584L436.958 241.858L427.811 247.14L430.758 248.867Z" fill="white"/>
<path d="M467.754 273.651C466.636 273.651 465.62 272.94 465.213 271.823C464.604 270.096 462.774 267.557 461.758 266.439C460.742 265.424 460.742 263.697 461.758 262.681C462.774 261.665 464.502 261.665 465.518 262.681C466.941 264.103 469.38 267.354 470.295 270.198C470.701 271.62 469.99 273.042 468.567 273.55C468.262 273.55 467.957 273.651 467.754 273.651Z" fill="#1F1244"/>
<path d="M500.99 237.286C500.99 233.731 503.43 229.465 506.478 227.738C509.527 226.011 511.966 227.433 511.966 230.887C511.966 234.442 509.527 238.708 506.478 240.435C503.43 242.264 500.99 240.842 500.99 237.286Z" fill="#301C6B"/>
<path d="M511.154 231.09C511.154 231.09 508.715 228.144 507.597 227.23C507.19 227.332 506.783 227.535 506.479 227.738C503.938 229.16 501.803 232.411 501.193 235.458C501.702 236.575 502.21 237.388 502.515 237.693C506.987 242.67 504.141 250.593 500.38 255.875C494.282 264.408 483.203 270.909 470.803 266.439C464.502 267.049 462.571 273.245 466.636 276.191C483.712 283.403 500.584 273.855 509.02 262.072C516.947 250.898 517.354 238.201 511.154 231.09Z" fill="url(#paint24_linear)"/>
<path d="M690.546 253.844L724.697 234.138L663.51 198.788L628.547 219.002C604.967 219.104 576.61 224.691 564.921 231.395C553.131 238.201 562.482 243.686 585.757 243.787C584.944 245.514 585.655 247.343 587.993 248.663L606.796 259.532L622.55 268.572C616.655 274.261 626.616 278.527 647.452 278.527C671.235 278.527 700.1 272.94 711.992 266.135C723.884 259.43 714.33 253.844 690.546 253.844Z" fill="url(#paint25_linear)"/>
<path d="M577.423 191.373C566.649 197.569 557.908 212.704 557.908 225.097C557.908 237.489 566.649 242.568 577.423 236.372C588.196 230.176 596.937 215.041 596.937 202.648C596.937 190.154 588.196 185.177 577.423 191.373ZM577.423 232.918C568.275 238.201 560.856 233.934 560.856 223.37C560.856 212.806 568.275 200.007 577.423 194.725C586.57 189.443 593.99 193.709 593.99 204.273C593.99 214.838 586.57 227.636 577.423 232.918Z" fill="#C7BDE4"/>
<path d="M577.423 232.918C586.57 227.636 593.99 214.838 593.99 204.273C593.99 193.709 586.57 189.443 577.423 194.725C577.016 194.928 576.711 195.131 576.305 195.436C575.695 205.289 569.19 216.666 560.856 222.05C560.856 222.456 560.754 222.964 560.754 223.37C560.856 233.934 568.275 238.201 577.423 232.918Z" fill="url(#paint26_linear)"/>
<path d="M577.423 189.037C565.531 195.944 555.875 212.603 555.875 226.316C555.875 240.029 565.531 245.616 577.423 238.708C589.314 231.801 598.97 215.142 598.97 201.429C598.97 187.716 589.314 182.129 577.423 189.037ZM577.423 236.27C566.649 242.467 557.908 237.489 557.908 224.995C557.908 212.603 566.649 197.468 577.423 191.271C588.196 185.075 596.937 190.052 596.937 202.547C596.937 215.041 588.196 230.074 577.423 236.27Z" fill="#301C6B"/>
<path d="M575.592 177.66C571.628 175.019 566.038 175.222 559.838 178.777C547.947 185.685 538.291 202.344 538.291 216.057C538.291 223.065 540.73 227.84 544.796 230.074L562.074 240.029C558.314 237.794 555.875 232.919 555.875 226.214C555.875 212.501 565.53 195.843 577.422 188.935C583.622 185.38 589.313 185.177 593.176 187.818L575.592 177.66Z" fill="url(#paint27_linear)"/>
<path d="M558.517 133.474C552.521 134.185 546.727 138.451 542.255 145.561C537.173 153.485 533.413 165.775 536.462 175.222L546.626 171.972C544.999 166.893 547.032 158.056 551.301 151.351C554.045 147.085 557.196 144.342 559.94 144.038L558.517 133.474Z" fill="url(#paint28_linear)"/>
<path d="M633.527 193.303C636.881 191.373 636.881 188.123 633.527 186.193L604.763 169.635C601.409 167.705 595.819 167.705 592.465 169.635L564.413 185.786C561.059 187.716 561.059 190.967 564.413 192.897L593.075 209.454C596.429 211.384 602.019 211.384 605.373 209.454L633.527 193.303Z" fill="#CCC4E2"/>
<path d="M633.527 193.303C636.881 191.373 636.881 188.123 633.527 186.193L604.763 169.635C601.409 167.705 595.819 167.705 592.465 169.635L564.413 185.786C561.059 187.716 561.059 190.967 564.413 192.897L593.075 209.454C596.429 211.384 602.019 211.384 605.373 209.454L633.527 193.303Z" fill="#F8F7FC"/>
<path d="M635.966 189.951C635.865 191.17 635.052 192.389 633.425 193.303L605.373 209.454C602.019 211.384 596.429 211.384 593.075 209.454L564.413 192.897C562.685 191.881 561.872 190.662 561.872 189.342V218.088C561.872 222.151 565.226 230.989 571.019 233.934L602.731 252.218C602.832 252.218 602.832 252.32 602.934 252.32L603.036 252.422C605.272 253.539 608.219 253.336 611.472 251.406L627.225 242.365C636.17 237.185 635.865 227.535 635.865 223.167V189.951H635.966Z" fill="url(#paint29_linear)"/>
<path d="M635.966 189.951C635.865 191.17 635.052 192.389 633.425 193.303L605.373 209.454C602.019 211.384 596.429 211.384 593.075 209.454L564.413 192.897C562.685 191.881 561.872 190.662 561.872 189.342V218.088C561.872 222.151 565.226 230.989 571.019 233.934L602.731 252.218C602.832 252.218 602.832 252.32 602.934 252.32L603.036 252.422C605.272 253.539 608.219 253.336 611.472 251.406L627.225 242.365C636.17 237.185 635.865 227.535 635.865 223.167V189.951H635.966Z" fill="url(#paint30_linear)"/>
<path d="M635.966 225.199C625.193 231.395 616.452 246.53 616.452 258.923C616.452 271.315 625.193 276.394 635.966 270.198C646.74 264.002 655.481 248.866 655.481 236.474C655.481 223.98 646.74 219.002 635.966 225.199ZM635.966 266.744C626.819 272.026 619.399 267.76 619.399 257.196C619.399 246.632 626.819 233.833 635.966 228.551C645.114 223.269 652.533 227.535 652.533 238.099C652.533 248.663 645.114 261.462 635.966 266.744Z" fill="#C7BDE4"/>
<path d="M635.966 266.744C645.114 261.462 652.533 248.663 652.533 238.099C652.533 227.535 645.114 223.269 635.966 228.551C635.56 228.754 635.255 228.957 634.848 229.262C634.238 239.115 627.734 250.492 619.399 255.875C619.399 256.282 619.298 256.79 619.298 257.196C619.399 267.76 626.819 272.026 635.966 266.744Z" fill="url(#paint31_linear)"/>
<path d="M635.966 222.862C624.075 229.77 614.419 246.428 614.419 260.142C614.419 273.855 624.075 279.441 635.966 272.534C647.858 265.627 657.514 248.968 657.514 235.255C657.514 221.542 647.858 215.955 635.966 222.862ZM635.966 270.198C625.193 276.394 616.452 271.417 616.452 258.923C616.452 246.53 625.193 231.395 635.966 225.199C646.74 219.002 655.481 223.98 655.481 236.474C655.481 248.866 646.74 264.001 635.966 270.198Z" fill="#301C6B"/>
<path d="M634.137 211.486C630.173 208.845 624.583 209.048 618.383 212.603C606.491 219.51 596.836 236.169 596.836 249.882C596.836 256.891 599.275 261.665 603.34 263.9L620.619 273.855C616.858 271.62 614.419 266.744 614.419 260.04C614.419 246.327 624.075 229.668 635.966 222.761C642.166 219.206 647.756 219.002 651.72 221.644L634.137 211.486Z" fill="url(#paint32_linear)"/>
<path d="M647.045 140.381C647.045 135.505 643.589 133.575 639.422 136.013L614.419 150.336C610.252 152.774 606.796 158.767 606.796 163.541V205.391C606.796 210.267 610.252 212.197 614.419 209.759L639.32 195.436C643.488 192.999 646.943 187.005 646.943 182.231L647.045 140.381Z" fill="#C7BDE4"/>
<path d="M588.704 103.102C588.603 103.102 588.603 103 588.501 103L588.4 102.899C587.078 102.289 585.249 102.391 583.216 103.508L558.315 117.831C554.147 120.269 550.692 126.262 550.692 131.036V172.886C550.692 175.324 551.606 177.051 553.029 177.863L609.032 210.165C607.711 209.353 606.898 207.626 606.898 205.289V163.439C606.898 158.563 610.353 152.57 614.521 150.234L639.422 135.912C641.455 134.693 643.386 134.591 644.707 135.302L588.704 103.102ZM609.235 210.47C609.235 210.368 609.134 210.368 609.235 210.47V210.47Z" fill="url(#paint33_linear)"/>
<path d="M583.521 206.915C582.708 206.915 581.793 206.813 581.082 206.711C579.659 206.407 578.642 205.086 578.947 203.664C579.252 202.242 580.573 201.226 581.996 201.531C583.826 201.836 586.977 201.429 588.4 200.921C589.823 200.515 591.245 201.226 591.754 202.648C592.16 204.07 591.449 205.492 590.026 206C588.603 206.407 585.96 206.915 583.521 206.915Z" fill="#1F1244"/>
<path d="M540.527 176.949C539.917 177.355 539.206 177.559 538.494 177.457L532.6 176.543C531.177 176.34 530.161 174.918 530.364 173.495C530.567 172.073 531.99 171.058 533.413 171.261L539.307 172.175C540.73 172.378 541.746 173.8 541.543 175.222C541.34 175.933 540.933 176.543 540.527 176.949Z" fill="#1F1244"/>
<path d="M561.16 158.767L528.738 177.457L567.157 199.601L599.58 181.012L561.16 158.767Z" fill="#FFD303"/>
<path d="M579.659 169.432L547.236 188.123L553.944 191.983L586.265 173.292L579.659 169.432Z" fill="white"/>
<path d="M599.58 181.012L567.157 199.601V213.212L599.58 194.522V181.012Z" fill="#D6952D"/>
<path d="M567.157 199.601L528.738 177.457V190.967L567.157 213.213V199.601Z" fill="#F2BD42"/>
<path d="M547.236 188.123V201.632L553.944 205.492V191.983L547.236 188.123Z" fill="#DAD0F6"/>
<path d="M590.33 202.851C589.212 202.851 588.196 202.14 587.789 201.023C587.18 199.296 585.35 196.757 584.334 195.639C583.318 194.624 583.318 192.897 584.334 191.881C585.35 190.865 587.078 190.865 588.094 191.881C589.517 193.303 591.956 196.554 592.871 199.398C593.277 200.82 592.566 202.242 591.143 202.75C590.838 202.851 590.533 202.851 590.33 202.851Z" fill="#1F1244"/>
<path d="M623.566 166.588C623.566 163.033 626.006 158.767 629.055 157.04C632.103 155.313 634.542 156.735 634.542 160.189C634.542 163.744 632.103 168.01 629.055 169.737C626.006 171.464 623.566 170.042 623.566 166.588Z" fill="#301C6B"/>
<path d="M633.73 160.29C633.73 160.29 631.291 157.345 630.173 156.43C629.766 156.532 629.36 156.735 629.055 156.938C626.514 158.36 624.379 161.611 623.769 164.658C624.278 165.776 624.786 166.588 625.091 166.893C629.563 171.87 626.717 179.793 622.956 185.075C616.858 193.608 605.779 200.109 593.38 195.64C587.078 196.249 585.147 202.445 589.212 205.391C606.288 212.603 623.16 203.055 631.596 191.272C639.523 180.098 639.93 167.401 633.73 160.29Z" fill="url(#paint34_linear)"/>
<path d="M608.422 114.479H598.767V137.74H622.652C629.563 137.74 635.56 135.505 638.914 132.052L608.422 114.479Z" fill="url(#paint35_linear)"/>
<path d="M612.081 121.386C604.763 125.551 592.973 125.551 585.757 121.386C582.098 119.253 580.268 116.51 580.268 113.768V127.074C580.268 129.817 582.098 132.56 585.757 134.693C593.075 138.857 604.865 138.857 612.081 134.693C615.74 132.56 617.57 129.817 617.57 127.074V113.768C617.468 116.51 615.639 119.253 612.081 121.386Z" fill="url(#paint36_linear)"/>
<path d="M585.655 121.386C592.973 125.551 604.763 125.551 611.98 121.386C615.639 119.253 617.468 116.51 617.468 113.768C617.468 103.508 609.134 95.1787 598.868 95.1787C588.603 95.1787 580.268 103.508 580.268 113.768C580.268 116.51 581.996 119.253 585.655 121.386Z" fill="url(#paint37_radial)"/>
<path d="M591.144 129.004C594.803 130.02 597.75 126.668 597.852 122.605C597.954 118.542 596.022 114.987 592.262 113.768C587.586 112.346 584.436 110.416 582.81 108.689C581.488 107.368 580.37 109.704 580.37 113.666C580.37 117.424 580.37 121.792 581.793 123.621C583.419 125.348 586.57 127.582 591.144 129.004Z" fill="#513999"/>
<path d="M581.285 116.002C581.285 115.291 581.488 114.885 581.691 115.19C581.996 115.495 582.301 116.307 582.301 117.018C582.301 117.729 581.996 118.136 581.691 117.831C581.488 117.526 581.285 116.713 581.285 116.002Z" fill="#F3B378"/>
<path d="M590.127 121.183C590.127 120.472 590.635 120.065 591.346 120.269C592.058 120.472 592.566 121.183 592.566 121.894C592.566 122.605 591.956 123.113 591.346 122.91C590.635 122.808 590.127 121.995 590.127 121.183Z" fill="#F3B378"/>
<path d="M597.14 96.804C598.055 96.2961 599.58 96.2961 600.596 96.804C601.511 97.3119 601.511 98.2261 600.596 98.734C599.681 99.2419 598.157 99.2419 597.14 98.734C596.226 98.2261 596.226 97.3119 597.14 96.804Z" fill="#E2DCF4"/>
<path d="M599.681 87.1541L598.868 87.6619V98.5308L599.681 98.0229V87.1541Z" fill="#7155C6"/>
<path d="M597.953 87.1541L598.868 87.6619V98.5308L597.953 98.0229V87.1541Z" fill="#9C7FF4"/>
<path d="M596.022 85.1225C596.022 83.4973 597.344 82.2783 598.868 82.2783C600.494 82.2783 601.714 83.5988 601.714 85.1225C601.714 86.7478 600.393 87.9667 598.868 87.9667C597.242 87.9667 596.022 86.6462 596.022 85.1225Z" fill="url(#paint38_radial)"/>
<path d="M555.265 481.582V372.284H399.555L385.936 380.105H368.149L219.045 466.142L199.632 477.315C189.265 483.309 164.059 488.184 143.325 488.184L137.226 491.74H130.62L107.751 504.843L202.478 559.492H236.324H242.93H294.969L400.368 543.138H412.362L451.289 520.689L435.129 511.344H503.531L555.265 481.582Z" fill="url(#paint39_linear)"/>
<path d="M210.304 538.059C207.255 536.332 205.324 532.472 205.324 527.089C205.324 516.322 212.845 503.218 222.196 497.936C226.872 495.295 231.039 494.99 234.088 496.717C237.137 498.444 239.068 502.304 239.068 507.586C239.068 518.353 231.547 531.457 222.196 536.739C217.622 539.583 213.354 539.786 210.304 538.059Z" fill="#301C6B"/>
<path d="M212.947 522.822C212.947 516.931 217.114 509.719 222.196 506.773C227.278 503.827 231.445 506.265 231.445 512.157C231.445 518.048 227.278 525.26 222.196 528.206C217.114 531.05 212.947 528.714 212.947 522.822Z" fill="#C7BDE4"/>
<path d="M205.324 527.19C205.324 516.423 212.845 503.319 222.196 498.037C226.872 495.396 231.039 495.092 234.088 496.818L221.18 489.403C218.131 487.676 213.862 487.88 209.288 490.622C199.937 496.006 192.416 509.109 192.416 519.775C192.416 525.159 194.347 528.917 197.396 530.644L210.304 538.059C207.255 536.332 205.324 532.574 205.324 527.19Z" fill="#1F1244"/>
<path d="M347.008 459.235C343.959 457.508 342.028 453.749 342.028 448.366C342.028 437.599 349.549 424.495 358.9 419.213C363.575 416.572 367.742 416.267 370.791 417.994C373.841 419.721 375.772 423.581 375.772 428.863C375.772 439.63 368.251 452.734 358.9 458.016C354.326 460.657 350.057 460.962 347.008 459.235Z" fill="#301C6B"/>
<path d="M349.651 443.896C349.651 438.005 353.818 430.793 358.9 427.847C363.982 424.901 368.149 427.238 368.149 433.231C368.149 439.122 363.982 446.334 358.9 449.28C353.818 452.226 349.651 449.788 349.651 443.896Z" fill="#C7BDE4"/>
<path d="M342.028 448.264C342.028 437.497 349.549 424.393 358.9 419.111C363.575 416.47 367.742 416.166 370.792 417.892L357.883 410.477C354.834 408.75 350.565 408.954 345.992 411.696C336.641 417.08 329.12 430.183 329.12 440.849C329.12 446.233 331.051 449.991 334.1 451.718L347.008 459.133C343.959 457.406 342.028 453.648 342.028 448.264Z" fill="#1F1244"/>
<path d="M310.317 480.363C307.267 478.636 305.336 474.776 305.336 469.494C305.336 458.727 312.858 445.725 322.208 440.341C326.884 437.7 331.051 437.395 334.1 439.122C337.149 440.849 339.08 444.709 339.08 449.991C339.08 460.758 331.559 473.862 322.208 479.144C317.533 481.887 313.366 482.09 310.317 480.363Z" fill="#301C6B"/>
<path d="M312.959 465.126C312.959 459.235 317.127 452.023 322.208 449.077C327.29 446.131 331.458 448.569 331.458 454.46C331.458 460.352 327.29 467.564 322.208 470.51C317.025 473.456 312.959 471.018 312.959 465.126Z" fill="#C7BDE4"/>
<path d="M305.336 469.494C305.336 458.727 312.858 445.725 322.208 440.341C326.884 437.7 331.051 437.395 334.1 439.122L321.192 431.707C318.143 429.98 313.874 430.183 309.3 432.926C299.95 438.31 292.428 451.413 292.428 462.18C292.428 467.564 294.359 471.322 297.409 473.049L310.317 480.464C307.268 478.636 305.336 474.878 305.336 469.494Z" fill="#1F1244"/>
<path d="M393.457 385.59L244.455 471.627L157.148 421.244L306.251 335.208L393.457 385.59Z" fill="#7155C6"/>
<path d="M393.457 400.116L244.455 486.153V471.627L393.457 385.591V400.116Z" fill="#49318F"/>
<path d="M244.455 486.153L157.148 435.77V421.244L244.455 471.627V486.153Z" fill="#5B41AA"/>
<path d="M312.349 327.386L324.953 288.076V198.281L312.349 237.49V327.386Z" fill="#D6952D"/>
<path d="M407.076 292.24L260.615 376.753L165.888 322.104L312.349 237.49L407.076 292.24Z" fill="#FFD303"/>
<path d="M407.076 382.035L260.615 466.548V376.753L407.076 292.24V382.035Z" fill="#D6952D"/>
<path d="M260.615 466.548L165.888 411.899V322.104L260.615 376.753V466.548Z" fill="#F2BD42"/>
<path d="M395.795 339.474L276.878 408.039V384.067L395.795 315.4V339.474Z" fill="#DAD0F6"/>
<path d="M355.24 353.695L287.854 392.599V386.809L355.24 348.007V353.695Z" fill="#5B41AA"/>
<path d="M324.444 388.435L276.369 416.064V412.712L324.444 384.981V388.435Z" fill="#49318F"/>
<path d="M308.995 403.976L276.369 422.768V419.314L308.995 400.522V403.976Z" fill="#49318F"/>
<path d="M388.68 334.395L363.575 348.921V343.131L388.68 328.707V334.395Z" fill="#5B41AA"/>
<path d="M462.673 292.24H407.076V382.035H462.673V292.24Z" fill="#F2BD42"/>
<path d="M462.673 314.791H447.529V318.041H462.673V314.791Z" fill="#F8F7FC"/>
<path d="M462.673 356.133H447.529V359.383H462.673V356.133Z" fill="#F8F7FC"/>
<path d="M413.276 314.791H407.076V318.041H413.276V314.791Z" fill="#F8F7FC"/>
<path d="M413.276 356.133H407.076V359.383H413.276V356.133Z" fill="#F8F7FC"/>
<path d="M241.609 484.528V405.195L202.682 427.644V434.551L174.426 495.397V525.362V544.865L203.495 528.105C203.495 516.119 211.931 501.593 222.298 495.6L241.609 484.528Z" fill="#49318F"/>
<path d="M235.511 460.251L178.898 492.857L207.153 432.012L235.511 415.658V460.251Z" fill="#C7BDE4"/>
<path d="M235.511 481.379L204.918 499.054V477.925L235.511 460.251V481.379Z" fill="#5B41AA"/>
<path d="M208.271 431.403L207.154 432.012L204.918 436.888V477.925L208.271 475.894V431.403Z" fill="#49318F"/>
<path d="M202.682 427.746L120.964 380.512L159.892 358.063L241.609 405.195L202.682 427.746Z" fill="#7155C6"/>
<path d="M120.964 387.419L202.682 434.653V427.746L120.964 380.512V387.419Z" fill="#5B41AA"/>
<path d="M170.766 493.365C145.967 479.043 121.167 464.72 96.3669 450.499C105.819 430.183 115.17 409.969 124.622 389.654C149.422 403.976 174.222 418.299 199.022 432.621C189.671 452.734 180.219 473.049 170.766 493.365Z" fill="#E7E3F1"/>
<path d="M170.767 493.365C172.19 494.177 173.003 494.685 174.426 495.498C183.879 475.182 193.229 454.968 202.682 434.653C201.259 433.84 200.446 433.434 199.023 432.52C189.672 452.734 180.22 473.049 170.767 493.365Z" fill="#7155C6"/>
<path d="M92.7083 448.264C94.1312 449.077 94.9443 449.585 96.3672 450.397C105.82 430.082 115.17 409.868 124.623 389.552C123.2 388.739 122.387 388.333 120.964 387.419C111.613 407.735 102.161 428.05 92.7083 448.264Z" fill="#7155C6"/>
<path d="M174.426 495.498V544.967L92.7083 497.835V448.264L174.426 495.498Z" fill="#5B41AA"/>
<path d="M152.777 498.241V512.97L114.358 490.724V475.995C114.358 472.846 116.594 471.526 119.338 473.151L147.898 489.607C150.643 491.232 152.777 495.092 152.777 498.241Z" fill="#301C6B"/>
<path d="M170.767 512.766L156.538 504.539V498.139L170.767 506.265V512.766Z" fill="white"/>
<path d="M170.767 520.08L163.652 516.017V512.766L170.767 516.931V520.08Z" fill="#49318F"/>
<path d="M96.3669 477.214L103.481 481.277V478.128L96.3669 473.964V477.214Z" fill="#49318F"/>
<path d="M96.3669 469.799L110.596 478.027V471.627L96.3669 463.399V469.799Z" fill="white"/>
<path d="M174.426 529.324L197.396 516.017V535.621L174.426 548.827V529.324Z" fill="#C7BDE4"/>
<path d="M86.1023 478.331L174.426 529.323V548.827L86.1023 497.834V478.331Z" fill="#DAD0F6"/>
<path d="M92.7088 474.471L86.1023 478.331L174.426 529.324L197.396 516.017L194.042 514.188L174.426 525.464L92.7088 478.331V474.471Z" fill="#F8F7FC"/>
<path d="M187.232 425.714L108.868 457.711C111.613 459.336 114.357 460.86 117.101 462.485L195.464 430.488C192.72 428.863 189.976 427.237 187.232 425.714ZM124.724 466.751C126.553 467.767 128.281 468.884 130.111 469.9L193.737 443.896C194.753 441.662 195.769 439.528 196.786 437.294L124.724 466.751ZM124.622 389.552C115.17 409.868 105.819 430.082 96.3669 450.397L174.73 418.4C158.061 408.852 141.393 399.202 124.622 389.552Z" fill="url(#paint40_linear)"/>
<path d="M114.256 537.958C117.204 539.684 122.082 539.684 125.03 537.958C127.977 536.231 127.977 533.488 125.03 531.761C122.082 530.035 117.204 530.035 114.256 531.761C111.309 533.387 111.309 536.231 114.256 537.958ZM117.915 544.357C119.948 544.56 121.981 544.459 124.014 544.256L123.2 542.122C121.676 542.326 120.05 542.326 118.525 542.224C111.105 541.614 105.922 537.653 107.04 533.387L103.279 533.082C101.755 538.466 108.361 543.544 117.915 544.357ZM99.2138 543.544C103.483 546.795 109.581 548.928 116.594 549.436C119.643 549.639 122.794 549.639 125.741 549.233L124.928 547.1C122.387 547.404 119.745 547.506 117.102 547.201C111.105 546.693 105.82 544.967 102.263 542.122C98.6039 539.38 97.0794 535.926 97.9941 532.472L94.2335 532.168C93.2171 536.332 95.0466 540.294 99.2138 543.544ZM115.374 554.616C119.541 554.921 123.607 554.921 127.673 554.413L126.859 552.28C123.302 552.686 119.541 552.788 115.882 552.483C98.7056 551.061 86.6106 541.818 89.0499 531.965L85.2893 531.66C82.6467 542.732 96.063 553.093 115.374 554.616ZM114.155 559.797C119.338 560.203 124.522 560.102 129.604 559.492L128.791 557.359C124.217 557.969 119.44 557.969 114.663 557.664C92.5056 555.835 77.0566 544.052 80.2074 531.254L76.4468 530.949C72.991 544.763 89.9647 557.765 114.155 559.797Z" fill="url(#paint41_linear)"/>
<path d="M210.101 215.853L134.076 259.735C127.977 263.29 122.997 271.925 122.997 278.933V323.018C122.997 330.027 127.977 332.973 134.076 329.418L138.344 326.98L147.695 334.903V321.495L210.101 285.536C216.2 281.981 221.18 273.347 221.18 266.338V222.151C221.18 215.244 216.2 212.298 210.101 215.853Z" fill="url(#paint42_linear)"/>
<path d="M199.836 241.553L215.183 232.614V236.169L199.836 245.006V241.553Z" fill="#F8F7FC"/>
<path d="M199.836 249.679L215.183 240.74V244.295L199.836 253.133V249.679Z" fill="#F8F7FC"/>
<path d="M199.836 257.805L210.608 251.507V255.063L199.836 261.259V257.805Z" fill="#F8F7FC"/>
<path d="M137.225 300.366L144.543 304.531L151.861 291.935C155.927 285.028 155.927 277.511 151.861 275.175C147.796 272.839 141.291 276.597 137.327 283.606C133.262 290.615 133.262 298.132 137.225 300.366ZM139.665 290.615C139.665 287.568 141.799 283.809 144.543 282.184C147.186 280.66 149.422 281.879 149.422 285.028C149.422 288.076 147.288 291.834 144.543 293.459C141.799 294.983 139.665 293.764 139.665 290.615Z" fill="white"/>
<path d="M177.272 270.909V255.875C170.056 260.04 164.161 270.198 164.161 278.527C164.161 286.856 170.056 290.208 177.272 286.044C184.488 281.879 190.383 271.721 190.383 263.392C190.383 260.954 189.875 259.024 188.96 257.5L177.272 270.909Z" fill="#7155C6"/>
<path d="M188.959 257.5C186.825 253.843 182.354 252.929 177.272 255.875V270.909L188.959 257.5Z" fill="#FFD303"/>
<path d="M646.334 69.0731C633.934 61.9626 623.973 67.7525 623.973 81.9735C623.973 89.8966 627.022 98.7338 631.901 106.352C630.986 108.282 629.563 110.72 626.311 111.431C630.986 113.767 635.763 115.697 638.711 114.783C641.15 117.221 643.691 119.253 646.435 120.776C658.835 127.887 668.796 122.097 668.796 107.876C668.796 93.5534 658.733 76.1835 646.334 69.0731Z" fill="#9C7FF4"/>
<path d="M671.336 106.352C671.336 92.0297 661.274 74.6599 648.976 67.5494C642.674 63.8926 636.982 63.5879 632.917 66.1273L630.579 67.4478C634.645 65.1115 640.235 65.5179 646.333 69.0731C658.733 76.1836 668.694 93.5534 668.694 107.876C668.694 114.986 666.254 119.964 662.29 122.3L665.136 120.675C668.998 118.237 671.336 113.26 671.336 106.352Z" fill="url(#paint43_linear)"/>
<path d="M646.333 75.4725C636.982 70.0888 629.461 74.4567 629.461 85.224C629.461 95.9912 636.982 109.095 646.333 114.478C655.684 119.862 663.205 115.494 663.205 104.727L646.333 94.9755V75.4725Z" fill="#7155C6"/>
<path d="M646.334 75.4724V94.9754L661.681 95.788C659.038 87.4586 653.143 79.3324 646.334 75.4724Z" fill="#F8F7FC"/>
<path d="M646.334 94.874L663.206 104.626C663.206 101.781 662.697 98.734 661.681 95.6866L646.334 94.874Z" fill="#F2BD42"/>
<path d="M237.828 118.263C237.581 118.263 237.415 118.098 237.415 117.851V113.227C237.415 113.144 237.415 113.144 237.415 113.062L253.608 78.7962C253.691 78.5485 253.939 78.4659 254.186 78.6311C254.434 78.7136 254.517 78.9614 254.352 79.2091L238.242 113.309V117.851C238.242 118.098 238.076 118.263 237.828 118.263Z" fill="#49318F"/>
<path d="M270.214 146.584C270.131 146.584 270.048 146.584 270.048 146.501L266.166 144.272C266.001 144.19 265.918 143.942 266.001 143.694C266.083 143.529 266.331 143.446 266.579 143.529L270.462 145.758C270.627 145.841 270.709 146.089 270.627 146.336C270.462 146.501 270.296 146.584 270.214 146.584Z" fill="#7155C6"/>
<path d="M270.214 118.263C269.966 118.263 269.801 118.098 269.801 117.851V113.309L253.608 79.1265C253.526 78.9613 253.608 78.7136 253.773 78.5485C254.021 78.4659 254.187 78.5485 254.352 78.7136L270.545 112.979C270.545 113.062 270.545 113.062 270.545 113.144V117.768C270.627 118.098 270.379 118.263 270.214 118.263Z" fill="#49318F"/>
<path d="M237.828 146.584C237.663 146.584 237.581 146.501 237.498 146.336C237.415 146.171 237.415 145.923 237.663 145.758L241.546 143.529C241.711 143.446 241.959 143.446 242.124 143.694C242.207 143.859 242.207 144.107 241.959 144.272L238.076 146.501C237.994 146.501 237.911 146.584 237.828 146.584Z" fill="#7155C6"/>
<path d="M254.021 103.897L221.718 122.557L254.021 141.217L286.324 122.557L254.021 103.897Z" fill="#FFD303"/>
<path d="M286.324 122.557L254.021 141.217V154.758L286.324 136.098V122.557Z" fill="#D6952D"/>
<path d="M254.021 141.217L221.718 122.557V136.098L254.021 154.758V141.217Z" fill="#F2BD42"/>
<path d="M241.794 134.199L274.097 115.539L267.818 111.906L235.515 130.566L241.794 134.199Z" fill="#F3F1F7"/>
<path d="M241.793 139.318V134.199L235.515 130.566V135.685L241.793 139.318Z" fill="#DAD0F6"/>
<path d="M245.677 115.539L257.491 108.686L254.021 106.704L242.207 113.557L245.677 115.539Z" fill="#F8F7FC"/>
<path d="M270.214 146.584C269.966 146.584 269.801 146.419 269.801 146.171V131.97L253.608 79.044C253.526 78.7963 253.691 78.6311 253.856 78.5486C254.104 78.466 254.269 78.6311 254.352 78.7963L270.545 131.722V131.804V146.006C270.627 146.336 270.379 146.584 270.214 146.584Z" fill="#7155C6"/>
<path d="M237.828 146.584C237.581 146.584 237.415 146.419 237.415 146.171V131.97V131.887L253.608 78.8788C253.691 78.6311 253.939 78.5485 254.104 78.6311C254.352 78.7136 254.434 78.9613 254.352 79.1265L238.242 131.97V146.171C238.242 146.336 238.076 146.584 237.828 146.584Z" fill="#7155C6"/>
<path d="M251.377 75.6586C249.89 74.8329 249.89 73.4293 251.377 72.6036C252.864 71.778 255.26 71.778 256.664 72.6036C257.408 73.0165 257.738 73.5944 257.738 74.1724C257.738 74.7504 257.408 75.2458 256.664 75.7412C255.177 76.4843 252.864 76.4843 251.377 75.6586Z" fill="#F8F7FC"/>
<path d="M256.664 75.6586C255.177 76.4843 252.782 76.4843 251.377 75.6586C250.634 75.2458 250.303 74.6678 250.303 74.0898V79.1264C250.303 79.7044 250.634 80.1998 251.377 80.6952C252.864 81.5209 255.26 81.5209 256.664 80.6952C257.408 80.2824 257.738 79.7044 257.738 79.1264V74.0898C257.738 74.6678 257.408 75.2458 256.664 75.6586Z" fill="url(#paint44_linear)"/>
<path d="M302.765 79.4566C300.782 79.7043 299.295 80.6125 298.799 81.7685C290.703 77.3098 272.775 68.1449 265.918 68.1449H271.288C275.667 68.1449 279.302 66.0807 279.302 63.5211V60.3835C279.302 64.4293 295.082 74.7502 302.765 79.4566Z" fill="#E6E1F4"/>
<path d="M265.918 68.145C272.693 68.145 290.455 77.1449 298.717 81.6035V85.0713C290.538 80.6952 272.775 77.31 265.918 77.31C265.918 77.3925 265.918 68.145 265.918 68.145Z" fill="#DAD0F6"/>
<path d="M205.195 79.4566C207.178 79.7043 208.665 80.6125 209.161 81.7685C217.34 77.3098 235.267 68.1449 242.124 68.1449H236.754C232.376 68.1449 228.741 66.0807 228.741 63.5211V60.3835C228.658 64.4293 212.878 74.7502 205.195 79.4566Z" fill="#E6E1F4"/>
<path d="M242.124 68.145C235.267 68.145 217.505 77.1449 209.326 81.6035V85.0713C217.505 80.6952 235.267 77.31 242.124 77.31C242.124 77.3925 242.124 68.145 242.124 68.145Z" fill="#C7BDE4"/>
<path d="M208.003 29.9988H200.238L201.725 38.0904C201.808 38.4206 201.973 38.6683 202.386 38.916C203.295 39.4114 204.781 39.4114 205.69 38.916C206.103 38.6683 206.351 38.3381 206.351 38.0904C206.434 38.0904 208.003 29.9988 208.003 29.9988Z" fill="url(#paint45_linear)"/>
<path d="M200.403 24.8796C198.338 23.7237 198.338 21.8247 200.403 20.6687C202.468 19.5128 205.773 19.5128 207.755 20.6687C208.747 21.2467 209.242 21.9898 209.242 22.8155C209.242 23.6411 208.747 24.3842 207.755 24.9622C205.773 26.0356 202.468 26.0356 200.403 24.8796Z" fill="#886AE2"/>
<path d="M207.755 24.8797C205.69 26.0356 202.386 26.0356 200.403 24.8797C199.412 24.3017 198.916 23.5586 198.916 22.7329V29.7511C198.916 30.4942 199.412 31.3199 200.403 31.8979C202.468 33.0538 205.773 33.0538 207.755 31.8979C208.747 31.3199 209.242 30.5768 209.242 29.7511V22.7329C209.325 23.476 208.829 24.2191 207.755 24.8797Z" fill="url(#paint46_linear)"/>
<path d="M236.672 68.1451C232.293 68.1451 228.658 66.0809 228.658 63.5213V43.54C228.658 40.9804 232.293 38.9163 236.672 38.9163H271.288C275.667 38.9163 279.302 40.9804 279.302 43.54V63.5213C279.302 66.0809 275.667 68.1451 271.288 68.1451H236.672Z" fill="#F8F7FC"/>
<path d="M242.454 63.2737C239.563 63.2737 237.167 61.87 237.167 60.2187V46.9253C237.167 45.274 239.563 43.8704 242.454 43.8704H265.504C268.396 43.8704 270.792 45.274 270.792 46.9253V60.2187C270.792 61.87 268.396 63.2737 265.504 63.2737H242.454Z" fill="url(#paint47_linear)"/>
<path d="M266.001 68.145H242.124V77.3926H266.001V68.145Z" fill="url(#paint48_linear)"/>
<path d="M261.374 68.145H246.668C244.107 68.145 242.042 70.2092 242.042 72.7688C242.042 75.3284 244.107 77.3926 246.668 77.3926H261.374C263.935 77.3926 266.001 75.3284 266.001 72.7688C266.001 70.2092 263.853 68.145 261.374 68.145Z" fill="#E2DCF4"/>
<path d="M245.594 72.7687C245.594 72.1082 246.09 71.6128 246.751 71.6128C247.412 71.6128 247.907 72.1082 247.907 72.7687C247.907 73.4293 247.412 73.9247 246.751 73.9247C246.09 73.9247 245.594 73.4293 245.594 72.7687Z" fill="#5B41AA"/>
<path d="M260.217 72.7687C260.217 72.1082 260.713 71.6128 261.374 71.6128C262.035 71.6128 262.531 72.1082 262.531 72.7687C262.531 73.4293 262.035 73.9247 261.374 73.9247C260.713 73.9247 260.217 73.4293 260.217 72.7687Z" fill="#5B41AA"/>
<path d="M208.003 87.6309H200.238L201.725 95.7225C201.808 96.0527 201.973 96.3004 202.386 96.5481C203.295 97.0435 204.781 97.0435 205.69 96.5481C206.103 96.3004 206.351 95.9702 206.351 95.7225C206.434 95.7225 208.003 87.6309 208.003 87.6309Z" fill="url(#paint49_linear)"/>
<path d="M200.403 82.4292C198.338 81.2733 198.338 79.3742 200.403 78.2183C202.468 77.0623 205.773 77.0623 207.755 78.2183C208.747 78.7962 209.242 79.5394 209.242 80.365C209.242 81.1081 208.747 81.9338 207.755 82.5118C205.773 83.5852 202.468 83.5852 200.403 82.4292Z" fill="#886AE2"/>
<path d="M207.755 82.4292C205.69 83.5852 202.386 83.5852 200.403 82.4292C199.412 81.8513 198.916 81.1081 198.916 80.2825V87.3007C198.916 88.0438 199.412 88.8695 200.403 89.4475C202.468 90.6034 205.773 90.6034 207.755 89.4475C208.747 88.8695 209.242 88.1264 209.242 87.3007V80.2825C209.325 81.1081 208.829 81.8513 207.755 82.4292Z" fill="url(#paint50_linear)"/>
<path d="M209.161 25.3752C208.748 26.5312 207.178 27.4394 205.195 27.6871C212.878 32.3935 228.658 42.7144 228.658 46.6776V43.54C228.658 40.9805 232.293 38.9163 236.672 38.9163H242.042C235.267 38.9163 217.34 29.8339 209.161 25.3752Z" fill="#E6E1F4"/>
<path d="M228.658 52.7877V46.6777C228.658 42.7145 212.878 32.3936 205.195 27.6873V29.9991C212.878 34.7055 228.658 51.8795 228.658 55.8427C228.658 55.9253 228.658 52.7877 228.658 52.7877Z" fill="#DAD0F6"/>
<path d="M300.039 29.9988H307.804L306.317 38.0904C306.234 38.4206 306.069 38.6683 305.656 38.916C304.747 39.4114 303.26 39.4114 302.352 38.916C301.939 38.6683 301.691 38.3381 301.691 38.0904C301.608 38.0904 300.039 29.9988 300.039 29.9988Z" fill="url(#paint51_linear)"/>
<path d="M307.64 24.8796C309.705 23.7237 309.705 21.8247 307.64 20.6687C305.574 19.5128 302.27 19.5128 300.287 20.6687C299.296 21.2467 298.8 21.9898 298.8 22.8155C298.8 23.6411 299.296 24.3842 300.287 24.9622C302.27 26.0356 305.574 26.0356 307.64 24.8796Z" fill="#886AE2"/>
<path d="M300.286 24.8797C302.352 26.0356 305.656 26.0356 307.639 24.8797C308.63 24.3017 309.126 23.5586 309.126 22.7329V29.7511C309.126 30.4942 308.63 31.3199 307.639 31.8979C305.573 33.0538 302.269 33.0538 300.286 31.8979C299.295 31.3199 298.799 30.5768 298.799 29.7511V22.7329C298.717 23.476 299.212 24.2191 300.286 24.8797Z" fill="url(#paint52_linear)"/>
<path d="M300.039 87.6309H307.804L306.317 95.7225C306.234 96.0527 306.069 96.3004 305.656 96.5481C304.747 97.0435 303.26 97.0435 302.352 96.5481C301.939 96.3004 301.691 95.9702 301.691 95.7225C301.608 95.7225 300.039 87.6309 300.039 87.6309Z" fill="url(#paint53_linear)"/>
<path d="M307.64 82.4292C309.705 81.2733 309.705 79.3742 307.64 78.2183C305.574 77.0623 302.27 77.0623 300.287 78.2183C299.296 78.7962 298.8 79.5394 298.8 80.365C298.8 81.1081 299.296 81.9338 300.287 82.5118C302.27 83.5852 305.574 83.5852 307.64 82.4292Z" fill="#886AE2"/>
<path d="M300.286 82.4292C302.352 83.5852 305.656 83.5852 307.639 82.4292C308.63 81.8513 309.126 81.1081 309.126 80.2825V87.3007C309.126 88.0438 308.63 88.8695 307.639 89.4475C305.573 90.6034 302.269 90.6034 300.286 89.4475C299.295 88.8695 298.799 88.1264 298.799 87.3007V80.2825C298.717 81.1081 299.212 81.8513 300.286 82.4292Z" fill="url(#paint54_linear)"/>
<path d="M298.882 25.3752C299.295 26.5312 300.865 27.4394 302.847 27.6871C295.164 32.3935 279.384 42.7144 279.384 46.6776V43.54C279.384 40.9805 275.749 38.9163 271.371 38.9163H266.001C272.775 38.9163 290.703 29.8339 298.882 25.3752Z" fill="#E6E1F4"/>
<path d="M279.302 52.7877V46.6777C279.302 42.7145 295.082 32.3936 302.765 27.6873V29.9991C295.082 34.7055 279.302 51.8795 279.302 55.8427C279.302 55.9253 279.302 52.7877 279.302 52.7877Z" fill="#C7BDE4"/>
<path d="M204.121 23.5587C202.716 23.5587 201.56 22.8982 201.56 22.0725V22.733C201.56 23.5587 202.716 24.2193 204.121 24.2193C205.525 24.2193 206.682 23.5587 206.682 22.733V22.0725C206.682 22.8982 205.525 23.5587 204.121 23.5587Z" fill="url(#paint55_linear)"/>
<path d="M204.121 23.5586C202.716 23.5586 201.56 22.8981 201.56 22.0724C201.56 21.2467 202.716 20.5862 204.121 20.5862C205.525 20.5862 206.682 21.2467 206.682 22.0724C206.682 22.8981 205.525 23.5586 204.121 23.5586Z" fill="#FFD303"/>
<path d="M204.121 22.8983C203.295 22.8983 202.634 22.4854 202.634 21.99C202.634 21.4946 203.295 21.0818 204.121 21.0818C204.947 21.0818 205.608 21.4946 205.608 21.99C205.608 22.4854 204.947 22.8983 204.121 22.8983Z" fill="#49318F"/>
<path d="M204.121 20.5863L220.396 11.1736C222.957 14.9717 218.909 16.7056 216.266 18.1918C213.457 18.1918 205.525 21.3294 205.525 21.3294L204.121 20.5863Z" fill="#FFD303"/>
<path d="M204.121 23.5586L187.846 32.8887C185.284 29.0906 189.333 27.3567 191.976 25.8705C194.785 25.8705 202.716 22.7329 202.716 22.7329L204.121 23.5586Z" fill="#FFD303"/>
<path d="M303.921 81.108C302.517 81.108 301.36 80.4475 301.36 79.6218V80.2824C301.36 81.108 302.517 81.7686 303.921 81.7686C305.326 81.7686 306.482 81.108 306.482 80.2824V79.6218C306.482 80.4475 305.326 81.108 303.921 81.108Z" fill="url(#paint56_linear)"/>
<path d="M303.921 81.1082C302.517 81.1082 301.36 80.4476 301.36 79.622C301.36 78.7963 302.517 78.1357 303.921 78.1357C305.326 78.1357 306.482 78.7963 306.482 79.622C306.482 80.4476 305.326 81.1082 303.921 81.1082Z" fill="#FFD303"/>
<path d="M303.921 80.5301C303.095 80.5301 302.434 80.1173 302.434 79.6219C302.434 79.1265 303.095 78.7136 303.921 78.7136C304.747 78.7136 305.408 79.1265 305.408 79.6219C305.491 80.1173 304.747 80.5301 303.921 80.5301Z" fill="#49318F"/>
<path d="M303.921 78.1356L320.197 68.7229C322.758 72.521 318.71 74.2549 316.066 75.7411C313.257 75.7411 305.326 78.8787 305.326 78.8787L303.921 78.1356Z" fill="#FFD303"/>
<path d="M303.922 81.1081L287.646 90.5208C285.085 86.7227 289.133 84.9888 291.777 83.5025C294.586 83.5025 302.517 80.365 302.517 80.365L303.922 81.1081Z" fill="#FFD303"/>
<path d="M303.921 23.5587C305.326 23.5587 306.482 22.8982 306.482 22.0725V22.733C306.482 23.5587 305.326 24.2193 303.921 24.2193C302.517 24.2193 301.36 23.5587 301.36 22.733V22.0725C301.36 22.8982 302.517 23.5587 303.921 23.5587Z" fill="url(#paint57_linear)"/>
<path d="M303.921 23.5586C305.326 23.5586 306.482 22.8981 306.482 22.0724C306.482 21.2467 305.326 20.5862 303.921 20.5862C302.517 20.5862 301.36 21.2467 301.36 22.0724C301.36 22.8981 302.517 23.5586 303.921 23.5586Z" fill="#FFD303"/>
<path d="M303.921 22.8983C304.747 22.8983 305.408 22.4854 305.408 21.99C305.408 21.4946 304.747 21.0818 303.921 21.0818C303.095 21.0818 302.434 21.4946 302.434 21.99C302.434 22.4854 303.095 22.8983 303.921 22.8983Z" fill="#49318F"/>
<path d="M303.922 20.5863L287.646 11.1736C285.085 14.9717 289.133 16.7056 291.777 18.1918C294.586 18.1918 302.517 21.3294 302.517 21.3294L303.922 20.5863Z" fill="#FFD303"/>
<path d="M303.921 23.5588L320.197 32.9715C322.758 29.1734 318.71 27.4394 316.066 25.9532C313.257 25.9532 305.326 22.8157 305.326 22.8157L303.921 23.5588Z" fill="#FFD303"/>
<path d="M204.121 81.1078C205.525 81.1078 206.682 80.4473 206.682 79.6216V80.2821C206.682 81.1078 205.525 81.7683 204.121 81.7683C202.716 81.7683 201.56 81.1078 201.56 80.2821V79.6216C201.56 80.4473 202.716 81.1078 204.121 81.1078Z" fill="url(#paint58_linear)"/>
<path d="M204.121 81.1079C205.525 81.1079 206.682 80.4474 206.682 79.6217C206.682 78.796 205.525 78.1355 204.121 78.1355C202.716 78.1355 201.56 78.796 201.56 79.6217C201.56 80.4474 202.716 81.1079 204.121 81.1079Z" fill="#FFD303"/>
<path d="M204.121 80.5298C204.947 80.5298 205.608 80.117 205.608 79.6216C205.608 79.1262 204.947 78.7134 204.121 78.7134C203.295 78.7134 202.634 79.1262 202.634 79.6216C202.551 80.117 203.295 80.5298 204.121 80.5298Z" fill="#49318F"/>
<path d="M204.121 78.1355L187.846 68.8054C185.284 72.6035 189.333 74.3374 191.976 75.8236C194.785 75.8236 202.716 78.9612 202.716 78.9612L204.121 78.1355Z" fill="#FFD303"/>
<path d="M204.121 81.1078L220.396 90.5205C222.957 86.7224 218.909 84.9885 216.266 83.5023C213.457 83.5023 205.525 80.3647 205.525 80.3647L204.121 81.1078Z" fill="#FFD303"/>
<g clip-path="url(#clip0)">
<path d="M248.657 340.2L241.457 344.4L250.257 349.5L251.757 348.6L244.357 344.2L248.457 341.9L255.857 346.2L257.357 345.3L248.657 340.2Z" fill="black"/>
<path d="M261.157 341.9C260.557 342.2 259.957 342.4 259.257 342.3C258.557 342.2 257.957 342.1 257.457 341.8C256.957 341.5 256.657 341.2 256.557 340.8C256.457 340.4 256.757 340.1 257.257 339.7C257.857 339.4 258.457 339.2 259.157 339.3C259.857 339.3 260.457 339.5 260.957 339.8C261.457 340.1 261.757 340.4 261.857 340.8C261.857 341.3 261.657 341.6 261.157 341.9ZM256.057 339C255.157 339.5 254.657 340.1 254.657 340.8C254.657 341.5 255.057 342.1 255.957 342.6C256.857 343.1 257.957 343.4 259.157 343.4C260.357 343.4 261.457 343.1 262.357 342.6C263.257 342.1 263.757 341.5 263.757 340.7C263.757 340 263.357 339.4 262.457 338.8C261.557 338.3 260.457 338 259.257 338C258.057 338.2 256.957 338.5 256.057 339Z" fill="black"/>
<path d="M263.657 334.6C262.757 335.1 262.257 335.7 262.257 336.4C262.257 337.1 262.657 337.7 263.657 338.3C264.657 338.9 265.657 339.1 266.857 339.1C268.057 339.1 269.057 338.8 270.057 338.3C271.057 337.7 271.457 337.2 271.457 336.5H269.557C269.657 336.9 269.357 337.2 268.857 337.5C268.357 337.8 267.757 337.9 267.057 337.9C266.357 337.9 265.757 337.7 265.257 337.4C264.757 337.1 264.457 336.8 264.357 336.4C264.257 336 264.457 335.7 264.957 335.4C265.157 335.3 265.457 335.2 265.857 335.1C266.257 335 266.557 335 266.757 335L266.857 333.9C266.357 333.9 265.757 333.9 265.157 334.1C264.557 334.2 264.057 334.4 263.657 334.6Z" fill="black"/>
<path d="M274.657 328.5L272.557 329.7L274.857 333L269.057 331.7L267.057 332.9L272.957 336.3L274.457 335.5L270.157 333H270.257L276.257 334.4L277.257 333.9L274.857 330.3H274.957L279.157 332.8L280.557 331.9L274.657 328.5Z" fill="black"/>
<path d="M284.257 328.6C283.657 328.9 283.057 329.1 282.357 329C281.657 328.9 281.057 328.8 280.557 328.5C280.057 328.2 279.757 327.9 279.657 327.5C279.557 327.1 279.857 326.8 280.357 326.4C280.957 326.1 281.557 325.9 282.157 326C282.857 326 283.457 326.2 283.957 326.5C284.457 326.8 284.757 327.1 284.857 327.5C285.057 327.9 284.757 328.3 284.257 328.6ZM279.157 325.6C278.257 326.1 277.757 326.7 277.757 327.4C277.757 328.1 278.157 328.7 279.057 329.2C279.957 329.7 281.057 330 282.257 330C283.457 330 284.557 329.7 285.457 329.2C286.357 328.7 286.857 328.1 286.857 327.3C286.857 326.6 286.457 326 285.557 325.4C284.657 324.9 283.557 324.6 282.357 324.6C281.157 324.8 280.057 325.1 279.157 325.6Z" fill="black"/>
<path d="M288.557 320.4L283.257 323.5L284.457 324.2L286.357 323.1L291.157 325.8L292.657 325L287.857 322.2L289.757 321.1L288.557 320.4Z" fill="black"/>
<path d="M297.757 320.8C297.257 321.1 296.657 321.2 295.857 321.2C295.157 321.2 294.557 321 294.057 320.7C293.557 320.4 293.257 320.1 293.157 319.6C293.057 319.2 293.357 318.8 293.857 318.5C294.357 318.2 294.957 318.1 295.657 318.1C296.357 318.1 296.957 318.3 297.457 318.6C297.957 318.9 298.257 319.2 298.357 319.6C298.557 320.1 298.357 320.4 297.757 320.8ZM293.057 317.6C292.557 317.9 292.257 318.2 292.057 318.5C291.857 318.8 291.857 319.1 291.957 319.4L291.157 318.9L289.757 319.7L298.657 324.9L300.157 324L296.357 321.8C296.857 321.9 297.357 321.8 297.857 321.7C298.357 321.6 298.857 321.4 299.257 321.2C300.157 320.7 300.557 320.1 300.457 319.4C300.357 318.7 299.857 318.1 299.057 317.6C298.157 317.1 297.157 316.8 296.057 316.8C294.957 316.9 293.957 317.1 293.057 317.6Z" fill="black"/>
<path d="M303.357 311.9L301.757 312.8L302.957 316.6L299.057 314.4L297.657 315.2L303.557 318.7L305.157 317.7L303.957 314L307.857 316.2L309.357 315.3L303.357 311.9Z" fill="black"/>
<path d="M309.857 308.2L304.557 311.2L305.657 311.9L307.657 310.8L312.357 313.6L313.857 312.7L309.157 310L311.057 308.9L309.857 308.2Z" fill="black"/>
<path d="M314.357 308.3C313.957 308 313.857 307.7 313.857 307.4C313.857 307.1 314.157 306.8 314.557 306.5C315.057 306.2 315.457 306.1 316.057 306.1C316.557 306.1 317.057 306.3 317.457 306.5L314.357 308.3ZM313.457 305.9C312.557 306.4 312.057 307 312.057 307.7C312.057 308.4 312.457 309 313.457 309.6C314.457 310.2 315.457 310.4 316.657 310.4C317.857 310.4 318.857 310.1 319.757 309.6C320.857 309 321.357 308.2 321.157 307.4L319.357 307.5C319.457 308 319.257 308.5 318.557 308.9C318.157 309.2 317.557 309.3 316.957 309.3C316.357 309.3 315.857 309.2 315.357 309L319.957 306.4C319.857 306.3 319.757 306.3 319.557 306.2C318.557 305.6 317.457 305.3 316.357 305.3C315.357 305.1 314.357 305.4 313.457 305.9Z" fill="black"/>
<path d="M327.457 303.6L326.057 302.8L327.457 302C328.157 301.6 328.657 301.6 329.157 301.8C329.657 302.1 329.557 302.4 328.857 302.8L327.457 303.6ZM324.957 302.2L323.657 301.4L324.957 300.6C325.557 300.2 326.157 300.2 326.557 300.4C326.957 300.7 326.957 300.9 326.357 301.3L324.957 302.2ZM324.157 299.9L321.057 301.7L326.957 305.2L330.157 303.4C330.857 303 331.257 302.6 331.357 302.2C331.457 301.8 331.257 301.4 330.757 301.1C330.357 300.9 329.957 300.8 329.457 300.7C328.957 300.7 328.557 300.8 328.057 301C328.257 300.8 328.357 300.6 328.357 300.3C328.357 300.1 328.157 299.9 327.857 299.7C327.457 299.5 327.057 299.3 326.557 299.3C326.057 299.3 325.657 299.4 325.257 299.5C324.857 299.5 324.557 299.7 324.157 299.9Z" fill="black"/>
<path d="M333.757 294.4L332.157 295.3L333.357 299L329.457 296.8L327.957 297.7L333.957 301.1L335.557 300.2L334.357 296.5L338.157 298.7L339.657 297.8L333.757 294.4Z" fill="black"/>
<path d="M341.757 295.2C341.457 294.5 340.757 293.8 339.657 293.2L338.957 292.8L340.857 291.7L344.357 293.8L341.757 295.2ZM341.157 290.1L336.257 292.9L337.757 293.8C339.157 294.6 339.957 295.4 340.157 296.1L339.557 296.5L342.457 298.2L343.757 297.5L342.057 296.5L346.757 293.8L348.457 294.8L349.757 294.1L346.857 292.4L345.957 292.9L341.157 290.1Z" fill="black"/>
<path d="M346.657 289.6C346.257 289.3 346.057 289 346.157 288.7C346.157 288.4 346.457 288.1 346.857 287.8C347.357 287.5 347.857 287.4 348.357 287.4C348.857 287.4 349.357 287.5 349.757 287.8L346.657 289.6ZM345.757 287.2C344.857 287.7 344.357 288.3 344.357 289C344.357 289.7 344.757 290.3 345.757 290.9C346.757 291.5 347.757 291.7 348.957 291.7C350.157 291.7 351.157 291.4 352.057 290.9C353.157 290.3 353.657 289.5 353.457 288.7L351.657 288.8C351.757 289.3 351.557 289.8 350.857 290.2C350.457 290.5 349.857 290.6 349.257 290.6C348.657 290.6 348.157 290.5 347.657 290.3L352.257 287.7C352.157 287.6 352.057 287.6 351.857 287.5C350.857 286.9 349.757 286.6 348.657 286.6C347.657 286.5 346.657 286.7 345.757 287.2Z" fill="black"/>
<path d="M358.057 286C357.457 286.3 356.857 286.5 356.157 286.4C355.457 286.3 354.857 286.2 354.357 285.9C353.857 285.6 353.557 285.3 353.457 284.9C353.357 284.5 353.657 284.2 354.157 283.8C354.757 283.5 355.357 283.3 356.057 283.4C356.757 283.4 357.357 283.6 357.857 283.9C358.357 284.2 358.657 284.5 358.757 284.9C358.857 285.3 358.657 285.6 358.057 286ZM353.057 283C352.157 283.5 351.657 284.1 351.657 284.8C351.657 285.5 352.057 286.1 352.957 286.6C353.857 287.1 354.957 287.4 356.157 287.4C357.357 287.4 358.457 287.1 359.357 286.6C360.257 286.1 360.757 285.5 360.757 284.7C360.757 284 360.357 283.4 359.457 282.8C358.557 282.3 357.457 282 356.257 282C355.057 282.2 353.957 282.5 353.057 283Z" fill="black"/>
<path d="M275.557 350.8C274.957 351.1 274.357 351.3 273.657 351.2C272.957 351.1 272.357 351 271.857 350.7C271.357 350.4 271.057 350.1 270.957 349.7C270.857 349.3 271.157 349 271.657 348.6C272.257 348.3 272.857 348.1 273.557 348.2C274.257 348.2 274.857 348.4 275.357 348.7C275.857 349 276.157 349.3 276.257 349.7C276.357 350.1 276.157 350.5 275.557 350.8ZM270.557 347.9C269.657 348.4 269.157 349 269.157 349.7C269.157 350.4 269.557 351 270.457 351.5C271.357 352 272.457 352.3 273.657 352.3C274.857 352.3 275.957 352 276.857 351.5C277.757 351 278.257 350.4 278.257 349.6C278.257 348.9 277.857 348.3 276.957 347.7C276.057 347.2 274.957 346.9 273.757 346.9C272.557 347 271.457 347.3 270.557 347.9Z" fill="black"/>
<path d="M284.057 340.3L282.557 341.1L284.757 342.4L282.257 343.9L279.957 342.6L278.557 343.5L284.457 346.9L285.957 346L283.457 344.6L285.957 343.1L288.457 344.6L289.957 343.7L284.057 340.3Z" fill="black"/>
<path d="M292.857 340.9C292.557 341.1 292.257 341.2 291.957 341.2C291.657 341.3 291.357 341.2 291.057 341C290.357 340.6 290.857 340 292.357 339.1L292.657 338.9L292.857 339C293.357 339.3 293.557 339.6 293.557 339.9C293.657 340.3 293.357 340.6 292.857 340.9ZM288.057 337.7C287.057 338.3 286.557 339 286.457 339.7L288.157 339.8C288.157 339.3 288.457 338.8 289.057 338.5C289.457 338.3 289.857 338.1 290.357 338.1C290.757 338.1 291.157 338.1 291.557 338.3L291.657 338.4C291.257 338.6 290.857 338.9 290.557 339.1C290.257 339.3 289.957 339.6 289.657 339.8C289.357 340.1 289.157 340.3 289.057 340.5C288.957 340.7 288.957 341 288.957 341.2C289.057 341.4 289.257 341.7 289.557 341.9C290.157 342.3 290.857 342.4 291.657 342.3C292.457 342.2 293.057 342 293.657 341.7C294.057 341.5 294.357 341.2 294.557 340.9C294.757 340.6 294.757 340.3 294.657 340.1L295.457 340.5L296.857 339.7L293.257 337.6C292.957 337.4 292.557 337.3 292.257 337.2C291.857 337.1 291.457 337 291.057 337C290.657 337 290.157 337 289.657 337.1C289.057 337.2 288.557 337.4 288.057 337.7Z" fill="black"/>
<path d="M301.557 330.1L300.057 331L304.857 333.7L302.557 335L297.857 332.3L296.357 333.1L301.157 335.9L298.857 337.2L294.157 334.4L292.657 335.3L298.557 338.7L307.557 333.6L301.557 330.1Z" fill="black"/>
<path d="M306.957 329.8C306.557 329.5 306.457 329.2 306.457 328.9C306.457 328.6 306.757 328.3 307.157 328C307.657 327.7 308.057 327.6 308.657 327.6C309.157 327.6 309.657 327.8 310.057 328L306.957 329.8ZM306.057 327.3C305.157 327.8 304.657 328.4 304.657 329.1C304.657 329.8 305.157 330.4 306.057 331C307.057 331.6 308.057 331.8 309.257 331.8C310.457 331.8 311.457 331.5 312.357 331C313.457 330.4 313.957 329.6 313.757 328.8L311.957 328.9C312.057 329.4 311.857 329.9 311.157 330.3C310.757 330.6 310.157 330.7 309.557 330.7C308.957 330.7 308.457 330.6 307.957 330.4L312.557 327.8C312.457 327.7 312.357 327.7 312.157 327.6C311.157 327 310.057 326.7 308.957 326.7C307.957 326.6 306.957 326.8 306.057 327.3Z" fill="black"/>
<path d="M316.357 321.6L314.757 322.5L315.957 326.2L312.157 324L310.657 324.9L316.557 328.4L318.157 327.5L316.957 323.7L320.757 325.9L322.257 325L316.357 321.6ZM311.757 320.9C311.957 321.1 312.057 321.3 312.057 321.5C311.957 321.7 311.757 321.9 311.457 322.1C311.157 322.3 310.857 322.4 310.457 322.4C310.157 322.4 309.757 322.4 309.457 322.2L308.757 322.7C309.357 323 309.957 323.1 310.657 323.1C311.257 323.1 311.857 322.9 312.457 322.6C313.057 322.3 313.357 321.9 313.357 321.6C313.357 321.2 313.157 320.9 312.757 320.5L311.757 320.9Z" fill="black"/>
<path d="M329.357 319.7C328.857 320 328.257 320.1 327.457 320.1C326.757 320.1 326.157 319.9 325.657 319.6C325.157 319.3 324.857 319 324.757 318.5C324.657 318.1 324.957 317.7 325.457 317.4C325.957 317.1 326.557 317 327.257 317C327.957 317 328.557 317.2 329.057 317.5C329.557 317.8 329.857 318.1 329.957 318.5C330.157 319.1 329.857 319.4 329.357 319.7ZM324.657 316.6C324.157 316.9 323.857 317.2 323.657 317.5C323.457 317.8 323.457 318.1 323.557 318.4L322.757 317.9L321.357 318.7L330.257 323.9L331.757 323L327.957 320.8C328.457 320.9 328.957 320.8 329.457 320.7C329.957 320.6 330.457 320.4 330.857 320.2C331.757 319.7 332.157 319.1 332.057 318.4C331.957 317.7 331.457 317.1 330.657 316.6C329.757 316.1 328.757 315.8 327.557 315.8C326.457 315.9 325.457 316.1 324.657 316.6Z" fill="black"/>
<path d="M336.257 315.9C335.957 316.1 335.657 316.2 335.357 316.2C335.057 316.3 334.757 316.2 334.457 316C333.757 315.6 334.257 315 335.757 314.1L336.057 313.9L336.257 314C336.757 314.3 336.957 314.6 336.957 314.9C336.957 315.3 336.757 315.6 336.257 315.9ZM331.457 312.7C330.457 313.3 329.957 314 329.857 314.7L331.557 314.8C331.557 314.3 331.857 313.8 332.457 313.5C332.857 313.3 333.257 313.1 333.757 313.1C334.157 313.1 334.557 313.1 334.957 313.3L335.057 313.4C334.657 313.6 334.257 313.9 333.957 314.1C333.657 314.3 333.357 314.6 333.057 314.8C332.757 315.1 332.557 315.3 332.457 315.5C332.357 315.7 332.357 316 332.357 316.2C332.457 316.4 332.657 316.7 332.957 316.9C333.557 317.3 334.257 317.4 335.057 317.3C335.857 317.2 336.457 317 337.057 316.7C337.457 316.5 337.757 316.2 337.957 315.9C338.157 315.6 338.157 315.3 338.057 315.1L338.857 315.5L340.257 314.7L336.657 312.6C336.357 312.4 335.957 312.3 335.657 312.2C335.257 312.1 334.857 312 334.457 312C334.057 312 333.557 312 333.057 312.1C332.457 312.2 331.957 312.4 331.457 312.7Z" fill="black"/>
<path d="M343.957 311.3C343.457 311.6 342.857 311.7 342.157 311.7C341.457 311.7 340.857 311.5 340.357 311.2C339.857 310.9 339.557 310.5 339.457 310.1C339.357 309.7 339.657 309.4 340.157 309.1C340.657 308.8 341.357 308.6 342.057 308.7C342.757 308.7 343.357 308.9 343.857 309.2C344.357 309.5 344.657 309.9 344.757 310.3C344.657 310.7 344.457 311 343.957 311.3ZM337.557 305.2C337.657 305.3 337.757 305.5 337.657 305.6C337.557 305.7 337.357 305.9 337.057 306.2L335.757 307.2C335.357 307.5 335.057 307.8 334.857 308.1C334.657 308.4 334.657 308.7 334.757 309C334.857 309.3 335.057 309.6 335.357 309.9C335.657 310.2 336.057 310.5 336.457 310.8C336.857 311.1 337.357 311.4 337.957 311.7C338.657 312.1 339.357 312.4 339.957 312.6C340.557 312.8 341.157 312.9 341.757 312.9C343.057 312.9 344.257 312.7 345.257 312.1C346.157 311.6 346.657 311 346.657 310.3C346.657 309.6 346.257 309 345.357 308.4C344.457 307.9 343.357 307.6 342.257 307.6C341.157 307.6 340.157 307.8 339.357 308.3C338.157 309 337.757 309.7 338.257 310.5C337.757 310.2 337.357 309.9 337.057 309.6C336.757 309.3 336.657 309.1 336.657 308.9C336.657 308.7 336.757 308.5 336.857 308.3C336.957 308.1 337.257 307.9 337.557 307.7L338.957 306.6C339.357 306.3 339.657 306 339.657 305.7C339.657 305.4 339.557 305.1 339.157 304.8L337.557 305.2Z" fill="black"/>
<path d="M351.557 306.9C350.957 307.2 350.357 307.4 349.657 307.3C348.957 307.2 348.357 307.1 347.857 306.8C347.357 306.5 347.057 306.2 346.957 305.8C346.857 305.4 347.157 305.1 347.657 304.7C348.257 304.4 348.857 304.2 349.457 304.3C350.057 304.4 350.757 304.5 351.257 304.8C351.757 305.1 352.057 305.4 352.157 305.8C352.257 306.3 352.057 306.6 351.557 306.9ZM346.457 304C345.557 304.5 345.057 305.1 345.057 305.8C345.057 306.5 345.457 307.1 346.357 307.6C347.257 308.1 348.357 308.4 349.557 308.4C350.757 308.4 351.857 308.1 352.757 307.6C353.657 307.1 354.157 306.5 354.157 305.7C354.157 305 353.757 304.4 352.857 303.8C351.957 303.3 350.857 303 349.657 303C348.457 303.2 347.357 303.5 346.457 304Z" fill="black"/>
<path d="M355.857 298.8L350.557 301.9L351.757 302.6L353.657 301.4L358.357 304.2L359.857 303.3L355.157 300.6L357.057 299.5L355.857 298.8Z" fill="black"/>
<path d="M360.357 298.9C359.957 298.6 359.757 298.3 359.857 298C359.857 297.7 360.157 297.4 360.557 297.1C361.057 296.8 361.557 296.7 362.057 296.7C362.557 296.7 363.057 296.8 363.457 297.1L360.357 298.9ZM359.457 296.5C358.557 297 358.057 297.6 358.057 298.3C358.057 299 358.557 299.6 359.457 300.2C360.457 300.8 361.457 301 362.657 301C363.857 301 364.857 300.7 365.757 300.2C366.857 299.6 367.357 298.8 367.157 298L365.357 298.1C365.457 298.6 365.257 299.1 364.557 299.5C364.157 299.8 363.557 299.9 362.957 299.9C362.357 299.9 361.857 299.8 361.357 299.6L365.957 297C365.857 296.9 365.757 296.9 365.557 296.8C364.557 296.2 363.457 295.9 362.357 295.9C361.357 295.7 360.357 296 359.457 296.5Z" fill="black"/>
</g>
<path opacity="0.2" d="M269.062 316.009C281.075 316.009 290.813 310.37 290.813 303.414C290.813 296.457 281.075 290.818 269.062 290.818C257.05 290.818 247.312 296.457 247.312 303.414C247.312 310.37 257.05 316.009 269.062 316.009Z" fill="black"/>
<defs>
<linearGradient id="paint0_linear" x1="587.163" y1="484.946" x2="687.448" y2="484.946" gradientUnits="userSpaceOnUse">
<stop stop-color="#CDC6E3"/>
<stop offset="0.3639" stop-color="#E5E1F0"/>
<stop offset="0.7514" stop-color="#F8F7FB"/>
<stop offset="1" stop-color="white" stop-opacity="0"/>
</linearGradient>
<linearGradient id="paint1_linear" x1="451.066" y1="129.95" x2="534.867" y2="129.95" gradientUnits="userSpaceOnUse">
<stop stop-color="#C6CAE3"/>
<stop offset="0.172" stop-color="#D7D9EB"/>
<stop offset="0.4671" stop-color="#EDEEF6"/>
<stop offset="0.7487" stop-color="#FAFBFD"/>
<stop offset="1" stop-color="white" stop-opacity="0"/>
</linearGradient>
<linearGradient id="paint2_linear" x1="510.569" y1="140.765" x2="602.976" y2="140.765" gradientUnits="userSpaceOnUse">
<stop stop-color="#C6CAE3"/>
<stop offset="0.172" stop-color="#D7D9EB"/>
<stop offset="0.4671" stop-color="#EDEEF6"/>
<stop offset="0.7487" stop-color="#FAFBFD"/>
<stop offset="1" stop-color="white" stop-opacity="0"/>
</linearGradient>
<linearGradient id="paint3_linear" x1="655.148" y1="454.586" x2="731.662" y2="454.586" gradientUnits="userSpaceOnUse">
<stop stop-color="#C6CAE3"/>
<stop offset="0.3639" stop-color="#E1E3F0"/>
<stop offset="0.7514" stop-color="#F7F7FB"/>
<stop offset="1" stop-color="white" stop-opacity="0"/>
</linearGradient>
<linearGradient id="paint4_linear" x1="606.912" y1="438.432" x2="681.879" y2="438.432" gradientUnits="userSpaceOnUse">
<stop stop-color="#CDC6E3"/>
<stop offset="0.3639" stop-color="#E5E1F0"/>
<stop offset="0.7514" stop-color="#F8F7FB"/>
<stop offset="1" stop-color="white"/>
</linearGradient>
<linearGradient id="paint5_linear" x1="592.58" y1="441.267" x2="635.402" y2="441.267" gradientUnits="userSpaceOnUse">
<stop stop-color="#DBD3F2"/>
<stop offset="0.5746" stop-color="#EFEBF9"/>
<stop offset="1" stop-color="white"/>
</linearGradient>
<linearGradient id="paint6_linear" x1="464.862" y1="96.6659" x2="531.432" y2="96.6659" gradientUnits="userSpaceOnUse">
<stop stop-color="#DBD3F2"/>
<stop offset="0.0356648" stop-color="#DED7F3"/>
<stop offset="0.3011" stop-color="#F0EDFA"/>
<stop offset="0.5544" stop-color="#FBFAFE"/>
<stop offset="0.7804" stop-color="white"/>
</linearGradient>
<linearGradient id="paint7_linear" x1="635.402" y1="468.567" x2="655.148" y2="468.567" gradientUnits="userSpaceOnUse">
<stop stop-color="#C6CAE3"/>
<stop offset="0.3639" stop-color="#E1E3F0"/>
<stop offset="0.7514" stop-color="#F7F7FB"/>
<stop offset="1" stop-color="white"/>
</linearGradient>
<linearGradient id="paint8_linear" x1="661.419" y1="340.489" x2="710.761" y2="340.489" gradientUnits="userSpaceOnUse">
<stop stop-color="#C6CAE3"/>
<stop offset="0.172" stop-color="#D7D9EB"/>
<stop offset="0.4671" stop-color="#EDEEF6"/>
<stop offset="0.7487" stop-color="#FAFBFD"/>
<stop offset="1" stop-color="white" stop-opacity="0"/>
</linearGradient>
<linearGradient id="paint9_linear" x1="716.963" y1="136.663" x2="759.457" y2="136.663" gradientUnits="userSpaceOnUse">
<stop stop-color="#CDC6E3"/>
<stop offset="0.172" stop-color="#DCD7EB"/>
<stop offset="0.4671" stop-color="#EFEDF6"/>
<stop offset="0.7487" stop-color="#FBFAFD" stop-opacity="0.51"/>
<stop offset="1" stop-color="white" stop-opacity="0"/>
</linearGradient>
<linearGradient id="paint10_linear" x1="500.563" y1="346.112" x2="543.772" y2="271.228" gradientUnits="userSpaceOnUse">
<stop stop-color="#D3D8F2"/>
<stop offset="0.319" stop-color="#DDE1F5"/>
<stop offset="0.8585" stop-color="#F8F8FD"/>
<stop offset="0.989" stop-color="white" stop-opacity="0"/>
</linearGradient>
<linearGradient id="paint11_linear" x1="444.562" y1="305.693" x2="467.954" y2="265.152" gradientUnits="userSpaceOnUse">
<stop stop-color="#F8F7FC"/>
<stop offset="1" stop-color="#DAD0F6"/>
</linearGradient>
<linearGradient id="paint12_linear" x1="423.457" y1="301.621" x2="453.867" y2="248.918" gradientUnits="userSpaceOnUse">
<stop stop-color="#49318F"/>
<stop offset="1" stop-color="#7155C6"/>
</linearGradient>
<linearGradient id="paint13_linear" x1="428.615" y1="229.155" x2="413.415" y2="221.213" gradientUnits="userSpaceOnUse">
<stop stop-color="#301C6B"/>
<stop offset="0.1167" stop-color="#382377"/>
<stop offset="0.7129" stop-color="#6147B0"/>
<stop offset="1" stop-color="#7155C6"/>
</linearGradient>
<linearGradient id="paint14_linear" x1="439.367" y1="292.084" x2="513.424" y2="292.084" gradientUnits="userSpaceOnUse">
<stop offset="0.4106" stop-color="#DAD0F6"/>
<stop offset="0.5317" stop-color="#C6BCE4"/>
<stop offset="0.6761" stop-color="#B4A9D3"/>
</linearGradient>
<linearGradient id="paint15_linear" x1="459.296" y1="311.063" x2="494.597" y2="249.883" gradientUnits="userSpaceOnUse">
<stop stop-color="#B4A9D3"/>
<stop offset="0.008038" stop-color="#B8AED6"/>
<stop offset="0.0678605" stop-color="#D7D1E8"/>
<stop offset="0.1243" stop-color="#EDEAF4"/>
<stop offset="0.1755" stop-color="#FBFAFC"/>
<stop offset="0.2168" stop-color="white"/>
</linearGradient>
<linearGradient id="paint16_linear" x1="503.136" y1="339.54" x2="526.527" y2="299.001" gradientUnits="userSpaceOnUse">
<stop stop-color="#F8F7FC"/>
<stop offset="1" stop-color="#DAD0F6"/>
</linearGradient>
<linearGradient id="paint17_linear" x1="482.031" y1="335.469" x2="512.441" y2="282.766" gradientUnits="userSpaceOnUse">
<stop stop-color="#49318F"/>
<stop offset="1" stop-color="#7155C6"/>
</linearGradient>
<linearGradient id="paint18_linear" x1="431.721" y1="242.129" x2="521.081" y2="242.129" gradientUnits="userSpaceOnUse">
<stop offset="0.5143" stop-color="#DAD0F6"/>
<stop offset="0.6822" stop-color="#C7BDE4"/>
</linearGradient>
<linearGradient id="paint19_linear" x1="474.83" y1="208.732" x2="518.206" y2="208.732" gradientUnits="userSpaceOnUse">
<stop stop-color="#DBD3F2"/>
<stop offset="0.5546" stop-color="#F1EEFA"/>
<stop offset="1" stop-color="white"/>
</linearGradient>
<linearGradient id="paint20_linear" x1="447.476" y1="185.684" x2="469.512" y2="223.875" gradientUnits="userSpaceOnUse">
<stop offset="0.2259" stop-color="#AFA5CE"/>
<stop offset="0.2754" stop-color="#B8BCD9"/>
<stop offset="0.3758" stop-color="#EDEAF5"/>
<stop offset="0.4" stop-color="#F8F7FC"/>
</linearGradient>
<linearGradient id="paint21_linear" x1="476.884" y1="216.677" x2="446.77" y2="183.001" gradientUnits="userSpaceOnUse">
<stop stop-color="#301C6B"/>
<stop offset="0.26" stop-color="#3E287E"/>
<stop offset="0.7864" stop-color="#6147B0"/>
<stop offset="1" stop-color="#7155C6"/>
</linearGradient>
<linearGradient id="paint22_linear" x1="457.855" y1="202.275" x2="457.855" y2="181.361" gradientUnits="userSpaceOnUse">
<stop offset="0.0712081" stop-color="#F8F7FC"/>
<stop offset="0.531" stop-color="#E2DDF1"/>
<stop offset="1" stop-color="#CEC6E7"/>
</linearGradient>
<linearGradient id="paint23_linear" x1="466.731" y1="170.9" x2="491.941" y2="214.591" gradientUnits="userSpaceOnUse">
<stop stop-color="#F8F7FC"/>
<stop offset="0.3348" stop-color="#E6E1F3"/>
<stop offset="0.7836" stop-color="#C7BDE4"/>
</linearGradient>
<linearGradient id="paint24_linear" x1="515.348" y1="233.442" x2="472.615" y2="282.515" gradientUnits="userSpaceOnUse">
<stop stop-color="#7155C6"/>
<stop offset="0.2871" stop-color="#6147B0"/>
<stop offset="0.8833" stop-color="#382377"/>
<stop offset="1" stop-color="#301C6B"/>
</linearGradient>
<linearGradient id="paint25_linear" x1="623.152" y1="275.348" x2="666.36" y2="200.465" gradientUnits="userSpaceOnUse">
<stop stop-color="#D3D8F2"/>
<stop offset="0.319" stop-color="#DDE1F5"/>
<stop offset="0.8585" stop-color="#F8F8FD" stop-opacity="0.46"/>
<stop offset="0.989" stop-color="white" stop-opacity="0"/>
</linearGradient>
<linearGradient id="paint26_linear" x1="567.151" y1="234.929" x2="590.543" y2="194.389" gradientUnits="userSpaceOnUse">
<stop stop-color="#F8F7FC"/>
<stop offset="1" stop-color="#DAD0F6"/>
</linearGradient>
<linearGradient id="paint27_linear" x1="546.046" y1="230.857" x2="576.456" y2="178.155" gradientUnits="userSpaceOnUse">
<stop stop-color="#49318F"/>
<stop offset="1" stop-color="#7155C6"/>
</linearGradient>
<linearGradient id="paint28_linear" x1="552.888" y1="157.065" x2="537.57" y2="149.355" gradientUnits="userSpaceOnUse">
<stop stop-color="#1E1C6B"/>
<stop offset="0.1167" stop-color="#252377"/>
<stop offset="0.7129" stop-color="#4847B0"/>
<stop offset="1" stop-color="#5555C6"/>
</linearGradient>
<linearGradient id="paint29_linear" x1="561.955" y1="221.321" x2="636.013" y2="221.321" gradientUnits="userSpaceOnUse">
<stop offset="0.4106" stop-color="#DAD0F6"/>
<stop offset="0.5317" stop-color="#C6BCE4"/>
<stop offset="0.6761" stop-color="#B4A9D3"/>
</linearGradient>
<linearGradient id="paint30_linear" x1="581.885" y1="240.298" x2="617.186" y2="179.12" gradientUnits="userSpaceOnUse">
<stop stop-color="#B4A9D3"/>
<stop offset="0.008038" stop-color="#B8AED6"/>
<stop offset="0.0678605" stop-color="#D7D1E8"/>
<stop offset="0.1243" stop-color="#EDEAF4"/>
<stop offset="0.1755" stop-color="#FBFAFC"/>
<stop offset="0.2168" stop-color="white"/>
</linearGradient>
<linearGradient id="paint31_linear" x1="625.724" y1="268.777" x2="649.116" y2="228.237" gradientUnits="userSpaceOnUse">
<stop stop-color="#F8F7FC"/>
<stop offset="1" stop-color="#DAD0F6"/>
</linearGradient>
<linearGradient id="paint32_linear" x1="604.621" y1="264.706" x2="635.03" y2="212.003" gradientUnits="userSpaceOnUse">
<stop stop-color="#49318F"/>
<stop offset="1" stop-color="#7155C6"/>
</linearGradient>
<linearGradient id="paint33_linear" x1="569.313" y1="187.401" x2="610.646" y2="115.768" gradientUnits="userSpaceOnUse">
<stop offset="0.382" stop-color="#DBD3F2"/>
<stop offset="0.6108" stop-color="#F3F0FA"/>
<stop offset="0.6629" stop-color="#F7F7FC"/>
</linearGradient>
<linearGradient id="paint34_linear" x1="637.938" y1="162.679" x2="595.204" y2="211.753" gradientUnits="userSpaceOnUse">
<stop stop-color="#7155C6"/>
<stop offset="0.2871" stop-color="#6147B0"/>
<stop offset="0.8833" stop-color="#382377"/>
<stop offset="1" stop-color="#301C6B"/>
</linearGradient>
<linearGradient id="paint35_linear" x1="598.842" y1="126.164" x2="638.998" y2="126.164" gradientUnits="userSpaceOnUse">
<stop stop-color="#DBD3F2"/>
<stop offset="0.5546" stop-color="#F1EEFA"/>
<stop offset="1" stop-color="white"/>
</linearGradient>
<linearGradient id="paint36_linear" x1="580.221" y1="125.799" x2="617.496" y2="125.799" gradientUnits="userSpaceOnUse">
<stop stop-color="#DAD0F6"/>
<stop offset="1" stop-color="#C7BDE4"/>
</linearGradient>
<radialGradient id="paint37_radial" cx="0" cy="0" r="1" gradientUnits="userSpaceOnUse" gradientTransform="translate(591.802 100.436) scale(31.3653 31.3467)">
<stop stop-color="#F8F7FC"/>
<stop offset="0.5274" stop-color="#E0DAF0"/>
<stop offset="1" stop-color="#C7BDE4"/>
</radialGradient>
<radialGradient id="paint38_radial" cx="0" cy="0" r="1" gradientUnits="userSpaceOnUse" gradientTransform="translate(597.66 83.7561) scale(4.57935 4.57701)">
<stop stop-color="#F7C479"/>
<stop offset="0.3416" stop-color="#DF9D60"/>
<stop offset="0.7785" stop-color="#C47143"/>
<stop offset="1" stop-color="#BA6038"/>
</radialGradient>
<linearGradient id="paint39_linear" x1="107.737" y1="465.891" x2="555.248" y2="465.891" gradientUnits="userSpaceOnUse">
<stop stop-color="#DFDAEF"/>
<stop offset="1" stop-color="white" stop-opacity="0"/>
</linearGradient>
<linearGradient id="paint40_linear" x1="96.3923" y1="429.726" x2="196.783" y2="429.726" gradientUnits="userSpaceOnUse">
<stop stop-color="#9C7FF4"/>
<stop offset="0.3045" stop-color="#6F5AAD"/>
<stop offset="1"/>
</linearGradient>
<linearGradient id="paint41_linear" x1="96.3261" y1="556.716" x2="114.315" y2="525.54" gradientUnits="userSpaceOnUse">
<stop stop-color="#9C7FF4"/>
<stop offset="0.614" stop-color="#C4B3F5"/>
<stop offset="1" stop-color="#DAD0F6"/>
</linearGradient>
<linearGradient id="paint42_linear" x1="226.551" y1="224.412" x2="123.681" y2="315.625" gradientUnits="userSpaceOnUse">
<stop stop-color="#9C7FF4"/>
<stop offset="0.3487" stop-color="#AF98F5"/>
<stop offset="1" stop-color="#DAD0F6"/>
</linearGradient>
<linearGradient id="paint43_linear" x1="639.796" y1="109.278" x2="660.139" y2="74.0217" gradientUnits="userSpaceOnUse">
<stop stop-color="#49318F"/>
<stop offset="0.1937" stop-color="#4D3594"/>
<stop offset="0.4363" stop-color="#583FA4"/>
<stop offset="0.705" stop-color="#6C51BD"/>
<stop offset="0.9908" stop-color="#6969E1"/>
<stop offset="1" stop-color="#886AE2"/>
</linearGradient>
<linearGradient id="paint44_linear" x1="250.257" y1="77.7297" x2="257.775" y2="77.7297" gradientUnits="userSpaceOnUse">
<stop stop-color="#886AE2"/>
<stop offset="1" stop-color="#49318F"/>
</linearGradient>
<linearGradient id="paint45_linear" x1="200.245" y1="34.6942" x2="208.015" y2="34.6942" gradientUnits="userSpaceOnUse">
<stop stop-color="#886AE2"/>
<stop offset="1" stop-color="#49318F"/>
</linearGradient>
<linearGradient id="paint46_linear" x1="198.892" y1="27.722" x2="209.306" y2="27.722" gradientUnits="userSpaceOnUse">
<stop stop-color="#DAD0F6"/>
<stop offset="1" stop-color="#C7BDE4"/>
</linearGradient>
<linearGradient id="paint47_linear" x1="266.187" y1="65.7246" x2="241.859" y2="41.3827" gradientUnits="userSpaceOnUse">
<stop stop-color="#7155C6"/>
<stop offset="1" stop-color="#9C7FF4"/>
</linearGradient>
<linearGradient id="paint48_linear" x1="242.086" y1="72.7794" x2="265.947" y2="72.7794" gradientUnits="userSpaceOnUse">
<stop stop-color="#C7BDE4"/>
<stop offset="1" stop-color="#DAD0F6"/>
</linearGradient>
<linearGradient id="paint49_linear" x1="200.245" y1="92.2992" x2="208.015" y2="92.2992" gradientUnits="userSpaceOnUse">
<stop stop-color="#886AE2"/>
<stop offset="1" stop-color="#49318F"/>
</linearGradient>
<linearGradient id="paint50_linear" x1="198.892" y1="85.3272" x2="209.306" y2="85.3272" gradientUnits="userSpaceOnUse">
<stop stop-color="#DAD0F6"/>
<stop offset="1" stop-color="#C7BDE4"/>
</linearGradient>
<linearGradient id="paint51_linear" x1="300.017" y1="34.6942" x2="307.787" y2="34.6942" gradientUnits="userSpaceOnUse">
<stop stop-color="#886AE2"/>
<stop offset="1" stop-color="#49318F"/>
</linearGradient>
<linearGradient id="paint52_linear" x1="298.725" y1="27.722" x2="309.14" y2="27.722" gradientUnits="userSpaceOnUse">
<stop stop-color="#DAD0F6"/>
<stop offset="1" stop-color="#C7BDE4"/>
</linearGradient>
<linearGradient id="paint53_linear" x1="300.017" y1="92.2992" x2="307.787" y2="92.2992" gradientUnits="userSpaceOnUse">
<stop stop-color="#886AE2"/>
<stop offset="1" stop-color="#49318F"/>
</linearGradient>
<linearGradient id="paint54_linear" x1="298.725" y1="85.3272" x2="309.14" y2="85.3272" gradientUnits="userSpaceOnUse">
<stop stop-color="#DAD0F6"/>
<stop offset="1" stop-color="#C7BDE4"/>
</linearGradient>
<linearGradient id="paint55_linear" x1="201.528" y1="23.1229" x2="206.67" y2="23.1229" gradientUnits="userSpaceOnUse">
<stop stop-color="#F2BD42"/>
<stop offset="1" stop-color="#D18F2F"/>
</linearGradient>
<linearGradient id="paint56_linear" x1="301.362" y1="80.7278" x2="306.504" y2="80.7278" gradientUnits="userSpaceOnUse">
<stop stop-color="#F2BD42"/>
<stop offset="1" stop-color="#D18F2F"/>
</linearGradient>
<linearGradient id="paint57_linear" x1="306.504" y1="23.1229" x2="301.362" y2="23.1229" gradientUnits="userSpaceOnUse">
<stop stop-color="#F2BD42"/>
<stop offset="1" stop-color="#D18F2F"/>
</linearGradient>
<linearGradient id="paint58_linear" x1="206.67" y1="80.7276" x2="201.528" y2="80.7276" gradientUnits="userSpaceOnUse">
<stop stop-color="#F2BD42"/>
<stop offset="1" stop-color="#D18F2F"/>
</linearGradient>
<clipPath id="clip0">
<rect width="138.7" height="99.1" fill="white" transform="translate(241.457 271)"/>
</clipPath>
</defs>
</svg>
