<svg width="232" height="56" viewBox="0 0 232 56" fill="none" xmlns="http://www.w3.org/2000/svg">
<path d="M55.9786 0H0V56H55.9786V0Z" fill="#FFD303"/>
<path d="M27.9893 28H55.9785L27.9893 0V28Z" fill="#F9F6FF"/>
<path d="M27.9893 28H7.46387L27.9893 48.5333V28Z" fill="#F9F6FF"/>
<path d="M75.1045 32.9778C75.882 32.9778 76.504 32.8223 77.126 32.6667C77.7479 32.3556 78.2144 32.0445 78.8364 31.4223L80.2359 32.8223C78.8364 34.3778 77.126 35.1556 75.26 35.1556C73.2386 35.1556 71.6836 34.5334 70.2841 33.2889C69.0402 32.0445 68.2627 30.4889 68.2627 28.4667C68.2627 26.6001 68.8847 24.8889 70.2841 23.6445C71.6836 22.4001 73.2386 21.7778 75.26 21.7778C77.2815 21.7778 78.9919 22.5556 80.3914 23.9556L78.9919 25.5112C78.3699 24.8889 77.7479 24.4223 77.2815 24.2667C76.6595 23.9556 76.0375 23.9556 75.26 23.9556C74.016 23.9556 72.7721 24.4223 71.9946 25.2001C71.0616 25.9778 70.5951 27.0667 70.5951 28.4667C70.5951 29.8667 71.0616 30.9556 71.9946 31.7334C72.7721 32.5112 73.8605 32.9778 75.1045 32.9778Z" fill="#190E38"/>
<path d="M93.453 33.1334C92.209 34.3779 90.4986 35.0001 88.6326 35.0001C86.7666 35.0001 85.0562 34.3779 83.8122 33.1334C82.5683 31.889 81.7908 30.1779 81.7908 28.3112C81.7908 26.4445 82.4128 24.7334 83.8122 23.489C85.0562 22.2445 86.7666 21.6223 88.6326 21.6223C90.4986 21.6223 92.209 22.2445 93.453 23.489C94.6969 24.7334 95.4744 26.4445 95.4744 28.3112C95.4744 30.3334 94.8524 31.889 93.453 33.1334ZM91.898 25.0445C90.965 24.1112 89.8766 23.6445 88.6326 23.6445C87.3886 23.6445 86.3002 24.1112 85.3672 25.0445C84.4342 25.9779 83.9677 27.0668 83.9677 28.4668C83.9677 29.7112 84.4342 30.9556 85.3672 31.889C86.3002 32.8223 87.3886 33.289 88.6326 33.289C89.8766 33.289 90.965 32.8223 91.898 31.889C92.831 30.9556 93.2975 29.8668 93.2975 28.4668C93.142 27.0668 92.831 25.9779 91.898 25.0445Z" fill="#190E38"/>
<path d="M100.45 35H98.2734V21.9333H101.694L105.582 30.1778L109.469 21.9333H112.89V35H110.713V24.7333L106.204 33.7556H104.96L100.45 24.7333V35Z" fill="#190E38"/>
<path d="M125.33 23.0222C126.263 23.8 126.729 24.8889 126.729 26.6C126.729 28.1556 126.263 29.4 125.33 30.0222C124.397 30.8 122.997 31.1111 121.131 31.1111H118.799V35H116.622V21.9333H121.131C122.997 21.9333 124.552 22.4 125.33 23.0222ZM123.775 28.4667C124.241 28 124.397 27.3778 124.397 26.4445C124.397 25.5111 124.086 24.8889 123.619 24.5778C122.997 24.2667 122.22 23.9556 120.976 23.9556H118.799V29.2445H121.287C122.531 29.2445 123.464 28.9333 123.775 28.4667Z" fill="#190E38"/>
<path d="M130.461 32.0445L129.217 35H126.885L132.638 21.9333H134.97L140.724 35H138.391L137.147 32.0445H130.461ZM136.059 30.0222L133.726 24.5778L131.394 30.0222H136.059Z" fill="#190E38"/>
<path d="M152.23 21.9333H154.407V35H152.075L144.611 25.5111V35H142.434V21.9333H144.611L152.23 31.7333V21.9333Z" fill="#190E38"/>
<path d="M163.271 35H161.094V29.8667L156.273 21.9333H158.606L162.182 27.8445L165.759 21.9333H168.091L163.271 29.8667V35Z" fill="#190E38"/>
<path d="M184.574 21.9333H186.751V35H184.418L176.954 25.5111V35H174.777V21.9333H176.954L184.574 31.7333V21.9333Z" fill="#190E38"/>
<path d="M192.348 32.0445L191.105 35H188.772L194.525 21.9333H196.858L202.611 35H200.279L199.035 32.0445H192.348ZM197.946 30.0222L195.614 24.5778L193.281 30.0222H197.946Z" fill="#190E38"/>
<path d="M206.499 35H204.322V21.9333H207.743L211.63 30.1778L215.517 21.9333H218.938V35H216.761V24.7333L212.252 33.7556H211.008L206.499 24.7333V35Z" fill="#190E38"/>
<path d="M231.844 21.9334V23.9556H224.847V27.3778H231.067V29.4001H224.847V32.8223H232V34.8445H222.67V21.7778H231.844V21.9334Z" fill="#190E38"/>
</svg>
