<svg width="64" height="64" viewBox="0 0 64 64" fill="none" xmlns="http://www.w3.org/2000/svg">
<path d="M62.0518 36.1866C55.3283 25.8915 56.043 15.3386 52.8021 10.3768C49.5612 5.41507 39.9025 -3.1396 17.0812 11.7671C-5.74015 26.6737 0.064291 42.8782 3.63051 48.3342C20.3203 73.8844 73.9612 54.4195 62.0518 36.1866Z" fill="white"/>
<path d="M20.8887 19.1111V30.6666C20.8887 32.6311 22.4798 34.2222 24.4442 34.2222H34.5633L30.0673 21.4826C29.566 20.0604 28.222 19.1111 26.7144 19.1111H20.8887Z" fill="#FFD303"/>
<path d="M24.4445 34.2223C22.4889 34.2223 20.8889 32.6223 20.8889 30.6667V29.7778H15.5556C13.6 29.7778 12 31.3778 12 33.3334V41.3334C12 42.3112 12.8 43.1112 13.7778 43.1112H15.1111H34.6667H38.6667V34.2223H24.4445Z" fill="#F9F6FF"/>
<path d="M18.6668 46.6668C20.385 46.6668 21.7779 45.2739 21.7779 43.5557C21.7779 41.8374 20.385 40.4445 18.6668 40.4445C16.9486 40.4445 15.5557 41.8374 15.5557 43.5557C15.5557 45.2739 16.9486 46.6668 18.6668 46.6668Z" fill="#F3F3F1"/>
<path d="M31.1111 46.6668C32.8293 46.6668 34.2222 45.2739 34.2222 43.5557C34.2222 41.8374 32.8293 40.4445 31.1111 40.4445C29.3929 40.4445 28 41.8374 28 43.5557C28 45.2739 29.3929 46.6668 31.1111 46.6668Z" fill="#F3F3F1"/>
<path opacity="0.1" d="M24.8887 30.6666V19.1111H20.8887V30.6666C20.8887 32.6311 22.4798 34.2222 24.4442 34.2222H28.4442C26.4798 34.2222 24.8887 32.6311 24.8887 30.6666Z" fill="#190E38"/>
<path opacity="0.1" d="M16 41.3334V33.3334C16 31.3778 17.6 29.7778 19.5556 29.7778H15.5556C13.6 29.7778 12 31.3778 12 33.3334V41.3334C12 42.3112 12.8 43.1112 13.7778 43.1112H15.1111H17.7778C16.8 43.1112 16 42.3112 16 41.3334Z" fill="#190E38"/>
<path opacity="0.1" d="M19.5557 43.5556C19.5557 42.6027 19.993 41.7618 20.6668 41.1911C20.1246 40.7324 19.433 40.4444 18.6668 40.4444C16.9494 40.4444 15.5557 41.8382 15.5557 43.5556C15.5557 45.2729 16.9494 46.6667 18.6668 46.6667C19.433 46.6667 20.1246 46.3787 20.6668 45.92C19.993 45.3493 19.5557 44.5084 19.5557 43.5556Z" fill="#190E38"/>
<path opacity="0.1" d="M32 43.5556C32 42.6027 32.4373 41.7618 33.1111 41.1911C32.5689 40.7324 31.8773 40.4444 31.1111 40.4444C29.3938 40.4444 28 41.8382 28 43.5556C28 45.2729 29.3938 46.6667 31.1111 46.6667C31.8773 46.6667 32.5689 46.3787 33.1111 45.92C32.4373 45.3493 32 44.5084 32 43.5556Z" fill="#190E38"/>
<path d="M19.1343 12.7184L21.6484 10.2042L22.9055 11.4613L20.3914 13.9754L19.1343 12.7184Z" fill="#190E38"/>
<path d="M11.9058 19.9457L14.4199 17.4315L15.677 18.6886L13.1628 21.2027L11.9058 19.9457Z" fill="#190E38"/>
<path d="M11.9077 11.1472L13.1648 9.89015L15.6789 12.4043L14.4219 13.6614L11.9077 11.1472Z" fill="#190E38"/>
<path d="M47.111 38.2222C45.6408 38.2222 44.4443 37.0257 44.4443 35.5555C44.4443 34.0853 45.6408 32.8888 47.111 32.8888C48.5812 32.8888 49.7777 34.0853 49.7777 35.5555C49.7777 37.0257 48.5812 38.2222 47.111 38.2222ZM47.111 34.6666C46.6221 34.6666 46.2221 35.0648 46.2221 35.5555C46.2221 36.0461 46.6221 36.4444 47.111 36.4444C47.5999 36.4444 47.9999 36.0461 47.9999 35.5555C47.9999 35.0648 47.5999 34.6666 47.111 34.6666Z" fill="#190E38"/>
<path d="M34.5619 35.5556H24.4445C21.7477 35.5556 19.5557 33.3636 19.5557 30.6667V19.1112C19.5557 18.3752 20.153 17.7778 20.889 17.7778H26.713C28.7823 17.7778 30.6348 19.0881 31.3228 21.0401L35.8188 33.7778C35.9628 34.1849 35.9005 34.6383 35.6499 34.9921C35.3992 35.3458 34.9957 35.5556 34.5619 35.5556ZM22.2223 20.4445V30.6667C22.2223 31.8916 23.2197 32.8889 24.4445 32.8889H32.6774L28.809 21.9272C28.4961 21.0401 27.6552 20.4445 26.713 20.4445H22.2223Z" fill="#190E38"/>
<path d="M38.6665 44.4445H34.6665V41.7778H37.3332V35.5556H24.4443C21.8967 35.5556 19.8007 33.6 19.5767 31.1111H15.5554C14.3305 31.1111 13.3332 32.1085 13.3332 33.3333V41.3333C13.3332 41.5751 13.5358 41.7778 13.7776 41.7778H15.1109V44.4445H13.7776C12.0621 44.4445 10.6665 43.0489 10.6665 41.3333V33.3333C10.6665 30.6365 12.8585 28.4445 15.5554 28.4445H20.8887C21.6247 28.4445 22.2221 29.0418 22.2221 29.7778V30.6667C22.2221 31.8916 23.2194 32.8889 24.4443 32.8889H38.6665C39.4025 32.8889 39.9998 33.4862 39.9998 34.2222V43.1111C39.9998 43.8471 39.4025 44.4445 38.6665 44.4445Z" fill="#190E38"/>
<path d="M22.2222 41.7778H27.5555V44.4445H22.2222V41.7778Z" fill="#190E38"/>
<path d="M52.0002 44.4445H38.6668C37.9308 44.4445 37.3335 43.8472 37.3335 43.1112V17.3334H40.0002V41.7778H52.0002V44.4445Z" fill="#190E38"/>
<path d="M18.6666 48C16.2151 48 14.2222 46.0053 14.2222 43.5555C14.2222 41.1058 16.2151 39.1111 18.6666 39.1111C21.1182 39.1111 23.1111 41.1058 23.1111 43.5555C23.1111 46.0053 21.1182 48 18.6666 48ZM18.6666 41.7778C17.6853 41.7778 16.8888 42.576 16.8888 43.5555C16.8888 44.5351 17.6853 45.3333 18.6666 45.3333C19.6479 45.3333 20.4444 44.5351 20.4444 43.5555C20.4444 42.576 19.6479 41.7778 18.6666 41.7778Z" fill="#190E38"/>
<path d="M31.1109 48C28.6594 48 26.6665 46.0053 26.6665 43.5555C26.6665 41.1058 28.6594 39.1111 31.1109 39.1111C33.5625 39.1111 35.5554 41.1058 35.5554 43.5555C35.5554 46.0053 33.5625 48 31.1109 48ZM31.1109 41.7778C30.1296 41.7778 29.3332 42.576 29.3332 43.5555C29.3332 44.5351 30.1296 45.3333 31.1109 45.3333C32.0923 45.3333 32.8887 44.5351 32.8887 43.5555C32.8887 42.576 32.0923 41.7778 31.1109 41.7778Z" fill="#190E38"/>
</svg>
