<svg width="64" height="64" viewBox="0 0 64 64" fill="none" xmlns="http://www.w3.org/2000/svg">
<path d="M14.8925 7.40799C27.1894 7.40799 35.6339 1.03821 41.5592 1.03821C47.4846 1.03821 59.929 4.44443 59.929 31.7031C59.929 58.9618 43.1877 62.9618 36.6703 62.9618C6.15122 62.9635 -6.88523 7.40799 14.8925 7.40799Z" fill="white"/>
<path d="M52 32V50.2222C52 51.2 51.2 52 50.2222 52H13.7778C12.8 52 12 51.2 12 50.2222V32C12 20.9547 20.9547 12 32 12C43.0453 12 52 20.9547 52 32Z" fill="#F9F6FF"/>
<path d="M32 42.2222H44V51.9999H32V42.2222Z" fill="#FFD303"/>
<path d="M26.2222 31.5555H37.7777V42.2222H26.2222V31.5555Z" fill="#FFD303"/>
<path d="M20 42.2222H32V51.9999H20V42.2222Z" fill="#FFD303"/>
<path opacity="0.1" d="M16 50.2222V32C16 21.6302 23.8933 13.104 34 12.1013C33.3422 12.0356 32.6756 12 32 12C20.9547 12 12 20.9547 12 32V50.2222C12 51.2 12.8 52 13.7778 52H17.7778C16.8 52 16 51.2 16 50.2222Z" fill="#190E38"/>
<path opacity="0.1" d="M32 42.2222H36V51.9999H32V42.2222Z" fill="#190E38"/>
<path opacity="0.1" d="M26.2222 31.5555H30.2222V42.2222H26.2222V31.5555Z" fill="#190E38"/>
<path opacity="0.1" d="M20 42.2222H24V51.9999H20V42.2222Z" fill="#190E38"/>
<path d="M15.6523 9.1727L18.1665 6.65854L19.4236 7.91562L16.9094 10.4298L15.6523 9.1727Z" fill="#190E38"/>
<path d="M8.42407 16.3982L10.9382 13.884L12.1953 15.1411L9.68115 17.6553L8.42407 16.3982Z" fill="#190E38"/>
<path d="M8.42578 7.59803L9.68286 6.34095L12.197 8.85511L10.9399 10.1122L8.42578 7.59803Z" fill="#190E38"/>
<path d="M54.526 18.4373C53.0558 18.4373 51.8594 17.2409 51.8594 15.7706C51.8594 14.3004 53.0558 13.104 54.526 13.104C55.9963 13.104 57.1927 14.3004 57.1927 15.7706C57.1927 17.2409 55.9963 18.4373 54.526 18.4373ZM54.526 14.8817C54.0372 14.8817 53.6372 15.28 53.6372 15.7706C53.6372 16.2613 54.0372 16.6595 54.526 16.6595C55.0149 16.6595 55.4149 16.2613 55.4149 15.7706C55.4149 15.28 55.0149 14.8817 54.526 14.8817Z" fill="#190E38"/>
<path d="M50.2221 53.3333H13.7776C12.0621 53.3333 10.6665 51.9377 10.6665 50.2222V32C10.6665 20.2364 20.2363 10.6666 31.9998 10.6666C43.7634 10.6666 53.3332 20.2364 53.3332 32V50.2222C53.3332 51.9377 51.9376 53.3333 50.2221 53.3333ZM31.9998 13.3333C21.7065 13.3333 13.3332 21.7066 13.3332 32V50.2222C13.3332 50.464 13.5358 50.6666 13.7776 50.6666H50.2221C50.4638 50.6666 50.6665 50.464 50.6665 50.2222V32C50.6665 21.7066 42.2932 13.3333 31.9998 13.3333Z" fill="#190E38"/>
<path d="M43.9998 53.3334H31.9998C31.2638 53.3334 30.6665 52.736 30.6665 52V42.2223C30.6665 41.4862 31.2638 40.8889 31.9998 40.8889H43.9998C44.7358 40.8889 45.3332 41.4862 45.3332 42.2223V52C45.3332 52.736 44.7358 53.3334 43.9998 53.3334ZM33.3332 50.6667H42.6665V43.5556H33.3332V50.6667Z" fill="#190E38"/>
<path d="M37.7776 43.5555H26.222C25.486 43.5555 24.8887 42.9582 24.8887 42.2222V31.5555C24.8887 30.8195 25.486 30.2222 26.222 30.2222H37.7776C38.5136 30.2222 39.1109 30.8195 39.1109 31.5555V42.2222C39.1109 42.9582 38.5136 43.5555 37.7776 43.5555ZM27.5553 40.8888H36.4442V32.8888H27.5553V40.8888Z" fill="#190E38"/>
<path d="M31.9998 53.3334H19.9998C19.2638 53.3334 18.6665 52.736 18.6665 52V42.2223C18.6665 41.4862 19.2638 40.8889 19.9998 40.8889H31.9998C32.7358 40.8889 33.3332 41.4862 33.3332 42.2223V52C33.3332 52.736 32.7358 53.3334 31.9998 53.3334ZM21.3332 50.6667H30.6665V43.5556H21.3332V50.6667Z" fill="#190E38"/>
<path d="M30.6665 30.2222H33.3332V35.5555H30.6665V30.2222Z" fill="#190E38"/>
<path d="M24.8887 40.8889H27.5553V46.2223H24.8887V40.8889Z" fill="#190E38"/>
<path d="M36.4443 40.8889H39.111V46.2223H36.4443V40.8889Z" fill="#190E38"/>
</svg>
