<?xml version="1.0" standalone="no"?>
<!DOCTYPE svg PUBLIC "-//W3C//DTD SVG 20010904//EN"
 "http://www.w3.org/TR/2001/REC-SVG-20010904/DTD/svg10.dtd">
<svg version="1.0" xmlns="http://www.w3.org/2000/svg"
 width="216.000000pt" height="216.000000pt" viewBox="0 0 216.000000 216.000000"
 preserveAspectRatio="xMidYMid meet">
<metadata>
Created by potrace 1.11, written by Peter Selinger 2001-2013
</metadata>
<g transform="translate(0.000000,216.000000) scale(0.100000,-0.100000)"
fill="#000000" stroke="none">
<path d="M970 1446 c0 -594 -5 -716 -31 -716 -5 0 -9 -5 -9 -10 0 -30 -46
-101 -79 -123 -37 -25 -113 -45 -185 -50 l-38 -2 58 -63 c33 -34 75 -81 94
-103 81 -92 180 -192 180 -182 0 6 15 15 33 19 94 20 210 97 284 188 21 25 73
143 73 164 0 6 4 12 10 14 5 1 17 49 25 105 13 84 15 210 13 735 l-3 633 -212
3 -213 2 0 -614z"/>
</g>
</svg>
